G04 #@! TF.GenerationSoftware,KiCad,Pcbnew,(5.1.4)-1*
G04 #@! TF.CreationDate,2019-09-13T20:49:43-04:00*
G04 #@! TF.ProjectId,i2c-moist-sensor,6932632d-6d6f-4697-9374-2d73656e736f,rev?*
G04 #@! TF.SameCoordinates,Original*
G04 #@! TF.FileFunction,Legend,Bot*
G04 #@! TF.FilePolarity,Positive*
%FSLAX46Y46*%
G04 Gerber Fmt 4.6, Leading zero omitted, Abs format (unit mm)*
G04 Created by KiCad (PCBNEW (5.1.4)-1) date 2019-09-13 20:49:43*
%MOMM*%
%LPD*%
G04 APERTURE LIST*
%ADD10C,0.120000*%
%ADD11C,0.150000*%
%ADD12C,3.200000*%
%ADD13R,0.800000X3.000000*%
%ADD14R,1.200000X0.900000*%
%ADD15R,1.200000X0.750000*%
%ADD16R,1.900000X0.800000*%
%ADD17R,1.000000X1.000000*%
%ADD18O,1.000000X1.000000*%
G04 APERTURE END LIST*
D10*
X53904500Y-37114500D02*
X53904500Y-37749500D01*
X53904500Y-37749500D02*
X60572000Y-37749500D01*
X60572000Y-37749500D02*
X60572000Y-37114500D01*
X60572000Y-37114500D02*
X53904500Y-37114500D01*
X53250000Y-57320000D02*
X52250000Y-57320000D01*
X52250000Y-58680000D02*
X53250000Y-58680000D01*
X53000000Y-63070000D02*
X52000000Y-63070000D01*
X52000000Y-64430000D02*
X53000000Y-64430000D01*
X52000000Y-49680000D02*
X53000000Y-49680000D01*
X53000000Y-48320000D02*
X52000000Y-48320000D01*
X63250000Y-41820000D02*
X62250000Y-41820000D01*
X62250000Y-43180000D02*
X63250000Y-43180000D01*
X51900000Y-32850000D02*
X52600000Y-32850000D01*
X52600000Y-31650000D02*
X51900000Y-31650000D01*
X51900000Y-31600000D02*
X52600000Y-31600000D01*
X52600000Y-30400000D02*
X51900000Y-30400000D01*
X54150000Y-28500000D02*
X54850000Y-28500000D01*
X54850000Y-27300000D02*
X54150000Y-27300000D01*
X56490000Y-31580000D02*
X56490000Y-30650000D01*
X56490000Y-28420000D02*
X56490000Y-29350000D01*
X56490000Y-28420000D02*
X59650000Y-28420000D01*
X56490000Y-31580000D02*
X57950000Y-31580000D01*
X54010000Y-43920000D02*
X52550000Y-43920000D01*
X54010000Y-47080000D02*
X50850000Y-47080000D01*
X54010000Y-47080000D02*
X54010000Y-46150000D01*
X54010000Y-43920000D02*
X54010000Y-44850000D01*
X54133200Y-59670000D02*
X52673200Y-59670000D01*
X54133200Y-62830000D02*
X50973200Y-62830000D01*
X54133200Y-62830000D02*
X54133200Y-61900000D01*
X54133200Y-59670000D02*
X54133200Y-60600000D01*
X54189080Y-53420000D02*
X54189080Y-54350000D01*
X54189080Y-56580000D02*
X54189080Y-55650000D01*
X54189080Y-56580000D02*
X51029080Y-56580000D01*
X54189080Y-53420000D02*
X52729080Y-53420000D01*
D11*
X53567619Y-38000269D02*
X52853333Y-38000269D01*
X52710476Y-38047888D01*
X52615238Y-38143126D01*
X52567619Y-38285983D01*
X52567619Y-38381221D01*
X52567619Y-37000269D02*
X52567619Y-37571697D01*
X52567619Y-37285983D02*
X53567619Y-37285983D01*
X53424761Y-37381221D01*
X53329523Y-37476459D01*
X53281904Y-37571697D01*
X61008619Y-40733976D02*
X61008619Y-41305404D01*
X61008619Y-41019690D02*
X62008619Y-41019690D01*
X61865761Y-41114928D01*
X61770523Y-41210166D01*
X61722904Y-41305404D01*
X62008619Y-40114928D02*
X62008619Y-40019690D01*
X61961000Y-39924452D01*
X61913380Y-39876833D01*
X61818142Y-39829214D01*
X61627666Y-39781595D01*
X61389571Y-39781595D01*
X61199095Y-39829214D01*
X61103857Y-39876833D01*
X61056238Y-39924452D01*
X61008619Y-40019690D01*
X61008619Y-40114928D01*
X61056238Y-40210166D01*
X61103857Y-40257785D01*
X61199095Y-40305404D01*
X61389571Y-40353023D01*
X61627666Y-40353023D01*
X61818142Y-40305404D01*
X61913380Y-40257785D01*
X61961000Y-40210166D01*
X62008619Y-40114928D01*
X52753619Y-33844285D02*
X52753619Y-34415714D01*
X52753619Y-34130000D02*
X53753619Y-34130000D01*
X53610761Y-34225238D01*
X53515523Y-34320476D01*
X53467904Y-34415714D01*
X57642857Y-58452380D02*
X57976190Y-57976190D01*
X58214285Y-58452380D02*
X58214285Y-57452380D01*
X57833333Y-57452380D01*
X57738095Y-57500000D01*
X57690476Y-57547619D01*
X57642857Y-57642857D01*
X57642857Y-57785714D01*
X57690476Y-57880952D01*
X57738095Y-57928571D01*
X57833333Y-57976190D01*
X58214285Y-57976190D01*
X56690476Y-58452380D02*
X57261904Y-58452380D01*
X56976190Y-58452380D02*
X56976190Y-57452380D01*
X57071428Y-57595238D01*
X57166666Y-57690476D01*
X57261904Y-57738095D01*
X56309523Y-57547619D02*
X56261904Y-57500000D01*
X56166666Y-57452380D01*
X55928571Y-57452380D01*
X55833333Y-57500000D01*
X55785714Y-57547619D01*
X55738095Y-57642857D01*
X55738095Y-57738095D01*
X55785714Y-57880952D01*
X56357142Y-58452380D01*
X55738095Y-58452380D01*
X57642857Y-64202380D02*
X57976190Y-63726190D01*
X58214285Y-64202380D02*
X58214285Y-63202380D01*
X57833333Y-63202380D01*
X57738095Y-63250000D01*
X57690476Y-63297619D01*
X57642857Y-63392857D01*
X57642857Y-63535714D01*
X57690476Y-63630952D01*
X57738095Y-63678571D01*
X57833333Y-63726190D01*
X58214285Y-63726190D01*
X56690476Y-64202380D02*
X57261904Y-64202380D01*
X56976190Y-64202380D02*
X56976190Y-63202380D01*
X57071428Y-63345238D01*
X57166666Y-63440476D01*
X57261904Y-63488095D01*
X55738095Y-64202380D02*
X56309523Y-64202380D01*
X56023809Y-64202380D02*
X56023809Y-63202380D01*
X56119047Y-63345238D01*
X56214285Y-63440476D01*
X56309523Y-63488095D01*
X56642857Y-49452380D02*
X56976190Y-48976190D01*
X57214285Y-49452380D02*
X57214285Y-48452380D01*
X56833333Y-48452380D01*
X56738095Y-48500000D01*
X56690476Y-48547619D01*
X56642857Y-48642857D01*
X56642857Y-48785714D01*
X56690476Y-48880952D01*
X56738095Y-48928571D01*
X56833333Y-48976190D01*
X57214285Y-48976190D01*
X55690476Y-49452380D02*
X56261904Y-49452380D01*
X55976190Y-49452380D02*
X55976190Y-48452380D01*
X56071428Y-48595238D01*
X56166666Y-48690476D01*
X56261904Y-48738095D01*
X55071428Y-48452380D02*
X54976190Y-48452380D01*
X54880952Y-48500000D01*
X54833333Y-48547619D01*
X54785714Y-48642857D01*
X54738095Y-48833333D01*
X54738095Y-49071428D01*
X54785714Y-49261904D01*
X54833333Y-49357142D01*
X54880952Y-49404761D01*
X54976190Y-49452380D01*
X55071428Y-49452380D01*
X55166666Y-49404761D01*
X55214285Y-49357142D01*
X55261904Y-49261904D01*
X55309523Y-49071428D01*
X55309523Y-48833333D01*
X55261904Y-48642857D01*
X55214285Y-48547619D01*
X55166666Y-48500000D01*
X55071428Y-48452380D01*
X65666666Y-42952380D02*
X66000000Y-42476190D01*
X66238095Y-42952380D02*
X66238095Y-41952380D01*
X65857142Y-41952380D01*
X65761904Y-42000000D01*
X65714285Y-42047619D01*
X65666666Y-42142857D01*
X65666666Y-42285714D01*
X65714285Y-42380952D01*
X65761904Y-42428571D01*
X65857142Y-42476190D01*
X66238095Y-42476190D01*
X64809523Y-41952380D02*
X65000000Y-41952380D01*
X65095238Y-42000000D01*
X65142857Y-42047619D01*
X65238095Y-42190476D01*
X65285714Y-42380952D01*
X65285714Y-42761904D01*
X65238095Y-42857142D01*
X65190476Y-42904761D01*
X65095238Y-42952380D01*
X64904761Y-42952380D01*
X64809523Y-42904761D01*
X64761904Y-42857142D01*
X64714285Y-42761904D01*
X64714285Y-42523809D01*
X64761904Y-42428571D01*
X64809523Y-42380952D01*
X64904761Y-42333333D01*
X65095238Y-42333333D01*
X65190476Y-42380952D01*
X65238095Y-42428571D01*
X65285714Y-42523809D01*
X49666666Y-32857142D02*
X49714285Y-32904761D01*
X49857142Y-32952380D01*
X49952380Y-32952380D01*
X50095238Y-32904761D01*
X50190476Y-32809523D01*
X50238095Y-32714285D01*
X50285714Y-32523809D01*
X50285714Y-32380952D01*
X50238095Y-32190476D01*
X50190476Y-32095238D01*
X50095238Y-32000000D01*
X49952380Y-31952380D01*
X49857142Y-31952380D01*
X49714285Y-32000000D01*
X49666666Y-32047619D01*
X49333333Y-31952380D02*
X48666666Y-31952380D01*
X49095238Y-32952380D01*
X49666666Y-31357142D02*
X49714285Y-31404761D01*
X49857142Y-31452380D01*
X49952380Y-31452380D01*
X50095238Y-31404761D01*
X50190476Y-31309523D01*
X50238095Y-31214285D01*
X50285714Y-31023809D01*
X50285714Y-30880952D01*
X50238095Y-30690476D01*
X50190476Y-30595238D01*
X50095238Y-30500000D01*
X49952380Y-30452380D01*
X49857142Y-30452380D01*
X49714285Y-30500000D01*
X49666666Y-30547619D01*
X48809523Y-30452380D02*
X49000000Y-30452380D01*
X49095238Y-30500000D01*
X49142857Y-30547619D01*
X49238095Y-30690476D01*
X49285714Y-30880952D01*
X49285714Y-31261904D01*
X49238095Y-31357142D01*
X49190476Y-31404761D01*
X49095238Y-31452380D01*
X48904761Y-31452380D01*
X48809523Y-31404761D01*
X48761904Y-31357142D01*
X48714285Y-31261904D01*
X48714285Y-31023809D01*
X48761904Y-30928571D01*
X48809523Y-30880952D01*
X48904761Y-30833333D01*
X49095238Y-30833333D01*
X49190476Y-30880952D01*
X49238095Y-30928571D01*
X49285714Y-31023809D01*
X55166666Y-26857142D02*
X55214285Y-26904761D01*
X55357142Y-26952380D01*
X55452380Y-26952380D01*
X55595238Y-26904761D01*
X55690476Y-26809523D01*
X55738095Y-26714285D01*
X55785714Y-26523809D01*
X55785714Y-26380952D01*
X55738095Y-26190476D01*
X55690476Y-26095238D01*
X55595238Y-26000000D01*
X55452380Y-25952380D01*
X55357142Y-25952380D01*
X55214285Y-26000000D01*
X55166666Y-26047619D01*
X54214285Y-26952380D02*
X54785714Y-26952380D01*
X54500000Y-26952380D02*
X54500000Y-25952380D01*
X54595238Y-26095238D01*
X54690476Y-26190476D01*
X54785714Y-26238095D01*
X61095238Y-30547619D02*
X61190476Y-30500000D01*
X61285714Y-30404761D01*
X61428571Y-30261904D01*
X61523809Y-30214285D01*
X61619047Y-30214285D01*
X61571428Y-30452380D02*
X61666666Y-30404761D01*
X61761904Y-30309523D01*
X61809523Y-30119047D01*
X61809523Y-29785714D01*
X61761904Y-29595238D01*
X61666666Y-29500000D01*
X61571428Y-29452380D01*
X61380952Y-29452380D01*
X61285714Y-29500000D01*
X61190476Y-29595238D01*
X61142857Y-29785714D01*
X61142857Y-30119047D01*
X61190476Y-30309523D01*
X61285714Y-30404761D01*
X61380952Y-30452380D01*
X61571428Y-30452380D01*
X60190476Y-30452380D02*
X60761904Y-30452380D01*
X60476190Y-30452380D02*
X60476190Y-29452380D01*
X60571428Y-29595238D01*
X60666666Y-29690476D01*
X60761904Y-29738095D01*
X55497438Y-44470979D02*
X55592676Y-44423360D01*
X55687914Y-44328121D01*
X55830771Y-44185264D01*
X55926009Y-44137645D01*
X56021247Y-44137645D01*
X55973628Y-44375740D02*
X56068866Y-44328121D01*
X56164104Y-44232883D01*
X56211723Y-44042407D01*
X56211723Y-43709074D01*
X56164104Y-43518598D01*
X56068866Y-43423360D01*
X55973628Y-43375740D01*
X55783152Y-43375740D01*
X55687914Y-43423360D01*
X55592676Y-43518598D01*
X55545057Y-43709074D01*
X55545057Y-44042407D01*
X55592676Y-44232883D01*
X55687914Y-44328121D01*
X55783152Y-44375740D01*
X55973628Y-44375740D01*
X55164104Y-43470979D02*
X55116485Y-43423360D01*
X55021247Y-43375740D01*
X54783152Y-43375740D01*
X54687914Y-43423360D01*
X54640295Y-43470979D01*
X54592676Y-43566217D01*
X54592676Y-43661455D01*
X54640295Y-43804312D01*
X55211723Y-44375740D01*
X54592676Y-44375740D01*
X57345238Y-61797619D02*
X57440476Y-61750000D01*
X57535714Y-61654761D01*
X57678571Y-61511904D01*
X57773809Y-61464285D01*
X57869047Y-61464285D01*
X57821428Y-61702380D02*
X57916666Y-61654761D01*
X58011904Y-61559523D01*
X58059523Y-61369047D01*
X58059523Y-61035714D01*
X58011904Y-60845238D01*
X57916666Y-60750000D01*
X57821428Y-60702380D01*
X57630952Y-60702380D01*
X57535714Y-60750000D01*
X57440476Y-60845238D01*
X57392857Y-61035714D01*
X57392857Y-61369047D01*
X57440476Y-61559523D01*
X57535714Y-61654761D01*
X57630952Y-61702380D01*
X57821428Y-61702380D01*
X57059523Y-60702380D02*
X56440476Y-60702380D01*
X56773809Y-61083333D01*
X56630952Y-61083333D01*
X56535714Y-61130952D01*
X56488095Y-61178571D01*
X56440476Y-61273809D01*
X56440476Y-61511904D01*
X56488095Y-61607142D01*
X56535714Y-61654761D01*
X56630952Y-61702380D01*
X56916666Y-61702380D01*
X57011904Y-61654761D01*
X57059523Y-61607142D01*
X57345238Y-55547619D02*
X57440476Y-55500000D01*
X57535714Y-55404761D01*
X57678571Y-55261904D01*
X57773809Y-55214285D01*
X57869047Y-55214285D01*
X57821428Y-55452380D02*
X57916666Y-55404761D01*
X58011904Y-55309523D01*
X58059523Y-55119047D01*
X58059523Y-54785714D01*
X58011904Y-54595238D01*
X57916666Y-54500000D01*
X57821428Y-54452380D01*
X57630952Y-54452380D01*
X57535714Y-54500000D01*
X57440476Y-54595238D01*
X57392857Y-54785714D01*
X57392857Y-55119047D01*
X57440476Y-55309523D01*
X57535714Y-55404761D01*
X57630952Y-55452380D01*
X57821428Y-55452380D01*
X56535714Y-54785714D02*
X56535714Y-55452380D01*
X56773809Y-54404761D02*
X57011904Y-55119047D01*
X56392857Y-55119047D01*
%LPC*%
D12*
X50500000Y-27500000D03*
X65500000Y-50000000D03*
D13*
X59810000Y-39464000D03*
X54730000Y-35400000D03*
X59810000Y-35400000D03*
X54730000Y-39464000D03*
X58540000Y-39464000D03*
X56000000Y-35400000D03*
X58540000Y-35400000D03*
X56000000Y-39464000D03*
X57270000Y-39464000D03*
X57270000Y-35400000D03*
D14*
X51650000Y-58000000D03*
X53850000Y-58000000D03*
X51400000Y-63750000D03*
X53600000Y-63750000D03*
X53600000Y-49000000D03*
X51400000Y-49000000D03*
X61650000Y-42500000D03*
X63850000Y-42500000D03*
D15*
X51300000Y-32250000D03*
X53200000Y-32250000D03*
X51300000Y-31000000D03*
X53200000Y-31000000D03*
X53550000Y-27900000D03*
X55450000Y-27900000D03*
D16*
X58750000Y-29050000D03*
X58750000Y-30950000D03*
X55750000Y-30000000D03*
D17*
X57750000Y-26250000D03*
D18*
X57750000Y-27520000D03*
D16*
X54750000Y-45500000D03*
X51750000Y-44550000D03*
X51750000Y-46450000D03*
X54873200Y-61250000D03*
X51873200Y-60300000D03*
X51873200Y-62200000D03*
X51929080Y-55950000D03*
X51929080Y-54050000D03*
X54929080Y-55000000D03*
M02*
