G04 #@! TF.GenerationSoftware,KiCad,Pcbnew,(5.1.4)-1*
G04 #@! TF.CreationDate,2019-09-13T20:49:43-04:00*
G04 #@! TF.ProjectId,i2c-moist-sensor,6932632d-6d6f-4697-9374-2d73656e736f,rev?*
G04 #@! TF.SameCoordinates,Original*
G04 #@! TF.FileFunction,Paste,Top*
G04 #@! TF.FilePolarity,Positive*
%FSLAX46Y46*%
G04 Gerber Fmt 4.6, Leading zero omitted, Abs format (unit mm)*
G04 Created by KiCad (PCBNEW (5.1.4)-1) date 2019-09-13 20:49:43*
%MOMM*%
%LPD*%
G04 APERTURE LIST*
%ADD10R,0.994000X1.194000*%
%ADD11R,1.194000X0.994000*%
%ADD12R,1.194000X0.894000*%
%ADD13R,1.194000X0.744000*%
%ADD14R,0.894000X1.194000*%
%ADD15R,0.594000X0.694000*%
%ADD16R,0.994000X2.744000*%
G04 APERTURE END LIST*
D10*
X58346000Y-30654000D03*
X57076000Y-30654000D03*
X55806000Y-30654000D03*
X54536000Y-30654000D03*
X53266000Y-30654000D03*
D11*
X52266000Y-32124000D03*
X52266000Y-33394000D03*
X52266000Y-34664000D03*
X52266000Y-35934000D03*
X52266000Y-37204000D03*
X52266000Y-38474000D03*
X52266000Y-39744000D03*
X52266000Y-41014000D03*
X52266000Y-42284000D03*
D10*
X53216000Y-44154000D03*
X54486000Y-44154000D03*
X55756000Y-44154000D03*
X57026000Y-44154000D03*
X58296000Y-44154000D03*
X59566000Y-44154000D03*
D11*
X63766000Y-42284000D03*
X63766000Y-41014000D03*
X63766000Y-39744000D03*
D12*
X53600000Y-54250000D03*
X51400000Y-54250000D03*
X53600000Y-52000000D03*
X51400000Y-52000000D03*
X60100000Y-67000000D03*
X57900000Y-67000000D03*
X57900000Y-65250000D03*
X60100000Y-65250000D03*
X51400000Y-68750000D03*
X53600000Y-68750000D03*
X53650000Y-67000000D03*
X55850000Y-67000000D03*
X51400000Y-49750000D03*
X53600000Y-49750000D03*
D13*
X58050000Y-63500000D03*
X59950000Y-63500000D03*
X56700000Y-46750000D03*
X54800000Y-46750000D03*
X55700000Y-63500000D03*
X53800000Y-63500000D03*
D12*
X55850000Y-65250000D03*
X53650000Y-65250000D03*
D14*
X53250000Y-57636000D03*
X53250000Y-59836000D03*
X51392000Y-57636000D03*
X51392000Y-59836000D03*
D15*
X59204000Y-68642000D03*
X57804000Y-68642000D03*
X56410000Y-68642000D03*
X55010000Y-68642000D03*
D16*
X60000000Y-50870000D03*
X60000000Y-56630000D03*
X56000000Y-56630000D03*
X56000000Y-50870000D03*
M02*
