M48
; DRILL file {KiCad (5.1.4)-1} date 09/13/19 20:41:34
; FORMAT={-:-/ absolute / inch / decimal}
; #@! TF.CreationDate,2019-09-13T20:41:34-04:00
; #@! TF.GenerationSoftware,Kicad,Pcbnew,(5.1.4)-1
; #@! TF.FileFunction,Plated,1,2,PTH
FMAT,2
INCH
T1C0.0157
T2C0.0256
%
G90
G05
T1
X1.9862Y-2.7362
X1.9882Y-2.6181
X1.9882Y-2.7856
X1.9882Y-2.8346
X1.9882Y-2.8848
X1.9882Y-2.9331
X1.9882Y-2.9823
X1.9882Y-3.0315
X1.9882Y-3.0807
X1.9882Y-3.1299
X1.9882Y-3.1791
X1.9882Y-3.2283
X1.9882Y-3.2776
X1.9882Y-3.3268
X1.9882Y-3.376
X1.9882Y-3.4252
X1.9882Y-3.4744
X1.9882Y-3.5236
X1.9882Y-3.5728
X1.9882Y-3.622
X1.9882Y-3.6713
X1.9882Y-3.7205
X1.9882Y-3.7697
X1.9882Y-3.8189
X1.9882Y-3.8681
X1.9882Y-3.9173
X1.9882Y-3.9665
X1.9882Y-4.0157
X1.9882Y-4.065
X1.9882Y-4.1142
X1.997Y-1.71
X1.998Y-1.3681
X2.0169Y-4.1428
X2.0374Y-2.7362
X2.0394Y-2.5591
X2.0472Y-4.1732
X2.0551Y-1.7052
X2.0551Y-2.622
X2.0749Y-4.2009
X2.0827Y-1.0276
X2.0866Y-2.7854
X2.0866Y-2.8346
X2.0866Y-2.8842
X2.0866Y-2.9331
X2.0866Y-2.9823
X2.0866Y-3.0315
X2.0866Y-3.0807
X2.0866Y-3.1299
X2.0866Y-3.1791
X2.0866Y-3.2283
X2.0866Y-3.2776
X2.0866Y-3.3268
X2.0866Y-3.376
X2.0866Y-3.4252
X2.0866Y-3.4744
X2.0866Y-3.5236
X2.0866Y-3.5728
X2.0866Y-3.622
X2.0866Y-3.6713
X2.0866Y-3.7205
X2.0866Y-3.7697
X2.0866Y-3.8189
X2.0866Y-3.8681
X2.0866Y-3.9173
X2.0866Y-3.9665
X2.0866Y-4.0157
X2.0866Y-4.065
X2.0876Y-2.7463
X2.1018Y-1.6147
X2.1063Y-4.2323
X2.1102Y-1.5512
X2.1165Y-4.0948
X2.1268Y-1.6758
X2.13Y-1.27
X2.14Y-2.0
X2.1457Y-4.124
X2.1555Y-2.0965
X2.1614Y-2.2165
X2.1654Y-2.3622
X2.1654Y-2.6063
X2.1789Y-4.1573
X2.1811Y-1.2992
X2.189Y-2.811
X2.1949Y-2.4606
X2.2146Y-4.1929
X2.2244Y-1.6437
X2.2244Y-4.2717
X2.2343Y-2.3917
X2.2362Y-2.0866
X2.25Y-1.68
X2.252Y-2.126
X2.2675Y-1.91
X2.2675Y-1.9764
X2.2835Y-2.7874
X2.2835Y-2.8346
X2.2835Y-2.8839
X2.2835Y-2.9331
X2.2835Y-2.9823
X2.2835Y-3.0315
X2.2835Y-3.0807
X2.2835Y-3.1299
X2.2835Y-3.1791
X2.2835Y-3.2283
X2.2835Y-3.2776
X2.2835Y-3.3268
X2.2835Y-3.376
X2.2835Y-3.4252
X2.2835Y-3.5236
X2.2835Y-3.5728
X2.2835Y-3.622
X2.2835Y-3.6713
X2.2835Y-3.7205
X2.2835Y-3.7697
X2.2835Y-3.8189
X2.2835Y-3.868
X2.2835Y-3.9173
X2.2835Y-3.9664
X2.2835Y-4.0157
X2.2835Y-4.0648
X2.2835Y-4.1142
X2.2835Y-4.1538
X2.2835Y-4.1949
X2.2835Y-3.4744
X2.3228Y-1.6732
X2.3228Y-2.3917
X2.3661Y-1.4724
X2.3819Y-3.4744
X2.3819Y-2.7362
X2.3819Y-2.8346
X2.3819Y-2.9331
X2.3819Y-2.9823
X2.3819Y-3.0315
X2.3819Y-3.0807
X2.3819Y-3.1299
X2.3819Y-3.1791
X2.3819Y-3.2283
X2.3819Y-3.2776
X2.3819Y-3.3268
X2.3819Y-3.376
X2.3819Y-3.4252
X2.3819Y-3.5236
X2.3819Y-3.5728
X2.3819Y-3.622
X2.3819Y-3.6713
X2.3819Y-3.7205
X2.3819Y-3.7697
X2.3819Y-3.8189
X2.3819Y-3.868
X2.3819Y-3.9173
X2.3819Y-3.9671
X2.3819Y-4.0157
X2.3819Y-4.0654
X2.3819Y-4.1142
X2.3819Y-4.1633
X2.3819Y-4.2126
X2.3819Y-2.8839
X2.4409Y-1.8425
X2.4567Y-1.5512
X2.4606Y-2.3228
T2
X2.2736Y-1.0335
X2.2736Y-1.0835
T0
M30
