G04 #@! TF.GenerationSoftware,KiCad,Pcbnew,(5.1.4)-1*
G04 #@! TF.CreationDate,2019-10-27T14:02:49-04:00*
G04 #@! TF.ProjectId,i2c-moist-sensor,6932632d-6d6f-4697-9374-2d73656e736f,rev?*
G04 #@! TF.SameCoordinates,Original*
G04 #@! TF.FileFunction,Paste,Top*
G04 #@! TF.FilePolarity,Positive*
%FSLAX46Y46*%
G04 Gerber Fmt 4.6, Leading zero omitted, Abs format (unit mm)*
G04 Created by KiCad (PCBNEW (5.1.4)-1) date 2019-10-27 14:02:49*
%MOMM*%
%LPD*%
G04 APERTURE LIST*
%ADD10R,1.194000X0.894000*%
%ADD11R,0.794000X1.894000*%
%ADD12R,0.594000X0.694000*%
%ADD13R,1.194000X0.744000*%
%ADD14R,1.194000X0.994000*%
%ADD15R,0.994000X1.194000*%
%ADD16R,1.894000X0.794000*%
G04 APERTURE END LIST*
D10*
X63158000Y-53500000D03*
X65358000Y-53500000D03*
X49192000Y-34798000D03*
X51392000Y-34798000D03*
X58250000Y-58928000D03*
X56050000Y-58928000D03*
X63158000Y-55250000D03*
X65358000Y-55250000D03*
X51478000Y-58928000D03*
X53678000Y-58928000D03*
X60536000Y-50038000D03*
X58336000Y-50038000D03*
X63162000Y-50038000D03*
X65362000Y-50038000D03*
X53600000Y-51750000D03*
X51400000Y-51750000D03*
X60100000Y-67000000D03*
X57900000Y-67000000D03*
X52662000Y-42418000D03*
X50462000Y-42418000D03*
X57900000Y-65250000D03*
X60100000Y-65250000D03*
X51400000Y-68750000D03*
X53600000Y-68750000D03*
X53650000Y-67000000D03*
X55850000Y-67000000D03*
X53600000Y-50000000D03*
X51400000Y-50000000D03*
D11*
X64516000Y-44728000D03*
X65466000Y-47728000D03*
X63566000Y-47728000D03*
D12*
X61550000Y-51750000D03*
X62950000Y-51750000D03*
X64300000Y-51750000D03*
X65700000Y-51750000D03*
X57804000Y-68642000D03*
X59204000Y-68642000D03*
X55010000Y-68642000D03*
X56410000Y-68642000D03*
D13*
X49596000Y-30734000D03*
X51496000Y-30734000D03*
X57200000Y-26000000D03*
X55300000Y-26000000D03*
X58050000Y-63500000D03*
X59950000Y-63500000D03*
X51628000Y-48260000D03*
X53528000Y-48260000D03*
X55700000Y-63500000D03*
X53800000Y-63500000D03*
D14*
X65758000Y-36860000D03*
X65758000Y-38130000D03*
X65758000Y-39400000D03*
D15*
X61558000Y-41270000D03*
X60288000Y-41270000D03*
X59018000Y-41270000D03*
X57748000Y-41270000D03*
X56478000Y-41270000D03*
X55208000Y-41270000D03*
D14*
X54258000Y-39400000D03*
X54258000Y-38130000D03*
X54258000Y-36860000D03*
X54258000Y-35590000D03*
X54258000Y-34320000D03*
X54258000Y-33050000D03*
X54258000Y-31780000D03*
X54258000Y-30510000D03*
X54258000Y-29240000D03*
D15*
X55258000Y-27770000D03*
X56528000Y-27770000D03*
X57798000Y-27770000D03*
X59068000Y-27770000D03*
X60338000Y-27770000D03*
D10*
X55850000Y-65250000D03*
X53650000Y-65250000D03*
X53600000Y-53500000D03*
X51400000Y-53500000D03*
D11*
X60750000Y-47750000D03*
X59800000Y-44750000D03*
X61700000Y-44750000D03*
D16*
X51840000Y-56134000D03*
X54840000Y-55184000D03*
X54840000Y-57084000D03*
M02*
