G04 #@! TF.GenerationSoftware,KiCad,Pcbnew,(5.1.4)-1*
G04 #@! TF.CreationDate,2019-10-27T14:02:49-04:00*
G04 #@! TF.ProjectId,i2c-moist-sensor,6932632d-6d6f-4697-9374-2d73656e736f,rev?*
G04 #@! TF.SameCoordinates,Original*
G04 #@! TF.FileFunction,Legend,Top*
G04 #@! TF.FilePolarity,Positive*
%FSLAX46Y46*%
G04 Gerber Fmt 4.6, Leading zero omitted, Abs format (unit mm)*
G04 Created by KiCad (PCBNEW (5.1.4)-1) date 2019-10-27 14:02:49*
%MOMM*%
%LPD*%
G04 APERTURE LIST*
%ADD10C,0.050000*%
%ADD11C,0.200000*%
%ADD12C,0.300000*%
%ADD13C,1.000000*%
%ADD14C,0.120000*%
%ADD15C,0.150000*%
%ADD16C,0.110000*%
%ADD17C,3.200000*%
%ADD18R,1.700000X1.700000*%
%ADD19O,1.700000X1.700000*%
%ADD20R,1.000000X1.000000*%
%ADD21O,1.000000X1.000000*%
%ADD22R,1.200000X0.900000*%
%ADD23R,0.800000X1.900000*%
%ADD24R,0.600000X0.700000*%
%ADD25R,1.200000X0.750000*%
%ADD26R,1.200000X1.000000*%
%ADD27R,1.000000X1.200000*%
%ADD28R,1.900000X0.800000*%
G04 APERTURE END LIST*
D10*
X54943239Y-21272168D02*
X54657530Y-21273801D01*
X54800385Y-21272985D02*
X54795813Y-20472998D01*
X54748848Y-20587554D01*
X54701665Y-20664015D01*
X54654264Y-20702382D01*
X55105332Y-20471229D02*
X55438660Y-20469324D01*
X55228949Y-21270536D01*
X55633269Y-21192034D02*
X55657296Y-21229992D01*
X55633704Y-21268223D01*
X55609677Y-21230264D01*
X55633269Y-21192034D01*
X55633704Y-21268223D01*
X56105316Y-20465515D02*
X55867224Y-20466875D01*
X55845592Y-20847958D01*
X55869183Y-20809727D01*
X55916584Y-20771360D01*
X56035630Y-20770680D01*
X56083466Y-20808502D01*
X56107492Y-20846461D01*
X56131737Y-20922514D01*
X56132825Y-21112987D01*
X56109452Y-21189312D01*
X56085860Y-21227543D01*
X56038460Y-21265910D01*
X55919414Y-21266590D01*
X55871578Y-21228768D01*
X55847551Y-21190809D01*
X56438644Y-20463610D02*
X56486262Y-20463338D01*
X56534098Y-20501160D01*
X56558125Y-20539119D01*
X56582369Y-20615172D01*
X56607049Y-20767415D01*
X56608137Y-20957888D01*
X56585199Y-21110402D01*
X56561825Y-21186727D01*
X56538234Y-21224958D01*
X56490833Y-21263325D01*
X56443215Y-21263597D01*
X56395379Y-21225774D01*
X56371352Y-21187816D01*
X56347108Y-21111763D01*
X56322428Y-20959520D01*
X56321339Y-20769047D01*
X56344278Y-20616533D01*
X56367651Y-20540207D01*
X56391243Y-20501977D01*
X56438644Y-20463610D01*
X56914826Y-20460889D02*
X56962444Y-20460617D01*
X57010280Y-20498439D01*
X57034307Y-20536398D01*
X57058552Y-20612451D01*
X57083232Y-20764694D01*
X57084320Y-20955167D01*
X57061382Y-21107681D01*
X57038008Y-21184006D01*
X57014416Y-21222237D01*
X56967016Y-21260604D01*
X56919398Y-21260876D01*
X56871562Y-21223053D01*
X56847535Y-21185095D01*
X56823290Y-21109042D01*
X56798610Y-20956799D01*
X56797522Y-20766326D01*
X56820460Y-20613812D01*
X56843834Y-20537486D01*
X56867426Y-20499256D01*
X56914826Y-20460889D01*
X57681290Y-21256522D02*
X57678242Y-20723198D01*
X57678678Y-20799387D02*
X57702269Y-20761156D01*
X57749670Y-20722789D01*
X57821097Y-20722381D01*
X57868933Y-20760204D01*
X57893178Y-20836257D01*
X57895572Y-21255298D01*
X57893178Y-20836257D02*
X57916551Y-20759932D01*
X57963952Y-20721565D01*
X58035379Y-20721157D01*
X58083215Y-20758979D01*
X58107460Y-20835033D01*
X58109854Y-21254073D01*
X58347946Y-21252713D02*
X58344898Y-20719388D01*
X58345333Y-20795577D02*
X58368925Y-20757347D01*
X58416326Y-20718980D01*
X58487753Y-20718572D01*
X58535589Y-20756394D01*
X58559833Y-20832448D01*
X58562228Y-21251488D01*
X58559833Y-20832448D02*
X58583207Y-20756122D01*
X58630608Y-20717756D01*
X58702035Y-20717347D01*
X58749871Y-20755170D01*
X58774116Y-20831223D01*
X58776510Y-21250264D01*
D11*
X47982857Y-22000049D02*
X65482857Y-21900049D01*
X48000000Y-25000000D02*
X47979507Y-21413638D01*
X65500000Y-24900000D02*
X65479507Y-21313638D01*
X65482857Y-21900049D02*
X64359723Y-22492897D01*
X65482857Y-21900049D02*
X64353021Y-21320075D01*
X47982857Y-22000049D02*
X49112693Y-22580023D01*
X47982857Y-22000049D02*
X49105991Y-21407201D01*
D10*
X43723904Y-45045238D02*
X43723904Y-44735714D01*
X44028666Y-44902380D01*
X44028666Y-44830952D01*
X44066761Y-44783333D01*
X44104857Y-44759523D01*
X44181047Y-44735714D01*
X44371523Y-44735714D01*
X44447714Y-44759523D01*
X44485809Y-44783333D01*
X44523904Y-44830952D01*
X44523904Y-44973809D01*
X44485809Y-45021428D01*
X44447714Y-45045238D01*
X43723904Y-44283333D02*
X43723904Y-44521428D01*
X44104857Y-44545238D01*
X44066761Y-44521428D01*
X44028666Y-44473809D01*
X44028666Y-44354761D01*
X44066761Y-44307142D01*
X44104857Y-44283333D01*
X44181047Y-44259523D01*
X44371523Y-44259523D01*
X44447714Y-44283333D01*
X44485809Y-44307142D01*
X44523904Y-44354761D01*
X44523904Y-44473809D01*
X44485809Y-44521428D01*
X44447714Y-44545238D01*
X44447714Y-44045238D02*
X44485809Y-44021428D01*
X44523904Y-44045238D01*
X44485809Y-44069047D01*
X44447714Y-44045238D01*
X44523904Y-44045238D01*
X44523904Y-43783333D02*
X44523904Y-43688095D01*
X44485809Y-43640476D01*
X44447714Y-43616666D01*
X44333428Y-43569047D01*
X44181047Y-43545238D01*
X43876285Y-43545238D01*
X43800095Y-43569047D01*
X43762000Y-43592857D01*
X43723904Y-43640476D01*
X43723904Y-43735714D01*
X43762000Y-43783333D01*
X43800095Y-43807142D01*
X43876285Y-43830952D01*
X44066761Y-43830952D01*
X44142952Y-43807142D01*
X44181047Y-43783333D01*
X44219142Y-43735714D01*
X44219142Y-43640476D01*
X44181047Y-43592857D01*
X44142952Y-43569047D01*
X44066761Y-43545238D01*
X43723904Y-43235714D02*
X43723904Y-43188095D01*
X43762000Y-43140476D01*
X43800095Y-43116666D01*
X43876285Y-43092857D01*
X44028666Y-43069047D01*
X44219142Y-43069047D01*
X44371523Y-43092857D01*
X44447714Y-43116666D01*
X44485809Y-43140476D01*
X44523904Y-43188095D01*
X44523904Y-43235714D01*
X44485809Y-43283333D01*
X44447714Y-43307142D01*
X44371523Y-43330952D01*
X44219142Y-43354761D01*
X44028666Y-43354761D01*
X43876285Y-43330952D01*
X43800095Y-43307142D01*
X43762000Y-43283333D01*
X43723904Y-43235714D01*
X43723904Y-42759523D02*
X43723904Y-42711904D01*
X43762000Y-42664285D01*
X43800095Y-42640476D01*
X43876285Y-42616666D01*
X44028666Y-42592857D01*
X44219142Y-42592857D01*
X44371523Y-42616666D01*
X44447714Y-42640476D01*
X44485809Y-42664285D01*
X44523904Y-42711904D01*
X44523904Y-42759523D01*
X44485809Y-42807142D01*
X44447714Y-42830952D01*
X44371523Y-42854761D01*
X44219142Y-42878571D01*
X44028666Y-42878571D01*
X43876285Y-42854761D01*
X43800095Y-42830952D01*
X43762000Y-42807142D01*
X43723904Y-42759523D01*
X44523904Y-41997619D02*
X43990571Y-41997619D01*
X44066761Y-41997619D02*
X44028666Y-41973809D01*
X43990571Y-41926190D01*
X43990571Y-41854761D01*
X44028666Y-41807142D01*
X44104857Y-41783333D01*
X44523904Y-41783333D01*
X44104857Y-41783333D02*
X44028666Y-41759523D01*
X43990571Y-41711904D01*
X43990571Y-41640476D01*
X44028666Y-41592857D01*
X44104857Y-41569047D01*
X44523904Y-41569047D01*
X44523904Y-41330952D02*
X43990571Y-41330952D01*
X44066761Y-41330952D02*
X44028666Y-41307142D01*
X43990571Y-41259523D01*
X43990571Y-41188095D01*
X44028666Y-41140476D01*
X44104857Y-41116666D01*
X44523904Y-41116666D01*
X44104857Y-41116666D02*
X44028666Y-41092857D01*
X43990571Y-41045238D01*
X43990571Y-40973809D01*
X44028666Y-40926190D01*
X44104857Y-40902380D01*
X44523904Y-40902380D01*
D11*
X45212000Y-60900000D02*
X45212000Y-25000000D01*
X48000000Y-60900000D02*
X44625579Y-60900000D01*
X48000000Y-25000000D02*
X44625579Y-25000000D01*
X45212000Y-25000000D02*
X45798421Y-26126504D01*
X45212000Y-25000000D02*
X44625579Y-26126504D01*
X45212000Y-60900000D02*
X45798421Y-59773496D01*
X45212000Y-60900000D02*
X44625579Y-59773496D01*
D10*
X47416666Y-18838095D02*
X47440476Y-18800000D01*
X47488095Y-18761904D01*
X47607142Y-18761904D01*
X47654761Y-18800000D01*
X47678571Y-18838095D01*
X47702380Y-18914285D01*
X47702380Y-18990476D01*
X47678571Y-19104761D01*
X47392857Y-19561904D01*
X47702380Y-19561904D01*
X47916666Y-19485714D02*
X47940476Y-19523809D01*
X47916666Y-19561904D01*
X47892857Y-19523809D01*
X47916666Y-19485714D01*
X47916666Y-19561904D01*
X48392857Y-18761904D02*
X48154761Y-18761904D01*
X48130952Y-19142857D01*
X48154761Y-19104761D01*
X48202380Y-19066666D01*
X48321428Y-19066666D01*
X48369047Y-19104761D01*
X48392857Y-19142857D01*
X48416666Y-19219047D01*
X48416666Y-19409523D01*
X48392857Y-19485714D01*
X48369047Y-19523809D01*
X48321428Y-19561904D01*
X48202380Y-19561904D01*
X48154761Y-19523809D01*
X48130952Y-19485714D01*
X48726190Y-18761904D02*
X48773809Y-18761904D01*
X48821428Y-18800000D01*
X48845238Y-18838095D01*
X48869047Y-18914285D01*
X48892857Y-19066666D01*
X48892857Y-19257142D01*
X48869047Y-19409523D01*
X48845238Y-19485714D01*
X48821428Y-19523809D01*
X48773809Y-19561904D01*
X48726190Y-19561904D01*
X48678571Y-19523809D01*
X48654761Y-19485714D01*
X48630952Y-19409523D01*
X48607142Y-19257142D01*
X48607142Y-19066666D01*
X48630952Y-18914285D01*
X48654761Y-18838095D01*
X48678571Y-18800000D01*
X48726190Y-18761904D01*
X49202380Y-18761904D02*
X49250000Y-18761904D01*
X49297619Y-18800000D01*
X49321428Y-18838095D01*
X49345238Y-18914285D01*
X49369047Y-19066666D01*
X49369047Y-19257142D01*
X49345238Y-19409523D01*
X49321428Y-19485714D01*
X49297619Y-19523809D01*
X49250000Y-19561904D01*
X49202380Y-19561904D01*
X49154761Y-19523809D01*
X49130952Y-19485714D01*
X49107142Y-19409523D01*
X49083333Y-19257142D01*
X49083333Y-19066666D01*
X49107142Y-18914285D01*
X49130952Y-18838095D01*
X49154761Y-18800000D01*
X49202380Y-18761904D01*
X49964285Y-19561904D02*
X49964285Y-19028571D01*
X49964285Y-19104761D02*
X49988095Y-19066666D01*
X50035714Y-19028571D01*
X50107142Y-19028571D01*
X50154761Y-19066666D01*
X50178571Y-19142857D01*
X50178571Y-19561904D01*
X50178571Y-19142857D02*
X50202380Y-19066666D01*
X50250000Y-19028571D01*
X50321428Y-19028571D01*
X50369047Y-19066666D01*
X50392857Y-19142857D01*
X50392857Y-19561904D01*
X50630952Y-19561904D02*
X50630952Y-19028571D01*
X50630952Y-19104761D02*
X50654761Y-19066666D01*
X50702380Y-19028571D01*
X50773809Y-19028571D01*
X50821428Y-19066666D01*
X50845238Y-19142857D01*
X50845238Y-19561904D01*
X50845238Y-19142857D02*
X50869047Y-19066666D01*
X50916666Y-19028571D01*
X50988095Y-19028571D01*
X51035714Y-19066666D01*
X51059523Y-19142857D01*
X51059523Y-19561904D01*
D11*
X48000000Y-20250000D02*
X50500000Y-20250000D01*
X48000000Y-25000000D02*
X48000000Y-19663579D01*
X50500000Y-25000000D02*
X50500000Y-19663579D01*
X50500000Y-20250000D02*
X49373496Y-20836421D01*
X50500000Y-20250000D02*
X49373496Y-19663579D01*
X48000000Y-20250000D02*
X49126504Y-20836421D01*
X48000000Y-20250000D02*
X49126504Y-19663579D01*
D10*
X43061904Y-24416666D02*
X43100000Y-24440476D01*
X43138095Y-24488095D01*
X43138095Y-24607142D01*
X43100000Y-24654761D01*
X43061904Y-24678571D01*
X42985714Y-24702380D01*
X42909523Y-24702380D01*
X42795238Y-24678571D01*
X42338095Y-24392857D01*
X42338095Y-24702380D01*
X42414285Y-24916666D02*
X42376190Y-24940476D01*
X42338095Y-24916666D01*
X42376190Y-24892857D01*
X42414285Y-24916666D01*
X42338095Y-24916666D01*
X43138095Y-25392857D02*
X43138095Y-25154761D01*
X42757142Y-25130952D01*
X42795238Y-25154761D01*
X42833333Y-25202380D01*
X42833333Y-25321428D01*
X42795238Y-25369047D01*
X42757142Y-25392857D01*
X42680952Y-25416666D01*
X42490476Y-25416666D01*
X42414285Y-25392857D01*
X42376190Y-25369047D01*
X42338095Y-25321428D01*
X42338095Y-25202380D01*
X42376190Y-25154761D01*
X42414285Y-25130952D01*
X43138095Y-25726190D02*
X43138095Y-25773809D01*
X43100000Y-25821428D01*
X43061904Y-25845238D01*
X42985714Y-25869047D01*
X42833333Y-25892857D01*
X42642857Y-25892857D01*
X42490476Y-25869047D01*
X42414285Y-25845238D01*
X42376190Y-25821428D01*
X42338095Y-25773809D01*
X42338095Y-25726190D01*
X42376190Y-25678571D01*
X42414285Y-25654761D01*
X42490476Y-25630952D01*
X42642857Y-25607142D01*
X42833333Y-25607142D01*
X42985714Y-25630952D01*
X43061904Y-25654761D01*
X43100000Y-25678571D01*
X43138095Y-25726190D01*
X43138095Y-26202380D02*
X43138095Y-26250000D01*
X43100000Y-26297619D01*
X43061904Y-26321428D01*
X42985714Y-26345238D01*
X42833333Y-26369047D01*
X42642857Y-26369047D01*
X42490476Y-26345238D01*
X42414285Y-26321428D01*
X42376190Y-26297619D01*
X42338095Y-26250000D01*
X42338095Y-26202380D01*
X42376190Y-26154761D01*
X42414285Y-26130952D01*
X42490476Y-26107142D01*
X42642857Y-26083333D01*
X42833333Y-26083333D01*
X42985714Y-26107142D01*
X43061904Y-26130952D01*
X43100000Y-26154761D01*
X43138095Y-26202380D01*
X42338095Y-26964285D02*
X42871428Y-26964285D01*
X42795238Y-26964285D02*
X42833333Y-26988095D01*
X42871428Y-27035714D01*
X42871428Y-27107142D01*
X42833333Y-27154761D01*
X42757142Y-27178571D01*
X42338095Y-27178571D01*
X42757142Y-27178571D02*
X42833333Y-27202380D01*
X42871428Y-27250000D01*
X42871428Y-27321428D01*
X42833333Y-27369047D01*
X42757142Y-27392857D01*
X42338095Y-27392857D01*
X42338095Y-27630952D02*
X42871428Y-27630952D01*
X42795238Y-27630952D02*
X42833333Y-27654761D01*
X42871428Y-27702380D01*
X42871428Y-27773809D01*
X42833333Y-27821428D01*
X42757142Y-27845238D01*
X42338095Y-27845238D01*
X42757142Y-27845238D02*
X42833333Y-27869047D01*
X42871428Y-27916666D01*
X42871428Y-27988095D01*
X42833333Y-28035714D01*
X42757142Y-28059523D01*
X42338095Y-28059523D01*
D11*
X43750000Y-25000000D02*
X43750000Y-27500000D01*
X48000000Y-25000000D02*
X43163579Y-25000000D01*
X48000000Y-27500000D02*
X43163579Y-27500000D01*
X43750000Y-27500000D02*
X43163579Y-26373496D01*
X43750000Y-27500000D02*
X44336421Y-26373496D01*
X43750000Y-25000000D02*
X43163579Y-26126504D01*
X43750000Y-25000000D02*
X44336421Y-26126504D01*
D12*
X58428571Y-114738095D02*
X57857142Y-113214285D01*
X57285714Y-114738095D01*
X57857142Y-115690476D02*
X57857142Y-117214285D01*
X58428571Y-119690476D02*
X56428571Y-119690476D01*
X58333333Y-119690476D02*
X58428571Y-119880952D01*
X58428571Y-120261904D01*
X58333333Y-120452380D01*
X58238095Y-120547619D01*
X58047619Y-120642857D01*
X57476190Y-120642857D01*
X57285714Y-120547619D01*
X57190476Y-120452380D01*
X57095238Y-120261904D01*
X57095238Y-119880952D01*
X57190476Y-119690476D01*
X58428571Y-122357142D02*
X57095238Y-122357142D01*
X58428571Y-121500000D02*
X57380952Y-121500000D01*
X57190476Y-121595238D01*
X57095238Y-121785714D01*
X57095238Y-122071428D01*
X57190476Y-122261904D01*
X57285714Y-122357142D01*
X58428571Y-123023809D02*
X58428571Y-123785714D01*
X59095238Y-123309523D02*
X57380952Y-123309523D01*
X57190476Y-123404761D01*
X57095238Y-123595238D01*
X57095238Y-123785714D01*
X58428571Y-125690476D02*
X58428571Y-126452380D01*
X59095238Y-125976190D02*
X57380952Y-125976190D01*
X57190476Y-126071428D01*
X57095238Y-126261904D01*
X57095238Y-126452380D01*
X57095238Y-127119047D02*
X59095238Y-127119047D01*
X57095238Y-127976190D02*
X58142857Y-127976190D01*
X58333333Y-127880952D01*
X58428571Y-127690476D01*
X58428571Y-127404761D01*
X58333333Y-127214285D01*
X58238095Y-127119047D01*
X57095238Y-128928571D02*
X58428571Y-128928571D01*
X59095238Y-128928571D02*
X59000000Y-128833333D01*
X58904761Y-128928571D01*
X59000000Y-129023809D01*
X59095238Y-128928571D01*
X58904761Y-128928571D01*
X57190476Y-129785714D02*
X57095238Y-129976190D01*
X57095238Y-130357142D01*
X57190476Y-130547619D01*
X57380952Y-130642857D01*
X57476190Y-130642857D01*
X57666666Y-130547619D01*
X57761904Y-130357142D01*
X57761904Y-130071428D01*
X57857142Y-129880952D01*
X58047619Y-129785714D01*
X58142857Y-129785714D01*
X58333333Y-129880952D01*
X58428571Y-130071428D01*
X58428571Y-130357142D01*
X58333333Y-130547619D01*
X58428571Y-133023809D02*
X56428571Y-133023809D01*
X58333333Y-133023809D02*
X58428571Y-133214285D01*
X58428571Y-133595238D01*
X58333333Y-133785714D01*
X58238095Y-133880952D01*
X58047619Y-133976190D01*
X57476190Y-133976190D01*
X57285714Y-133880952D01*
X57190476Y-133785714D01*
X57095238Y-133595238D01*
X57095238Y-133214285D01*
X57190476Y-133023809D01*
X57095238Y-135690476D02*
X58142857Y-135690476D01*
X58333333Y-135595238D01*
X58428571Y-135404761D01*
X58428571Y-135023809D01*
X58333333Y-134833333D01*
X57190476Y-135690476D02*
X57095238Y-135500000D01*
X57095238Y-135023809D01*
X57190476Y-134833333D01*
X57380952Y-134738095D01*
X57571428Y-134738095D01*
X57761904Y-134833333D01*
X57857142Y-135023809D01*
X57857142Y-135500000D01*
X57952380Y-135690476D01*
X57095238Y-136642857D02*
X58428571Y-136642857D01*
X58047619Y-136642857D02*
X58238095Y-136738095D01*
X58333333Y-136833333D01*
X58428571Y-137023809D01*
X58428571Y-137214285D01*
X58428571Y-137595238D02*
X58428571Y-138357142D01*
X59095238Y-137880952D02*
X57380952Y-137880952D01*
X57190476Y-137976190D01*
X57095238Y-138166666D01*
X57095238Y-138357142D01*
X57095238Y-140547619D02*
X58428571Y-140547619D01*
X59095238Y-140547619D02*
X59000000Y-140452380D01*
X58904761Y-140547619D01*
X59000000Y-140642857D01*
X59095238Y-140547619D01*
X58904761Y-140547619D01*
X58428571Y-141500000D02*
X57095238Y-141500000D01*
X58238095Y-141500000D02*
X58333333Y-141595238D01*
X58428571Y-141785714D01*
X58428571Y-142071428D01*
X58333333Y-142261904D01*
X58142857Y-142357142D01*
X57095238Y-142357142D01*
X57190476Y-144738095D02*
X57095238Y-144928571D01*
X57095238Y-145309523D01*
X57190476Y-145500000D01*
X57380952Y-145595238D01*
X57476190Y-145595238D01*
X57666666Y-145500000D01*
X57761904Y-145309523D01*
X57761904Y-145023809D01*
X57857142Y-144833333D01*
X58047619Y-144738095D01*
X58142857Y-144738095D01*
X58333333Y-144833333D01*
X58428571Y-145023809D01*
X58428571Y-145309523D01*
X58333333Y-145500000D01*
X57095238Y-146738095D02*
X57190476Y-146547619D01*
X57285714Y-146452380D01*
X57476190Y-146357142D01*
X58047619Y-146357142D01*
X58238095Y-146452380D01*
X58333333Y-146547619D01*
X58428571Y-146738095D01*
X58428571Y-147023809D01*
X58333333Y-147214285D01*
X58238095Y-147309523D01*
X58047619Y-147404761D01*
X57476190Y-147404761D01*
X57285714Y-147309523D01*
X57190476Y-147214285D01*
X57095238Y-147023809D01*
X57095238Y-146738095D01*
X57095238Y-148261904D02*
X58428571Y-148261904D01*
X59095238Y-148261904D02*
X59000000Y-148166666D01*
X58904761Y-148261904D01*
X59000000Y-148357142D01*
X59095238Y-148261904D01*
X58904761Y-148261904D01*
X57095238Y-149500000D02*
X57190476Y-149309523D01*
X57380952Y-149214285D01*
X59095238Y-149214285D01*
X57857142Y-151785714D02*
X57857142Y-153309523D01*
X58428571Y-154261904D02*
X57857142Y-155785714D01*
X57285714Y-154261904D01*
D13*
X50000000Y-103000000D02*
X66000000Y-103000000D01*
D12*
X57071428Y-72842857D02*
X57285714Y-72914285D01*
X57357142Y-72985714D01*
X57428571Y-73128571D01*
X57428571Y-73342857D01*
X57357142Y-73485714D01*
X57285714Y-73557142D01*
X57142857Y-73628571D01*
X56571428Y-73628571D01*
X56571428Y-72128571D01*
X57071428Y-72128571D01*
X57214285Y-72200000D01*
X57285714Y-72271428D01*
X57357142Y-72414285D01*
X57357142Y-72557142D01*
X57285714Y-72700000D01*
X57214285Y-72771428D01*
X57071428Y-72842857D01*
X56571428Y-72842857D01*
X58785714Y-73628571D02*
X58071428Y-73628571D01*
X58071428Y-72128571D01*
X59285714Y-72842857D02*
X59785714Y-72842857D01*
X60000000Y-73628571D02*
X59285714Y-73628571D01*
X59285714Y-72128571D01*
X60000000Y-72128571D01*
X48928571Y-76178571D02*
X48928571Y-75178571D01*
X48928571Y-75321428D02*
X48999999Y-75250000D01*
X49142857Y-75178571D01*
X49357142Y-75178571D01*
X49499999Y-75250000D01*
X49571428Y-75392857D01*
X49571428Y-76178571D01*
X49571428Y-75392857D02*
X49642857Y-75250000D01*
X49785714Y-75178571D01*
X49999999Y-75178571D01*
X50142857Y-75250000D01*
X50214285Y-75392857D01*
X50214285Y-76178571D01*
X51142857Y-76178571D02*
X50999999Y-76107142D01*
X50928571Y-76035714D01*
X50857142Y-75892857D01*
X50857142Y-75464285D01*
X50928571Y-75321428D01*
X50999999Y-75250000D01*
X51142857Y-75178571D01*
X51357142Y-75178571D01*
X51499999Y-75250000D01*
X51571428Y-75321428D01*
X51642857Y-75464285D01*
X51642857Y-75892857D01*
X51571428Y-76035714D01*
X51499999Y-76107142D01*
X51357142Y-76178571D01*
X51142857Y-76178571D01*
X52285714Y-76178571D02*
X52285714Y-75178571D01*
X52285714Y-74678571D02*
X52214285Y-74750000D01*
X52285714Y-74821428D01*
X52357142Y-74750000D01*
X52285714Y-74678571D01*
X52285714Y-74821428D01*
X52928571Y-76107142D02*
X53071428Y-76178571D01*
X53357142Y-76178571D01*
X53499999Y-76107142D01*
X53571428Y-75964285D01*
X53571428Y-75892857D01*
X53499999Y-75750000D01*
X53357142Y-75678571D01*
X53142857Y-75678571D01*
X52999999Y-75607142D01*
X52928571Y-75464285D01*
X52928571Y-75392857D01*
X52999999Y-75250000D01*
X53142857Y-75178571D01*
X53357142Y-75178571D01*
X53499999Y-75250000D01*
X53999999Y-75178571D02*
X54571428Y-75178571D01*
X54214285Y-74678571D02*
X54214285Y-75964285D01*
X54285714Y-76107142D01*
X54428571Y-76178571D01*
X54571428Y-76178571D01*
X55714285Y-75178571D02*
X55714285Y-76178571D01*
X55071428Y-75178571D02*
X55071428Y-75964285D01*
X55142857Y-76107142D01*
X55285714Y-76178571D01*
X55499999Y-76178571D01*
X55642857Y-76107142D01*
X55714285Y-76035714D01*
X56428571Y-76178571D02*
X56428571Y-75178571D01*
X56428571Y-75464285D02*
X56499999Y-75321428D01*
X56571428Y-75250000D01*
X56714285Y-75178571D01*
X56857142Y-75178571D01*
X57928571Y-76107142D02*
X57785714Y-76178571D01*
X57500000Y-76178571D01*
X57357142Y-76107142D01*
X57285714Y-75964285D01*
X57285714Y-75392857D01*
X57357142Y-75250000D01*
X57500000Y-75178571D01*
X57785714Y-75178571D01*
X57928571Y-75250000D01*
X58000000Y-75392857D01*
X58000000Y-75535714D01*
X57285714Y-75678571D01*
X59714285Y-76107142D02*
X59857142Y-76178571D01*
X60142857Y-76178571D01*
X60285714Y-76107142D01*
X60357142Y-75964285D01*
X60357142Y-75892857D01*
X60285714Y-75750000D01*
X60142857Y-75678571D01*
X59928571Y-75678571D01*
X59785714Y-75607142D01*
X59714285Y-75464285D01*
X59714285Y-75392857D01*
X59785714Y-75250000D01*
X59928571Y-75178571D01*
X60142857Y-75178571D01*
X60285714Y-75250000D01*
X61571428Y-76107142D02*
X61428571Y-76178571D01*
X61142857Y-76178571D01*
X61000000Y-76107142D01*
X60928571Y-75964285D01*
X60928571Y-75392857D01*
X61000000Y-75250000D01*
X61142857Y-75178571D01*
X61428571Y-75178571D01*
X61571428Y-75250000D01*
X61642857Y-75392857D01*
X61642857Y-75535714D01*
X60928571Y-75678571D01*
X62285714Y-75178571D02*
X62285714Y-76178571D01*
X62285714Y-75321428D02*
X62357142Y-75250000D01*
X62500000Y-75178571D01*
X62714285Y-75178571D01*
X62857142Y-75250000D01*
X62928571Y-75392857D01*
X62928571Y-76178571D01*
X63571428Y-76107142D02*
X63714285Y-76178571D01*
X64000000Y-76178571D01*
X64142857Y-76107142D01*
X64214285Y-75964285D01*
X64214285Y-75892857D01*
X64142857Y-75750000D01*
X64000000Y-75678571D01*
X63785714Y-75678571D01*
X63642857Y-75607142D01*
X63571428Y-75464285D01*
X63571428Y-75392857D01*
X63642857Y-75250000D01*
X63785714Y-75178571D01*
X64000000Y-75178571D01*
X64142857Y-75250000D01*
X65071428Y-76178571D02*
X64928571Y-76107142D01*
X64857142Y-76035714D01*
X64785714Y-75892857D01*
X64785714Y-75464285D01*
X64857142Y-75321428D01*
X64928571Y-75250000D01*
X65071428Y-75178571D01*
X65285714Y-75178571D01*
X65428571Y-75250000D01*
X65500000Y-75321428D01*
X65571428Y-75464285D01*
X65571428Y-75892857D01*
X65500000Y-76035714D01*
X65428571Y-76107142D01*
X65285714Y-76178571D01*
X65071428Y-76178571D01*
X66214285Y-76178571D02*
X66214285Y-75178571D01*
X66214285Y-75464285D02*
X66285714Y-75321428D01*
X66357142Y-75250000D01*
X66500000Y-75178571D01*
X66642857Y-75178571D01*
X56214285Y-78728571D02*
X55714285Y-78014285D01*
X55357142Y-78728571D02*
X55357142Y-77228571D01*
X55928571Y-77228571D01*
X56071428Y-77300000D01*
X56142857Y-77371428D01*
X56214285Y-77514285D01*
X56214285Y-77728571D01*
X56142857Y-77871428D01*
X56071428Y-77942857D01*
X55928571Y-78014285D01*
X55357142Y-78014285D01*
X57428571Y-78657142D02*
X57285714Y-78728571D01*
X57000000Y-78728571D01*
X56857142Y-78657142D01*
X56785714Y-78514285D01*
X56785714Y-77942857D01*
X56857142Y-77800000D01*
X57000000Y-77728571D01*
X57285714Y-77728571D01*
X57428571Y-77800000D01*
X57500000Y-77942857D01*
X57500000Y-78085714D01*
X56785714Y-78228571D01*
X58000000Y-77728571D02*
X58357142Y-78728571D01*
X58714285Y-77728571D01*
X61214285Y-78728571D02*
X60357142Y-78728571D01*
X60785714Y-78728571D02*
X60785714Y-77228571D01*
X60642857Y-77442857D01*
X60500000Y-77585714D01*
X60357142Y-77657142D01*
D14*
X51749000Y-33622000D02*
X51749000Y-32819530D01*
X51749000Y-32204470D02*
X51749000Y-31402000D01*
X50544000Y-33622000D02*
X51749000Y-33622000D01*
X50544000Y-31402000D02*
X51749000Y-31402000D01*
X50544000Y-33622000D02*
X50544000Y-33075471D01*
X50544000Y-31948529D02*
X50544000Y-31402000D01*
X49784000Y-33622000D02*
X49024000Y-33622000D01*
X49024000Y-33622000D02*
X49024000Y-32512000D01*
X64758000Y-54180000D02*
X63758000Y-54180000D01*
X63758000Y-52820000D02*
X64758000Y-52820000D01*
X50792000Y-35478000D02*
X49792000Y-35478000D01*
X49792000Y-34118000D02*
X50792000Y-34118000D01*
X56650000Y-58248000D02*
X57650000Y-58248000D01*
X57650000Y-59608000D02*
X56650000Y-59608000D01*
X64758000Y-55930000D02*
X63758000Y-55930000D01*
X63758000Y-54570000D02*
X64758000Y-54570000D01*
X53078000Y-59608000D02*
X52078000Y-59608000D01*
X52078000Y-58248000D02*
X53078000Y-58248000D01*
X58936000Y-49358000D02*
X59936000Y-49358000D01*
X59936000Y-50718000D02*
X58936000Y-50718000D01*
X64762000Y-50718000D02*
X63762000Y-50718000D01*
X63762000Y-49358000D02*
X64762000Y-49358000D01*
X52000000Y-51070000D02*
X53000000Y-51070000D01*
X53000000Y-52430000D02*
X52000000Y-52430000D01*
X58500000Y-66320000D02*
X59500000Y-66320000D01*
X59500000Y-67680000D02*
X58500000Y-67680000D01*
X51062000Y-41738000D02*
X52062000Y-41738000D01*
X52062000Y-43098000D02*
X51062000Y-43098000D01*
X59500000Y-65930000D02*
X58500000Y-65930000D01*
X58500000Y-64570000D02*
X59500000Y-64570000D01*
X53000000Y-69430000D02*
X52000000Y-69430000D01*
X52000000Y-68070000D02*
X53000000Y-68070000D01*
X55250000Y-67680000D02*
X54250000Y-67680000D01*
X54250000Y-66320000D02*
X55250000Y-66320000D01*
X52000000Y-49320000D02*
X53000000Y-49320000D01*
X53000000Y-50680000D02*
X52000000Y-50680000D01*
X66096000Y-45468000D02*
X66096000Y-46928000D01*
X62936000Y-45468000D02*
X62936000Y-48628000D01*
X62936000Y-45468000D02*
X63866000Y-45468000D01*
X66096000Y-45468000D02*
X65166000Y-45468000D01*
X62950000Y-52350000D02*
X61100000Y-52350000D01*
X62950000Y-51150000D02*
X61100000Y-51150000D01*
X61100000Y-51150000D02*
X61100000Y-52350000D01*
X65700000Y-52350000D02*
X63850000Y-52350000D01*
X65700000Y-51150000D02*
X63850000Y-51150000D01*
X63850000Y-51150000D02*
X63850000Y-52350000D01*
X59654000Y-69242000D02*
X59654000Y-68042000D01*
X57804000Y-69242000D02*
X59654000Y-69242000D01*
X57804000Y-68042000D02*
X59654000Y-68042000D01*
X56860000Y-69242000D02*
X56860000Y-68042000D01*
X55010000Y-69242000D02*
X56860000Y-69242000D01*
X55010000Y-68042000D02*
X56860000Y-68042000D01*
X50196000Y-30134000D02*
X50896000Y-30134000D01*
X50896000Y-31334000D02*
X50196000Y-31334000D01*
X56600000Y-26600000D02*
X55900000Y-26600000D01*
X55900000Y-25400000D02*
X56600000Y-25400000D01*
X58650000Y-62900000D02*
X59350000Y-62900000D01*
X59350000Y-64100000D02*
X58650000Y-64100000D01*
X52228000Y-47660000D02*
X52928000Y-47660000D01*
X52928000Y-48860000D02*
X52228000Y-48860000D01*
X55100000Y-64100000D02*
X54400000Y-64100000D01*
X54400000Y-62900000D02*
X55100000Y-62900000D01*
D15*
X66508000Y-28170000D02*
X66508000Y-26900000D01*
X53508000Y-26900000D02*
X54308000Y-26900000D01*
X53508000Y-27700000D02*
X53508000Y-26900000D01*
X53508000Y-42150000D02*
X54308000Y-42150000D01*
X53508000Y-41350000D02*
X53508000Y-42150000D01*
X66508000Y-42150000D02*
X65708000Y-42150000D01*
X66508000Y-41350000D02*
X66508000Y-42150000D01*
D14*
X54250000Y-64570000D02*
X55250000Y-64570000D01*
X55250000Y-65930000D02*
X54250000Y-65930000D01*
X54300000Y-54050000D02*
X54300000Y-52950000D01*
X54300000Y-52950000D02*
X51700000Y-52950000D01*
X54300000Y-54050000D02*
X51700000Y-54050000D01*
X59170000Y-47010000D02*
X59170000Y-45550000D01*
X62330000Y-47010000D02*
X62330000Y-43850000D01*
X62330000Y-47010000D02*
X61400000Y-47010000D01*
X59170000Y-47010000D02*
X60100000Y-47010000D01*
X52580000Y-54554000D02*
X54040000Y-54554000D01*
X52580000Y-57714000D02*
X55740000Y-57714000D01*
X52580000Y-57714000D02*
X52580000Y-56784000D01*
X52580000Y-54554000D02*
X52580000Y-55484000D01*
D15*
X52030380Y-32845333D02*
X52744666Y-32845333D01*
X52887523Y-32892952D01*
X52982761Y-32988190D01*
X53030380Y-33131047D01*
X53030380Y-33226285D01*
X52030380Y-32464380D02*
X52030380Y-31845333D01*
X52411333Y-32178666D01*
X52411333Y-32035809D01*
X52458952Y-31940571D01*
X52506571Y-31892952D01*
X52601809Y-31845333D01*
X52839904Y-31845333D01*
X52935142Y-31892952D01*
X52982761Y-31940571D01*
X53030380Y-32035809D01*
X53030380Y-32321523D01*
X52982761Y-32416761D01*
X52935142Y-32464380D01*
X60063142Y-54046380D02*
X59729809Y-53570190D01*
X59491714Y-54046380D02*
X59491714Y-53046380D01*
X59872666Y-53046380D01*
X59967904Y-53094000D01*
X60015523Y-53141619D01*
X60063142Y-53236857D01*
X60063142Y-53379714D01*
X60015523Y-53474952D01*
X59967904Y-53522571D01*
X59872666Y-53570190D01*
X59491714Y-53570190D01*
X61015523Y-54046380D02*
X60444095Y-54046380D01*
X60729809Y-54046380D02*
X60729809Y-53046380D01*
X60634571Y-53189238D01*
X60539333Y-53284476D01*
X60444095Y-53332095D01*
X61920285Y-53046380D02*
X61444095Y-53046380D01*
X61396476Y-53522571D01*
X61444095Y-53474952D01*
X61539333Y-53427333D01*
X61777428Y-53427333D01*
X61872666Y-53474952D01*
X61920285Y-53522571D01*
X61967904Y-53617809D01*
X61967904Y-53855904D01*
X61920285Y-53951142D01*
X61872666Y-53998761D01*
X61777428Y-54046380D01*
X61539333Y-54046380D01*
X61444095Y-53998761D01*
X61396476Y-53951142D01*
X49395142Y-36774380D02*
X49061809Y-36298190D01*
X48823714Y-36774380D02*
X48823714Y-35774380D01*
X49204666Y-35774380D01*
X49299904Y-35822000D01*
X49347523Y-35869619D01*
X49395142Y-35964857D01*
X49395142Y-36107714D01*
X49347523Y-36202952D01*
X49299904Y-36250571D01*
X49204666Y-36298190D01*
X48823714Y-36298190D01*
X50347523Y-36774380D02*
X49776095Y-36774380D01*
X50061809Y-36774380D02*
X50061809Y-35774380D01*
X49966571Y-35917238D01*
X49871333Y-36012476D01*
X49776095Y-36060095D01*
X51204666Y-36107714D02*
X51204666Y-36774380D01*
X50966571Y-35726761D02*
X50728476Y-36441047D01*
X51347523Y-36441047D01*
X56507142Y-60904380D02*
X56173809Y-60428190D01*
X55935714Y-60904380D02*
X55935714Y-59904380D01*
X56316666Y-59904380D01*
X56411904Y-59952000D01*
X56459523Y-59999619D01*
X56507142Y-60094857D01*
X56507142Y-60237714D01*
X56459523Y-60332952D01*
X56411904Y-60380571D01*
X56316666Y-60428190D01*
X55935714Y-60428190D01*
X57459523Y-60904380D02*
X56888095Y-60904380D01*
X57173809Y-60904380D02*
X57173809Y-59904380D01*
X57078571Y-60047238D01*
X56983333Y-60142476D01*
X56888095Y-60190095D01*
X57792857Y-59904380D02*
X58411904Y-59904380D01*
X58078571Y-60285333D01*
X58221428Y-60285333D01*
X58316666Y-60332952D01*
X58364285Y-60380571D01*
X58411904Y-60475809D01*
X58411904Y-60713904D01*
X58364285Y-60809142D01*
X58316666Y-60856761D01*
X58221428Y-60904380D01*
X57935714Y-60904380D01*
X57840476Y-60856761D01*
X57792857Y-60809142D01*
X60063142Y-55570380D02*
X59729809Y-55094190D01*
X59491714Y-55570380D02*
X59491714Y-54570380D01*
X59872666Y-54570380D01*
X59967904Y-54618000D01*
X60015523Y-54665619D01*
X60063142Y-54760857D01*
X60063142Y-54903714D01*
X60015523Y-54998952D01*
X59967904Y-55046571D01*
X59872666Y-55094190D01*
X59491714Y-55094190D01*
X61015523Y-55570380D02*
X60444095Y-55570380D01*
X60729809Y-55570380D02*
X60729809Y-54570380D01*
X60634571Y-54713238D01*
X60539333Y-54808476D01*
X60444095Y-54856095D01*
X61396476Y-54665619D02*
X61444095Y-54618000D01*
X61539333Y-54570380D01*
X61777428Y-54570380D01*
X61872666Y-54618000D01*
X61920285Y-54665619D01*
X61967904Y-54760857D01*
X61967904Y-54856095D01*
X61920285Y-54998952D01*
X61348857Y-55570380D01*
X61967904Y-55570380D01*
X51935142Y-60904380D02*
X51601809Y-60428190D01*
X51363714Y-60904380D02*
X51363714Y-59904380D01*
X51744666Y-59904380D01*
X51839904Y-59952000D01*
X51887523Y-59999619D01*
X51935142Y-60094857D01*
X51935142Y-60237714D01*
X51887523Y-60332952D01*
X51839904Y-60380571D01*
X51744666Y-60428190D01*
X51363714Y-60428190D01*
X52887523Y-60904380D02*
X52316095Y-60904380D01*
X52601809Y-60904380D02*
X52601809Y-59904380D01*
X52506571Y-60047238D01*
X52411333Y-60142476D01*
X52316095Y-60190095D01*
X53839904Y-60904380D02*
X53268476Y-60904380D01*
X53554190Y-60904380D02*
X53554190Y-59904380D01*
X53458952Y-60047238D01*
X53363714Y-60142476D01*
X53268476Y-60190095D01*
X55237142Y-50490380D02*
X54903809Y-50014190D01*
X54665714Y-50490380D02*
X54665714Y-49490380D01*
X55046666Y-49490380D01*
X55141904Y-49538000D01*
X55189523Y-49585619D01*
X55237142Y-49680857D01*
X55237142Y-49823714D01*
X55189523Y-49918952D01*
X55141904Y-49966571D01*
X55046666Y-50014190D01*
X54665714Y-50014190D01*
X56189523Y-50490380D02*
X55618095Y-50490380D01*
X55903809Y-50490380D02*
X55903809Y-49490380D01*
X55808571Y-49633238D01*
X55713333Y-49728476D01*
X55618095Y-49776095D01*
X56808571Y-49490380D02*
X56903809Y-49490380D01*
X56999047Y-49538000D01*
X57046666Y-49585619D01*
X57094285Y-49680857D01*
X57141904Y-49871333D01*
X57141904Y-50109428D01*
X57094285Y-50299904D01*
X57046666Y-50395142D01*
X56999047Y-50442761D01*
X56903809Y-50490380D01*
X56808571Y-50490380D01*
X56713333Y-50442761D01*
X56665714Y-50395142D01*
X56618095Y-50299904D01*
X56570476Y-50109428D01*
X56570476Y-49871333D01*
X56618095Y-49680857D01*
X56665714Y-49585619D01*
X56713333Y-49538000D01*
X56808571Y-49490380D01*
X66889333Y-50490380D02*
X66556000Y-50014190D01*
X66317904Y-50490380D02*
X66317904Y-49490380D01*
X66698857Y-49490380D01*
X66794095Y-49538000D01*
X66841714Y-49585619D01*
X66889333Y-49680857D01*
X66889333Y-49823714D01*
X66841714Y-49918952D01*
X66794095Y-49966571D01*
X66698857Y-50014190D01*
X66317904Y-50014190D01*
X67365523Y-50490380D02*
X67556000Y-50490380D01*
X67651238Y-50442761D01*
X67698857Y-50395142D01*
X67794095Y-50252285D01*
X67841714Y-50061809D01*
X67841714Y-49680857D01*
X67794095Y-49585619D01*
X67746476Y-49538000D01*
X67651238Y-49490380D01*
X67460761Y-49490380D01*
X67365523Y-49538000D01*
X67317904Y-49585619D01*
X67270285Y-49680857D01*
X67270285Y-49918952D01*
X67317904Y-50014190D01*
X67365523Y-50061809D01*
X67460761Y-50109428D01*
X67651238Y-50109428D01*
X67746476Y-50061809D01*
X67794095Y-50014190D01*
X67841714Y-49918952D01*
X49363333Y-52268380D02*
X49030000Y-51792190D01*
X48791904Y-52268380D02*
X48791904Y-51268380D01*
X49172857Y-51268380D01*
X49268095Y-51316000D01*
X49315714Y-51363619D01*
X49363333Y-51458857D01*
X49363333Y-51601714D01*
X49315714Y-51696952D01*
X49268095Y-51744571D01*
X49172857Y-51792190D01*
X48791904Y-51792190D01*
X49934761Y-51696952D02*
X49839523Y-51649333D01*
X49791904Y-51601714D01*
X49744285Y-51506476D01*
X49744285Y-51458857D01*
X49791904Y-51363619D01*
X49839523Y-51316000D01*
X49934761Y-51268380D01*
X50125238Y-51268380D01*
X50220476Y-51316000D01*
X50268095Y-51363619D01*
X50315714Y-51458857D01*
X50315714Y-51506476D01*
X50268095Y-51601714D01*
X50220476Y-51649333D01*
X50125238Y-51696952D01*
X49934761Y-51696952D01*
X49839523Y-51744571D01*
X49791904Y-51792190D01*
X49744285Y-51887428D01*
X49744285Y-52077904D01*
X49791904Y-52173142D01*
X49839523Y-52220761D01*
X49934761Y-52268380D01*
X50125238Y-52268380D01*
X50220476Y-52220761D01*
X50268095Y-52173142D01*
X50315714Y-52077904D01*
X50315714Y-51887428D01*
X50268095Y-51792190D01*
X50220476Y-51744571D01*
X50125238Y-51696952D01*
X62063333Y-67508380D02*
X61730000Y-67032190D01*
X61491904Y-67508380D02*
X61491904Y-66508380D01*
X61872857Y-66508380D01*
X61968095Y-66556000D01*
X62015714Y-66603619D01*
X62063333Y-66698857D01*
X62063333Y-66841714D01*
X62015714Y-66936952D01*
X61968095Y-66984571D01*
X61872857Y-67032190D01*
X61491904Y-67032190D01*
X62396666Y-66508380D02*
X63063333Y-66508380D01*
X62634761Y-67508380D01*
X51395333Y-44320380D02*
X51062000Y-43844190D01*
X50823904Y-44320380D02*
X50823904Y-43320380D01*
X51204857Y-43320380D01*
X51300095Y-43368000D01*
X51347714Y-43415619D01*
X51395333Y-43510857D01*
X51395333Y-43653714D01*
X51347714Y-43748952D01*
X51300095Y-43796571D01*
X51204857Y-43844190D01*
X50823904Y-43844190D01*
X52252476Y-43320380D02*
X52062000Y-43320380D01*
X51966761Y-43368000D01*
X51919142Y-43415619D01*
X51823904Y-43558476D01*
X51776285Y-43748952D01*
X51776285Y-44129904D01*
X51823904Y-44225142D01*
X51871523Y-44272761D01*
X51966761Y-44320380D01*
X52157238Y-44320380D01*
X52252476Y-44272761D01*
X52300095Y-44225142D01*
X52347714Y-44129904D01*
X52347714Y-43891809D01*
X52300095Y-43796571D01*
X52252476Y-43748952D01*
X52157238Y-43701333D01*
X51966761Y-43701333D01*
X51871523Y-43748952D01*
X51823904Y-43796571D01*
X51776285Y-43891809D01*
X62063333Y-65730380D02*
X61730000Y-65254190D01*
X61491904Y-65730380D02*
X61491904Y-64730380D01*
X61872857Y-64730380D01*
X61968095Y-64778000D01*
X62015714Y-64825619D01*
X62063333Y-64920857D01*
X62063333Y-65063714D01*
X62015714Y-65158952D01*
X61968095Y-65206571D01*
X61872857Y-65254190D01*
X61491904Y-65254190D01*
X62968095Y-64730380D02*
X62491904Y-64730380D01*
X62444285Y-65206571D01*
X62491904Y-65158952D01*
X62587142Y-65111333D01*
X62825238Y-65111333D01*
X62920476Y-65158952D01*
X62968095Y-65206571D01*
X63015714Y-65301809D01*
X63015714Y-65539904D01*
X62968095Y-65635142D01*
X62920476Y-65682761D01*
X62825238Y-65730380D01*
X62587142Y-65730380D01*
X62491904Y-65682761D01*
X62444285Y-65635142D01*
X49109333Y-69286380D02*
X48776000Y-68810190D01*
X48537904Y-69286380D02*
X48537904Y-68286380D01*
X48918857Y-68286380D01*
X49014095Y-68334000D01*
X49061714Y-68381619D01*
X49109333Y-68476857D01*
X49109333Y-68619714D01*
X49061714Y-68714952D01*
X49014095Y-68762571D01*
X48918857Y-68810190D01*
X48537904Y-68810190D01*
X49966476Y-68619714D02*
X49966476Y-69286380D01*
X49728380Y-68238761D02*
X49490285Y-68953047D01*
X50109333Y-68953047D01*
X51395333Y-67508380D02*
X51062000Y-67032190D01*
X50823904Y-67508380D02*
X50823904Y-66508380D01*
X51204857Y-66508380D01*
X51300095Y-66556000D01*
X51347714Y-66603619D01*
X51395333Y-66698857D01*
X51395333Y-66841714D01*
X51347714Y-66936952D01*
X51300095Y-66984571D01*
X51204857Y-67032190D01*
X50823904Y-67032190D01*
X51728666Y-66508380D02*
X52347714Y-66508380D01*
X52014380Y-66889333D01*
X52157238Y-66889333D01*
X52252476Y-66936952D01*
X52300095Y-66984571D01*
X52347714Y-67079809D01*
X52347714Y-67317904D01*
X52300095Y-67413142D01*
X52252476Y-67460761D01*
X52157238Y-67508380D01*
X51871523Y-67508380D01*
X51776285Y-67460761D01*
X51728666Y-67413142D01*
X49363333Y-50490380D02*
X49030000Y-50014190D01*
X48791904Y-50490380D02*
X48791904Y-49490380D01*
X49172857Y-49490380D01*
X49268095Y-49538000D01*
X49315714Y-49585619D01*
X49363333Y-49680857D01*
X49363333Y-49823714D01*
X49315714Y-49918952D01*
X49268095Y-49966571D01*
X49172857Y-50014190D01*
X48791904Y-50014190D01*
X49744285Y-49585619D02*
X49791904Y-49538000D01*
X49887142Y-49490380D01*
X50125238Y-49490380D01*
X50220476Y-49538000D01*
X50268095Y-49585619D01*
X50315714Y-49680857D01*
X50315714Y-49776095D01*
X50268095Y-49918952D01*
X49696666Y-50490380D01*
X50315714Y-50490380D01*
X64166761Y-43473619D02*
X64071523Y-43426000D01*
X63976285Y-43330761D01*
X63833428Y-43187904D01*
X63738190Y-43140285D01*
X63642952Y-43140285D01*
X63690571Y-43378380D02*
X63595333Y-43330761D01*
X63500095Y-43235523D01*
X63452476Y-43045047D01*
X63452476Y-42711714D01*
X63500095Y-42521238D01*
X63595333Y-42426000D01*
X63690571Y-42378380D01*
X63881047Y-42378380D01*
X63976285Y-42426000D01*
X64071523Y-42521238D01*
X64119142Y-42711714D01*
X64119142Y-43045047D01*
X64071523Y-43235523D01*
X63976285Y-43330761D01*
X63881047Y-43378380D01*
X63690571Y-43378380D01*
X65071523Y-43378380D02*
X64500095Y-43378380D01*
X64785809Y-43378380D02*
X64785809Y-42378380D01*
X64690571Y-42521238D01*
X64595333Y-42616476D01*
X64500095Y-42664095D01*
X58697904Y-52268380D02*
X58697904Y-51268380D01*
X58936000Y-51268380D01*
X59078857Y-51316000D01*
X59174095Y-51411238D01*
X59221714Y-51506476D01*
X59269333Y-51696952D01*
X59269333Y-51839809D01*
X59221714Y-52030285D01*
X59174095Y-52125523D01*
X59078857Y-52220761D01*
X58936000Y-52268380D01*
X58697904Y-52268380D01*
X60174095Y-51268380D02*
X59697904Y-51268380D01*
X59650285Y-51744571D01*
X59697904Y-51696952D01*
X59793142Y-51649333D01*
X60031238Y-51649333D01*
X60126476Y-51696952D01*
X60174095Y-51744571D01*
X60221714Y-51839809D01*
X60221714Y-52077904D01*
X60174095Y-52173142D01*
X60126476Y-52220761D01*
X60031238Y-52268380D01*
X59793142Y-52268380D01*
X59697904Y-52220761D01*
X59650285Y-52173142D01*
X66317904Y-52268380D02*
X66317904Y-51268380D01*
X66556000Y-51268380D01*
X66698857Y-51316000D01*
X66794095Y-51411238D01*
X66841714Y-51506476D01*
X66889333Y-51696952D01*
X66889333Y-51839809D01*
X66841714Y-52030285D01*
X66794095Y-52125523D01*
X66698857Y-52220761D01*
X66556000Y-52268380D01*
X66317904Y-52268380D01*
X67746476Y-51601714D02*
X67746476Y-52268380D01*
X67508380Y-51220761D02*
X67270285Y-51935047D01*
X67889333Y-51935047D01*
X57765904Y-70394380D02*
X57765904Y-69394380D01*
X58004000Y-69394380D01*
X58146857Y-69442000D01*
X58242095Y-69537238D01*
X58289714Y-69632476D01*
X58337333Y-69822952D01*
X58337333Y-69965809D01*
X58289714Y-70156285D01*
X58242095Y-70251523D01*
X58146857Y-70346761D01*
X58004000Y-70394380D01*
X57765904Y-70394380D01*
X58718285Y-69489619D02*
X58765904Y-69442000D01*
X58861142Y-69394380D01*
X59099238Y-69394380D01*
X59194476Y-69442000D01*
X59242095Y-69489619D01*
X59289714Y-69584857D01*
X59289714Y-69680095D01*
X59242095Y-69822952D01*
X58670666Y-70394380D01*
X59289714Y-70394380D01*
X54971904Y-70394380D02*
X54971904Y-69394380D01*
X55210000Y-69394380D01*
X55352857Y-69442000D01*
X55448095Y-69537238D01*
X55495714Y-69632476D01*
X55543333Y-69822952D01*
X55543333Y-69965809D01*
X55495714Y-70156285D01*
X55448095Y-70251523D01*
X55352857Y-70346761D01*
X55210000Y-70394380D01*
X54971904Y-70394380D01*
X56495714Y-70394380D02*
X55924285Y-70394380D01*
X56210000Y-70394380D02*
X56210000Y-69394380D01*
X56114761Y-69537238D01*
X56019523Y-69632476D01*
X55924285Y-69680095D01*
X49109333Y-30075142D02*
X49061714Y-30122761D01*
X48918857Y-30170380D01*
X48823619Y-30170380D01*
X48680761Y-30122761D01*
X48585523Y-30027523D01*
X48537904Y-29932285D01*
X48490285Y-29741809D01*
X48490285Y-29598952D01*
X48537904Y-29408476D01*
X48585523Y-29313238D01*
X48680761Y-29218000D01*
X48823619Y-29170380D01*
X48918857Y-29170380D01*
X49061714Y-29218000D01*
X49109333Y-29265619D01*
X49442666Y-29170380D02*
X50109333Y-29170380D01*
X49680761Y-30170380D01*
X58833333Y-26519142D02*
X58785714Y-26566761D01*
X58642857Y-26614380D01*
X58547619Y-26614380D01*
X58404761Y-26566761D01*
X58309523Y-26471523D01*
X58261904Y-26376285D01*
X58214285Y-26185809D01*
X58214285Y-26042952D01*
X58261904Y-25852476D01*
X58309523Y-25757238D01*
X58404761Y-25662000D01*
X58547619Y-25614380D01*
X58642857Y-25614380D01*
X58785714Y-25662000D01*
X58833333Y-25709619D01*
X59690476Y-25614380D02*
X59500000Y-25614380D01*
X59404761Y-25662000D01*
X59357142Y-25709619D01*
X59261904Y-25852476D01*
X59214285Y-26042952D01*
X59214285Y-26423904D01*
X59261904Y-26519142D01*
X59309523Y-26566761D01*
X59404761Y-26614380D01*
X59595238Y-26614380D01*
X59690476Y-26566761D01*
X59738095Y-26519142D01*
X59785714Y-26423904D01*
X59785714Y-26185809D01*
X59738095Y-26090571D01*
X59690476Y-26042952D01*
X59595238Y-25995333D01*
X59404761Y-25995333D01*
X59309523Y-26042952D01*
X59261904Y-26090571D01*
X59214285Y-26185809D01*
X62063333Y-63857142D02*
X62015714Y-63904761D01*
X61872857Y-63952380D01*
X61777619Y-63952380D01*
X61634761Y-63904761D01*
X61539523Y-63809523D01*
X61491904Y-63714285D01*
X61444285Y-63523809D01*
X61444285Y-63380952D01*
X61491904Y-63190476D01*
X61539523Y-63095238D01*
X61634761Y-63000000D01*
X61777619Y-62952380D01*
X61872857Y-62952380D01*
X62015714Y-63000000D01*
X62063333Y-63047619D01*
X62968095Y-62952380D02*
X62491904Y-62952380D01*
X62444285Y-63428571D01*
X62491904Y-63380952D01*
X62587142Y-63333333D01*
X62825238Y-63333333D01*
X62920476Y-63380952D01*
X62968095Y-63428571D01*
X63015714Y-63523809D01*
X63015714Y-63761904D01*
X62968095Y-63857142D01*
X62920476Y-63904761D01*
X62825238Y-63952380D01*
X62587142Y-63952380D01*
X62491904Y-63904761D01*
X62444285Y-63857142D01*
X49363333Y-48617142D02*
X49315714Y-48664761D01*
X49172857Y-48712380D01*
X49077619Y-48712380D01*
X48934761Y-48664761D01*
X48839523Y-48569523D01*
X48791904Y-48474285D01*
X48744285Y-48283809D01*
X48744285Y-48140952D01*
X48791904Y-47950476D01*
X48839523Y-47855238D01*
X48934761Y-47760000D01*
X49077619Y-47712380D01*
X49172857Y-47712380D01*
X49315714Y-47760000D01*
X49363333Y-47807619D01*
X50220476Y-48045714D02*
X50220476Y-48712380D01*
X49982380Y-47664761D02*
X49744285Y-48379047D01*
X50363333Y-48379047D01*
X51649333Y-63857142D02*
X51601714Y-63904761D01*
X51458857Y-63952380D01*
X51363619Y-63952380D01*
X51220761Y-63904761D01*
X51125523Y-63809523D01*
X51077904Y-63714285D01*
X51030285Y-63523809D01*
X51030285Y-63380952D01*
X51077904Y-63190476D01*
X51125523Y-63095238D01*
X51220761Y-63000000D01*
X51363619Y-62952380D01*
X51458857Y-62952380D01*
X51601714Y-63000000D01*
X51649333Y-63047619D01*
X51982666Y-62952380D02*
X52601714Y-62952380D01*
X52268380Y-63333333D01*
X52411238Y-63333333D01*
X52506476Y-63380952D01*
X52554095Y-63428571D01*
X52601714Y-63523809D01*
X52601714Y-63761904D01*
X52554095Y-63857142D01*
X52506476Y-63904761D01*
X52411238Y-63952380D01*
X52125523Y-63952380D01*
X52030285Y-63904761D01*
X51982666Y-63857142D01*
X59650380Y-32765904D02*
X60459904Y-32765904D01*
X60555142Y-32718285D01*
X60602761Y-32670666D01*
X60650380Y-32575428D01*
X60650380Y-32384952D01*
X60602761Y-32289714D01*
X60555142Y-32242095D01*
X60459904Y-32194476D01*
X59650380Y-32194476D01*
X60650380Y-31194476D02*
X60650380Y-31765904D01*
X60650380Y-31480190D02*
X59650380Y-31480190D01*
X59793238Y-31575428D01*
X59888476Y-31670666D01*
X59936095Y-31765904D01*
D16*
X51583333Y-65702380D02*
X51250000Y-65226190D01*
X51011904Y-65702380D02*
X51011904Y-64702380D01*
X51392857Y-64702380D01*
X51488095Y-64750000D01*
X51535714Y-64797619D01*
X51583333Y-64892857D01*
X51583333Y-65035714D01*
X51535714Y-65130952D01*
X51488095Y-65178571D01*
X51392857Y-65226190D01*
X51011904Y-65226190D01*
X52535714Y-65702380D02*
X51964285Y-65702380D01*
X52250000Y-65702380D02*
X52250000Y-64702380D01*
X52154761Y-64845238D01*
X52059523Y-64940476D01*
X51964285Y-64988095D01*
D15*
X48747904Y-54060380D02*
X48747904Y-53060380D01*
X48986000Y-53060380D01*
X49128857Y-53108000D01*
X49224095Y-53203238D01*
X49271714Y-53298476D01*
X49319333Y-53488952D01*
X49319333Y-53631809D01*
X49271714Y-53822285D01*
X49224095Y-53917523D01*
X49128857Y-54012761D01*
X48986000Y-54060380D01*
X48747904Y-54060380D01*
X49652666Y-53060380D02*
X50271714Y-53060380D01*
X49938380Y-53441333D01*
X50081238Y-53441333D01*
X50176476Y-53488952D01*
X50224095Y-53536571D01*
X50271714Y-53631809D01*
X50271714Y-53869904D01*
X50224095Y-53965142D01*
X50176476Y-54012761D01*
X50081238Y-54060380D01*
X49795523Y-54060380D01*
X49700285Y-54012761D01*
X49652666Y-53965142D01*
X60864761Y-43473619D02*
X60769523Y-43426000D01*
X60674285Y-43330761D01*
X60531428Y-43187904D01*
X60436190Y-43140285D01*
X60340952Y-43140285D01*
X60388571Y-43378380D02*
X60293333Y-43330761D01*
X60198095Y-43235523D01*
X60150476Y-43045047D01*
X60150476Y-42711714D01*
X60198095Y-42521238D01*
X60293333Y-42426000D01*
X60388571Y-42378380D01*
X60579047Y-42378380D01*
X60674285Y-42426000D01*
X60769523Y-42521238D01*
X60817142Y-42711714D01*
X60817142Y-43045047D01*
X60769523Y-43235523D01*
X60674285Y-43330761D01*
X60579047Y-43378380D01*
X60388571Y-43378380D01*
X61198095Y-42473619D02*
X61245714Y-42426000D01*
X61340952Y-42378380D01*
X61579047Y-42378380D01*
X61674285Y-42426000D01*
X61721904Y-42473619D01*
X61769523Y-42568857D01*
X61769523Y-42664095D01*
X61721904Y-42806952D01*
X61150476Y-43378380D01*
X61769523Y-43378380D01*
X49367961Y-56681619D02*
X49272723Y-56634000D01*
X49177485Y-56538761D01*
X49034628Y-56395904D01*
X48939390Y-56348285D01*
X48844152Y-56348285D01*
X48891771Y-56586380D02*
X48796533Y-56538761D01*
X48701295Y-56443523D01*
X48653676Y-56253047D01*
X48653676Y-55919714D01*
X48701295Y-55729238D01*
X48796533Y-55634000D01*
X48891771Y-55586380D01*
X49082247Y-55586380D01*
X49177485Y-55634000D01*
X49272723Y-55729238D01*
X49320342Y-55919714D01*
X49320342Y-56253047D01*
X49272723Y-56443523D01*
X49177485Y-56538761D01*
X49082247Y-56586380D01*
X48891771Y-56586380D01*
X49653676Y-55586380D02*
X50272723Y-55586380D01*
X49939390Y-55967333D01*
X50082247Y-55967333D01*
X50177485Y-56014952D01*
X50225104Y-56062571D01*
X50272723Y-56157809D01*
X50272723Y-56395904D01*
X50225104Y-56491142D01*
X50177485Y-56538761D01*
X50082247Y-56586380D01*
X49796533Y-56586380D01*
X49701295Y-56538761D01*
X49653676Y-56491142D01*
%LPC*%
D17*
X50500000Y-27500000D03*
X65500000Y-61000000D03*
D18*
X56896000Y-47244000D03*
D19*
X56896000Y-44704000D03*
D20*
X49784000Y-32512000D03*
D21*
X51054000Y-32512000D03*
D22*
X63158000Y-53500000D03*
X65358000Y-53500000D03*
X49192000Y-34798000D03*
X51392000Y-34798000D03*
X58250000Y-58928000D03*
X56050000Y-58928000D03*
X63158000Y-55250000D03*
X65358000Y-55250000D03*
X51478000Y-58928000D03*
X53678000Y-58928000D03*
X60536000Y-50038000D03*
X58336000Y-50038000D03*
X63162000Y-50038000D03*
X65362000Y-50038000D03*
X53600000Y-51750000D03*
X51400000Y-51750000D03*
X60100000Y-67000000D03*
X57900000Y-67000000D03*
X52662000Y-42418000D03*
X50462000Y-42418000D03*
X57900000Y-65250000D03*
X60100000Y-65250000D03*
X51400000Y-68750000D03*
X53600000Y-68750000D03*
X53650000Y-67000000D03*
X55850000Y-67000000D03*
X53600000Y-50000000D03*
X51400000Y-50000000D03*
D23*
X64516000Y-44728000D03*
X65466000Y-47728000D03*
X63566000Y-47728000D03*
D24*
X61550000Y-51750000D03*
X62950000Y-51750000D03*
X64300000Y-51750000D03*
X65700000Y-51750000D03*
X57804000Y-68642000D03*
X59204000Y-68642000D03*
X55010000Y-68642000D03*
X56410000Y-68642000D03*
D25*
X49596000Y-30734000D03*
X51496000Y-30734000D03*
X57200000Y-26000000D03*
X55300000Y-26000000D03*
X58050000Y-63500000D03*
X59950000Y-63500000D03*
X51628000Y-48260000D03*
X53528000Y-48260000D03*
X55700000Y-63500000D03*
X53800000Y-63500000D03*
D26*
X65758000Y-36860000D03*
X65758000Y-38130000D03*
X65758000Y-39400000D03*
D27*
X61558000Y-41270000D03*
X60288000Y-41270000D03*
X59018000Y-41270000D03*
X57748000Y-41270000D03*
X56478000Y-41270000D03*
X55208000Y-41270000D03*
D26*
X54258000Y-39400000D03*
X54258000Y-38130000D03*
X54258000Y-36860000D03*
X54258000Y-35590000D03*
X54258000Y-34320000D03*
X54258000Y-33050000D03*
X54258000Y-31780000D03*
X54258000Y-30510000D03*
X54258000Y-29240000D03*
D27*
X55258000Y-27770000D03*
X56528000Y-27770000D03*
X57798000Y-27770000D03*
X59068000Y-27770000D03*
X60338000Y-27770000D03*
D22*
X55850000Y-65250000D03*
X53650000Y-65250000D03*
X53600000Y-53500000D03*
X51400000Y-53500000D03*
D23*
X60750000Y-47750000D03*
X59800000Y-44750000D03*
X61700000Y-44750000D03*
D28*
X51840000Y-56134000D03*
X54840000Y-55184000D03*
X54840000Y-57084000D03*
M02*
