G04 #@! TF.GenerationSoftware,KiCad,Pcbnew,(5.1.4)-1*
G04 #@! TF.CreationDate,2019-09-13T20:49:43-04:00*
G04 #@! TF.ProjectId,i2c-moist-sensor,6932632d-6d6f-4697-9374-2d73656e736f,rev?*
G04 #@! TF.SameCoordinates,Original*
G04 #@! TF.FileFunction,Soldermask,Bot*
G04 #@! TF.FilePolarity,Negative*
%FSLAX46Y46*%
G04 Gerber Fmt 4.6, Leading zero omitted, Abs format (unit mm)*
G04 Created by KiCad (PCBNEW (5.1.4)-1) date 2019-09-13 20:49:43*
%MOMM*%
%LPD*%
G04 APERTURE LIST*
%ADD10C,3.200000*%
%ADD11R,0.800000X3.000000*%
%ADD12R,1.200000X0.900000*%
%ADD13R,1.200000X0.750000*%
%ADD14R,1.900000X0.800000*%
%ADD15R,1.000000X1.000000*%
%ADD16O,1.000000X1.000000*%
G04 APERTURE END LIST*
D10*
X50500000Y-27500000D03*
X65500000Y-50000000D03*
D11*
X59810000Y-39464000D03*
X54730000Y-35400000D03*
X59810000Y-35400000D03*
X54730000Y-39464000D03*
X58540000Y-39464000D03*
X56000000Y-35400000D03*
X58540000Y-35400000D03*
X56000000Y-39464000D03*
X57270000Y-39464000D03*
X57270000Y-35400000D03*
D12*
X51650000Y-58000000D03*
X53850000Y-58000000D03*
X51400000Y-63750000D03*
X53600000Y-63750000D03*
X53600000Y-49000000D03*
X51400000Y-49000000D03*
X61650000Y-42500000D03*
X63850000Y-42500000D03*
D13*
X51300000Y-32250000D03*
X53200000Y-32250000D03*
X51300000Y-31000000D03*
X53200000Y-31000000D03*
X53550000Y-27900000D03*
X55450000Y-27900000D03*
D14*
X58750000Y-29050000D03*
X58750000Y-30950000D03*
X55750000Y-30000000D03*
D15*
X57750000Y-26250000D03*
D16*
X57750000Y-27520000D03*
D14*
X54750000Y-45500000D03*
X51750000Y-44550000D03*
X51750000Y-46450000D03*
X54873200Y-61250000D03*
X51873200Y-60300000D03*
X51873200Y-62200000D03*
X51929080Y-55950000D03*
X51929080Y-54050000D03*
X54929080Y-55000000D03*
M02*
