G04 #@! TF.GenerationSoftware,KiCad,Pcbnew,(5.1.4)-1*
G04 #@! TF.CreationDate,2019-09-13T20:49:43-04:00*
G04 #@! TF.ProjectId,i2c-moist-sensor,6932632d-6d6f-4697-9374-2d73656e736f,rev?*
G04 #@! TF.SameCoordinates,Original*
G04 #@! TF.FileFunction,Copper,L2,Bot*
G04 #@! TF.FilePolarity,Positive*
%FSLAX46Y46*%
G04 Gerber Fmt 4.6, Leading zero omitted, Abs format (unit mm)*
G04 Created by KiCad (PCBNEW (5.1.4)-1) date 2019-09-13 20:49:43*
%MOMM*%
%LPD*%
G04 APERTURE LIST*
%ADD10R,0.800000X3.000000*%
%ADD11R,1.200000X0.900000*%
%ADD12R,1.200000X0.750000*%
%ADD13R,1.900000X0.800000*%
%ADD14R,1.000000X1.000000*%
%ADD15O,1.000000X1.000000*%
%ADD16C,0.700000*%
%ADD17C,0.254000*%
%ADD18C,0.600000*%
%ADD19C,0.500000*%
%ADD20C,0.800000*%
G04 APERTURE END LIST*
D10*
X59810000Y-39464000D03*
X54730000Y-35400000D03*
X59810000Y-35400000D03*
X54730000Y-39464000D03*
X58540000Y-39464000D03*
X56000000Y-35400000D03*
X58540000Y-35400000D03*
X56000000Y-39464000D03*
X57270000Y-39464000D03*
X57270000Y-35400000D03*
D11*
X51650000Y-58000000D03*
X53850000Y-58000000D03*
X51400000Y-63750000D03*
X53600000Y-63750000D03*
X53600000Y-49000000D03*
X51400000Y-49000000D03*
X61650000Y-42500000D03*
X63850000Y-42500000D03*
D12*
X51300000Y-32250000D03*
X53200000Y-32250000D03*
X51300000Y-31000000D03*
X53200000Y-31000000D03*
X53550000Y-27900000D03*
X55450000Y-27900000D03*
D13*
X58750000Y-29050000D03*
X58750000Y-30950000D03*
X55750000Y-30000000D03*
D14*
X57750000Y-26250000D03*
D15*
X57750000Y-27520000D03*
D13*
X54750000Y-45500000D03*
X51750000Y-44550000D03*
X51750000Y-46450000D03*
X54873200Y-61250000D03*
X51873200Y-60300000D03*
X51873200Y-62200000D03*
X51929080Y-55950000D03*
X51929080Y-54050000D03*
X54929080Y-55000000D03*
D16*
X52900000Y-26100000D03*
X53024757Y-69754951D03*
X53000000Y-70750000D03*
X55345119Y-105595119D03*
X53758622Y-104008622D03*
X52702737Y-106702737D03*
X51228329Y-105228329D03*
X50500000Y-103250000D03*
X50500000Y-100750000D03*
X53000000Y-100750000D03*
X50500000Y-98250000D03*
X53000000Y-98249994D03*
X50500000Y-95750000D03*
X53000000Y-95750006D03*
X50500000Y-90750000D03*
X53000000Y-90749992D03*
X53000000Y-93250000D03*
X50500000Y-93250010D03*
X50500000Y-88250006D03*
X53000000Y-88250006D03*
X50500000Y-85750000D03*
X53000000Y-85750000D03*
X50500000Y-83250000D03*
X53000000Y-83250006D03*
X50500000Y-80750000D03*
X53000000Y-80750000D03*
X50500000Y-78250004D03*
X53000000Y-78250000D03*
X53000000Y-75750000D03*
X50500000Y-75750000D03*
X53000000Y-73257938D03*
X60500000Y-90750000D03*
X58000000Y-90750000D03*
X58000004Y-88250000D03*
X60499996Y-88250000D03*
X58000000Y-85750000D03*
X60500000Y-85749994D03*
X60500000Y-83250000D03*
X58000000Y-83250000D03*
X60500000Y-80750000D03*
X58000000Y-80750000D03*
X60500006Y-73250000D03*
X58000000Y-73250006D03*
X58000000Y-75750000D03*
X60500000Y-75750000D03*
X60500000Y-78250000D03*
X58000000Y-78250006D03*
X60500000Y-93250000D03*
X58000000Y-93250000D03*
X58000000Y-95749984D03*
X60500000Y-95750000D03*
X58000000Y-98248063D03*
X60500000Y-98248063D03*
X58000000Y-100746139D03*
X60500000Y-100763982D03*
X58000000Y-103246781D03*
X60500000Y-103262214D03*
X60500000Y-105746856D03*
X58000000Y-105505330D03*
X53500000Y-107500000D03*
X52000000Y-106000000D03*
X56250000Y-106500000D03*
X54500000Y-104750000D03*
X53000000Y-103250000D03*
X50500000Y-104500000D03*
X58000000Y-106549990D03*
X60500000Y-107000000D03*
X50500000Y-74500000D03*
X50500000Y-77000000D03*
X50500000Y-79500000D03*
X50500000Y-82000000D03*
X50500000Y-84500000D03*
X50500000Y-87000000D03*
X50500000Y-89500000D03*
X50500000Y-92000000D03*
X50500000Y-94500000D03*
X50500000Y-97000000D03*
X50500000Y-99500000D03*
X50500000Y-102000000D03*
X53000000Y-102000000D03*
X53000000Y-99500000D03*
X53000000Y-97000000D03*
X53000000Y-94500000D03*
X53000000Y-92000000D03*
X53000000Y-89500000D03*
X53000000Y-87000000D03*
X53000000Y-84500000D03*
X53000000Y-82000000D03*
X53000000Y-79500000D03*
X53000000Y-77000000D03*
X53000000Y-74500000D03*
X53000000Y-72000000D03*
X60500000Y-69500000D03*
X60500000Y-72000000D03*
X60500000Y-74500000D03*
X60500000Y-77000000D03*
X60500000Y-79500000D03*
X60500000Y-82000000D03*
X60500000Y-84500000D03*
X60500000Y-87000000D03*
X60500000Y-89500000D03*
X60500000Y-92000000D03*
X60500000Y-94500000D03*
X60500000Y-97000000D03*
X60500000Y-99500000D03*
X60500000Y-102000000D03*
X60500000Y-104500000D03*
X58000000Y-104500000D03*
X58000000Y-102000000D03*
X58000000Y-99500000D03*
X58000000Y-97000000D03*
X58000000Y-94500000D03*
X58000000Y-92000000D03*
X58000000Y-89500000D03*
X58000000Y-87000000D03*
X58000000Y-84500000D03*
X58000000Y-82000000D03*
X58000000Y-79500000D03*
X58000000Y-77000000D03*
X58000000Y-74500000D03*
X58000000Y-72000000D03*
X55000000Y-66200000D03*
X62500000Y-59000000D03*
X50500000Y-72000000D03*
X50449997Y-69500000D03*
X50500000Y-66500000D03*
X50500000Y-70753515D03*
X50500000Y-73273302D03*
X50750000Y-34750000D03*
X52200000Y-43311802D03*
X55400000Y-33000000D03*
X57200000Y-54000000D03*
X62000000Y-46800000D03*
X55750000Y-62500000D03*
X58000000Y-70800000D03*
X55600000Y-71400000D03*
X51800000Y-65000000D03*
X62400000Y-39400000D03*
X60100000Y-37400000D03*
X54750000Y-53250000D03*
X54102000Y-32258000D03*
X57595200Y-48514000D03*
X56500000Y-108500000D03*
X51750000Y-69500000D03*
X59000000Y-42500000D03*
X52200000Y-66600000D03*
X55000000Y-60000000D03*
X59000000Y-60750000D03*
X56750000Y-60750000D03*
X56500000Y-41750000D03*
X56800000Y-53000000D03*
X57595200Y-50200000D03*
X54356000Y-50800000D03*
X53386000Y-41014000D03*
X53600000Y-39400000D03*
X54900000Y-56300000D03*
X57150000Y-42672000D03*
X50722990Y-43434000D03*
X54019986Y-42564800D03*
D17*
X53000000Y-72000000D02*
X53000000Y-70750000D01*
X54500000Y-104750000D02*
X55345119Y-105595119D01*
X53758622Y-104008622D02*
X54500000Y-104750000D01*
X51228329Y-105228329D02*
X52000000Y-106000000D01*
X50500000Y-102000000D02*
X50500000Y-100750000D01*
X50500000Y-97000000D02*
X50500000Y-98250000D01*
X53000000Y-97000000D02*
X53000000Y-98249994D01*
X50500000Y-97000000D02*
X50500000Y-95750000D01*
X53000000Y-97000000D02*
X53000000Y-95750006D01*
X50500000Y-92000000D02*
X50500000Y-90750000D01*
X50500000Y-89500000D02*
X50500000Y-90750000D01*
X50500000Y-87000000D02*
X50500000Y-88250006D01*
X53000000Y-87000000D02*
X53000000Y-88250006D01*
X50500000Y-87000000D02*
X50500000Y-85750000D01*
X50500000Y-84500000D02*
X50500000Y-85750000D01*
X53000000Y-87000000D02*
X53000000Y-85750000D01*
X53000000Y-84500000D02*
X53000000Y-85750000D01*
X53000000Y-82000000D02*
X53000000Y-83250006D01*
X53000000Y-82000000D02*
X53000000Y-80750000D01*
X53000000Y-77000000D02*
X53000000Y-75750000D01*
X58000000Y-92000000D02*
X58000000Y-90750000D01*
X58000000Y-88249996D02*
X58000004Y-88250000D01*
X58000000Y-87000000D02*
X58000000Y-88249996D01*
X58000000Y-87000000D02*
X58000000Y-85750000D01*
X58000000Y-84500000D02*
X58000000Y-85750000D01*
X60500000Y-87000000D02*
X60500000Y-85749994D01*
X60500000Y-84500000D02*
X60500000Y-85749994D01*
X60500000Y-82000000D02*
X60500000Y-83250000D01*
X58000000Y-82000000D02*
X58000000Y-83250000D01*
X60500000Y-79500000D02*
X60500000Y-80750000D01*
X60500000Y-82000000D02*
X60500000Y-80750000D01*
X58000000Y-82000000D02*
X58000000Y-80750000D01*
X58000000Y-79500000D02*
X58000000Y-80750000D01*
X58000000Y-77000000D02*
X58000000Y-75750000D01*
X60500000Y-77000000D02*
X60500000Y-75750000D01*
X60500000Y-74500000D02*
X60500000Y-75750000D01*
X60500000Y-77000000D02*
X60500000Y-78250000D01*
X58000000Y-77000000D02*
X58000000Y-78250006D01*
X58000000Y-94500000D02*
X58000000Y-95749984D01*
X60500000Y-94500000D02*
X60500000Y-95750000D01*
X58000000Y-99500000D02*
X58000000Y-100746139D01*
X60500000Y-100763982D02*
X60500000Y-99500000D01*
X58000000Y-104500000D02*
X58000000Y-103246781D01*
X60500000Y-104500000D02*
X60500000Y-105746856D01*
X50500000Y-102000000D02*
X50500000Y-104500000D01*
X50500000Y-77000000D02*
X50500000Y-74500000D01*
X50500000Y-82000000D02*
X50500000Y-79500000D01*
X53000000Y-99500000D02*
X53000000Y-102000000D01*
X53000000Y-89500000D02*
X53000000Y-92000000D01*
X55000000Y-66200000D02*
X55000000Y-70000000D01*
X55000000Y-70000000D02*
X53000000Y-72000000D01*
X60500000Y-72000000D02*
X60500000Y-69500000D01*
X60500000Y-92000000D02*
X60500000Y-89500000D01*
X55000000Y-66200000D02*
X55000000Y-69000000D01*
X55000000Y-69000000D02*
X58000000Y-72000000D01*
X55000000Y-66200000D02*
X55000000Y-68000000D01*
X50500000Y-69550003D02*
X50449997Y-69500000D01*
X50500000Y-70753515D02*
X50500000Y-69550003D01*
X60016936Y-34230000D02*
X60016936Y-35500000D01*
X51300000Y-31000000D02*
X51300000Y-32250000D01*
X51300000Y-34200000D02*
X51300000Y-32250000D01*
X50750000Y-34750000D02*
X51300000Y-34200000D01*
X51750000Y-44550000D02*
X51750000Y-43761802D01*
X51750000Y-43761802D02*
X52200000Y-43311802D01*
X56000000Y-35400000D02*
X57270000Y-35400000D01*
X53200000Y-31000000D02*
X53200000Y-32250000D01*
X53200000Y-30371000D02*
X53200000Y-31000000D01*
X53571000Y-30000000D02*
X53200000Y-30371000D01*
X55750000Y-30000000D02*
X53571000Y-30000000D01*
D18*
X59710936Y-32000000D02*
X57000000Y-32000000D01*
X55750000Y-30750000D02*
X55750000Y-30000000D01*
X57000000Y-32000000D02*
X55750000Y-30750000D01*
X63850000Y-33100000D02*
X63850000Y-42500000D01*
X62750000Y-32000000D02*
X63850000Y-33100000D01*
D17*
X53208000Y-32258000D02*
X53200000Y-32250000D01*
X54102000Y-32258000D02*
X53208000Y-32258000D01*
D18*
X59710936Y-32000000D02*
X59948000Y-32000000D01*
X59948000Y-32000000D02*
X62750000Y-32000000D01*
D17*
X63850000Y-42500000D02*
X63700000Y-42500000D01*
D18*
X63700000Y-42500000D02*
X60198000Y-46002000D01*
D17*
X60198000Y-46002000D02*
X60107200Y-46002000D01*
D18*
X60107200Y-46002000D02*
X57595200Y-48514000D01*
D17*
X53200000Y-32879000D02*
X53200000Y-32250000D01*
X53200000Y-34524000D02*
X53200000Y-32879000D01*
X54076000Y-35400000D02*
X53200000Y-34524000D01*
X54730000Y-35400000D02*
X54076000Y-35400000D01*
X51750000Y-103750000D02*
X52000000Y-104000000D01*
X52000000Y-104000000D02*
X56500000Y-108500000D01*
X51750000Y-69500000D02*
X51750000Y-103750000D01*
X59810000Y-39464000D02*
X59810000Y-41690000D01*
X59810000Y-42390000D02*
X59700000Y-42500000D01*
X59810000Y-41690000D02*
X59810000Y-42390000D01*
X61650000Y-42500000D02*
X59700000Y-42500000D01*
X59700000Y-42500000D02*
X59000000Y-42500000D01*
D19*
X54450000Y-66200000D02*
X55000000Y-66200000D01*
X54450000Y-66200000D02*
X54200000Y-66200000D01*
X52600000Y-66200000D02*
X52200000Y-66600000D01*
X54200000Y-66200000D02*
X52600000Y-66200000D01*
D17*
X55000000Y-61123200D02*
X54873200Y-61250000D01*
X55000000Y-60000000D02*
X55000000Y-61123200D01*
X59000000Y-60750000D02*
X56750000Y-60750000D01*
X58400000Y-55600000D02*
X56750000Y-57250000D01*
X58400000Y-53400000D02*
X58400000Y-55600000D01*
X55600000Y-50600000D02*
X58400000Y-53400000D01*
X55600000Y-48896671D02*
X55600000Y-50600000D01*
X56500000Y-41750000D02*
X57197106Y-41750000D01*
X57197106Y-41750000D02*
X57912000Y-42464894D01*
X56750000Y-57250000D02*
X56750000Y-60750000D01*
X57912000Y-42464894D02*
X57912000Y-44920000D01*
X57912000Y-44920000D02*
X56750000Y-46082000D01*
X56750000Y-46082000D02*
X56750000Y-47746671D01*
X56750000Y-47746671D02*
X55600000Y-48896671D01*
D20*
X59954000Y-30950000D02*
X60750000Y-30154000D01*
X58750000Y-30950000D02*
X59954000Y-30950000D01*
X60750000Y-30154000D02*
X60750000Y-27500000D01*
D17*
X60104810Y-26495190D02*
X60025000Y-26495190D01*
X60600000Y-26000000D02*
X60104810Y-26495190D01*
X61600000Y-26000000D02*
X60600000Y-26000000D01*
X62095190Y-26495190D02*
X61600000Y-26000000D01*
X57595200Y-50200000D02*
X59395200Y-48400000D01*
X59395200Y-48400000D02*
X62800000Y-48400000D01*
X62800000Y-48400000D02*
X65904810Y-45295190D01*
X65904810Y-45295190D02*
X65904810Y-26504810D01*
X65904810Y-26504810D02*
X65895190Y-26495190D01*
X65895190Y-26495190D02*
X62095190Y-26495190D01*
X53775000Y-27900000D02*
X53550000Y-27900000D01*
X54575000Y-27100000D02*
X53775000Y-27900000D01*
X56146000Y-27100000D02*
X54575000Y-27100000D01*
X56996000Y-26250000D02*
X56146000Y-27100000D01*
X57750000Y-26250000D02*
X56996000Y-26250000D01*
D19*
X57750000Y-26250000D02*
X59500000Y-26250000D01*
D20*
X59500000Y-26250000D02*
X60750000Y-27500000D01*
D17*
X58450000Y-28750000D02*
X58750000Y-29050000D01*
X54750000Y-46154000D02*
X52578000Y-48326000D01*
X54750000Y-45500000D02*
X54750000Y-46154000D01*
X52578000Y-48326000D02*
X52578000Y-50546000D01*
X52578000Y-50546000D02*
X52832000Y-50800000D01*
X52832000Y-50800000D02*
X54356000Y-50800000D01*
X54750000Y-42304000D02*
X54356000Y-41910000D01*
X54750000Y-45500000D02*
X54750000Y-42304000D01*
X54356000Y-41910000D02*
X52110000Y-41910000D01*
X52110000Y-41910000D02*
X50095199Y-39895199D01*
X50095199Y-39895199D02*
X50095199Y-30422801D01*
X50095199Y-30422801D02*
X50546000Y-29972000D01*
X55450000Y-28529000D02*
X55450000Y-28750000D01*
X57546000Y-29050000D02*
X57510500Y-29014500D01*
X58750000Y-29050000D02*
X57546000Y-29050000D01*
X55450000Y-28529000D02*
X55450000Y-29050000D01*
X55450000Y-27900000D02*
X55450000Y-28529000D01*
X58750000Y-29050000D02*
X55450000Y-29050000D01*
X53950000Y-29050000D02*
X53779000Y-29050000D01*
X55450000Y-29050000D02*
X53950000Y-29050000D01*
X51028000Y-29972000D02*
X50546000Y-29972000D01*
X51595199Y-29404801D02*
X51028000Y-29972000D01*
X53509602Y-29050000D02*
X53154801Y-29404801D01*
X58750000Y-29050000D02*
X53509602Y-29050000D01*
X53154801Y-29404801D02*
X51595199Y-29404801D01*
X54730000Y-39464000D02*
X54730000Y-40520000D01*
X54730000Y-39670000D02*
X53386000Y-41014000D01*
X54730000Y-39464000D02*
X54730000Y-39670000D01*
X56000000Y-38364000D02*
X55236000Y-37600000D01*
X56000000Y-39464000D02*
X56000000Y-38364000D01*
X53600000Y-38145358D02*
X53600000Y-39400000D01*
X55236000Y-37600000D02*
X54145358Y-37600000D01*
X54145358Y-37600000D02*
X53600000Y-38145358D01*
X51400000Y-46800000D02*
X51750000Y-46450000D01*
X51400000Y-49000000D02*
X51400000Y-46800000D01*
X53423200Y-63750000D02*
X51873200Y-62200000D01*
X53600000Y-63750000D02*
X53423200Y-63750000D01*
X51929080Y-55950000D02*
X53156000Y-55950000D01*
X53850000Y-56644000D02*
X53850000Y-58000000D01*
X53156000Y-55950000D02*
X53850000Y-56644000D01*
X54928436Y-54999356D02*
X54929080Y-55000000D01*
X54929080Y-55000000D02*
X54929080Y-56270920D01*
X54929080Y-56270920D02*
X54900000Y-56300000D01*
X57150000Y-42672000D02*
X57150000Y-44958000D01*
X56318190Y-45789810D02*
X56318190Y-47567810D01*
X57150000Y-44958000D02*
X56318190Y-45789810D01*
X54886000Y-49000000D02*
X53600000Y-49000000D01*
X56318190Y-47567810D02*
X54886000Y-49000000D01*
X50034000Y-63750000D02*
X51400000Y-63750000D01*
X49836103Y-63552103D02*
X50034000Y-63750000D01*
X50722990Y-43434000D02*
X49836103Y-44320887D01*
X49836103Y-44320887D02*
X49836103Y-53795897D01*
X49836103Y-53795897D02*
X49354810Y-54277190D01*
X49354810Y-57482810D02*
X49836103Y-57964103D01*
X49354810Y-54277190D02*
X49354810Y-57482810D01*
X49836103Y-57964103D02*
X49836103Y-63552103D01*
X50796000Y-58000000D02*
X49836103Y-57040103D01*
X51650000Y-58000000D02*
X50796000Y-58000000D01*
X49836103Y-54406567D02*
X50292000Y-53950670D01*
X49836103Y-57040103D02*
X49836103Y-54406567D01*
X50292000Y-46009358D02*
X50835358Y-45466000D01*
X50292000Y-53950670D02*
X50292000Y-46009358D01*
X52732642Y-45466000D02*
X53340000Y-44858642D01*
X50835358Y-45466000D02*
X52732642Y-45466000D01*
X53340000Y-44858642D02*
X53340000Y-44241358D01*
X53340000Y-43244786D02*
X54019986Y-42564800D01*
X53340000Y-43688000D02*
X53340000Y-43244786D01*
X53340000Y-44241358D02*
X53340000Y-43688000D01*
G36*
X55429124Y-108636862D02*
G01*
X55464389Y-108814149D01*
X55545575Y-109010151D01*
X55663440Y-109186547D01*
X55813453Y-109336560D01*
X55989849Y-109454425D01*
X56185851Y-109535611D01*
X56393925Y-109577000D01*
X56606075Y-109577000D01*
X56814149Y-109535611D01*
X57010151Y-109454425D01*
X57186547Y-109336560D01*
X57336560Y-109186547D01*
X57454425Y-109010151D01*
X57535611Y-108814149D01*
X57577000Y-108606075D01*
X57577000Y-108393925D01*
X57535611Y-108185851D01*
X57454425Y-107989849D01*
X57336560Y-107813453D01*
X57186547Y-107663440D01*
X57010151Y-107545575D01*
X56814149Y-107464389D01*
X56636862Y-107429124D01*
X56634738Y-107427000D01*
X65873000Y-107427000D01*
X65873000Y-160958702D01*
X58000000Y-171784077D01*
X50127000Y-160958702D01*
X50127000Y-107427000D01*
X54219262Y-107427000D01*
X55429124Y-108636862D01*
X55429124Y-108636862D01*
G37*
X55429124Y-108636862D02*
X55464389Y-108814149D01*
X55545575Y-109010151D01*
X55663440Y-109186547D01*
X55813453Y-109336560D01*
X55989849Y-109454425D01*
X56185851Y-109535611D01*
X56393925Y-109577000D01*
X56606075Y-109577000D01*
X56814149Y-109535611D01*
X57010151Y-109454425D01*
X57186547Y-109336560D01*
X57336560Y-109186547D01*
X57454425Y-109010151D01*
X57535611Y-108814149D01*
X57577000Y-108606075D01*
X57577000Y-108393925D01*
X57535611Y-108185851D01*
X57454425Y-107989849D01*
X57336560Y-107813453D01*
X57186547Y-107663440D01*
X57010151Y-107545575D01*
X56814149Y-107464389D01*
X56636862Y-107429124D01*
X56634738Y-107427000D01*
X65873000Y-107427000D01*
X65873000Y-160958702D01*
X58000000Y-171784077D01*
X50127000Y-160958702D01*
X50127000Y-107427000D01*
X54219262Y-107427000D01*
X55429124Y-108636862D01*
G36*
X57269000Y-71987420D02*
G01*
X57269000Y-72071997D01*
X57297092Y-72213225D01*
X57352196Y-72346258D01*
X57432195Y-72465985D01*
X57534015Y-72567805D01*
X57619618Y-72625003D01*
X57534015Y-72682201D01*
X57432195Y-72784021D01*
X57352196Y-72903748D01*
X57297092Y-73036781D01*
X57269000Y-73178009D01*
X57269000Y-73322003D01*
X57297092Y-73463231D01*
X57352196Y-73596264D01*
X57432195Y-73715991D01*
X57534015Y-73817811D01*
X57619609Y-73875003D01*
X57534015Y-73932195D01*
X57432195Y-74034015D01*
X57352196Y-74153742D01*
X57297092Y-74286775D01*
X57269000Y-74428003D01*
X57269000Y-74571997D01*
X57297092Y-74713225D01*
X57352196Y-74846258D01*
X57432195Y-74965985D01*
X57534015Y-75067805D01*
X57619613Y-75125000D01*
X57534015Y-75182195D01*
X57432195Y-75284015D01*
X57352196Y-75403742D01*
X57297092Y-75536775D01*
X57269000Y-75678003D01*
X57269000Y-75821997D01*
X57297092Y-75963225D01*
X57352196Y-76096258D01*
X57432195Y-76215985D01*
X57492001Y-76275791D01*
X57492000Y-76474210D01*
X57432195Y-76534015D01*
X57352196Y-76653742D01*
X57297092Y-76786775D01*
X57269000Y-76928003D01*
X57269000Y-77071997D01*
X57297092Y-77213225D01*
X57352196Y-77346258D01*
X57432195Y-77465985D01*
X57492000Y-77525790D01*
X57492001Y-77724215D01*
X57432195Y-77784021D01*
X57352196Y-77903748D01*
X57297092Y-78036781D01*
X57269000Y-78178009D01*
X57269000Y-78322003D01*
X57297092Y-78463231D01*
X57352196Y-78596264D01*
X57432195Y-78715991D01*
X57534015Y-78817811D01*
X57619609Y-78875003D01*
X57534015Y-78932195D01*
X57432195Y-79034015D01*
X57352196Y-79153742D01*
X57297092Y-79286775D01*
X57269000Y-79428003D01*
X57269000Y-79571997D01*
X57297092Y-79713225D01*
X57352196Y-79846258D01*
X57432195Y-79965985D01*
X57492000Y-80025790D01*
X57492001Y-80224209D01*
X57432195Y-80284015D01*
X57352196Y-80403742D01*
X57297092Y-80536775D01*
X57269000Y-80678003D01*
X57269000Y-80821997D01*
X57297092Y-80963225D01*
X57352196Y-81096258D01*
X57432195Y-81215985D01*
X57492001Y-81275791D01*
X57492000Y-81474210D01*
X57432195Y-81534015D01*
X57352196Y-81653742D01*
X57297092Y-81786775D01*
X57269000Y-81928003D01*
X57269000Y-82071997D01*
X57297092Y-82213225D01*
X57352196Y-82346258D01*
X57432195Y-82465985D01*
X57492000Y-82525790D01*
X57492001Y-82724209D01*
X57432195Y-82784015D01*
X57352196Y-82903742D01*
X57297092Y-83036775D01*
X57269000Y-83178003D01*
X57269000Y-83321997D01*
X57297092Y-83463225D01*
X57352196Y-83596258D01*
X57432195Y-83715985D01*
X57534015Y-83817805D01*
X57619613Y-83875000D01*
X57534015Y-83932195D01*
X57432195Y-84034015D01*
X57352196Y-84153742D01*
X57297092Y-84286775D01*
X57269000Y-84428003D01*
X57269000Y-84571997D01*
X57297092Y-84713225D01*
X57352196Y-84846258D01*
X57432195Y-84965985D01*
X57492000Y-85025790D01*
X57492001Y-85224209D01*
X57432195Y-85284015D01*
X57352196Y-85403742D01*
X57297092Y-85536775D01*
X57269000Y-85678003D01*
X57269000Y-85821997D01*
X57297092Y-85963225D01*
X57352196Y-86096258D01*
X57432195Y-86215985D01*
X57492001Y-86275791D01*
X57492000Y-86474210D01*
X57432195Y-86534015D01*
X57352196Y-86653742D01*
X57297092Y-86786775D01*
X57269000Y-86928003D01*
X57269000Y-87071997D01*
X57297092Y-87213225D01*
X57352196Y-87346258D01*
X57432195Y-87465985D01*
X57492000Y-87525790D01*
X57492001Y-87724213D01*
X57432199Y-87784015D01*
X57352200Y-87903742D01*
X57297096Y-88036775D01*
X57269004Y-88178003D01*
X57269004Y-88321997D01*
X57297096Y-88463225D01*
X57352200Y-88596258D01*
X57432199Y-88715985D01*
X57534019Y-88817805D01*
X57619615Y-88874999D01*
X57534015Y-88932195D01*
X57432195Y-89034015D01*
X57352196Y-89153742D01*
X57297092Y-89286775D01*
X57269000Y-89428003D01*
X57269000Y-89571997D01*
X57297092Y-89713225D01*
X57352196Y-89846258D01*
X57432195Y-89965985D01*
X57534015Y-90067805D01*
X57619613Y-90125000D01*
X57534015Y-90182195D01*
X57432195Y-90284015D01*
X57352196Y-90403742D01*
X57297092Y-90536775D01*
X57269000Y-90678003D01*
X57269000Y-90821997D01*
X57297092Y-90963225D01*
X57352196Y-91096258D01*
X57432195Y-91215985D01*
X57492001Y-91275791D01*
X57492000Y-91474210D01*
X57432195Y-91534015D01*
X57352196Y-91653742D01*
X57297092Y-91786775D01*
X57269000Y-91928003D01*
X57269000Y-92071997D01*
X57297092Y-92213225D01*
X57352196Y-92346258D01*
X57432195Y-92465985D01*
X57534015Y-92567805D01*
X57619613Y-92625000D01*
X57534015Y-92682195D01*
X57432195Y-92784015D01*
X57352196Y-92903742D01*
X57297092Y-93036775D01*
X57269000Y-93178003D01*
X57269000Y-93321997D01*
X57297092Y-93463225D01*
X57352196Y-93596258D01*
X57432195Y-93715985D01*
X57534015Y-93817805D01*
X57619613Y-93875000D01*
X57534015Y-93932195D01*
X57432195Y-94034015D01*
X57352196Y-94153742D01*
X57297092Y-94286775D01*
X57269000Y-94428003D01*
X57269000Y-94571997D01*
X57297092Y-94713225D01*
X57352196Y-94846258D01*
X57432195Y-94965985D01*
X57492000Y-95025790D01*
X57492001Y-95224193D01*
X57432195Y-95283999D01*
X57352196Y-95403726D01*
X57297092Y-95536759D01*
X57269000Y-95677987D01*
X57269000Y-95821981D01*
X57297092Y-95963209D01*
X57352196Y-96096242D01*
X57432195Y-96215969D01*
X57534015Y-96317789D01*
X57619625Y-96374992D01*
X57534015Y-96432195D01*
X57432195Y-96534015D01*
X57352196Y-96653742D01*
X57297092Y-96786775D01*
X57269000Y-96928003D01*
X57269000Y-97071997D01*
X57297092Y-97213225D01*
X57352196Y-97346258D01*
X57432195Y-97465985D01*
X57534015Y-97567805D01*
X57618164Y-97624032D01*
X57534015Y-97680258D01*
X57432195Y-97782078D01*
X57352196Y-97901805D01*
X57297092Y-98034838D01*
X57269000Y-98176066D01*
X57269000Y-98320060D01*
X57297092Y-98461288D01*
X57352196Y-98594321D01*
X57432195Y-98714048D01*
X57534015Y-98815868D01*
X57621063Y-98874032D01*
X57534015Y-98932195D01*
X57432195Y-99034015D01*
X57352196Y-99153742D01*
X57297092Y-99286775D01*
X57269000Y-99428003D01*
X57269000Y-99571997D01*
X57297092Y-99713225D01*
X57352196Y-99846258D01*
X57432195Y-99965985D01*
X57492000Y-100025790D01*
X57492001Y-100220348D01*
X57432195Y-100280154D01*
X57352196Y-100399881D01*
X57297092Y-100532914D01*
X57269000Y-100674142D01*
X57269000Y-100818136D01*
X57297092Y-100959364D01*
X57352196Y-101092397D01*
X57432195Y-101212124D01*
X57534015Y-101313944D01*
X57622503Y-101373070D01*
X57534015Y-101432195D01*
X57432195Y-101534015D01*
X57352196Y-101653742D01*
X57297092Y-101786775D01*
X57269000Y-101928003D01*
X57269000Y-102071997D01*
X57297092Y-102213225D01*
X57352196Y-102346258D01*
X57432195Y-102465985D01*
X57534015Y-102567805D01*
X57617205Y-102623391D01*
X57534015Y-102678976D01*
X57432195Y-102780796D01*
X57352196Y-102900523D01*
X57297092Y-103033556D01*
X57269000Y-103174784D01*
X57269000Y-103318778D01*
X57297092Y-103460006D01*
X57352196Y-103593039D01*
X57432195Y-103712766D01*
X57492001Y-103772572D01*
X57492000Y-103974210D01*
X57432195Y-104034015D01*
X57352196Y-104153742D01*
X57297092Y-104286775D01*
X57269000Y-104428003D01*
X57269000Y-104571997D01*
X57297092Y-104713225D01*
X57352196Y-104846258D01*
X57432195Y-104965985D01*
X57468875Y-105002665D01*
X57432195Y-105039345D01*
X57352196Y-105159072D01*
X57297092Y-105292105D01*
X57269000Y-105433333D01*
X57269000Y-105577327D01*
X57297092Y-105718555D01*
X57352196Y-105851588D01*
X57432195Y-105971315D01*
X57488540Y-106027660D01*
X57432195Y-106084005D01*
X57352196Y-106203732D01*
X57297092Y-106336765D01*
X57269000Y-106477993D01*
X57269000Y-106621987D01*
X57297092Y-106763215D01*
X57352196Y-106896248D01*
X57432195Y-107015975D01*
X57534015Y-107117795D01*
X57653742Y-107197794D01*
X57786775Y-107252898D01*
X57887835Y-107273000D01*
X56480738Y-107273000D01*
X56419369Y-107211631D01*
X56463225Y-107202908D01*
X56596258Y-107147804D01*
X56715985Y-107067805D01*
X56817805Y-106965985D01*
X56897804Y-106846258D01*
X56952908Y-106713225D01*
X56981000Y-106571997D01*
X56981000Y-106428003D01*
X56952908Y-106286775D01*
X56897804Y-106153742D01*
X56817805Y-106034015D01*
X56715985Y-105932195D01*
X56596258Y-105852196D01*
X56463225Y-105797092D01*
X56321997Y-105769000D01*
X56178003Y-105769000D01*
X56050821Y-105794298D01*
X56076119Y-105667116D01*
X56076119Y-105523122D01*
X56048027Y-105381894D01*
X55992923Y-105248861D01*
X55912924Y-105129134D01*
X55811104Y-105027314D01*
X55691377Y-104947315D01*
X55558344Y-104892211D01*
X55417116Y-104864119D01*
X55332539Y-104864119D01*
X55231000Y-104762580D01*
X55231000Y-104678003D01*
X55202908Y-104536775D01*
X55147804Y-104403742D01*
X55067805Y-104284015D01*
X54965985Y-104182195D01*
X54846258Y-104102196D01*
X54713225Y-104047092D01*
X54571997Y-104019000D01*
X54489622Y-104019000D01*
X54489622Y-103936625D01*
X54461530Y-103795397D01*
X54406426Y-103662364D01*
X54326427Y-103542637D01*
X54224607Y-103440817D01*
X54104880Y-103360818D01*
X53971847Y-103305714D01*
X53830619Y-103277622D01*
X53731000Y-103277622D01*
X53731000Y-103178003D01*
X53702908Y-103036775D01*
X53647804Y-102903742D01*
X53567805Y-102784015D01*
X53465985Y-102682195D01*
X53380387Y-102625000D01*
X53465985Y-102567805D01*
X53567805Y-102465985D01*
X53647804Y-102346258D01*
X53702908Y-102213225D01*
X53731000Y-102071997D01*
X53731000Y-101928003D01*
X53702908Y-101786775D01*
X53647804Y-101653742D01*
X53567805Y-101534015D01*
X53508000Y-101474210D01*
X53508000Y-101275790D01*
X53567805Y-101215985D01*
X53647804Y-101096258D01*
X53702908Y-100963225D01*
X53731000Y-100821997D01*
X53731000Y-100678003D01*
X53702908Y-100536775D01*
X53647804Y-100403742D01*
X53567805Y-100284015D01*
X53508000Y-100224210D01*
X53508000Y-100025790D01*
X53567805Y-99965985D01*
X53647804Y-99846258D01*
X53702908Y-99713225D01*
X53731000Y-99571997D01*
X53731000Y-99428003D01*
X53702908Y-99286775D01*
X53647804Y-99153742D01*
X53567805Y-99034015D01*
X53465985Y-98932195D01*
X53380382Y-98874997D01*
X53465985Y-98817799D01*
X53567805Y-98715979D01*
X53647804Y-98596252D01*
X53702908Y-98463219D01*
X53731000Y-98321991D01*
X53731000Y-98177997D01*
X53702908Y-98036769D01*
X53647804Y-97903736D01*
X53567805Y-97784009D01*
X53508000Y-97724204D01*
X53508000Y-97525790D01*
X53567805Y-97465985D01*
X53647804Y-97346258D01*
X53702908Y-97213225D01*
X53731000Y-97071997D01*
X53731000Y-96928003D01*
X53702908Y-96786775D01*
X53647804Y-96653742D01*
X53567805Y-96534015D01*
X53508000Y-96474210D01*
X53508000Y-96275796D01*
X53567805Y-96215991D01*
X53647804Y-96096264D01*
X53702908Y-95963231D01*
X53731000Y-95822003D01*
X53731000Y-95678009D01*
X53702908Y-95536781D01*
X53647804Y-95403748D01*
X53567805Y-95284021D01*
X53465985Y-95182201D01*
X53380382Y-95125003D01*
X53465985Y-95067805D01*
X53567805Y-94965985D01*
X53647804Y-94846258D01*
X53702908Y-94713225D01*
X53731000Y-94571997D01*
X53731000Y-94428003D01*
X53702908Y-94286775D01*
X53647804Y-94153742D01*
X53567805Y-94034015D01*
X53465985Y-93932195D01*
X53380387Y-93875000D01*
X53465985Y-93817805D01*
X53567805Y-93715985D01*
X53647804Y-93596258D01*
X53702908Y-93463225D01*
X53731000Y-93321997D01*
X53731000Y-93178003D01*
X53702908Y-93036775D01*
X53647804Y-92903742D01*
X53567805Y-92784015D01*
X53465985Y-92682195D01*
X53380387Y-92625000D01*
X53465985Y-92567805D01*
X53567805Y-92465985D01*
X53647804Y-92346258D01*
X53702908Y-92213225D01*
X53731000Y-92071997D01*
X53731000Y-91928003D01*
X53702908Y-91786775D01*
X53647804Y-91653742D01*
X53567805Y-91534015D01*
X53508000Y-91474210D01*
X53508000Y-91275782D01*
X53567805Y-91215977D01*
X53647804Y-91096250D01*
X53702908Y-90963217D01*
X53731000Y-90821989D01*
X53731000Y-90677995D01*
X53702908Y-90536767D01*
X53647804Y-90403734D01*
X53567805Y-90284007D01*
X53508000Y-90224202D01*
X53508000Y-90025790D01*
X53567805Y-89965985D01*
X53647804Y-89846258D01*
X53702908Y-89713225D01*
X53731000Y-89571997D01*
X53731000Y-89428003D01*
X53702908Y-89286775D01*
X53647804Y-89153742D01*
X53567805Y-89034015D01*
X53465985Y-88932195D01*
X53380391Y-88875003D01*
X53465985Y-88817811D01*
X53567805Y-88715991D01*
X53647804Y-88596264D01*
X53702908Y-88463231D01*
X53731000Y-88322003D01*
X53731000Y-88178009D01*
X53702908Y-88036781D01*
X53647804Y-87903748D01*
X53567805Y-87784021D01*
X53508000Y-87724216D01*
X53508000Y-87525790D01*
X53567805Y-87465985D01*
X53647804Y-87346258D01*
X53702908Y-87213225D01*
X53731000Y-87071997D01*
X53731000Y-86928003D01*
X53702908Y-86786775D01*
X53647804Y-86653742D01*
X53567805Y-86534015D01*
X53508000Y-86474210D01*
X53508000Y-86275790D01*
X53567805Y-86215985D01*
X53647804Y-86096258D01*
X53702908Y-85963225D01*
X53731000Y-85821997D01*
X53731000Y-85678003D01*
X53702908Y-85536775D01*
X53647804Y-85403742D01*
X53567805Y-85284015D01*
X53508000Y-85224210D01*
X53508000Y-85025790D01*
X53567805Y-84965985D01*
X53647804Y-84846258D01*
X53702908Y-84713225D01*
X53731000Y-84571997D01*
X53731000Y-84428003D01*
X53702908Y-84286775D01*
X53647804Y-84153742D01*
X53567805Y-84034015D01*
X53465985Y-83932195D01*
X53380391Y-83875003D01*
X53465985Y-83817811D01*
X53567805Y-83715991D01*
X53647804Y-83596264D01*
X53702908Y-83463231D01*
X53731000Y-83322003D01*
X53731000Y-83178009D01*
X53702908Y-83036781D01*
X53647804Y-82903748D01*
X53567805Y-82784021D01*
X53508000Y-82724216D01*
X53508000Y-82525790D01*
X53567805Y-82465985D01*
X53647804Y-82346258D01*
X53702908Y-82213225D01*
X53731000Y-82071997D01*
X53731000Y-81928003D01*
X53702908Y-81786775D01*
X53647804Y-81653742D01*
X53567805Y-81534015D01*
X53508000Y-81474210D01*
X53508000Y-81275790D01*
X53567805Y-81215985D01*
X53647804Y-81096258D01*
X53702908Y-80963225D01*
X53731000Y-80821997D01*
X53731000Y-80678003D01*
X53702908Y-80536775D01*
X53647804Y-80403742D01*
X53567805Y-80284015D01*
X53465985Y-80182195D01*
X53380387Y-80125000D01*
X53465985Y-80067805D01*
X53567805Y-79965985D01*
X53647804Y-79846258D01*
X53702908Y-79713225D01*
X53731000Y-79571997D01*
X53731000Y-79428003D01*
X53702908Y-79286775D01*
X53647804Y-79153742D01*
X53567805Y-79034015D01*
X53465985Y-78932195D01*
X53380387Y-78875000D01*
X53465985Y-78817805D01*
X53567805Y-78715985D01*
X53647804Y-78596258D01*
X53702908Y-78463225D01*
X53731000Y-78321997D01*
X53731000Y-78178003D01*
X53702908Y-78036775D01*
X53647804Y-77903742D01*
X53567805Y-77784015D01*
X53465985Y-77682195D01*
X53380387Y-77625000D01*
X53465985Y-77567805D01*
X53567805Y-77465985D01*
X53647804Y-77346258D01*
X53702908Y-77213225D01*
X53731000Y-77071997D01*
X53731000Y-76928003D01*
X53702908Y-76786775D01*
X53647804Y-76653742D01*
X53567805Y-76534015D01*
X53508000Y-76474210D01*
X53508000Y-76275790D01*
X53567805Y-76215985D01*
X53647804Y-76096258D01*
X53702908Y-75963225D01*
X53731000Y-75821997D01*
X53731000Y-75678003D01*
X53702908Y-75536775D01*
X53647804Y-75403742D01*
X53567805Y-75284015D01*
X53465985Y-75182195D01*
X53380387Y-75125000D01*
X53465985Y-75067805D01*
X53567805Y-74965985D01*
X53647804Y-74846258D01*
X53702908Y-74713225D01*
X53731000Y-74571997D01*
X53731000Y-74428003D01*
X53702908Y-74286775D01*
X53647804Y-74153742D01*
X53567805Y-74034015D01*
X53465985Y-73932195D01*
X53386327Y-73878969D01*
X53465985Y-73825743D01*
X53567805Y-73723923D01*
X53647804Y-73604196D01*
X53702908Y-73471163D01*
X53731000Y-73329935D01*
X53731000Y-73185941D01*
X53702908Y-73044713D01*
X53647804Y-72911680D01*
X53567805Y-72791953D01*
X53465985Y-72690133D01*
X53374447Y-72628969D01*
X53465985Y-72567805D01*
X53567805Y-72465985D01*
X53647804Y-72346258D01*
X53702908Y-72213225D01*
X53731000Y-72071997D01*
X53731000Y-71987420D01*
X55341571Y-70376850D01*
X55360948Y-70360948D01*
X55392291Y-70322756D01*
X55424429Y-70283596D01*
X55471600Y-70195344D01*
X55471601Y-70195343D01*
X55472840Y-70191260D01*
X57269000Y-71987420D01*
X57269000Y-71987420D01*
G37*
X57269000Y-71987420D02*
X57269000Y-72071997D01*
X57297092Y-72213225D01*
X57352196Y-72346258D01*
X57432195Y-72465985D01*
X57534015Y-72567805D01*
X57619618Y-72625003D01*
X57534015Y-72682201D01*
X57432195Y-72784021D01*
X57352196Y-72903748D01*
X57297092Y-73036781D01*
X57269000Y-73178009D01*
X57269000Y-73322003D01*
X57297092Y-73463231D01*
X57352196Y-73596264D01*
X57432195Y-73715991D01*
X57534015Y-73817811D01*
X57619609Y-73875003D01*
X57534015Y-73932195D01*
X57432195Y-74034015D01*
X57352196Y-74153742D01*
X57297092Y-74286775D01*
X57269000Y-74428003D01*
X57269000Y-74571997D01*
X57297092Y-74713225D01*
X57352196Y-74846258D01*
X57432195Y-74965985D01*
X57534015Y-75067805D01*
X57619613Y-75125000D01*
X57534015Y-75182195D01*
X57432195Y-75284015D01*
X57352196Y-75403742D01*
X57297092Y-75536775D01*
X57269000Y-75678003D01*
X57269000Y-75821997D01*
X57297092Y-75963225D01*
X57352196Y-76096258D01*
X57432195Y-76215985D01*
X57492001Y-76275791D01*
X57492000Y-76474210D01*
X57432195Y-76534015D01*
X57352196Y-76653742D01*
X57297092Y-76786775D01*
X57269000Y-76928003D01*
X57269000Y-77071997D01*
X57297092Y-77213225D01*
X57352196Y-77346258D01*
X57432195Y-77465985D01*
X57492000Y-77525790D01*
X57492001Y-77724215D01*
X57432195Y-77784021D01*
X57352196Y-77903748D01*
X57297092Y-78036781D01*
X57269000Y-78178009D01*
X57269000Y-78322003D01*
X57297092Y-78463231D01*
X57352196Y-78596264D01*
X57432195Y-78715991D01*
X57534015Y-78817811D01*
X57619609Y-78875003D01*
X57534015Y-78932195D01*
X57432195Y-79034015D01*
X57352196Y-79153742D01*
X57297092Y-79286775D01*
X57269000Y-79428003D01*
X57269000Y-79571997D01*
X57297092Y-79713225D01*
X57352196Y-79846258D01*
X57432195Y-79965985D01*
X57492000Y-80025790D01*
X57492001Y-80224209D01*
X57432195Y-80284015D01*
X57352196Y-80403742D01*
X57297092Y-80536775D01*
X57269000Y-80678003D01*
X57269000Y-80821997D01*
X57297092Y-80963225D01*
X57352196Y-81096258D01*
X57432195Y-81215985D01*
X57492001Y-81275791D01*
X57492000Y-81474210D01*
X57432195Y-81534015D01*
X57352196Y-81653742D01*
X57297092Y-81786775D01*
X57269000Y-81928003D01*
X57269000Y-82071997D01*
X57297092Y-82213225D01*
X57352196Y-82346258D01*
X57432195Y-82465985D01*
X57492000Y-82525790D01*
X57492001Y-82724209D01*
X57432195Y-82784015D01*
X57352196Y-82903742D01*
X57297092Y-83036775D01*
X57269000Y-83178003D01*
X57269000Y-83321997D01*
X57297092Y-83463225D01*
X57352196Y-83596258D01*
X57432195Y-83715985D01*
X57534015Y-83817805D01*
X57619613Y-83875000D01*
X57534015Y-83932195D01*
X57432195Y-84034015D01*
X57352196Y-84153742D01*
X57297092Y-84286775D01*
X57269000Y-84428003D01*
X57269000Y-84571997D01*
X57297092Y-84713225D01*
X57352196Y-84846258D01*
X57432195Y-84965985D01*
X57492000Y-85025790D01*
X57492001Y-85224209D01*
X57432195Y-85284015D01*
X57352196Y-85403742D01*
X57297092Y-85536775D01*
X57269000Y-85678003D01*
X57269000Y-85821997D01*
X57297092Y-85963225D01*
X57352196Y-86096258D01*
X57432195Y-86215985D01*
X57492001Y-86275791D01*
X57492000Y-86474210D01*
X57432195Y-86534015D01*
X57352196Y-86653742D01*
X57297092Y-86786775D01*
X57269000Y-86928003D01*
X57269000Y-87071997D01*
X57297092Y-87213225D01*
X57352196Y-87346258D01*
X57432195Y-87465985D01*
X57492000Y-87525790D01*
X57492001Y-87724213D01*
X57432199Y-87784015D01*
X57352200Y-87903742D01*
X57297096Y-88036775D01*
X57269004Y-88178003D01*
X57269004Y-88321997D01*
X57297096Y-88463225D01*
X57352200Y-88596258D01*
X57432199Y-88715985D01*
X57534019Y-88817805D01*
X57619615Y-88874999D01*
X57534015Y-88932195D01*
X57432195Y-89034015D01*
X57352196Y-89153742D01*
X57297092Y-89286775D01*
X57269000Y-89428003D01*
X57269000Y-89571997D01*
X57297092Y-89713225D01*
X57352196Y-89846258D01*
X57432195Y-89965985D01*
X57534015Y-90067805D01*
X57619613Y-90125000D01*
X57534015Y-90182195D01*
X57432195Y-90284015D01*
X57352196Y-90403742D01*
X57297092Y-90536775D01*
X57269000Y-90678003D01*
X57269000Y-90821997D01*
X57297092Y-90963225D01*
X57352196Y-91096258D01*
X57432195Y-91215985D01*
X57492001Y-91275791D01*
X57492000Y-91474210D01*
X57432195Y-91534015D01*
X57352196Y-91653742D01*
X57297092Y-91786775D01*
X57269000Y-91928003D01*
X57269000Y-92071997D01*
X57297092Y-92213225D01*
X57352196Y-92346258D01*
X57432195Y-92465985D01*
X57534015Y-92567805D01*
X57619613Y-92625000D01*
X57534015Y-92682195D01*
X57432195Y-92784015D01*
X57352196Y-92903742D01*
X57297092Y-93036775D01*
X57269000Y-93178003D01*
X57269000Y-93321997D01*
X57297092Y-93463225D01*
X57352196Y-93596258D01*
X57432195Y-93715985D01*
X57534015Y-93817805D01*
X57619613Y-93875000D01*
X57534015Y-93932195D01*
X57432195Y-94034015D01*
X57352196Y-94153742D01*
X57297092Y-94286775D01*
X57269000Y-94428003D01*
X57269000Y-94571997D01*
X57297092Y-94713225D01*
X57352196Y-94846258D01*
X57432195Y-94965985D01*
X57492000Y-95025790D01*
X57492001Y-95224193D01*
X57432195Y-95283999D01*
X57352196Y-95403726D01*
X57297092Y-95536759D01*
X57269000Y-95677987D01*
X57269000Y-95821981D01*
X57297092Y-95963209D01*
X57352196Y-96096242D01*
X57432195Y-96215969D01*
X57534015Y-96317789D01*
X57619625Y-96374992D01*
X57534015Y-96432195D01*
X57432195Y-96534015D01*
X57352196Y-96653742D01*
X57297092Y-96786775D01*
X57269000Y-96928003D01*
X57269000Y-97071997D01*
X57297092Y-97213225D01*
X57352196Y-97346258D01*
X57432195Y-97465985D01*
X57534015Y-97567805D01*
X57618164Y-97624032D01*
X57534015Y-97680258D01*
X57432195Y-97782078D01*
X57352196Y-97901805D01*
X57297092Y-98034838D01*
X57269000Y-98176066D01*
X57269000Y-98320060D01*
X57297092Y-98461288D01*
X57352196Y-98594321D01*
X57432195Y-98714048D01*
X57534015Y-98815868D01*
X57621063Y-98874032D01*
X57534015Y-98932195D01*
X57432195Y-99034015D01*
X57352196Y-99153742D01*
X57297092Y-99286775D01*
X57269000Y-99428003D01*
X57269000Y-99571997D01*
X57297092Y-99713225D01*
X57352196Y-99846258D01*
X57432195Y-99965985D01*
X57492000Y-100025790D01*
X57492001Y-100220348D01*
X57432195Y-100280154D01*
X57352196Y-100399881D01*
X57297092Y-100532914D01*
X57269000Y-100674142D01*
X57269000Y-100818136D01*
X57297092Y-100959364D01*
X57352196Y-101092397D01*
X57432195Y-101212124D01*
X57534015Y-101313944D01*
X57622503Y-101373070D01*
X57534015Y-101432195D01*
X57432195Y-101534015D01*
X57352196Y-101653742D01*
X57297092Y-101786775D01*
X57269000Y-101928003D01*
X57269000Y-102071997D01*
X57297092Y-102213225D01*
X57352196Y-102346258D01*
X57432195Y-102465985D01*
X57534015Y-102567805D01*
X57617205Y-102623391D01*
X57534015Y-102678976D01*
X57432195Y-102780796D01*
X57352196Y-102900523D01*
X57297092Y-103033556D01*
X57269000Y-103174784D01*
X57269000Y-103318778D01*
X57297092Y-103460006D01*
X57352196Y-103593039D01*
X57432195Y-103712766D01*
X57492001Y-103772572D01*
X57492000Y-103974210D01*
X57432195Y-104034015D01*
X57352196Y-104153742D01*
X57297092Y-104286775D01*
X57269000Y-104428003D01*
X57269000Y-104571997D01*
X57297092Y-104713225D01*
X57352196Y-104846258D01*
X57432195Y-104965985D01*
X57468875Y-105002665D01*
X57432195Y-105039345D01*
X57352196Y-105159072D01*
X57297092Y-105292105D01*
X57269000Y-105433333D01*
X57269000Y-105577327D01*
X57297092Y-105718555D01*
X57352196Y-105851588D01*
X57432195Y-105971315D01*
X57488540Y-106027660D01*
X57432195Y-106084005D01*
X57352196Y-106203732D01*
X57297092Y-106336765D01*
X57269000Y-106477993D01*
X57269000Y-106621987D01*
X57297092Y-106763215D01*
X57352196Y-106896248D01*
X57432195Y-107015975D01*
X57534015Y-107117795D01*
X57653742Y-107197794D01*
X57786775Y-107252898D01*
X57887835Y-107273000D01*
X56480738Y-107273000D01*
X56419369Y-107211631D01*
X56463225Y-107202908D01*
X56596258Y-107147804D01*
X56715985Y-107067805D01*
X56817805Y-106965985D01*
X56897804Y-106846258D01*
X56952908Y-106713225D01*
X56981000Y-106571997D01*
X56981000Y-106428003D01*
X56952908Y-106286775D01*
X56897804Y-106153742D01*
X56817805Y-106034015D01*
X56715985Y-105932195D01*
X56596258Y-105852196D01*
X56463225Y-105797092D01*
X56321997Y-105769000D01*
X56178003Y-105769000D01*
X56050821Y-105794298D01*
X56076119Y-105667116D01*
X56076119Y-105523122D01*
X56048027Y-105381894D01*
X55992923Y-105248861D01*
X55912924Y-105129134D01*
X55811104Y-105027314D01*
X55691377Y-104947315D01*
X55558344Y-104892211D01*
X55417116Y-104864119D01*
X55332539Y-104864119D01*
X55231000Y-104762580D01*
X55231000Y-104678003D01*
X55202908Y-104536775D01*
X55147804Y-104403742D01*
X55067805Y-104284015D01*
X54965985Y-104182195D01*
X54846258Y-104102196D01*
X54713225Y-104047092D01*
X54571997Y-104019000D01*
X54489622Y-104019000D01*
X54489622Y-103936625D01*
X54461530Y-103795397D01*
X54406426Y-103662364D01*
X54326427Y-103542637D01*
X54224607Y-103440817D01*
X54104880Y-103360818D01*
X53971847Y-103305714D01*
X53830619Y-103277622D01*
X53731000Y-103277622D01*
X53731000Y-103178003D01*
X53702908Y-103036775D01*
X53647804Y-102903742D01*
X53567805Y-102784015D01*
X53465985Y-102682195D01*
X53380387Y-102625000D01*
X53465985Y-102567805D01*
X53567805Y-102465985D01*
X53647804Y-102346258D01*
X53702908Y-102213225D01*
X53731000Y-102071997D01*
X53731000Y-101928003D01*
X53702908Y-101786775D01*
X53647804Y-101653742D01*
X53567805Y-101534015D01*
X53508000Y-101474210D01*
X53508000Y-101275790D01*
X53567805Y-101215985D01*
X53647804Y-101096258D01*
X53702908Y-100963225D01*
X53731000Y-100821997D01*
X53731000Y-100678003D01*
X53702908Y-100536775D01*
X53647804Y-100403742D01*
X53567805Y-100284015D01*
X53508000Y-100224210D01*
X53508000Y-100025790D01*
X53567805Y-99965985D01*
X53647804Y-99846258D01*
X53702908Y-99713225D01*
X53731000Y-99571997D01*
X53731000Y-99428003D01*
X53702908Y-99286775D01*
X53647804Y-99153742D01*
X53567805Y-99034015D01*
X53465985Y-98932195D01*
X53380382Y-98874997D01*
X53465985Y-98817799D01*
X53567805Y-98715979D01*
X53647804Y-98596252D01*
X53702908Y-98463219D01*
X53731000Y-98321991D01*
X53731000Y-98177997D01*
X53702908Y-98036769D01*
X53647804Y-97903736D01*
X53567805Y-97784009D01*
X53508000Y-97724204D01*
X53508000Y-97525790D01*
X53567805Y-97465985D01*
X53647804Y-97346258D01*
X53702908Y-97213225D01*
X53731000Y-97071997D01*
X53731000Y-96928003D01*
X53702908Y-96786775D01*
X53647804Y-96653742D01*
X53567805Y-96534015D01*
X53508000Y-96474210D01*
X53508000Y-96275796D01*
X53567805Y-96215991D01*
X53647804Y-96096264D01*
X53702908Y-95963231D01*
X53731000Y-95822003D01*
X53731000Y-95678009D01*
X53702908Y-95536781D01*
X53647804Y-95403748D01*
X53567805Y-95284021D01*
X53465985Y-95182201D01*
X53380382Y-95125003D01*
X53465985Y-95067805D01*
X53567805Y-94965985D01*
X53647804Y-94846258D01*
X53702908Y-94713225D01*
X53731000Y-94571997D01*
X53731000Y-94428003D01*
X53702908Y-94286775D01*
X53647804Y-94153742D01*
X53567805Y-94034015D01*
X53465985Y-93932195D01*
X53380387Y-93875000D01*
X53465985Y-93817805D01*
X53567805Y-93715985D01*
X53647804Y-93596258D01*
X53702908Y-93463225D01*
X53731000Y-93321997D01*
X53731000Y-93178003D01*
X53702908Y-93036775D01*
X53647804Y-92903742D01*
X53567805Y-92784015D01*
X53465985Y-92682195D01*
X53380387Y-92625000D01*
X53465985Y-92567805D01*
X53567805Y-92465985D01*
X53647804Y-92346258D01*
X53702908Y-92213225D01*
X53731000Y-92071997D01*
X53731000Y-91928003D01*
X53702908Y-91786775D01*
X53647804Y-91653742D01*
X53567805Y-91534015D01*
X53508000Y-91474210D01*
X53508000Y-91275782D01*
X53567805Y-91215977D01*
X53647804Y-91096250D01*
X53702908Y-90963217D01*
X53731000Y-90821989D01*
X53731000Y-90677995D01*
X53702908Y-90536767D01*
X53647804Y-90403734D01*
X53567805Y-90284007D01*
X53508000Y-90224202D01*
X53508000Y-90025790D01*
X53567805Y-89965985D01*
X53647804Y-89846258D01*
X53702908Y-89713225D01*
X53731000Y-89571997D01*
X53731000Y-89428003D01*
X53702908Y-89286775D01*
X53647804Y-89153742D01*
X53567805Y-89034015D01*
X53465985Y-88932195D01*
X53380391Y-88875003D01*
X53465985Y-88817811D01*
X53567805Y-88715991D01*
X53647804Y-88596264D01*
X53702908Y-88463231D01*
X53731000Y-88322003D01*
X53731000Y-88178009D01*
X53702908Y-88036781D01*
X53647804Y-87903748D01*
X53567805Y-87784021D01*
X53508000Y-87724216D01*
X53508000Y-87525790D01*
X53567805Y-87465985D01*
X53647804Y-87346258D01*
X53702908Y-87213225D01*
X53731000Y-87071997D01*
X53731000Y-86928003D01*
X53702908Y-86786775D01*
X53647804Y-86653742D01*
X53567805Y-86534015D01*
X53508000Y-86474210D01*
X53508000Y-86275790D01*
X53567805Y-86215985D01*
X53647804Y-86096258D01*
X53702908Y-85963225D01*
X53731000Y-85821997D01*
X53731000Y-85678003D01*
X53702908Y-85536775D01*
X53647804Y-85403742D01*
X53567805Y-85284015D01*
X53508000Y-85224210D01*
X53508000Y-85025790D01*
X53567805Y-84965985D01*
X53647804Y-84846258D01*
X53702908Y-84713225D01*
X53731000Y-84571997D01*
X53731000Y-84428003D01*
X53702908Y-84286775D01*
X53647804Y-84153742D01*
X53567805Y-84034015D01*
X53465985Y-83932195D01*
X53380391Y-83875003D01*
X53465985Y-83817811D01*
X53567805Y-83715991D01*
X53647804Y-83596264D01*
X53702908Y-83463231D01*
X53731000Y-83322003D01*
X53731000Y-83178009D01*
X53702908Y-83036781D01*
X53647804Y-82903748D01*
X53567805Y-82784021D01*
X53508000Y-82724216D01*
X53508000Y-82525790D01*
X53567805Y-82465985D01*
X53647804Y-82346258D01*
X53702908Y-82213225D01*
X53731000Y-82071997D01*
X53731000Y-81928003D01*
X53702908Y-81786775D01*
X53647804Y-81653742D01*
X53567805Y-81534015D01*
X53508000Y-81474210D01*
X53508000Y-81275790D01*
X53567805Y-81215985D01*
X53647804Y-81096258D01*
X53702908Y-80963225D01*
X53731000Y-80821997D01*
X53731000Y-80678003D01*
X53702908Y-80536775D01*
X53647804Y-80403742D01*
X53567805Y-80284015D01*
X53465985Y-80182195D01*
X53380387Y-80125000D01*
X53465985Y-80067805D01*
X53567805Y-79965985D01*
X53647804Y-79846258D01*
X53702908Y-79713225D01*
X53731000Y-79571997D01*
X53731000Y-79428003D01*
X53702908Y-79286775D01*
X53647804Y-79153742D01*
X53567805Y-79034015D01*
X53465985Y-78932195D01*
X53380387Y-78875000D01*
X53465985Y-78817805D01*
X53567805Y-78715985D01*
X53647804Y-78596258D01*
X53702908Y-78463225D01*
X53731000Y-78321997D01*
X53731000Y-78178003D01*
X53702908Y-78036775D01*
X53647804Y-77903742D01*
X53567805Y-77784015D01*
X53465985Y-77682195D01*
X53380387Y-77625000D01*
X53465985Y-77567805D01*
X53567805Y-77465985D01*
X53647804Y-77346258D01*
X53702908Y-77213225D01*
X53731000Y-77071997D01*
X53731000Y-76928003D01*
X53702908Y-76786775D01*
X53647804Y-76653742D01*
X53567805Y-76534015D01*
X53508000Y-76474210D01*
X53508000Y-76275790D01*
X53567805Y-76215985D01*
X53647804Y-76096258D01*
X53702908Y-75963225D01*
X53731000Y-75821997D01*
X53731000Y-75678003D01*
X53702908Y-75536775D01*
X53647804Y-75403742D01*
X53567805Y-75284015D01*
X53465985Y-75182195D01*
X53380387Y-75125000D01*
X53465985Y-75067805D01*
X53567805Y-74965985D01*
X53647804Y-74846258D01*
X53702908Y-74713225D01*
X53731000Y-74571997D01*
X53731000Y-74428003D01*
X53702908Y-74286775D01*
X53647804Y-74153742D01*
X53567805Y-74034015D01*
X53465985Y-73932195D01*
X53386327Y-73878969D01*
X53465985Y-73825743D01*
X53567805Y-73723923D01*
X53647804Y-73604196D01*
X53702908Y-73471163D01*
X53731000Y-73329935D01*
X53731000Y-73185941D01*
X53702908Y-73044713D01*
X53647804Y-72911680D01*
X53567805Y-72791953D01*
X53465985Y-72690133D01*
X53374447Y-72628969D01*
X53465985Y-72567805D01*
X53567805Y-72465985D01*
X53647804Y-72346258D01*
X53702908Y-72213225D01*
X53731000Y-72071997D01*
X53731000Y-71987420D01*
X55341571Y-70376850D01*
X55360948Y-70360948D01*
X55392291Y-70322756D01*
X55424429Y-70283596D01*
X55471600Y-70195344D01*
X55471601Y-70195343D01*
X55472840Y-70191260D01*
X57269000Y-71987420D01*
G36*
X66473000Y-48267610D02*
G01*
X66438355Y-48244461D01*
X66077836Y-48095129D01*
X65695111Y-48019000D01*
X65304889Y-48019000D01*
X64922164Y-48095129D01*
X64561645Y-48244461D01*
X64237186Y-48461257D01*
X63961257Y-48737186D01*
X63744461Y-49061645D01*
X63595129Y-49422164D01*
X63519000Y-49804889D01*
X63519000Y-50195111D01*
X63595129Y-50577836D01*
X63744461Y-50938355D01*
X63961257Y-51262814D01*
X64237186Y-51538743D01*
X64561645Y-51755539D01*
X64922164Y-51904871D01*
X65304889Y-51981000D01*
X65695111Y-51981000D01*
X66077836Y-51904871D01*
X66438355Y-51755539D01*
X66473000Y-51732390D01*
X66473000Y-107273000D01*
X60127000Y-107273000D01*
X60127000Y-68800000D01*
X60124560Y-68775224D01*
X60117333Y-68751399D01*
X60105597Y-68729443D01*
X60089803Y-68710197D01*
X60070557Y-68694403D01*
X60048601Y-68682667D01*
X60024776Y-68675440D01*
X60000000Y-68673000D01*
X58400000Y-68673000D01*
X58375224Y-68675440D01*
X58351399Y-68682667D01*
X58329443Y-68694403D01*
X58310197Y-68710197D01*
X58294403Y-68729443D01*
X58282667Y-68751399D01*
X58275440Y-68775224D01*
X58273000Y-68800000D01*
X58273000Y-71321852D01*
X58213225Y-71297092D01*
X58071997Y-71269000D01*
X57987420Y-71269000D01*
X55508000Y-68789580D01*
X55508000Y-66725790D01*
X55567805Y-66665985D01*
X55647804Y-66546258D01*
X55702908Y-66413225D01*
X55731000Y-66271997D01*
X55731000Y-66128003D01*
X55702908Y-65986775D01*
X55647804Y-65853742D01*
X55567805Y-65734015D01*
X55465985Y-65632195D01*
X55346258Y-65552196D01*
X55213225Y-65497092D01*
X55071997Y-65469000D01*
X54928003Y-65469000D01*
X54786775Y-65497092D01*
X54653742Y-65552196D01*
X54628593Y-65569000D01*
X52630987Y-65569000D01*
X52599999Y-65565948D01*
X52569011Y-65569000D01*
X52569002Y-65569000D01*
X52476302Y-65578130D01*
X52357358Y-65614211D01*
X52247739Y-65672804D01*
X52151657Y-65751657D01*
X52131890Y-65775742D01*
X52016442Y-65891191D01*
X51986775Y-65897092D01*
X51853742Y-65952196D01*
X51734015Y-66032195D01*
X51632195Y-66134015D01*
X51552196Y-66253742D01*
X51497092Y-66386775D01*
X51469000Y-66528003D01*
X51469000Y-66671997D01*
X51497092Y-66813225D01*
X51552196Y-66946258D01*
X51632195Y-67065985D01*
X51734015Y-67167805D01*
X51853742Y-67247804D01*
X51986775Y-67302908D01*
X52128003Y-67331000D01*
X52271997Y-67331000D01*
X52413225Y-67302908D01*
X52546258Y-67247804D01*
X52665985Y-67167805D01*
X52767805Y-67065985D01*
X52847804Y-66946258D01*
X52895545Y-66831000D01*
X54492000Y-66831000D01*
X54492001Y-68975048D01*
X54489543Y-69000000D01*
X54492001Y-69024952D01*
X54492001Y-69789578D01*
X53709859Y-70571720D01*
X53702908Y-70536775D01*
X53647804Y-70403742D01*
X53567805Y-70284015D01*
X53548644Y-70264854D01*
X53592562Y-70220936D01*
X53672561Y-70101209D01*
X53727665Y-69968176D01*
X53755757Y-69826948D01*
X53755757Y-69682954D01*
X53727665Y-69541726D01*
X53672561Y-69408693D01*
X53592562Y-69288966D01*
X53490742Y-69187146D01*
X53371015Y-69107147D01*
X53237982Y-69052043D01*
X53096754Y-69023951D01*
X52952760Y-69023951D01*
X52811532Y-69052043D01*
X52742099Y-69080803D01*
X52704425Y-68989849D01*
X52586560Y-68813453D01*
X52436547Y-68663440D01*
X52260151Y-68545575D01*
X52064149Y-68464389D01*
X51856075Y-68423000D01*
X51643925Y-68423000D01*
X51435851Y-68464389D01*
X51239849Y-68545575D01*
X51063453Y-68663440D01*
X50913440Y-68813453D01*
X50795575Y-68989849D01*
X50714389Y-69185851D01*
X50673000Y-69393925D01*
X50673000Y-69606075D01*
X50714389Y-69814149D01*
X50795575Y-70010151D01*
X50896000Y-70160446D01*
X50896001Y-103708038D01*
X50891868Y-103750000D01*
X50908357Y-103917413D01*
X50943728Y-104034015D01*
X50957190Y-104078393D01*
X51036490Y-104226753D01*
X51143210Y-104356791D01*
X51175800Y-104383537D01*
X51366467Y-104574204D01*
X54065262Y-107273000D01*
X49527000Y-107273000D01*
X49527000Y-63961420D01*
X49657141Y-64091560D01*
X49673052Y-64110948D01*
X49750405Y-64174429D01*
X49838657Y-64221601D01*
X49934415Y-64250649D01*
X50009053Y-64258000D01*
X50009056Y-64258000D01*
X50034000Y-64260457D01*
X50058944Y-64258000D01*
X50422869Y-64258000D01*
X50424513Y-64274689D01*
X50446299Y-64346508D01*
X50481678Y-64412696D01*
X50529289Y-64470711D01*
X50587304Y-64518322D01*
X50653492Y-64553701D01*
X50725311Y-64575487D01*
X50800000Y-64582843D01*
X52000000Y-64582843D01*
X52074689Y-64575487D01*
X52146508Y-64553701D01*
X52212696Y-64518322D01*
X52270711Y-64470711D01*
X52318322Y-64412696D01*
X52353701Y-64346508D01*
X52375487Y-64274689D01*
X52382843Y-64200000D01*
X52382843Y-63428064D01*
X52617157Y-63662378D01*
X52617157Y-64200000D01*
X52624513Y-64274689D01*
X52646299Y-64346508D01*
X52681678Y-64412696D01*
X52729289Y-64470711D01*
X52787304Y-64518322D01*
X52853492Y-64553701D01*
X52925311Y-64575487D01*
X53000000Y-64582843D01*
X54200000Y-64582843D01*
X54274689Y-64575487D01*
X54346508Y-64553701D01*
X54412696Y-64518322D01*
X54470711Y-64470711D01*
X54518322Y-64412696D01*
X54553701Y-64346508D01*
X54575487Y-64274689D01*
X54582843Y-64200000D01*
X54582843Y-63300000D01*
X54575487Y-63225311D01*
X54553701Y-63153492D01*
X54518322Y-63087304D01*
X54470711Y-63029289D01*
X54412696Y-62981678D01*
X54346508Y-62946299D01*
X54274689Y-62924513D01*
X54200000Y-62917157D01*
X53308778Y-62917157D01*
X53163395Y-62771775D01*
X53176901Y-62746508D01*
X53198687Y-62674689D01*
X53206043Y-62600000D01*
X53206043Y-61800000D01*
X53198687Y-61725311D01*
X53176901Y-61653492D01*
X53141522Y-61587304D01*
X53093911Y-61529289D01*
X53035896Y-61481678D01*
X52969708Y-61446299D01*
X52897889Y-61424513D01*
X52823200Y-61417157D01*
X50923200Y-61417157D01*
X50848511Y-61424513D01*
X50776692Y-61446299D01*
X50710504Y-61481678D01*
X50652489Y-61529289D01*
X50604878Y-61587304D01*
X50569499Y-61653492D01*
X50547713Y-61725311D01*
X50540357Y-61800000D01*
X50540357Y-62600000D01*
X50547713Y-62674689D01*
X50569499Y-62746508D01*
X50604878Y-62812696D01*
X50652489Y-62870711D01*
X50710504Y-62918322D01*
X50723254Y-62925137D01*
X50653492Y-62946299D01*
X50587304Y-62981678D01*
X50529289Y-63029289D01*
X50481678Y-63087304D01*
X50446299Y-63153492D01*
X50424513Y-63225311D01*
X50422869Y-63242000D01*
X50344103Y-63242000D01*
X50344103Y-60963646D01*
X50392663Y-61054494D01*
X50472015Y-61151185D01*
X50568706Y-61230537D01*
X50679020Y-61289502D01*
X50798718Y-61325812D01*
X50923200Y-61338072D01*
X51587450Y-61335000D01*
X51746200Y-61176250D01*
X51746200Y-60427000D01*
X52000200Y-60427000D01*
X52000200Y-61176250D01*
X52158950Y-61335000D01*
X52823200Y-61338072D01*
X52947682Y-61325812D01*
X53067380Y-61289502D01*
X53177694Y-61230537D01*
X53274385Y-61151185D01*
X53353737Y-61054494D01*
X53412702Y-60944180D01*
X53449012Y-60824482D01*
X53461272Y-60700000D01*
X53458200Y-60585750D01*
X53299450Y-60427000D01*
X52000200Y-60427000D01*
X51746200Y-60427000D01*
X51726200Y-60427000D01*
X51726200Y-60173000D01*
X51746200Y-60173000D01*
X51746200Y-59423750D01*
X52000200Y-59423750D01*
X52000200Y-60173000D01*
X53299450Y-60173000D01*
X53458200Y-60014250D01*
X53461272Y-59900000D01*
X53449012Y-59775518D01*
X53412702Y-59655820D01*
X53353737Y-59545506D01*
X53274385Y-59448815D01*
X53177694Y-59369463D01*
X53067380Y-59310498D01*
X52947682Y-59274188D01*
X52823200Y-59261928D01*
X52158950Y-59265000D01*
X52000200Y-59423750D01*
X51746200Y-59423750D01*
X51587450Y-59265000D01*
X50923200Y-59261928D01*
X50798718Y-59274188D01*
X50679020Y-59310498D01*
X50568706Y-59369463D01*
X50472015Y-59448815D01*
X50392663Y-59545506D01*
X50344103Y-59636354D01*
X50344103Y-58266524D01*
X50419150Y-58341571D01*
X50435052Y-58360948D01*
X50454429Y-58376850D01*
X50512404Y-58424429D01*
X50600655Y-58471600D01*
X50600657Y-58471601D01*
X50671398Y-58493060D01*
X50674513Y-58524689D01*
X50696299Y-58596508D01*
X50731678Y-58662696D01*
X50779289Y-58720711D01*
X50837304Y-58768322D01*
X50903492Y-58803701D01*
X50975311Y-58825487D01*
X51050000Y-58832843D01*
X52250000Y-58832843D01*
X52324689Y-58825487D01*
X52396508Y-58803701D01*
X52462696Y-58768322D01*
X52520711Y-58720711D01*
X52568322Y-58662696D01*
X52603701Y-58596508D01*
X52625487Y-58524689D01*
X52632843Y-58450000D01*
X52632843Y-57550000D01*
X52625487Y-57475311D01*
X52603701Y-57403492D01*
X52568322Y-57337304D01*
X52520711Y-57279289D01*
X52462696Y-57231678D01*
X52396508Y-57196299D01*
X52324689Y-57174513D01*
X52250000Y-57167157D01*
X51050000Y-57167157D01*
X50975311Y-57174513D01*
X50903492Y-57196299D01*
X50837304Y-57231678D01*
X50787210Y-57272789D01*
X50344103Y-56829683D01*
X50344103Y-55550000D01*
X50596237Y-55550000D01*
X50596237Y-56350000D01*
X50603593Y-56424689D01*
X50625379Y-56496508D01*
X50660758Y-56562696D01*
X50708369Y-56620711D01*
X50766384Y-56668322D01*
X50832572Y-56703701D01*
X50904391Y-56725487D01*
X50979080Y-56732843D01*
X52879080Y-56732843D01*
X52953769Y-56725487D01*
X53025588Y-56703701D01*
X53091776Y-56668322D01*
X53126997Y-56639417D01*
X53342000Y-56854421D01*
X53342000Y-57167157D01*
X53250000Y-57167157D01*
X53175311Y-57174513D01*
X53103492Y-57196299D01*
X53037304Y-57231678D01*
X52979289Y-57279289D01*
X52931678Y-57337304D01*
X52896299Y-57403492D01*
X52874513Y-57475311D01*
X52867157Y-57550000D01*
X52867157Y-58450000D01*
X52874513Y-58524689D01*
X52896299Y-58596508D01*
X52931678Y-58662696D01*
X52979289Y-58720711D01*
X53037304Y-58768322D01*
X53103492Y-58803701D01*
X53175311Y-58825487D01*
X53250000Y-58832843D01*
X54450000Y-58832843D01*
X54524689Y-58825487D01*
X54596508Y-58803701D01*
X54662696Y-58768322D01*
X54720711Y-58720711D01*
X54768322Y-58662696D01*
X54803701Y-58596508D01*
X54825487Y-58524689D01*
X54832843Y-58450000D01*
X54832843Y-57550000D01*
X54825487Y-57475311D01*
X54803701Y-57403492D01*
X54768322Y-57337304D01*
X54720711Y-57279289D01*
X54662696Y-57231678D01*
X54596508Y-57196299D01*
X54524689Y-57174513D01*
X54450000Y-57167157D01*
X54358000Y-57167157D01*
X54358000Y-56791790D01*
X54434015Y-56867805D01*
X54553742Y-56947804D01*
X54686775Y-57002908D01*
X54828003Y-57031000D01*
X54971997Y-57031000D01*
X55113225Y-57002908D01*
X55246258Y-56947804D01*
X55365985Y-56867805D01*
X55467805Y-56765985D01*
X55547804Y-56646258D01*
X55602908Y-56513225D01*
X55631000Y-56371997D01*
X55631000Y-56228003D01*
X55602908Y-56086775D01*
X55547804Y-55953742D01*
X55467805Y-55834015D01*
X55437080Y-55803290D01*
X55437080Y-55782843D01*
X55879080Y-55782843D01*
X55953769Y-55775487D01*
X56025588Y-55753701D01*
X56091776Y-55718322D01*
X56149791Y-55670711D01*
X56197402Y-55612696D01*
X56232781Y-55546508D01*
X56254567Y-55474689D01*
X56261923Y-55400000D01*
X56261923Y-54600000D01*
X56254567Y-54525311D01*
X56232781Y-54453492D01*
X56197402Y-54387304D01*
X56149791Y-54329289D01*
X56091776Y-54281678D01*
X56025588Y-54246299D01*
X55953769Y-54224513D01*
X55879080Y-54217157D01*
X53979080Y-54217157D01*
X53904391Y-54224513D01*
X53832572Y-54246299D01*
X53766384Y-54281678D01*
X53708369Y-54329289D01*
X53660758Y-54387304D01*
X53625379Y-54453492D01*
X53603593Y-54525311D01*
X53596237Y-54600000D01*
X53596237Y-55400000D01*
X53603593Y-55474689D01*
X53625379Y-55546508D01*
X53660758Y-55612696D01*
X53708369Y-55670711D01*
X53766384Y-55718322D01*
X53832572Y-55753701D01*
X53904391Y-55775487D01*
X53979080Y-55782843D01*
X54383367Y-55782843D01*
X54332195Y-55834015D01*
X54252196Y-55953742D01*
X54197092Y-56086775D01*
X54169000Y-56228003D01*
X54169000Y-56244579D01*
X53532855Y-55608435D01*
X53516948Y-55589052D01*
X53439595Y-55525571D01*
X53351343Y-55478399D01*
X53255585Y-55449351D01*
X53246418Y-55448448D01*
X53232781Y-55403492D01*
X53197402Y-55337304D01*
X53149791Y-55279289D01*
X53091776Y-55231678D01*
X53025588Y-55196299D01*
X52953769Y-55174513D01*
X52879080Y-55167157D01*
X50979080Y-55167157D01*
X50904391Y-55174513D01*
X50832572Y-55196299D01*
X50766384Y-55231678D01*
X50708369Y-55279289D01*
X50660758Y-55337304D01*
X50625379Y-55403492D01*
X50603593Y-55475311D01*
X50596237Y-55550000D01*
X50344103Y-55550000D01*
X50344103Y-54616987D01*
X50361028Y-54600062D01*
X50389578Y-54694180D01*
X50448543Y-54804494D01*
X50527895Y-54901185D01*
X50624586Y-54980537D01*
X50734900Y-55039502D01*
X50854598Y-55075812D01*
X50979080Y-55088072D01*
X51643330Y-55085000D01*
X51802080Y-54926250D01*
X51802080Y-54177000D01*
X52056080Y-54177000D01*
X52056080Y-54926250D01*
X52214830Y-55085000D01*
X52879080Y-55088072D01*
X53003562Y-55075812D01*
X53123260Y-55039502D01*
X53233574Y-54980537D01*
X53330265Y-54901185D01*
X53409617Y-54804494D01*
X53468582Y-54694180D01*
X53504892Y-54574482D01*
X53517152Y-54450000D01*
X53514080Y-54335750D01*
X53355330Y-54177000D01*
X52056080Y-54177000D01*
X51802080Y-54177000D01*
X51782080Y-54177000D01*
X51782080Y-53923000D01*
X51802080Y-53923000D01*
X51802080Y-53173750D01*
X52056080Y-53173750D01*
X52056080Y-53923000D01*
X53355330Y-53923000D01*
X53514080Y-53764250D01*
X53517152Y-53650000D01*
X53504892Y-53525518D01*
X53468582Y-53405820D01*
X53409617Y-53295506D01*
X53330265Y-53198815D01*
X53233574Y-53119463D01*
X53123260Y-53060498D01*
X53003562Y-53024188D01*
X52879080Y-53011928D01*
X52214830Y-53015000D01*
X52056080Y-53173750D01*
X51802080Y-53173750D01*
X51643330Y-53015000D01*
X50979080Y-53011928D01*
X50854598Y-53024188D01*
X50800000Y-53040750D01*
X50800000Y-49832843D01*
X52000000Y-49832843D01*
X52070001Y-49825949D01*
X52070001Y-50521046D01*
X52067543Y-50546000D01*
X52072862Y-50600000D01*
X52077352Y-50645585D01*
X52093733Y-50699585D01*
X52106400Y-50741343D01*
X52153571Y-50829595D01*
X52188370Y-50871997D01*
X52217053Y-50906948D01*
X52236430Y-50922850D01*
X52455145Y-51141565D01*
X52471052Y-51160948D01*
X52548405Y-51224429D01*
X52636657Y-51271601D01*
X52732415Y-51300649D01*
X52807053Y-51308000D01*
X52807055Y-51308000D01*
X52831999Y-51310457D01*
X52856943Y-51308000D01*
X53830210Y-51308000D01*
X53890015Y-51367805D01*
X54009742Y-51447804D01*
X54142775Y-51502908D01*
X54284003Y-51531000D01*
X54427997Y-51531000D01*
X54569225Y-51502908D01*
X54702258Y-51447804D01*
X54821985Y-51367805D01*
X54923805Y-51265985D01*
X55003804Y-51146258D01*
X55058908Y-51013225D01*
X55087000Y-50871997D01*
X55087000Y-50728003D01*
X55058908Y-50586775D01*
X55003804Y-50453742D01*
X54923805Y-50334015D01*
X54821985Y-50232195D01*
X54702258Y-50152196D01*
X54569225Y-50097092D01*
X54427997Y-50069000D01*
X54284003Y-50069000D01*
X54142775Y-50097092D01*
X54009742Y-50152196D01*
X53890015Y-50232195D01*
X53830210Y-50292000D01*
X53086000Y-50292000D01*
X53086000Y-49832843D01*
X54200000Y-49832843D01*
X54274689Y-49825487D01*
X54346508Y-49803701D01*
X54412696Y-49768322D01*
X54470711Y-49720711D01*
X54518322Y-49662696D01*
X54553701Y-49596508D01*
X54575487Y-49524689D01*
X54577131Y-49508000D01*
X54861056Y-49508000D01*
X54886000Y-49510457D01*
X54910944Y-49508000D01*
X54910947Y-49508000D01*
X54985585Y-49500649D01*
X55081343Y-49471601D01*
X55092000Y-49465904D01*
X55092001Y-50575046D01*
X55089543Y-50600000D01*
X55096043Y-50665985D01*
X55099352Y-50699585D01*
X55102650Y-50710457D01*
X55128400Y-50795343D01*
X55175571Y-50883595D01*
X55220512Y-50938355D01*
X55239053Y-50960948D01*
X55258430Y-50976850D01*
X56581045Y-52299465D01*
X56453742Y-52352196D01*
X56334015Y-52432195D01*
X56232195Y-52534015D01*
X56152196Y-52653742D01*
X56097092Y-52786775D01*
X56069000Y-52928003D01*
X56069000Y-53071997D01*
X56097092Y-53213225D01*
X56152196Y-53346258D01*
X56232195Y-53465985D01*
X56334015Y-53567805D01*
X56453742Y-53647804D01*
X56586775Y-53702908D01*
X56728003Y-53731000D01*
X56871997Y-53731000D01*
X57013225Y-53702908D01*
X57146258Y-53647804D01*
X57265985Y-53567805D01*
X57367805Y-53465985D01*
X57447804Y-53346258D01*
X57500534Y-53218955D01*
X57892000Y-53610421D01*
X57892001Y-55389578D01*
X56408435Y-56873145D01*
X56389052Y-56889052D01*
X56325571Y-56966405D01*
X56278399Y-57054658D01*
X56249351Y-57150416D01*
X56244545Y-57199215D01*
X56239543Y-57250000D01*
X56242000Y-57274944D01*
X56242001Y-60224209D01*
X56182195Y-60284015D01*
X56102196Y-60403742D01*
X56047092Y-60536775D01*
X56046392Y-60540292D01*
X56035896Y-60531678D01*
X55969708Y-60496299D01*
X55897889Y-60474513D01*
X55823200Y-60467157D01*
X55566633Y-60467157D01*
X55567805Y-60465985D01*
X55647804Y-60346258D01*
X55702908Y-60213225D01*
X55731000Y-60071997D01*
X55731000Y-59928003D01*
X55702908Y-59786775D01*
X55647804Y-59653742D01*
X55567805Y-59534015D01*
X55465985Y-59432195D01*
X55346258Y-59352196D01*
X55213225Y-59297092D01*
X55071997Y-59269000D01*
X54928003Y-59269000D01*
X54786775Y-59297092D01*
X54653742Y-59352196D01*
X54534015Y-59432195D01*
X54432195Y-59534015D01*
X54352196Y-59653742D01*
X54297092Y-59786775D01*
X54269000Y-59928003D01*
X54269000Y-60071997D01*
X54297092Y-60213225D01*
X54352196Y-60346258D01*
X54432195Y-60465985D01*
X54433367Y-60467157D01*
X53923200Y-60467157D01*
X53848511Y-60474513D01*
X53776692Y-60496299D01*
X53710504Y-60531678D01*
X53652489Y-60579289D01*
X53604878Y-60637304D01*
X53569499Y-60703492D01*
X53547713Y-60775311D01*
X53540357Y-60850000D01*
X53540357Y-61650000D01*
X53547713Y-61724689D01*
X53569499Y-61796508D01*
X53604878Y-61862696D01*
X53652489Y-61920711D01*
X53710504Y-61968322D01*
X53776692Y-62003701D01*
X53848511Y-62025487D01*
X53923200Y-62032843D01*
X55823200Y-62032843D01*
X55897889Y-62025487D01*
X55969708Y-62003701D01*
X56035896Y-61968322D01*
X56093911Y-61920711D01*
X56141522Y-61862696D01*
X56176901Y-61796508D01*
X56198687Y-61724689D01*
X56206043Y-61650000D01*
X56206043Y-61239833D01*
X56284015Y-61317805D01*
X56403742Y-61397804D01*
X56536775Y-61452908D01*
X56678003Y-61481000D01*
X56821997Y-61481000D01*
X56963225Y-61452908D01*
X57096258Y-61397804D01*
X57215985Y-61317805D01*
X57275790Y-61258000D01*
X58474210Y-61258000D01*
X58534015Y-61317805D01*
X58653742Y-61397804D01*
X58786775Y-61452908D01*
X58928003Y-61481000D01*
X59071997Y-61481000D01*
X59213225Y-61452908D01*
X59346258Y-61397804D01*
X59465985Y-61317805D01*
X59567805Y-61215985D01*
X59647804Y-61096258D01*
X59702908Y-60963225D01*
X59731000Y-60821997D01*
X59731000Y-60678003D01*
X59702908Y-60536775D01*
X59647804Y-60403742D01*
X59567805Y-60284015D01*
X59465985Y-60182195D01*
X59346258Y-60102196D01*
X59213225Y-60047092D01*
X59071997Y-60019000D01*
X58928003Y-60019000D01*
X58786775Y-60047092D01*
X58653742Y-60102196D01*
X58534015Y-60182195D01*
X58474210Y-60242000D01*
X57275790Y-60242000D01*
X57258000Y-60224210D01*
X57258000Y-57460420D01*
X58741571Y-55976850D01*
X58760948Y-55960948D01*
X58779624Y-55938190D01*
X58824429Y-55883596D01*
X58871600Y-55795345D01*
X58871601Y-55795343D01*
X58900649Y-55699585D01*
X58908000Y-55624947D01*
X58908000Y-55624945D01*
X58910457Y-55600001D01*
X58908000Y-55575057D01*
X58908000Y-53424944D01*
X58910457Y-53400000D01*
X58907647Y-53371468D01*
X58900649Y-53300415D01*
X58871601Y-53204657D01*
X58826064Y-53119463D01*
X58824429Y-53116404D01*
X58776850Y-53058429D01*
X58760948Y-53039052D01*
X58741571Y-53023150D01*
X56108000Y-50389580D01*
X56108000Y-49107091D01*
X56886823Y-48328268D01*
X56864200Y-48442003D01*
X56864200Y-48585997D01*
X56892292Y-48727225D01*
X56947396Y-48860258D01*
X57027395Y-48979985D01*
X57129215Y-49081805D01*
X57248942Y-49161804D01*
X57381975Y-49216908D01*
X57523203Y-49245000D01*
X57667197Y-49245000D01*
X57808425Y-49216908D01*
X57896250Y-49180530D01*
X57607780Y-49469000D01*
X57523203Y-49469000D01*
X57381975Y-49497092D01*
X57248942Y-49552196D01*
X57129215Y-49632195D01*
X57027395Y-49734015D01*
X56947396Y-49853742D01*
X56892292Y-49986775D01*
X56864200Y-50128003D01*
X56864200Y-50271997D01*
X56892292Y-50413225D01*
X56947396Y-50546258D01*
X57027395Y-50665985D01*
X57129215Y-50767805D01*
X57248942Y-50847804D01*
X57381975Y-50902908D01*
X57523203Y-50931000D01*
X57667197Y-50931000D01*
X57808425Y-50902908D01*
X57941458Y-50847804D01*
X58061185Y-50767805D01*
X58163005Y-50665985D01*
X58243004Y-50546258D01*
X58298108Y-50413225D01*
X58326200Y-50271997D01*
X58326200Y-50187420D01*
X59605621Y-48908000D01*
X62775056Y-48908000D01*
X62800000Y-48910457D01*
X62824944Y-48908000D01*
X62824947Y-48908000D01*
X62899585Y-48900649D01*
X62995343Y-48871601D01*
X63083595Y-48824429D01*
X63160948Y-48760948D01*
X63176855Y-48741565D01*
X66246381Y-45672040D01*
X66265758Y-45656138D01*
X66293916Y-45621827D01*
X66329239Y-45578786D01*
X66376410Y-45490535D01*
X66379443Y-45480537D01*
X66405459Y-45394775D01*
X66412810Y-45320137D01*
X66412810Y-45320135D01*
X66415267Y-45295191D01*
X66412810Y-45270247D01*
X66412810Y-26529754D01*
X66415267Y-26504810D01*
X66409410Y-26445343D01*
X66405459Y-26405225D01*
X66376411Y-26309467D01*
X66329239Y-26221215D01*
X66265758Y-26143862D01*
X66260474Y-26139526D01*
X66256138Y-26134242D01*
X66178785Y-26070761D01*
X66090533Y-26023589D01*
X65994775Y-25994541D01*
X65920137Y-25987190D01*
X65920134Y-25987190D01*
X65895190Y-25984733D01*
X65870246Y-25987190D01*
X62305611Y-25987190D01*
X61976855Y-25658434D01*
X61960948Y-25639052D01*
X61883595Y-25575571D01*
X61795343Y-25528399D01*
X61699585Y-25499351D01*
X61624947Y-25492000D01*
X61624944Y-25492000D01*
X61600000Y-25489543D01*
X61575056Y-25492000D01*
X60624943Y-25492000D01*
X60599999Y-25489543D01*
X60575055Y-25492000D01*
X60575053Y-25492000D01*
X60500415Y-25499351D01*
X60404657Y-25528399D01*
X60404655Y-25528400D01*
X60316404Y-25575571D01*
X60263486Y-25619000D01*
X60239052Y-25639052D01*
X60223149Y-25658430D01*
X60118040Y-25763540D01*
X60025125Y-25670625D01*
X59935999Y-25597481D01*
X59800320Y-25524960D01*
X59653102Y-25480302D01*
X59500000Y-25465222D01*
X59346898Y-25480302D01*
X59199680Y-25524960D01*
X59064001Y-25597481D01*
X59037780Y-25619000D01*
X58608405Y-25619000D01*
X58603701Y-25603492D01*
X58568322Y-25537304D01*
X58520711Y-25479289D01*
X58462696Y-25431678D01*
X58461428Y-25431000D01*
X66473000Y-25431000D01*
X66473000Y-48267610D01*
X66473000Y-48267610D01*
G37*
X66473000Y-48267610D02*
X66438355Y-48244461D01*
X66077836Y-48095129D01*
X65695111Y-48019000D01*
X65304889Y-48019000D01*
X64922164Y-48095129D01*
X64561645Y-48244461D01*
X64237186Y-48461257D01*
X63961257Y-48737186D01*
X63744461Y-49061645D01*
X63595129Y-49422164D01*
X63519000Y-49804889D01*
X63519000Y-50195111D01*
X63595129Y-50577836D01*
X63744461Y-50938355D01*
X63961257Y-51262814D01*
X64237186Y-51538743D01*
X64561645Y-51755539D01*
X64922164Y-51904871D01*
X65304889Y-51981000D01*
X65695111Y-51981000D01*
X66077836Y-51904871D01*
X66438355Y-51755539D01*
X66473000Y-51732390D01*
X66473000Y-107273000D01*
X60127000Y-107273000D01*
X60127000Y-68800000D01*
X60124560Y-68775224D01*
X60117333Y-68751399D01*
X60105597Y-68729443D01*
X60089803Y-68710197D01*
X60070557Y-68694403D01*
X60048601Y-68682667D01*
X60024776Y-68675440D01*
X60000000Y-68673000D01*
X58400000Y-68673000D01*
X58375224Y-68675440D01*
X58351399Y-68682667D01*
X58329443Y-68694403D01*
X58310197Y-68710197D01*
X58294403Y-68729443D01*
X58282667Y-68751399D01*
X58275440Y-68775224D01*
X58273000Y-68800000D01*
X58273000Y-71321852D01*
X58213225Y-71297092D01*
X58071997Y-71269000D01*
X57987420Y-71269000D01*
X55508000Y-68789580D01*
X55508000Y-66725790D01*
X55567805Y-66665985D01*
X55647804Y-66546258D01*
X55702908Y-66413225D01*
X55731000Y-66271997D01*
X55731000Y-66128003D01*
X55702908Y-65986775D01*
X55647804Y-65853742D01*
X55567805Y-65734015D01*
X55465985Y-65632195D01*
X55346258Y-65552196D01*
X55213225Y-65497092D01*
X55071997Y-65469000D01*
X54928003Y-65469000D01*
X54786775Y-65497092D01*
X54653742Y-65552196D01*
X54628593Y-65569000D01*
X52630987Y-65569000D01*
X52599999Y-65565948D01*
X52569011Y-65569000D01*
X52569002Y-65569000D01*
X52476302Y-65578130D01*
X52357358Y-65614211D01*
X52247739Y-65672804D01*
X52151657Y-65751657D01*
X52131890Y-65775742D01*
X52016442Y-65891191D01*
X51986775Y-65897092D01*
X51853742Y-65952196D01*
X51734015Y-66032195D01*
X51632195Y-66134015D01*
X51552196Y-66253742D01*
X51497092Y-66386775D01*
X51469000Y-66528003D01*
X51469000Y-66671997D01*
X51497092Y-66813225D01*
X51552196Y-66946258D01*
X51632195Y-67065985D01*
X51734015Y-67167805D01*
X51853742Y-67247804D01*
X51986775Y-67302908D01*
X52128003Y-67331000D01*
X52271997Y-67331000D01*
X52413225Y-67302908D01*
X52546258Y-67247804D01*
X52665985Y-67167805D01*
X52767805Y-67065985D01*
X52847804Y-66946258D01*
X52895545Y-66831000D01*
X54492000Y-66831000D01*
X54492001Y-68975048D01*
X54489543Y-69000000D01*
X54492001Y-69024952D01*
X54492001Y-69789578D01*
X53709859Y-70571720D01*
X53702908Y-70536775D01*
X53647804Y-70403742D01*
X53567805Y-70284015D01*
X53548644Y-70264854D01*
X53592562Y-70220936D01*
X53672561Y-70101209D01*
X53727665Y-69968176D01*
X53755757Y-69826948D01*
X53755757Y-69682954D01*
X53727665Y-69541726D01*
X53672561Y-69408693D01*
X53592562Y-69288966D01*
X53490742Y-69187146D01*
X53371015Y-69107147D01*
X53237982Y-69052043D01*
X53096754Y-69023951D01*
X52952760Y-69023951D01*
X52811532Y-69052043D01*
X52742099Y-69080803D01*
X52704425Y-68989849D01*
X52586560Y-68813453D01*
X52436547Y-68663440D01*
X52260151Y-68545575D01*
X52064149Y-68464389D01*
X51856075Y-68423000D01*
X51643925Y-68423000D01*
X51435851Y-68464389D01*
X51239849Y-68545575D01*
X51063453Y-68663440D01*
X50913440Y-68813453D01*
X50795575Y-68989849D01*
X50714389Y-69185851D01*
X50673000Y-69393925D01*
X50673000Y-69606075D01*
X50714389Y-69814149D01*
X50795575Y-70010151D01*
X50896000Y-70160446D01*
X50896001Y-103708038D01*
X50891868Y-103750000D01*
X50908357Y-103917413D01*
X50943728Y-104034015D01*
X50957190Y-104078393D01*
X51036490Y-104226753D01*
X51143210Y-104356791D01*
X51175800Y-104383537D01*
X51366467Y-104574204D01*
X54065262Y-107273000D01*
X49527000Y-107273000D01*
X49527000Y-63961420D01*
X49657141Y-64091560D01*
X49673052Y-64110948D01*
X49750405Y-64174429D01*
X49838657Y-64221601D01*
X49934415Y-64250649D01*
X50009053Y-64258000D01*
X50009056Y-64258000D01*
X50034000Y-64260457D01*
X50058944Y-64258000D01*
X50422869Y-64258000D01*
X50424513Y-64274689D01*
X50446299Y-64346508D01*
X50481678Y-64412696D01*
X50529289Y-64470711D01*
X50587304Y-64518322D01*
X50653492Y-64553701D01*
X50725311Y-64575487D01*
X50800000Y-64582843D01*
X52000000Y-64582843D01*
X52074689Y-64575487D01*
X52146508Y-64553701D01*
X52212696Y-64518322D01*
X52270711Y-64470711D01*
X52318322Y-64412696D01*
X52353701Y-64346508D01*
X52375487Y-64274689D01*
X52382843Y-64200000D01*
X52382843Y-63428064D01*
X52617157Y-63662378D01*
X52617157Y-64200000D01*
X52624513Y-64274689D01*
X52646299Y-64346508D01*
X52681678Y-64412696D01*
X52729289Y-64470711D01*
X52787304Y-64518322D01*
X52853492Y-64553701D01*
X52925311Y-64575487D01*
X53000000Y-64582843D01*
X54200000Y-64582843D01*
X54274689Y-64575487D01*
X54346508Y-64553701D01*
X54412696Y-64518322D01*
X54470711Y-64470711D01*
X54518322Y-64412696D01*
X54553701Y-64346508D01*
X54575487Y-64274689D01*
X54582843Y-64200000D01*
X54582843Y-63300000D01*
X54575487Y-63225311D01*
X54553701Y-63153492D01*
X54518322Y-63087304D01*
X54470711Y-63029289D01*
X54412696Y-62981678D01*
X54346508Y-62946299D01*
X54274689Y-62924513D01*
X54200000Y-62917157D01*
X53308778Y-62917157D01*
X53163395Y-62771775D01*
X53176901Y-62746508D01*
X53198687Y-62674689D01*
X53206043Y-62600000D01*
X53206043Y-61800000D01*
X53198687Y-61725311D01*
X53176901Y-61653492D01*
X53141522Y-61587304D01*
X53093911Y-61529289D01*
X53035896Y-61481678D01*
X52969708Y-61446299D01*
X52897889Y-61424513D01*
X52823200Y-61417157D01*
X50923200Y-61417157D01*
X50848511Y-61424513D01*
X50776692Y-61446299D01*
X50710504Y-61481678D01*
X50652489Y-61529289D01*
X50604878Y-61587304D01*
X50569499Y-61653492D01*
X50547713Y-61725311D01*
X50540357Y-61800000D01*
X50540357Y-62600000D01*
X50547713Y-62674689D01*
X50569499Y-62746508D01*
X50604878Y-62812696D01*
X50652489Y-62870711D01*
X50710504Y-62918322D01*
X50723254Y-62925137D01*
X50653492Y-62946299D01*
X50587304Y-62981678D01*
X50529289Y-63029289D01*
X50481678Y-63087304D01*
X50446299Y-63153492D01*
X50424513Y-63225311D01*
X50422869Y-63242000D01*
X50344103Y-63242000D01*
X50344103Y-60963646D01*
X50392663Y-61054494D01*
X50472015Y-61151185D01*
X50568706Y-61230537D01*
X50679020Y-61289502D01*
X50798718Y-61325812D01*
X50923200Y-61338072D01*
X51587450Y-61335000D01*
X51746200Y-61176250D01*
X51746200Y-60427000D01*
X52000200Y-60427000D01*
X52000200Y-61176250D01*
X52158950Y-61335000D01*
X52823200Y-61338072D01*
X52947682Y-61325812D01*
X53067380Y-61289502D01*
X53177694Y-61230537D01*
X53274385Y-61151185D01*
X53353737Y-61054494D01*
X53412702Y-60944180D01*
X53449012Y-60824482D01*
X53461272Y-60700000D01*
X53458200Y-60585750D01*
X53299450Y-60427000D01*
X52000200Y-60427000D01*
X51746200Y-60427000D01*
X51726200Y-60427000D01*
X51726200Y-60173000D01*
X51746200Y-60173000D01*
X51746200Y-59423750D01*
X52000200Y-59423750D01*
X52000200Y-60173000D01*
X53299450Y-60173000D01*
X53458200Y-60014250D01*
X53461272Y-59900000D01*
X53449012Y-59775518D01*
X53412702Y-59655820D01*
X53353737Y-59545506D01*
X53274385Y-59448815D01*
X53177694Y-59369463D01*
X53067380Y-59310498D01*
X52947682Y-59274188D01*
X52823200Y-59261928D01*
X52158950Y-59265000D01*
X52000200Y-59423750D01*
X51746200Y-59423750D01*
X51587450Y-59265000D01*
X50923200Y-59261928D01*
X50798718Y-59274188D01*
X50679020Y-59310498D01*
X50568706Y-59369463D01*
X50472015Y-59448815D01*
X50392663Y-59545506D01*
X50344103Y-59636354D01*
X50344103Y-58266524D01*
X50419150Y-58341571D01*
X50435052Y-58360948D01*
X50454429Y-58376850D01*
X50512404Y-58424429D01*
X50600655Y-58471600D01*
X50600657Y-58471601D01*
X50671398Y-58493060D01*
X50674513Y-58524689D01*
X50696299Y-58596508D01*
X50731678Y-58662696D01*
X50779289Y-58720711D01*
X50837304Y-58768322D01*
X50903492Y-58803701D01*
X50975311Y-58825487D01*
X51050000Y-58832843D01*
X52250000Y-58832843D01*
X52324689Y-58825487D01*
X52396508Y-58803701D01*
X52462696Y-58768322D01*
X52520711Y-58720711D01*
X52568322Y-58662696D01*
X52603701Y-58596508D01*
X52625487Y-58524689D01*
X52632843Y-58450000D01*
X52632843Y-57550000D01*
X52625487Y-57475311D01*
X52603701Y-57403492D01*
X52568322Y-57337304D01*
X52520711Y-57279289D01*
X52462696Y-57231678D01*
X52396508Y-57196299D01*
X52324689Y-57174513D01*
X52250000Y-57167157D01*
X51050000Y-57167157D01*
X50975311Y-57174513D01*
X50903492Y-57196299D01*
X50837304Y-57231678D01*
X50787210Y-57272789D01*
X50344103Y-56829683D01*
X50344103Y-55550000D01*
X50596237Y-55550000D01*
X50596237Y-56350000D01*
X50603593Y-56424689D01*
X50625379Y-56496508D01*
X50660758Y-56562696D01*
X50708369Y-56620711D01*
X50766384Y-56668322D01*
X50832572Y-56703701D01*
X50904391Y-56725487D01*
X50979080Y-56732843D01*
X52879080Y-56732843D01*
X52953769Y-56725487D01*
X53025588Y-56703701D01*
X53091776Y-56668322D01*
X53126997Y-56639417D01*
X53342000Y-56854421D01*
X53342000Y-57167157D01*
X53250000Y-57167157D01*
X53175311Y-57174513D01*
X53103492Y-57196299D01*
X53037304Y-57231678D01*
X52979289Y-57279289D01*
X52931678Y-57337304D01*
X52896299Y-57403492D01*
X52874513Y-57475311D01*
X52867157Y-57550000D01*
X52867157Y-58450000D01*
X52874513Y-58524689D01*
X52896299Y-58596508D01*
X52931678Y-58662696D01*
X52979289Y-58720711D01*
X53037304Y-58768322D01*
X53103492Y-58803701D01*
X53175311Y-58825487D01*
X53250000Y-58832843D01*
X54450000Y-58832843D01*
X54524689Y-58825487D01*
X54596508Y-58803701D01*
X54662696Y-58768322D01*
X54720711Y-58720711D01*
X54768322Y-58662696D01*
X54803701Y-58596508D01*
X54825487Y-58524689D01*
X54832843Y-58450000D01*
X54832843Y-57550000D01*
X54825487Y-57475311D01*
X54803701Y-57403492D01*
X54768322Y-57337304D01*
X54720711Y-57279289D01*
X54662696Y-57231678D01*
X54596508Y-57196299D01*
X54524689Y-57174513D01*
X54450000Y-57167157D01*
X54358000Y-57167157D01*
X54358000Y-56791790D01*
X54434015Y-56867805D01*
X54553742Y-56947804D01*
X54686775Y-57002908D01*
X54828003Y-57031000D01*
X54971997Y-57031000D01*
X55113225Y-57002908D01*
X55246258Y-56947804D01*
X55365985Y-56867805D01*
X55467805Y-56765985D01*
X55547804Y-56646258D01*
X55602908Y-56513225D01*
X55631000Y-56371997D01*
X55631000Y-56228003D01*
X55602908Y-56086775D01*
X55547804Y-55953742D01*
X55467805Y-55834015D01*
X55437080Y-55803290D01*
X55437080Y-55782843D01*
X55879080Y-55782843D01*
X55953769Y-55775487D01*
X56025588Y-55753701D01*
X56091776Y-55718322D01*
X56149791Y-55670711D01*
X56197402Y-55612696D01*
X56232781Y-55546508D01*
X56254567Y-55474689D01*
X56261923Y-55400000D01*
X56261923Y-54600000D01*
X56254567Y-54525311D01*
X56232781Y-54453492D01*
X56197402Y-54387304D01*
X56149791Y-54329289D01*
X56091776Y-54281678D01*
X56025588Y-54246299D01*
X55953769Y-54224513D01*
X55879080Y-54217157D01*
X53979080Y-54217157D01*
X53904391Y-54224513D01*
X53832572Y-54246299D01*
X53766384Y-54281678D01*
X53708369Y-54329289D01*
X53660758Y-54387304D01*
X53625379Y-54453492D01*
X53603593Y-54525311D01*
X53596237Y-54600000D01*
X53596237Y-55400000D01*
X53603593Y-55474689D01*
X53625379Y-55546508D01*
X53660758Y-55612696D01*
X53708369Y-55670711D01*
X53766384Y-55718322D01*
X53832572Y-55753701D01*
X53904391Y-55775487D01*
X53979080Y-55782843D01*
X54383367Y-55782843D01*
X54332195Y-55834015D01*
X54252196Y-55953742D01*
X54197092Y-56086775D01*
X54169000Y-56228003D01*
X54169000Y-56244579D01*
X53532855Y-55608435D01*
X53516948Y-55589052D01*
X53439595Y-55525571D01*
X53351343Y-55478399D01*
X53255585Y-55449351D01*
X53246418Y-55448448D01*
X53232781Y-55403492D01*
X53197402Y-55337304D01*
X53149791Y-55279289D01*
X53091776Y-55231678D01*
X53025588Y-55196299D01*
X52953769Y-55174513D01*
X52879080Y-55167157D01*
X50979080Y-55167157D01*
X50904391Y-55174513D01*
X50832572Y-55196299D01*
X50766384Y-55231678D01*
X50708369Y-55279289D01*
X50660758Y-55337304D01*
X50625379Y-55403492D01*
X50603593Y-55475311D01*
X50596237Y-55550000D01*
X50344103Y-55550000D01*
X50344103Y-54616987D01*
X50361028Y-54600062D01*
X50389578Y-54694180D01*
X50448543Y-54804494D01*
X50527895Y-54901185D01*
X50624586Y-54980537D01*
X50734900Y-55039502D01*
X50854598Y-55075812D01*
X50979080Y-55088072D01*
X51643330Y-55085000D01*
X51802080Y-54926250D01*
X51802080Y-54177000D01*
X52056080Y-54177000D01*
X52056080Y-54926250D01*
X52214830Y-55085000D01*
X52879080Y-55088072D01*
X53003562Y-55075812D01*
X53123260Y-55039502D01*
X53233574Y-54980537D01*
X53330265Y-54901185D01*
X53409617Y-54804494D01*
X53468582Y-54694180D01*
X53504892Y-54574482D01*
X53517152Y-54450000D01*
X53514080Y-54335750D01*
X53355330Y-54177000D01*
X52056080Y-54177000D01*
X51802080Y-54177000D01*
X51782080Y-54177000D01*
X51782080Y-53923000D01*
X51802080Y-53923000D01*
X51802080Y-53173750D01*
X52056080Y-53173750D01*
X52056080Y-53923000D01*
X53355330Y-53923000D01*
X53514080Y-53764250D01*
X53517152Y-53650000D01*
X53504892Y-53525518D01*
X53468582Y-53405820D01*
X53409617Y-53295506D01*
X53330265Y-53198815D01*
X53233574Y-53119463D01*
X53123260Y-53060498D01*
X53003562Y-53024188D01*
X52879080Y-53011928D01*
X52214830Y-53015000D01*
X52056080Y-53173750D01*
X51802080Y-53173750D01*
X51643330Y-53015000D01*
X50979080Y-53011928D01*
X50854598Y-53024188D01*
X50800000Y-53040750D01*
X50800000Y-49832843D01*
X52000000Y-49832843D01*
X52070001Y-49825949D01*
X52070001Y-50521046D01*
X52067543Y-50546000D01*
X52072862Y-50600000D01*
X52077352Y-50645585D01*
X52093733Y-50699585D01*
X52106400Y-50741343D01*
X52153571Y-50829595D01*
X52188370Y-50871997D01*
X52217053Y-50906948D01*
X52236430Y-50922850D01*
X52455145Y-51141565D01*
X52471052Y-51160948D01*
X52548405Y-51224429D01*
X52636657Y-51271601D01*
X52732415Y-51300649D01*
X52807053Y-51308000D01*
X52807055Y-51308000D01*
X52831999Y-51310457D01*
X52856943Y-51308000D01*
X53830210Y-51308000D01*
X53890015Y-51367805D01*
X54009742Y-51447804D01*
X54142775Y-51502908D01*
X54284003Y-51531000D01*
X54427997Y-51531000D01*
X54569225Y-51502908D01*
X54702258Y-51447804D01*
X54821985Y-51367805D01*
X54923805Y-51265985D01*
X55003804Y-51146258D01*
X55058908Y-51013225D01*
X55087000Y-50871997D01*
X55087000Y-50728003D01*
X55058908Y-50586775D01*
X55003804Y-50453742D01*
X54923805Y-50334015D01*
X54821985Y-50232195D01*
X54702258Y-50152196D01*
X54569225Y-50097092D01*
X54427997Y-50069000D01*
X54284003Y-50069000D01*
X54142775Y-50097092D01*
X54009742Y-50152196D01*
X53890015Y-50232195D01*
X53830210Y-50292000D01*
X53086000Y-50292000D01*
X53086000Y-49832843D01*
X54200000Y-49832843D01*
X54274689Y-49825487D01*
X54346508Y-49803701D01*
X54412696Y-49768322D01*
X54470711Y-49720711D01*
X54518322Y-49662696D01*
X54553701Y-49596508D01*
X54575487Y-49524689D01*
X54577131Y-49508000D01*
X54861056Y-49508000D01*
X54886000Y-49510457D01*
X54910944Y-49508000D01*
X54910947Y-49508000D01*
X54985585Y-49500649D01*
X55081343Y-49471601D01*
X55092000Y-49465904D01*
X55092001Y-50575046D01*
X55089543Y-50600000D01*
X55096043Y-50665985D01*
X55099352Y-50699585D01*
X55102650Y-50710457D01*
X55128400Y-50795343D01*
X55175571Y-50883595D01*
X55220512Y-50938355D01*
X55239053Y-50960948D01*
X55258430Y-50976850D01*
X56581045Y-52299465D01*
X56453742Y-52352196D01*
X56334015Y-52432195D01*
X56232195Y-52534015D01*
X56152196Y-52653742D01*
X56097092Y-52786775D01*
X56069000Y-52928003D01*
X56069000Y-53071997D01*
X56097092Y-53213225D01*
X56152196Y-53346258D01*
X56232195Y-53465985D01*
X56334015Y-53567805D01*
X56453742Y-53647804D01*
X56586775Y-53702908D01*
X56728003Y-53731000D01*
X56871997Y-53731000D01*
X57013225Y-53702908D01*
X57146258Y-53647804D01*
X57265985Y-53567805D01*
X57367805Y-53465985D01*
X57447804Y-53346258D01*
X57500534Y-53218955D01*
X57892000Y-53610421D01*
X57892001Y-55389578D01*
X56408435Y-56873145D01*
X56389052Y-56889052D01*
X56325571Y-56966405D01*
X56278399Y-57054658D01*
X56249351Y-57150416D01*
X56244545Y-57199215D01*
X56239543Y-57250000D01*
X56242000Y-57274944D01*
X56242001Y-60224209D01*
X56182195Y-60284015D01*
X56102196Y-60403742D01*
X56047092Y-60536775D01*
X56046392Y-60540292D01*
X56035896Y-60531678D01*
X55969708Y-60496299D01*
X55897889Y-60474513D01*
X55823200Y-60467157D01*
X55566633Y-60467157D01*
X55567805Y-60465985D01*
X55647804Y-60346258D01*
X55702908Y-60213225D01*
X55731000Y-60071997D01*
X55731000Y-59928003D01*
X55702908Y-59786775D01*
X55647804Y-59653742D01*
X55567805Y-59534015D01*
X55465985Y-59432195D01*
X55346258Y-59352196D01*
X55213225Y-59297092D01*
X55071997Y-59269000D01*
X54928003Y-59269000D01*
X54786775Y-59297092D01*
X54653742Y-59352196D01*
X54534015Y-59432195D01*
X54432195Y-59534015D01*
X54352196Y-59653742D01*
X54297092Y-59786775D01*
X54269000Y-59928003D01*
X54269000Y-60071997D01*
X54297092Y-60213225D01*
X54352196Y-60346258D01*
X54432195Y-60465985D01*
X54433367Y-60467157D01*
X53923200Y-60467157D01*
X53848511Y-60474513D01*
X53776692Y-60496299D01*
X53710504Y-60531678D01*
X53652489Y-60579289D01*
X53604878Y-60637304D01*
X53569499Y-60703492D01*
X53547713Y-60775311D01*
X53540357Y-60850000D01*
X53540357Y-61650000D01*
X53547713Y-61724689D01*
X53569499Y-61796508D01*
X53604878Y-61862696D01*
X53652489Y-61920711D01*
X53710504Y-61968322D01*
X53776692Y-62003701D01*
X53848511Y-62025487D01*
X53923200Y-62032843D01*
X55823200Y-62032843D01*
X55897889Y-62025487D01*
X55969708Y-62003701D01*
X56035896Y-61968322D01*
X56093911Y-61920711D01*
X56141522Y-61862696D01*
X56176901Y-61796508D01*
X56198687Y-61724689D01*
X56206043Y-61650000D01*
X56206043Y-61239833D01*
X56284015Y-61317805D01*
X56403742Y-61397804D01*
X56536775Y-61452908D01*
X56678003Y-61481000D01*
X56821997Y-61481000D01*
X56963225Y-61452908D01*
X57096258Y-61397804D01*
X57215985Y-61317805D01*
X57275790Y-61258000D01*
X58474210Y-61258000D01*
X58534015Y-61317805D01*
X58653742Y-61397804D01*
X58786775Y-61452908D01*
X58928003Y-61481000D01*
X59071997Y-61481000D01*
X59213225Y-61452908D01*
X59346258Y-61397804D01*
X59465985Y-61317805D01*
X59567805Y-61215985D01*
X59647804Y-61096258D01*
X59702908Y-60963225D01*
X59731000Y-60821997D01*
X59731000Y-60678003D01*
X59702908Y-60536775D01*
X59647804Y-60403742D01*
X59567805Y-60284015D01*
X59465985Y-60182195D01*
X59346258Y-60102196D01*
X59213225Y-60047092D01*
X59071997Y-60019000D01*
X58928003Y-60019000D01*
X58786775Y-60047092D01*
X58653742Y-60102196D01*
X58534015Y-60182195D01*
X58474210Y-60242000D01*
X57275790Y-60242000D01*
X57258000Y-60224210D01*
X57258000Y-57460420D01*
X58741571Y-55976850D01*
X58760948Y-55960948D01*
X58779624Y-55938190D01*
X58824429Y-55883596D01*
X58871600Y-55795345D01*
X58871601Y-55795343D01*
X58900649Y-55699585D01*
X58908000Y-55624947D01*
X58908000Y-55624945D01*
X58910457Y-55600001D01*
X58908000Y-55575057D01*
X58908000Y-53424944D01*
X58910457Y-53400000D01*
X58907647Y-53371468D01*
X58900649Y-53300415D01*
X58871601Y-53204657D01*
X58826064Y-53119463D01*
X58824429Y-53116404D01*
X58776850Y-53058429D01*
X58760948Y-53039052D01*
X58741571Y-53023150D01*
X56108000Y-50389580D01*
X56108000Y-49107091D01*
X56886823Y-48328268D01*
X56864200Y-48442003D01*
X56864200Y-48585997D01*
X56892292Y-48727225D01*
X56947396Y-48860258D01*
X57027395Y-48979985D01*
X57129215Y-49081805D01*
X57248942Y-49161804D01*
X57381975Y-49216908D01*
X57523203Y-49245000D01*
X57667197Y-49245000D01*
X57808425Y-49216908D01*
X57896250Y-49180530D01*
X57607780Y-49469000D01*
X57523203Y-49469000D01*
X57381975Y-49497092D01*
X57248942Y-49552196D01*
X57129215Y-49632195D01*
X57027395Y-49734015D01*
X56947396Y-49853742D01*
X56892292Y-49986775D01*
X56864200Y-50128003D01*
X56864200Y-50271997D01*
X56892292Y-50413225D01*
X56947396Y-50546258D01*
X57027395Y-50665985D01*
X57129215Y-50767805D01*
X57248942Y-50847804D01*
X57381975Y-50902908D01*
X57523203Y-50931000D01*
X57667197Y-50931000D01*
X57808425Y-50902908D01*
X57941458Y-50847804D01*
X58061185Y-50767805D01*
X58163005Y-50665985D01*
X58243004Y-50546258D01*
X58298108Y-50413225D01*
X58326200Y-50271997D01*
X58326200Y-50187420D01*
X59605621Y-48908000D01*
X62775056Y-48908000D01*
X62800000Y-48910457D01*
X62824944Y-48908000D01*
X62824947Y-48908000D01*
X62899585Y-48900649D01*
X62995343Y-48871601D01*
X63083595Y-48824429D01*
X63160948Y-48760948D01*
X63176855Y-48741565D01*
X66246381Y-45672040D01*
X66265758Y-45656138D01*
X66293916Y-45621827D01*
X66329239Y-45578786D01*
X66376410Y-45490535D01*
X66379443Y-45480537D01*
X66405459Y-45394775D01*
X66412810Y-45320137D01*
X66412810Y-45320135D01*
X66415267Y-45295191D01*
X66412810Y-45270247D01*
X66412810Y-26529754D01*
X66415267Y-26504810D01*
X66409410Y-26445343D01*
X66405459Y-26405225D01*
X66376411Y-26309467D01*
X66329239Y-26221215D01*
X66265758Y-26143862D01*
X66260474Y-26139526D01*
X66256138Y-26134242D01*
X66178785Y-26070761D01*
X66090533Y-26023589D01*
X65994775Y-25994541D01*
X65920137Y-25987190D01*
X65920134Y-25987190D01*
X65895190Y-25984733D01*
X65870246Y-25987190D01*
X62305611Y-25987190D01*
X61976855Y-25658434D01*
X61960948Y-25639052D01*
X61883595Y-25575571D01*
X61795343Y-25528399D01*
X61699585Y-25499351D01*
X61624947Y-25492000D01*
X61624944Y-25492000D01*
X61600000Y-25489543D01*
X61575056Y-25492000D01*
X60624943Y-25492000D01*
X60599999Y-25489543D01*
X60575055Y-25492000D01*
X60575053Y-25492000D01*
X60500415Y-25499351D01*
X60404657Y-25528399D01*
X60404655Y-25528400D01*
X60316404Y-25575571D01*
X60263486Y-25619000D01*
X60239052Y-25639052D01*
X60223149Y-25658430D01*
X60118040Y-25763540D01*
X60025125Y-25670625D01*
X59935999Y-25597481D01*
X59800320Y-25524960D01*
X59653102Y-25480302D01*
X59500000Y-25465222D01*
X59346898Y-25480302D01*
X59199680Y-25524960D01*
X59064001Y-25597481D01*
X59037780Y-25619000D01*
X58608405Y-25619000D01*
X58603701Y-25603492D01*
X58568322Y-25537304D01*
X58520711Y-25479289D01*
X58462696Y-25431678D01*
X58461428Y-25431000D01*
X66473000Y-25431000D01*
X66473000Y-48267610D01*
G36*
X65396810Y-45084769D02*
G01*
X62589580Y-47892000D01*
X59420143Y-47892000D01*
X59395199Y-47889543D01*
X59370255Y-47892000D01*
X59370253Y-47892000D01*
X59295615Y-47899351D01*
X59199857Y-47928399D01*
X59199855Y-47928400D01*
X59111604Y-47975571D01*
X59058686Y-48019000D01*
X59034252Y-48039052D01*
X59018350Y-48058429D01*
X58261730Y-48815049D01*
X58264913Y-48807365D01*
X60428585Y-46643695D01*
X60459868Y-46634205D01*
X60578173Y-46570969D01*
X60655884Y-46507194D01*
X63830236Y-43332843D01*
X64450000Y-43332843D01*
X64524689Y-43325487D01*
X64596508Y-43303701D01*
X64662696Y-43268322D01*
X64720711Y-43220711D01*
X64768322Y-43162696D01*
X64803701Y-43096508D01*
X64825487Y-43024689D01*
X64832843Y-42950000D01*
X64832843Y-42050000D01*
X64825487Y-41975311D01*
X64803701Y-41903492D01*
X64768322Y-41837304D01*
X64720711Y-41779289D01*
X64662696Y-41731678D01*
X64596508Y-41696299D01*
X64531000Y-41676427D01*
X64531000Y-35127000D01*
X65396811Y-35127000D01*
X65396810Y-45084769D01*
X65396810Y-45084769D01*
G37*
X65396810Y-45084769D02*
X62589580Y-47892000D01*
X59420143Y-47892000D01*
X59395199Y-47889543D01*
X59370255Y-47892000D01*
X59370253Y-47892000D01*
X59295615Y-47899351D01*
X59199857Y-47928399D01*
X59199855Y-47928400D01*
X59111604Y-47975571D01*
X59058686Y-48019000D01*
X59034252Y-48039052D01*
X59018350Y-48058429D01*
X58261730Y-48815049D01*
X58264913Y-48807365D01*
X60428585Y-46643695D01*
X60459868Y-46634205D01*
X60578173Y-46570969D01*
X60655884Y-46507194D01*
X63830236Y-43332843D01*
X64450000Y-43332843D01*
X64524689Y-43325487D01*
X64596508Y-43303701D01*
X64662696Y-43268322D01*
X64720711Y-43220711D01*
X64768322Y-43162696D01*
X64803701Y-43096508D01*
X64825487Y-43024689D01*
X64832843Y-42950000D01*
X64832843Y-42050000D01*
X64825487Y-41975311D01*
X64803701Y-41903492D01*
X64768322Y-41837304D01*
X64720711Y-41779289D01*
X64662696Y-41731678D01*
X64596508Y-41696299D01*
X64531000Y-41676427D01*
X64531000Y-35127000D01*
X65396811Y-35127000D01*
X65396810Y-45084769D01*
G36*
X49561645Y-29255539D02*
G01*
X49922164Y-29404871D01*
X50304889Y-29481000D01*
X50414607Y-29481000D01*
X50350657Y-29500399D01*
X50262405Y-29547571D01*
X50185052Y-29611052D01*
X50169145Y-29630435D01*
X49753629Y-30045951D01*
X49734252Y-30061853D01*
X49718350Y-30081230D01*
X49718349Y-30081231D01*
X49670770Y-30139206D01*
X49642360Y-30192359D01*
X49623599Y-30227458D01*
X49610265Y-30271416D01*
X49594551Y-30323217D01*
X49584742Y-30422801D01*
X49587200Y-30447755D01*
X49587199Y-39870255D01*
X49584742Y-39895199D01*
X49587199Y-39920143D01*
X49587199Y-39920145D01*
X49594550Y-39994783D01*
X49623598Y-40090541D01*
X49670770Y-40178794D01*
X49734251Y-40256147D01*
X49753634Y-40272054D01*
X51733145Y-42251565D01*
X51749052Y-42270948D01*
X51790127Y-42304657D01*
X51826404Y-42334429D01*
X51873576Y-42359643D01*
X51914657Y-42381601D01*
X52010415Y-42410649D01*
X52085053Y-42418000D01*
X52085056Y-42418000D01*
X52110000Y-42420457D01*
X52134944Y-42418000D01*
X53303865Y-42418000D01*
X53288986Y-42492803D01*
X53288986Y-42577380D01*
X52998430Y-42867936D01*
X52979053Y-42883838D01*
X52963151Y-42903215D01*
X52963150Y-42903216D01*
X52915571Y-42961191D01*
X52881631Y-43024689D01*
X52868400Y-43049443D01*
X52839352Y-43145201D01*
X52836797Y-43171146D01*
X52829543Y-43244786D01*
X52832000Y-43269730D01*
X52832000Y-43526469D01*
X52824482Y-43524188D01*
X52700000Y-43511928D01*
X52035750Y-43515000D01*
X51877000Y-43673750D01*
X51877000Y-44423000D01*
X51897000Y-44423000D01*
X51897000Y-44677000D01*
X51877000Y-44677000D01*
X51877000Y-44697000D01*
X51623000Y-44697000D01*
X51623000Y-44677000D01*
X51603000Y-44677000D01*
X51603000Y-44423000D01*
X51623000Y-44423000D01*
X51623000Y-43673750D01*
X51464250Y-43515000D01*
X51452210Y-43514944D01*
X51453990Y-43505997D01*
X51453990Y-43362003D01*
X51425898Y-43220775D01*
X51370794Y-43087742D01*
X51290795Y-42968015D01*
X51188975Y-42866195D01*
X51069248Y-42786196D01*
X50936215Y-42731092D01*
X50794987Y-42703000D01*
X50650993Y-42703000D01*
X50509765Y-42731092D01*
X50376732Y-42786196D01*
X50257005Y-42866195D01*
X50155185Y-42968015D01*
X50075186Y-43087742D01*
X50020082Y-43220775D01*
X49991990Y-43362003D01*
X49991990Y-43446580D01*
X49527000Y-43911570D01*
X49527000Y-29232390D01*
X49561645Y-29255539D01*
X49561645Y-29255539D01*
G37*
X49561645Y-29255539D02*
X49922164Y-29404871D01*
X50304889Y-29481000D01*
X50414607Y-29481000D01*
X50350657Y-29500399D01*
X50262405Y-29547571D01*
X50185052Y-29611052D01*
X50169145Y-29630435D01*
X49753629Y-30045951D01*
X49734252Y-30061853D01*
X49718350Y-30081230D01*
X49718349Y-30081231D01*
X49670770Y-30139206D01*
X49642360Y-30192359D01*
X49623599Y-30227458D01*
X49610265Y-30271416D01*
X49594551Y-30323217D01*
X49584742Y-30422801D01*
X49587200Y-30447755D01*
X49587199Y-39870255D01*
X49584742Y-39895199D01*
X49587199Y-39920143D01*
X49587199Y-39920145D01*
X49594550Y-39994783D01*
X49623598Y-40090541D01*
X49670770Y-40178794D01*
X49734251Y-40256147D01*
X49753634Y-40272054D01*
X51733145Y-42251565D01*
X51749052Y-42270948D01*
X51790127Y-42304657D01*
X51826404Y-42334429D01*
X51873576Y-42359643D01*
X51914657Y-42381601D01*
X52010415Y-42410649D01*
X52085053Y-42418000D01*
X52085056Y-42418000D01*
X52110000Y-42420457D01*
X52134944Y-42418000D01*
X53303865Y-42418000D01*
X53288986Y-42492803D01*
X53288986Y-42577380D01*
X52998430Y-42867936D01*
X52979053Y-42883838D01*
X52963151Y-42903215D01*
X52963150Y-42903216D01*
X52915571Y-42961191D01*
X52881631Y-43024689D01*
X52868400Y-43049443D01*
X52839352Y-43145201D01*
X52836797Y-43171146D01*
X52829543Y-43244786D01*
X52832000Y-43269730D01*
X52832000Y-43526469D01*
X52824482Y-43524188D01*
X52700000Y-43511928D01*
X52035750Y-43515000D01*
X51877000Y-43673750D01*
X51877000Y-44423000D01*
X51897000Y-44423000D01*
X51897000Y-44677000D01*
X51877000Y-44677000D01*
X51877000Y-44697000D01*
X51623000Y-44697000D01*
X51623000Y-44677000D01*
X51603000Y-44677000D01*
X51603000Y-44423000D01*
X51623000Y-44423000D01*
X51623000Y-43673750D01*
X51464250Y-43515000D01*
X51452210Y-43514944D01*
X51453990Y-43505997D01*
X51453990Y-43362003D01*
X51425898Y-43220775D01*
X51370794Y-43087742D01*
X51290795Y-42968015D01*
X51188975Y-42866195D01*
X51069248Y-42786196D01*
X50936215Y-42731092D01*
X50794987Y-42703000D01*
X50650993Y-42703000D01*
X50509765Y-42731092D01*
X50376732Y-42786196D01*
X50257005Y-42866195D01*
X50155185Y-42968015D01*
X50075186Y-43087742D01*
X50020082Y-43220775D01*
X49991990Y-43362003D01*
X49991990Y-43446580D01*
X49527000Y-43911570D01*
X49527000Y-29232390D01*
X49561645Y-29255539D01*
G36*
X54446299Y-30546508D02*
G01*
X54481678Y-30612696D01*
X54529289Y-30670711D01*
X54587304Y-30718322D01*
X54653492Y-30753701D01*
X54725311Y-30775487D01*
X54800000Y-30782843D01*
X55068940Y-30782843D01*
X55071089Y-30804658D01*
X55078854Y-30883498D01*
X55117794Y-31011867D01*
X55181030Y-31130173D01*
X55266130Y-31233869D01*
X55292122Y-31255200D01*
X56494800Y-32457879D01*
X56516130Y-32483870D01*
X56619826Y-32568970D01*
X56738132Y-32632206D01*
X56866501Y-32671146D01*
X57000000Y-32684295D01*
X57033453Y-32681000D01*
X59073000Y-32681000D01*
X59073000Y-33542201D01*
X59014689Y-33524513D01*
X58940000Y-33517157D01*
X58177272Y-33517157D01*
X58121185Y-33448815D01*
X58024494Y-33369463D01*
X57914180Y-33310498D01*
X57794482Y-33274188D01*
X57670000Y-33261928D01*
X57555750Y-33265000D01*
X57397000Y-33423750D01*
X57397000Y-35273000D01*
X57417000Y-35273000D01*
X57417000Y-35527000D01*
X57397000Y-35527000D01*
X57397000Y-37376250D01*
X57555750Y-37535000D01*
X57670000Y-37538072D01*
X57794482Y-37525812D01*
X57914180Y-37489502D01*
X58024494Y-37430537D01*
X58121185Y-37351185D01*
X58177272Y-37282843D01*
X58940000Y-37282843D01*
X59014689Y-37275487D01*
X59086508Y-37253701D01*
X59152696Y-37218322D01*
X59175000Y-37200018D01*
X59197304Y-37218322D01*
X59263492Y-37253701D01*
X59335311Y-37275487D01*
X59410000Y-37282843D01*
X60210000Y-37282843D01*
X60284689Y-37275487D01*
X60356508Y-37253701D01*
X60422696Y-37218322D01*
X60480711Y-37170711D01*
X60528322Y-37112696D01*
X60563701Y-37046508D01*
X60585487Y-36974689D01*
X60592843Y-36900000D01*
X60592843Y-35127000D01*
X63169000Y-35127000D01*
X63169001Y-41676427D01*
X63103492Y-41696299D01*
X63037304Y-41731678D01*
X62979289Y-41779289D01*
X62931678Y-41837304D01*
X62896299Y-41903492D01*
X62874513Y-41975311D01*
X62867157Y-42050000D01*
X62867157Y-42369764D01*
X62632843Y-42604078D01*
X62632843Y-42050000D01*
X62625487Y-41975311D01*
X62603701Y-41903492D01*
X62568322Y-41837304D01*
X62520711Y-41779289D01*
X62462696Y-41731678D01*
X62396508Y-41696299D01*
X62324689Y-41674513D01*
X62250000Y-41667157D01*
X61050000Y-41667157D01*
X60975311Y-41674513D01*
X60903492Y-41696299D01*
X60837304Y-41731678D01*
X60779289Y-41779289D01*
X60731678Y-41837304D01*
X60696299Y-41903492D01*
X60674513Y-41975311D01*
X60672869Y-41992000D01*
X60318000Y-41992000D01*
X60318000Y-41329382D01*
X60356508Y-41317701D01*
X60422696Y-41282322D01*
X60480711Y-41234711D01*
X60528322Y-41176696D01*
X60563701Y-41110508D01*
X60585487Y-41038689D01*
X60592843Y-40964000D01*
X60592843Y-37964000D01*
X60585487Y-37889311D01*
X60563701Y-37817492D01*
X60528322Y-37751304D01*
X60480711Y-37693289D01*
X60422696Y-37645678D01*
X60356508Y-37610299D01*
X60284689Y-37588513D01*
X60210000Y-37581157D01*
X59410000Y-37581157D01*
X59335311Y-37588513D01*
X59263492Y-37610299D01*
X59197304Y-37645678D01*
X59175000Y-37663982D01*
X59152696Y-37645678D01*
X59086508Y-37610299D01*
X59014689Y-37588513D01*
X58940000Y-37581157D01*
X58140000Y-37581157D01*
X58065311Y-37588513D01*
X57993492Y-37610299D01*
X57927304Y-37645678D01*
X57905000Y-37663982D01*
X57882696Y-37645678D01*
X57816508Y-37610299D01*
X57744689Y-37588513D01*
X57670000Y-37581157D01*
X56870000Y-37581157D01*
X56795311Y-37588513D01*
X56723492Y-37610299D01*
X56657304Y-37645678D01*
X56635000Y-37663982D01*
X56612696Y-37645678D01*
X56546508Y-37610299D01*
X56474689Y-37588513D01*
X56400000Y-37581157D01*
X55935577Y-37581157D01*
X55801835Y-37447415D01*
X55873000Y-37376250D01*
X55873000Y-35527000D01*
X56127000Y-35527000D01*
X56127000Y-37376250D01*
X56285750Y-37535000D01*
X56400000Y-37538072D01*
X56524482Y-37525812D01*
X56635000Y-37492287D01*
X56745518Y-37525812D01*
X56870000Y-37538072D01*
X56984250Y-37535000D01*
X57143000Y-37376250D01*
X57143000Y-35527000D01*
X56127000Y-35527000D01*
X55873000Y-35527000D01*
X55853000Y-35527000D01*
X55853000Y-35273000D01*
X55873000Y-35273000D01*
X55873000Y-33423750D01*
X56127000Y-33423750D01*
X56127000Y-35273000D01*
X57143000Y-35273000D01*
X57143000Y-33423750D01*
X56984250Y-33265000D01*
X56870000Y-33261928D01*
X56745518Y-33274188D01*
X56635000Y-33307713D01*
X56524482Y-33274188D01*
X56400000Y-33261928D01*
X56285750Y-33265000D01*
X56127000Y-33423750D01*
X55873000Y-33423750D01*
X55714250Y-33265000D01*
X55600000Y-33261928D01*
X55475518Y-33274188D01*
X55355820Y-33310498D01*
X55245506Y-33369463D01*
X55148815Y-33448815D01*
X55092728Y-33517157D01*
X54330000Y-33517157D01*
X54255311Y-33524513D01*
X54183492Y-33546299D01*
X54117304Y-33581678D01*
X54059289Y-33629289D01*
X54011678Y-33687304D01*
X53976299Y-33753492D01*
X53954513Y-33825311D01*
X53947157Y-33900000D01*
X53947157Y-34552737D01*
X53708000Y-34313580D01*
X53708000Y-33007843D01*
X53800000Y-33007843D01*
X53874689Y-33000487D01*
X53946508Y-32978701D01*
X53955110Y-32974103D01*
X54030003Y-32989000D01*
X54173997Y-32989000D01*
X54315225Y-32960908D01*
X54448258Y-32905804D01*
X54567985Y-32825805D01*
X54669805Y-32723985D01*
X54749804Y-32604258D01*
X54804908Y-32471225D01*
X54833000Y-32329997D01*
X54833000Y-32186003D01*
X54804908Y-32044775D01*
X54749804Y-31911742D01*
X54669805Y-31792015D01*
X54567985Y-31690195D01*
X54448258Y-31610196D01*
X54315225Y-31555092D01*
X54173997Y-31527000D01*
X54150765Y-31527000D01*
X54153701Y-31521508D01*
X54175487Y-31449689D01*
X54182843Y-31375000D01*
X54182843Y-30625000D01*
X54175487Y-30550311D01*
X54162652Y-30508000D01*
X54434618Y-30508000D01*
X54446299Y-30546508D01*
X54446299Y-30546508D01*
G37*
X54446299Y-30546508D02*
X54481678Y-30612696D01*
X54529289Y-30670711D01*
X54587304Y-30718322D01*
X54653492Y-30753701D01*
X54725311Y-30775487D01*
X54800000Y-30782843D01*
X55068940Y-30782843D01*
X55071089Y-30804658D01*
X55078854Y-30883498D01*
X55117794Y-31011867D01*
X55181030Y-31130173D01*
X55266130Y-31233869D01*
X55292122Y-31255200D01*
X56494800Y-32457879D01*
X56516130Y-32483870D01*
X56619826Y-32568970D01*
X56738132Y-32632206D01*
X56866501Y-32671146D01*
X57000000Y-32684295D01*
X57033453Y-32681000D01*
X59073000Y-32681000D01*
X59073000Y-33542201D01*
X59014689Y-33524513D01*
X58940000Y-33517157D01*
X58177272Y-33517157D01*
X58121185Y-33448815D01*
X58024494Y-33369463D01*
X57914180Y-33310498D01*
X57794482Y-33274188D01*
X57670000Y-33261928D01*
X57555750Y-33265000D01*
X57397000Y-33423750D01*
X57397000Y-35273000D01*
X57417000Y-35273000D01*
X57417000Y-35527000D01*
X57397000Y-35527000D01*
X57397000Y-37376250D01*
X57555750Y-37535000D01*
X57670000Y-37538072D01*
X57794482Y-37525812D01*
X57914180Y-37489502D01*
X58024494Y-37430537D01*
X58121185Y-37351185D01*
X58177272Y-37282843D01*
X58940000Y-37282843D01*
X59014689Y-37275487D01*
X59086508Y-37253701D01*
X59152696Y-37218322D01*
X59175000Y-37200018D01*
X59197304Y-37218322D01*
X59263492Y-37253701D01*
X59335311Y-37275487D01*
X59410000Y-37282843D01*
X60210000Y-37282843D01*
X60284689Y-37275487D01*
X60356508Y-37253701D01*
X60422696Y-37218322D01*
X60480711Y-37170711D01*
X60528322Y-37112696D01*
X60563701Y-37046508D01*
X60585487Y-36974689D01*
X60592843Y-36900000D01*
X60592843Y-35127000D01*
X63169000Y-35127000D01*
X63169001Y-41676427D01*
X63103492Y-41696299D01*
X63037304Y-41731678D01*
X62979289Y-41779289D01*
X62931678Y-41837304D01*
X62896299Y-41903492D01*
X62874513Y-41975311D01*
X62867157Y-42050000D01*
X62867157Y-42369764D01*
X62632843Y-42604078D01*
X62632843Y-42050000D01*
X62625487Y-41975311D01*
X62603701Y-41903492D01*
X62568322Y-41837304D01*
X62520711Y-41779289D01*
X62462696Y-41731678D01*
X62396508Y-41696299D01*
X62324689Y-41674513D01*
X62250000Y-41667157D01*
X61050000Y-41667157D01*
X60975311Y-41674513D01*
X60903492Y-41696299D01*
X60837304Y-41731678D01*
X60779289Y-41779289D01*
X60731678Y-41837304D01*
X60696299Y-41903492D01*
X60674513Y-41975311D01*
X60672869Y-41992000D01*
X60318000Y-41992000D01*
X60318000Y-41329382D01*
X60356508Y-41317701D01*
X60422696Y-41282322D01*
X60480711Y-41234711D01*
X60528322Y-41176696D01*
X60563701Y-41110508D01*
X60585487Y-41038689D01*
X60592843Y-40964000D01*
X60592843Y-37964000D01*
X60585487Y-37889311D01*
X60563701Y-37817492D01*
X60528322Y-37751304D01*
X60480711Y-37693289D01*
X60422696Y-37645678D01*
X60356508Y-37610299D01*
X60284689Y-37588513D01*
X60210000Y-37581157D01*
X59410000Y-37581157D01*
X59335311Y-37588513D01*
X59263492Y-37610299D01*
X59197304Y-37645678D01*
X59175000Y-37663982D01*
X59152696Y-37645678D01*
X59086508Y-37610299D01*
X59014689Y-37588513D01*
X58940000Y-37581157D01*
X58140000Y-37581157D01*
X58065311Y-37588513D01*
X57993492Y-37610299D01*
X57927304Y-37645678D01*
X57905000Y-37663982D01*
X57882696Y-37645678D01*
X57816508Y-37610299D01*
X57744689Y-37588513D01*
X57670000Y-37581157D01*
X56870000Y-37581157D01*
X56795311Y-37588513D01*
X56723492Y-37610299D01*
X56657304Y-37645678D01*
X56635000Y-37663982D01*
X56612696Y-37645678D01*
X56546508Y-37610299D01*
X56474689Y-37588513D01*
X56400000Y-37581157D01*
X55935577Y-37581157D01*
X55801835Y-37447415D01*
X55873000Y-37376250D01*
X55873000Y-35527000D01*
X56127000Y-35527000D01*
X56127000Y-37376250D01*
X56285750Y-37535000D01*
X56400000Y-37538072D01*
X56524482Y-37525812D01*
X56635000Y-37492287D01*
X56745518Y-37525812D01*
X56870000Y-37538072D01*
X56984250Y-37535000D01*
X57143000Y-37376250D01*
X57143000Y-35527000D01*
X56127000Y-35527000D01*
X55873000Y-35527000D01*
X55853000Y-35527000D01*
X55853000Y-35273000D01*
X55873000Y-35273000D01*
X55873000Y-33423750D01*
X56127000Y-33423750D01*
X56127000Y-35273000D01*
X57143000Y-35273000D01*
X57143000Y-33423750D01*
X56984250Y-33265000D01*
X56870000Y-33261928D01*
X56745518Y-33274188D01*
X56635000Y-33307713D01*
X56524482Y-33274188D01*
X56400000Y-33261928D01*
X56285750Y-33265000D01*
X56127000Y-33423750D01*
X55873000Y-33423750D01*
X55714250Y-33265000D01*
X55600000Y-33261928D01*
X55475518Y-33274188D01*
X55355820Y-33310498D01*
X55245506Y-33369463D01*
X55148815Y-33448815D01*
X55092728Y-33517157D01*
X54330000Y-33517157D01*
X54255311Y-33524513D01*
X54183492Y-33546299D01*
X54117304Y-33581678D01*
X54059289Y-33629289D01*
X54011678Y-33687304D01*
X53976299Y-33753492D01*
X53954513Y-33825311D01*
X53947157Y-33900000D01*
X53947157Y-34552737D01*
X53708000Y-34313580D01*
X53708000Y-33007843D01*
X53800000Y-33007843D01*
X53874689Y-33000487D01*
X53946508Y-32978701D01*
X53955110Y-32974103D01*
X54030003Y-32989000D01*
X54173997Y-32989000D01*
X54315225Y-32960908D01*
X54448258Y-32905804D01*
X54567985Y-32825805D01*
X54669805Y-32723985D01*
X54749804Y-32604258D01*
X54804908Y-32471225D01*
X54833000Y-32329997D01*
X54833000Y-32186003D01*
X54804908Y-32044775D01*
X54749804Y-31911742D01*
X54669805Y-31792015D01*
X54567985Y-31690195D01*
X54448258Y-31610196D01*
X54315225Y-31555092D01*
X54173997Y-31527000D01*
X54150765Y-31527000D01*
X54153701Y-31521508D01*
X54175487Y-31449689D01*
X54182843Y-31375000D01*
X54182843Y-30625000D01*
X54175487Y-30550311D01*
X54162652Y-30508000D01*
X54434618Y-30508000D01*
X54446299Y-30546508D01*
G36*
X51427000Y-30873000D02*
G01*
X51447000Y-30873000D01*
X51447000Y-31127000D01*
X51427000Y-31127000D01*
X51427000Y-32123000D01*
X51447000Y-32123000D01*
X51447000Y-32377000D01*
X51427000Y-32377000D01*
X51427000Y-33101250D01*
X51585750Y-33260000D01*
X51900000Y-33263072D01*
X52024482Y-33250812D01*
X52144180Y-33214502D01*
X52254494Y-33155537D01*
X52351185Y-33076185D01*
X52430537Y-32979494D01*
X52435968Y-32969334D01*
X52453492Y-32978701D01*
X52525311Y-33000487D01*
X52600000Y-33007843D01*
X52692001Y-33007843D01*
X52692000Y-34499055D01*
X52689543Y-34524000D01*
X52692000Y-34548944D01*
X52692000Y-34548946D01*
X52699351Y-34623584D01*
X52728399Y-34719342D01*
X52775571Y-34807595D01*
X52839052Y-34884948D01*
X52858435Y-34900855D01*
X53699150Y-35741571D01*
X53715052Y-35760948D01*
X53734429Y-35776850D01*
X53792404Y-35824429D01*
X53839576Y-35849643D01*
X53880657Y-35871601D01*
X53947157Y-35891774D01*
X53947157Y-36900000D01*
X53954513Y-36974689D01*
X53976299Y-37046508D01*
X54010297Y-37110113D01*
X53950015Y-37128399D01*
X53861763Y-37175571D01*
X53784410Y-37239052D01*
X53768503Y-37258435D01*
X53258435Y-37768503D01*
X53239052Y-37784410D01*
X53175571Y-37861763D01*
X53128399Y-37950016D01*
X53099351Y-38045774D01*
X53092000Y-38120411D01*
X53089543Y-38145358D01*
X53092000Y-38170303D01*
X53092001Y-38874209D01*
X53032195Y-38934015D01*
X52952196Y-39053742D01*
X52897092Y-39186775D01*
X52869000Y-39328003D01*
X52869000Y-39471997D01*
X52897092Y-39613225D01*
X52952196Y-39746258D01*
X53032195Y-39865985D01*
X53134015Y-39967805D01*
X53253742Y-40047804D01*
X53386775Y-40102908D01*
X53528003Y-40131000D01*
X53550580Y-40131000D01*
X53398580Y-40283000D01*
X53314003Y-40283000D01*
X53172775Y-40311092D01*
X53039742Y-40366196D01*
X52920015Y-40446195D01*
X52818195Y-40548015D01*
X52738196Y-40667742D01*
X52683092Y-40800775D01*
X52655000Y-40942003D01*
X52655000Y-41085997D01*
X52683092Y-41227225D01*
X52738196Y-41360258D01*
X52766087Y-41402000D01*
X52320420Y-41402000D01*
X50603199Y-39684779D01*
X50603199Y-33253538D01*
X50700000Y-33263072D01*
X51014250Y-33260000D01*
X51173000Y-33101250D01*
X51173000Y-32377000D01*
X51153000Y-32377000D01*
X51153000Y-32123000D01*
X51173000Y-32123000D01*
X51173000Y-31127000D01*
X51153000Y-31127000D01*
X51153000Y-30873000D01*
X51173000Y-30873000D01*
X51173000Y-30853000D01*
X51427000Y-30853000D01*
X51427000Y-30873000D01*
X51427000Y-30873000D01*
G37*
X51427000Y-30873000D02*
X51447000Y-30873000D01*
X51447000Y-31127000D01*
X51427000Y-31127000D01*
X51427000Y-32123000D01*
X51447000Y-32123000D01*
X51447000Y-32377000D01*
X51427000Y-32377000D01*
X51427000Y-33101250D01*
X51585750Y-33260000D01*
X51900000Y-33263072D01*
X52024482Y-33250812D01*
X52144180Y-33214502D01*
X52254494Y-33155537D01*
X52351185Y-33076185D01*
X52430537Y-32979494D01*
X52435968Y-32969334D01*
X52453492Y-32978701D01*
X52525311Y-33000487D01*
X52600000Y-33007843D01*
X52692001Y-33007843D01*
X52692000Y-34499055D01*
X52689543Y-34524000D01*
X52692000Y-34548944D01*
X52692000Y-34548946D01*
X52699351Y-34623584D01*
X52728399Y-34719342D01*
X52775571Y-34807595D01*
X52839052Y-34884948D01*
X52858435Y-34900855D01*
X53699150Y-35741571D01*
X53715052Y-35760948D01*
X53734429Y-35776850D01*
X53792404Y-35824429D01*
X53839576Y-35849643D01*
X53880657Y-35871601D01*
X53947157Y-35891774D01*
X53947157Y-36900000D01*
X53954513Y-36974689D01*
X53976299Y-37046508D01*
X54010297Y-37110113D01*
X53950015Y-37128399D01*
X53861763Y-37175571D01*
X53784410Y-37239052D01*
X53768503Y-37258435D01*
X53258435Y-37768503D01*
X53239052Y-37784410D01*
X53175571Y-37861763D01*
X53128399Y-37950016D01*
X53099351Y-38045774D01*
X53092000Y-38120411D01*
X53089543Y-38145358D01*
X53092000Y-38170303D01*
X53092001Y-38874209D01*
X53032195Y-38934015D01*
X52952196Y-39053742D01*
X52897092Y-39186775D01*
X52869000Y-39328003D01*
X52869000Y-39471997D01*
X52897092Y-39613225D01*
X52952196Y-39746258D01*
X53032195Y-39865985D01*
X53134015Y-39967805D01*
X53253742Y-40047804D01*
X53386775Y-40102908D01*
X53528003Y-40131000D01*
X53550580Y-40131000D01*
X53398580Y-40283000D01*
X53314003Y-40283000D01*
X53172775Y-40311092D01*
X53039742Y-40366196D01*
X52920015Y-40446195D01*
X52818195Y-40548015D01*
X52738196Y-40667742D01*
X52683092Y-40800775D01*
X52655000Y-40942003D01*
X52655000Y-41085997D01*
X52683092Y-41227225D01*
X52738196Y-41360258D01*
X52766087Y-41402000D01*
X52320420Y-41402000D01*
X50603199Y-39684779D01*
X50603199Y-33253538D01*
X50700000Y-33263072D01*
X51014250Y-33260000D01*
X51173000Y-33101250D01*
X51173000Y-32377000D01*
X51153000Y-32377000D01*
X51153000Y-32123000D01*
X51173000Y-32123000D01*
X51173000Y-31127000D01*
X51153000Y-31127000D01*
X51153000Y-30873000D01*
X51173000Y-30873000D01*
X51173000Y-30853000D01*
X51427000Y-30853000D01*
X51427000Y-30873000D01*
G36*
X57037304Y-25431678D02*
G01*
X56979289Y-25479289D01*
X56931678Y-25537304D01*
X56896299Y-25603492D01*
X56874513Y-25675311D01*
X56867157Y-25750000D01*
X56867157Y-25758226D01*
X56800657Y-25778399D01*
X56712405Y-25825571D01*
X56635052Y-25889052D01*
X56619145Y-25908435D01*
X55935580Y-26592000D01*
X54599944Y-26592000D01*
X54575000Y-26589543D01*
X54550056Y-26592000D01*
X54550053Y-26592000D01*
X54475415Y-26599351D01*
X54379657Y-26628399D01*
X54291405Y-26675571D01*
X54214052Y-26739052D01*
X54198145Y-26758435D01*
X53814423Y-27142157D01*
X52950000Y-27142157D01*
X52875311Y-27149513D01*
X52803492Y-27171299D01*
X52737304Y-27206678D01*
X52679289Y-27254289D01*
X52631678Y-27312304D01*
X52596299Y-27378492D01*
X52574513Y-27450311D01*
X52567157Y-27525000D01*
X52567157Y-28275000D01*
X52574513Y-28349689D01*
X52596299Y-28421508D01*
X52631678Y-28487696D01*
X52679289Y-28545711D01*
X52737304Y-28593322D01*
X52803492Y-28628701D01*
X52875311Y-28650487D01*
X52950000Y-28657843D01*
X53186683Y-28657843D01*
X53148654Y-28689052D01*
X53132751Y-28708430D01*
X52944381Y-28896801D01*
X51904756Y-28896801D01*
X52038743Y-28762814D01*
X52255539Y-28438355D01*
X52404871Y-28077836D01*
X52481000Y-27695111D01*
X52481000Y-27304889D01*
X52404871Y-26922164D01*
X52255539Y-26561645D01*
X52038743Y-26237186D01*
X51762814Y-25961257D01*
X51438355Y-25744461D01*
X51077836Y-25595129D01*
X50695111Y-25519000D01*
X50304889Y-25519000D01*
X49922164Y-25595129D01*
X49561645Y-25744461D01*
X49527000Y-25767610D01*
X49527000Y-25431000D01*
X57038572Y-25431000D01*
X57037304Y-25431678D01*
X57037304Y-25431678D01*
G37*
X57037304Y-25431678D02*
X56979289Y-25479289D01*
X56931678Y-25537304D01*
X56896299Y-25603492D01*
X56874513Y-25675311D01*
X56867157Y-25750000D01*
X56867157Y-25758226D01*
X56800657Y-25778399D01*
X56712405Y-25825571D01*
X56635052Y-25889052D01*
X56619145Y-25908435D01*
X55935580Y-26592000D01*
X54599944Y-26592000D01*
X54575000Y-26589543D01*
X54550056Y-26592000D01*
X54550053Y-26592000D01*
X54475415Y-26599351D01*
X54379657Y-26628399D01*
X54291405Y-26675571D01*
X54214052Y-26739052D01*
X54198145Y-26758435D01*
X53814423Y-27142157D01*
X52950000Y-27142157D01*
X52875311Y-27149513D01*
X52803492Y-27171299D01*
X52737304Y-27206678D01*
X52679289Y-27254289D01*
X52631678Y-27312304D01*
X52596299Y-27378492D01*
X52574513Y-27450311D01*
X52567157Y-27525000D01*
X52567157Y-28275000D01*
X52574513Y-28349689D01*
X52596299Y-28421508D01*
X52631678Y-28487696D01*
X52679289Y-28545711D01*
X52737304Y-28593322D01*
X52803492Y-28628701D01*
X52875311Y-28650487D01*
X52950000Y-28657843D01*
X53186683Y-28657843D01*
X53148654Y-28689052D01*
X53132751Y-28708430D01*
X52944381Y-28896801D01*
X51904756Y-28896801D01*
X52038743Y-28762814D01*
X52255539Y-28438355D01*
X52404871Y-28077836D01*
X52481000Y-27695111D01*
X52481000Y-27304889D01*
X52404871Y-26922164D01*
X52255539Y-26561645D01*
X52038743Y-26237186D01*
X51762814Y-25961257D01*
X51438355Y-25744461D01*
X51077836Y-25595129D01*
X50695111Y-25519000D01*
X50304889Y-25519000D01*
X49922164Y-25595129D01*
X49561645Y-25744461D01*
X49527000Y-25767610D01*
X49527000Y-25431000D01*
X57038572Y-25431000D01*
X57037304Y-25431678D01*
G36*
X59073000Y-26927500D02*
G01*
X59073000Y-28267157D01*
X58608280Y-28267157D01*
X58604627Y-28266049D01*
X58608865Y-28262020D01*
X58737123Y-28080206D01*
X58827446Y-27876864D01*
X58844119Y-27821874D01*
X58717954Y-27647000D01*
X57877000Y-27647000D01*
X57877000Y-27667000D01*
X57623000Y-27667000D01*
X57623000Y-27647000D01*
X56782046Y-27647000D01*
X56655881Y-27821874D01*
X56672554Y-27876864D01*
X56762877Y-28080206D01*
X56891135Y-28262020D01*
X57052399Y-28415318D01*
X57240471Y-28534210D01*
X57260712Y-28542000D01*
X56323756Y-28542000D01*
X56368322Y-28487696D01*
X56403701Y-28421508D01*
X56425487Y-28349689D01*
X56432843Y-28275000D01*
X56432843Y-27525000D01*
X56432548Y-27522006D01*
X56506948Y-27460948D01*
X56522855Y-27441565D01*
X56693773Y-27270647D01*
X56782046Y-27393000D01*
X57623000Y-27393000D01*
X57623000Y-27373000D01*
X57877000Y-27373000D01*
X57877000Y-27393000D01*
X58717954Y-27393000D01*
X58844119Y-27218126D01*
X58827446Y-27163136D01*
X58737123Y-26959794D01*
X58681539Y-26881000D01*
X59026500Y-26881000D01*
X59073000Y-26927500D01*
X59073000Y-26927500D01*
G37*
X59073000Y-26927500D02*
X59073000Y-28267157D01*
X58608280Y-28267157D01*
X58604627Y-28266049D01*
X58608865Y-28262020D01*
X58737123Y-28080206D01*
X58827446Y-27876864D01*
X58844119Y-27821874D01*
X58717954Y-27647000D01*
X57877000Y-27647000D01*
X57877000Y-27667000D01*
X57623000Y-27667000D01*
X57623000Y-27647000D01*
X56782046Y-27647000D01*
X56655881Y-27821874D01*
X56672554Y-27876864D01*
X56762877Y-28080206D01*
X56891135Y-28262020D01*
X57052399Y-28415318D01*
X57240471Y-28534210D01*
X57260712Y-28542000D01*
X56323756Y-28542000D01*
X56368322Y-28487696D01*
X56403701Y-28421508D01*
X56425487Y-28349689D01*
X56432843Y-28275000D01*
X56432843Y-27525000D01*
X56432548Y-27522006D01*
X56506948Y-27460948D01*
X56522855Y-27441565D01*
X56693773Y-27270647D01*
X56782046Y-27393000D01*
X57623000Y-27393000D01*
X57623000Y-27373000D01*
X57877000Y-27373000D01*
X57877000Y-27393000D01*
X58717954Y-27393000D01*
X58844119Y-27218126D01*
X58827446Y-27163136D01*
X58737123Y-26959794D01*
X58681539Y-26881000D01*
X59026500Y-26881000D01*
X59073000Y-26927500D01*
G36*
X67569000Y-101821474D02*
G01*
X66727000Y-102663475D01*
X66727000Y-51562673D01*
X66762814Y-51538743D01*
X67038743Y-51262814D01*
X67255539Y-50938355D01*
X67404871Y-50577836D01*
X67481000Y-50195111D01*
X67481000Y-49804889D01*
X67404871Y-49422164D01*
X67255539Y-49061645D01*
X67038743Y-48737186D01*
X66762814Y-48461257D01*
X66727000Y-48437327D01*
X66727000Y-25431000D01*
X67569001Y-25431000D01*
X67569000Y-101821474D01*
X67569000Y-101821474D01*
G37*
X67569000Y-101821474D02*
X66727000Y-102663475D01*
X66727000Y-51562673D01*
X66762814Y-51538743D01*
X67038743Y-51262814D01*
X67255539Y-50938355D01*
X67404871Y-50577836D01*
X67481000Y-50195111D01*
X67481000Y-49804889D01*
X67404871Y-49422164D01*
X67255539Y-49061645D01*
X67038743Y-48737186D01*
X66762814Y-48461257D01*
X66727000Y-48437327D01*
X66727000Y-25431000D01*
X67569001Y-25431000D01*
X67569000Y-101821474D01*
G36*
X49273000Y-25937327D02*
G01*
X49237186Y-25961257D01*
X48961257Y-26237186D01*
X48744461Y-26561645D01*
X48595129Y-26922164D01*
X48519000Y-27304889D01*
X48519000Y-27695111D01*
X48595129Y-28077836D01*
X48744461Y-28438355D01*
X48961257Y-28762814D01*
X49237186Y-29038743D01*
X49273000Y-29062673D01*
X49273000Y-53640579D01*
X49013244Y-53900335D01*
X48993862Y-53916242D01*
X48930381Y-53993595D01*
X48883209Y-54081848D01*
X48854161Y-54177606D01*
X48849954Y-54220326D01*
X48844353Y-54277190D01*
X48846810Y-54302134D01*
X48846811Y-57457856D01*
X48844353Y-57482810D01*
X48853284Y-57573484D01*
X48854162Y-57582395D01*
X48877227Y-57658429D01*
X48883210Y-57678153D01*
X48930381Y-57766405D01*
X48932315Y-57768761D01*
X48993863Y-57843758D01*
X49013240Y-57859660D01*
X49273000Y-58119421D01*
X49273000Y-102663474D01*
X48431000Y-101821475D01*
X48431000Y-25431000D01*
X49273000Y-25431000D01*
X49273000Y-25937327D01*
X49273000Y-25937327D01*
G37*
X49273000Y-25937327D02*
X49237186Y-25961257D01*
X48961257Y-26237186D01*
X48744461Y-26561645D01*
X48595129Y-26922164D01*
X48519000Y-27304889D01*
X48519000Y-27695111D01*
X48595129Y-28077836D01*
X48744461Y-28438355D01*
X48961257Y-28762814D01*
X49237186Y-29038743D01*
X49273000Y-29062673D01*
X49273000Y-53640579D01*
X49013244Y-53900335D01*
X48993862Y-53916242D01*
X48930381Y-53993595D01*
X48883209Y-54081848D01*
X48854161Y-54177606D01*
X48849954Y-54220326D01*
X48844353Y-54277190D01*
X48846810Y-54302134D01*
X48846811Y-57457856D01*
X48844353Y-57482810D01*
X48853284Y-57573484D01*
X48854162Y-57582395D01*
X48877227Y-57658429D01*
X48883210Y-57678153D01*
X48930381Y-57766405D01*
X48932315Y-57768761D01*
X48993863Y-57843758D01*
X49013240Y-57859660D01*
X49273000Y-58119421D01*
X49273000Y-102663474D01*
X48431000Y-101821475D01*
X48431000Y-25431000D01*
X49273000Y-25431000D01*
X49273000Y-25937327D01*
M02*
