G04 #@! TF.GenerationSoftware,KiCad,Pcbnew,(5.1.4)-1*
G04 #@! TF.CreationDate,2019-10-27T14:02:49-04:00*
G04 #@! TF.ProjectId,i2c-moist-sensor,6932632d-6d6f-4697-9374-2d73656e736f,rev?*
G04 #@! TF.SameCoordinates,Original*
G04 #@! TF.FileFunction,Copper,L2,Bot*
G04 #@! TF.FilePolarity,Positive*
%FSLAX46Y46*%
G04 Gerber Fmt 4.6, Leading zero omitted, Abs format (unit mm)*
G04 Created by KiCad (PCBNEW (5.1.4)-1) date 2019-10-27 14:02:49*
%MOMM*%
%LPD*%
G04 APERTURE LIST*
%ADD10R,1.700000X1.700000*%
%ADD11O,1.700000X1.700000*%
%ADD12R,1.000000X1.000000*%
%ADD13O,1.000000X1.000000*%
%ADD14R,1.000000X2.750000*%
%ADD15R,0.750000X1.200000*%
%ADD16R,0.800000X3.000000*%
%ADD17C,0.700000*%
%ADD18C,1.000000*%
%ADD19C,0.254000*%
%ADD20C,0.500000*%
%ADD21C,0.508000*%
G04 APERTURE END LIST*
D10*
X56896000Y-47244000D03*
D11*
X56896000Y-44704000D03*
D12*
X49784000Y-32512000D03*
D13*
X51054000Y-32512000D03*
D14*
X59500000Y-57700000D03*
X59500000Y-50500000D03*
X56500000Y-50500000D03*
X56500000Y-57700000D03*
D15*
X54500000Y-46924000D03*
X54500000Y-45024000D03*
D16*
X57270000Y-35400000D03*
X57270000Y-39464000D03*
X56000000Y-39464000D03*
X58540000Y-35400000D03*
X56000000Y-35400000D03*
X58540000Y-39464000D03*
X54730000Y-39464000D03*
X59810000Y-35400000D03*
X54730000Y-35400000D03*
X59810000Y-39464000D03*
D17*
X49784000Y-59720000D03*
X62146000Y-42702000D03*
X52494000Y-40416000D03*
X52900000Y-26100000D03*
X52702737Y-106702737D03*
X51228329Y-105228329D03*
X50500000Y-103250000D03*
X50500000Y-100750000D03*
X50500000Y-98250000D03*
X50500000Y-95750000D03*
X50500000Y-90750000D03*
X50500000Y-93250010D03*
X50500000Y-88250006D03*
X50500000Y-85750000D03*
X50500000Y-83250000D03*
X50500000Y-80750000D03*
X50500000Y-78250004D03*
X50500000Y-75750000D03*
X60500000Y-90750000D03*
X60499996Y-88250000D03*
X60500000Y-85749994D03*
X60500000Y-83250000D03*
X60500000Y-80750000D03*
X60500006Y-73250000D03*
X60500000Y-75750000D03*
X60500000Y-78250000D03*
X60500000Y-93250000D03*
X60500000Y-95750000D03*
X60500000Y-98248063D03*
X60500000Y-100763982D03*
X60500000Y-103262214D03*
X60500000Y-105746856D03*
X53500000Y-107500000D03*
X52000000Y-106000000D03*
X50500000Y-104500000D03*
X60500000Y-107000000D03*
X50500000Y-74500000D03*
X50500000Y-77000000D03*
X50500000Y-79500000D03*
X50500000Y-82000000D03*
X50500000Y-84500000D03*
X50500000Y-87000000D03*
X50500000Y-89500000D03*
X50500000Y-92000000D03*
X50500000Y-94500000D03*
X50500000Y-97000000D03*
X50500000Y-99500000D03*
X50500000Y-102000000D03*
X60500000Y-69500000D03*
X60500000Y-72000000D03*
X60500000Y-74500000D03*
X60500000Y-77000000D03*
X60500000Y-79500000D03*
X60500000Y-82000000D03*
X60500000Y-84500000D03*
X60500000Y-87000000D03*
X60500000Y-89500000D03*
X60500000Y-92000000D03*
X60500000Y-94500000D03*
X60500000Y-97000000D03*
X60500000Y-99500000D03*
X60500000Y-102000000D03*
X60500000Y-104500000D03*
X61468000Y-57912000D03*
X50500000Y-72000000D03*
X50500000Y-66500000D03*
X50500000Y-70753515D03*
X50500000Y-73273302D03*
X55400000Y-33000000D03*
X57200000Y-54000000D03*
X62000000Y-46800000D03*
X58000000Y-70800000D03*
X55600000Y-71400000D03*
X62400000Y-39400000D03*
X57658000Y-61976000D03*
X58420000Y-44196000D03*
X51632610Y-44196000D03*
X65532000Y-43180000D03*
X58928000Y-29464000D03*
X50546000Y-62484000D03*
X56500000Y-108500000D03*
X51750000Y-69500000D03*
X59436000Y-42926000D03*
X53024757Y-69754951D03*
X53000000Y-70750000D03*
X55345119Y-105595119D03*
X53758622Y-104008622D03*
X53000000Y-100750000D03*
X53000000Y-98249994D03*
X53000000Y-95750006D03*
X53000000Y-90749992D03*
X53000000Y-93250000D03*
X53000000Y-88250006D03*
X53000000Y-85750000D03*
X53000000Y-83250006D03*
X53000000Y-80750000D03*
X53000000Y-78250000D03*
X53000000Y-75750000D03*
X53000000Y-73257938D03*
X58000000Y-90750000D03*
X58000004Y-88250000D03*
X58000000Y-85750000D03*
X58000000Y-83250000D03*
X58000000Y-80750000D03*
X58000000Y-73250006D03*
X58000000Y-75750000D03*
X58000000Y-78250006D03*
X58000000Y-93250000D03*
X58000000Y-95749984D03*
X58000000Y-98248063D03*
X58000000Y-100746139D03*
X58000000Y-103246781D03*
X58000000Y-105505330D03*
X56250000Y-106500000D03*
X54500000Y-104750000D03*
X53000000Y-103250000D03*
X58000000Y-106549990D03*
X53000000Y-102000000D03*
X53000000Y-99500000D03*
X53000000Y-97000000D03*
X53000000Y-94500000D03*
X53000000Y-92000000D03*
X53000000Y-89500000D03*
X53000000Y-87000000D03*
X53000000Y-84500000D03*
X53000000Y-82000000D03*
X53000000Y-79500000D03*
X53000000Y-77000000D03*
X53000000Y-74500000D03*
X53000000Y-72000000D03*
X58000000Y-104500000D03*
X58000000Y-102000000D03*
X58000000Y-99500000D03*
X58000000Y-97000000D03*
X58000000Y-94500000D03*
X58000000Y-92000000D03*
X58000000Y-89500000D03*
X58000000Y-87000000D03*
X58000000Y-84500000D03*
X58000000Y-82000000D03*
X58000000Y-79500000D03*
X58000000Y-77000000D03*
X58000000Y-74500000D03*
X58000000Y-72000000D03*
X54700000Y-66200000D03*
X52200000Y-66600000D03*
X55289986Y-42843986D03*
X57404000Y-29464000D03*
D18*
X50038000Y-64262000D03*
X49276000Y-61214000D03*
D17*
X65786000Y-45466000D03*
X53340000Y-44704000D03*
X60400000Y-52500000D03*
X58900000Y-52800000D03*
X59944000Y-29464000D03*
X51308000Y-61829200D03*
X52324000Y-38100000D03*
X52324000Y-36830000D03*
X60700000Y-53400000D03*
X58674000Y-45466000D03*
X60960000Y-39878000D03*
X62484000Y-48768000D03*
X63246000Y-45897801D03*
D19*
X51228329Y-105228329D02*
X52000000Y-106000000D01*
X50500000Y-102000000D02*
X50500000Y-100750000D01*
X50500000Y-97000000D02*
X50500000Y-98250000D01*
X50500000Y-97000000D02*
X50500000Y-95750000D01*
X50500000Y-92000000D02*
X50500000Y-90750000D01*
X50500000Y-89500000D02*
X50500000Y-90750000D01*
X50500000Y-87000000D02*
X50500000Y-88250006D01*
X50500000Y-87000000D02*
X50500000Y-85750000D01*
X50500000Y-84500000D02*
X50500000Y-85750000D01*
X60500000Y-87000000D02*
X60500000Y-85749994D01*
X60500000Y-84500000D02*
X60500000Y-85749994D01*
X60500000Y-82000000D02*
X60500000Y-83250000D01*
X60500000Y-79500000D02*
X60500000Y-80750000D01*
X60500000Y-82000000D02*
X60500000Y-80750000D01*
X60500000Y-77000000D02*
X60500000Y-75750000D01*
X60500000Y-74500000D02*
X60500000Y-75750000D01*
X60500000Y-77000000D02*
X60500000Y-78250000D01*
X60500000Y-94500000D02*
X60500000Y-95750000D01*
X60500000Y-100763982D02*
X60500000Y-99500000D01*
X60500000Y-104500000D02*
X60500000Y-105746856D01*
X50500000Y-102000000D02*
X50500000Y-104500000D01*
X50500000Y-77000000D02*
X50500000Y-74500000D01*
X50500000Y-82000000D02*
X50500000Y-79500000D01*
X60500000Y-72000000D02*
X60500000Y-69500000D01*
X60500000Y-92000000D02*
X60500000Y-89500000D01*
X56000000Y-35400000D02*
X57270000Y-35400000D01*
X51632610Y-44196000D02*
X51632610Y-43701026D01*
X63850000Y-43204000D02*
X63850000Y-42500000D01*
X63473199Y-43580801D02*
X63850000Y-43204000D01*
X58820801Y-43580801D02*
X63473199Y-43580801D01*
X57404000Y-42164000D02*
X58820801Y-43580801D01*
X53169636Y-42164000D02*
X57404000Y-42164000D01*
X51632610Y-43701026D02*
X53169636Y-42164000D01*
X63850000Y-42500000D02*
X64852000Y-42500000D01*
X64852000Y-42500000D02*
X65532000Y-43180000D01*
X51562000Y-43630416D02*
X51632610Y-43701026D01*
X52230000Y-35400000D02*
X51562000Y-36068000D01*
X54730000Y-35400000D02*
X52230000Y-35400000D01*
X51562000Y-36068000D02*
X51562000Y-43630416D01*
X55370949Y-30988000D02*
X57404000Y-30988000D01*
X50546000Y-35812949D02*
X55370949Y-30988000D01*
X57404000Y-30988000D02*
X58928000Y-29464000D01*
X50546000Y-62230000D02*
X50546000Y-35812949D01*
X51750000Y-103750000D02*
X52000000Y-104000000D01*
X52000000Y-104000000D02*
X56500000Y-108500000D01*
X51750000Y-69500000D02*
X51750000Y-103750000D01*
X59810000Y-39464000D02*
X59810000Y-40564000D01*
X59810000Y-42552000D02*
X59436000Y-42926000D01*
X59810000Y-39464000D02*
X59810000Y-42552000D01*
X53000000Y-72000000D02*
X53000000Y-70750000D01*
X54500000Y-104750000D02*
X55345119Y-105595119D01*
X53758622Y-104008622D02*
X54500000Y-104750000D01*
X53000000Y-97000000D02*
X53000000Y-98249994D01*
X53000000Y-97000000D02*
X53000000Y-95750006D01*
X53000000Y-87000000D02*
X53000000Y-88250006D01*
X53000000Y-87000000D02*
X53000000Y-85750000D01*
X53000000Y-84500000D02*
X53000000Y-85750000D01*
X53000000Y-82000000D02*
X53000000Y-83250006D01*
X53000000Y-82000000D02*
X53000000Y-80750000D01*
X53000000Y-77000000D02*
X53000000Y-75750000D01*
X58000000Y-92000000D02*
X58000000Y-90750000D01*
X58000000Y-88249996D02*
X58000004Y-88250000D01*
X58000000Y-87000000D02*
X58000000Y-88249996D01*
X58000000Y-87000000D02*
X58000000Y-85750000D01*
X58000000Y-84500000D02*
X58000000Y-85750000D01*
X58000000Y-82000000D02*
X58000000Y-83250000D01*
X58000000Y-82000000D02*
X58000000Y-80750000D01*
X58000000Y-79500000D02*
X58000000Y-80750000D01*
X58000000Y-77000000D02*
X58000000Y-75750000D01*
X58000000Y-77000000D02*
X58000000Y-78250006D01*
X58000000Y-94500000D02*
X58000000Y-95749984D01*
X58000000Y-99500000D02*
X58000000Y-100746139D01*
X58000000Y-104500000D02*
X58000000Y-103246781D01*
X53000000Y-99500000D02*
X53000000Y-102000000D01*
X53000000Y-89500000D02*
X53000000Y-92000000D01*
X55000000Y-70000000D02*
X53000000Y-72000000D01*
D20*
X52600000Y-66200000D02*
X52200000Y-66600000D01*
X54200000Y-66200000D02*
X52600000Y-66200000D01*
D19*
X52549999Y-66250001D02*
X52549999Y-43716001D01*
X52200000Y-66600000D02*
X52549999Y-66250001D01*
X52549999Y-43716001D02*
X53422014Y-42843986D01*
X53422014Y-42843986D02*
X55289986Y-42843986D01*
X56000000Y-70000000D02*
X56119000Y-70119000D01*
X55000000Y-70000000D02*
X56000000Y-70000000D01*
X56119000Y-70119000D02*
X58000000Y-72000000D01*
X54864000Y-69864000D02*
X55000000Y-70000000D01*
X54864000Y-66200000D02*
X54864000Y-69864000D01*
X54200000Y-66200000D02*
X54864000Y-66200000D01*
D21*
X56909026Y-29464000D02*
X56655026Y-29718000D01*
X56655026Y-29718000D02*
X50038000Y-29718000D01*
X50038000Y-29718000D02*
X48768000Y-30988000D01*
X57404000Y-29464000D02*
X56909026Y-29464000D01*
X48768000Y-30988000D02*
X48768000Y-33528000D01*
X48768000Y-33528000D02*
X49276000Y-34036000D01*
X49276000Y-61214000D02*
X48768000Y-60706000D01*
X48768000Y-58420000D02*
X49276000Y-57912000D01*
X48768000Y-60706000D02*
X48768000Y-58420000D01*
X49276000Y-34036000D02*
X49276000Y-57912000D01*
X49276000Y-63500000D02*
X50038000Y-64262000D01*
X49276000Y-61214000D02*
X49276000Y-63500000D01*
X65436001Y-45116001D02*
X60293999Y-45116001D01*
X65786000Y-45466000D02*
X65436001Y-45116001D01*
X58254000Y-47244000D02*
X56896000Y-47244000D01*
X60293999Y-45204001D02*
X58254000Y-47244000D01*
X60293999Y-45116001D02*
X60293999Y-45204001D01*
D19*
X54820000Y-47244000D02*
X54500000Y-46924000D01*
X56896000Y-47244000D02*
X54820000Y-47244000D01*
X54180000Y-44704000D02*
X54500000Y-45024000D01*
X53340000Y-44704000D02*
X54180000Y-44704000D01*
X60100000Y-52800000D02*
X60400000Y-52500000D01*
X58900000Y-52800000D02*
X60100000Y-52800000D01*
X59944000Y-29464000D02*
X57988190Y-31419810D01*
X51308000Y-61112380D02*
X50977810Y-60782190D01*
X51308000Y-61829200D02*
X51308000Y-61112380D01*
X51739810Y-35229810D02*
X55549810Y-31419810D01*
X57988190Y-31419810D02*
X55549810Y-31419810D01*
X51739810Y-35279520D02*
X51739810Y-35229810D01*
X51027520Y-35991810D02*
X51739810Y-35279520D01*
X50977810Y-35991810D02*
X51027520Y-35991810D01*
X50977810Y-35991810D02*
X50977810Y-60782190D01*
X54730000Y-39464000D02*
X54730000Y-40520000D01*
X54730000Y-39464000D02*
X54730000Y-39670000D01*
X54730000Y-39464000D02*
X53688000Y-39464000D01*
X53688000Y-39464000D02*
X52324000Y-38100000D01*
X56000000Y-38364000D02*
X56000000Y-39464000D01*
X54840801Y-37204801D02*
X56000000Y-38364000D01*
X52698801Y-37204801D02*
X54840801Y-37204801D01*
X52324000Y-36830000D02*
X52698801Y-37204801D01*
X59875000Y-57475000D02*
X59500000Y-57100000D01*
X60250000Y-57475000D02*
X59875000Y-57475000D01*
X59875000Y-49525000D02*
X59500000Y-49900000D01*
X61194974Y-53400000D02*
X61468000Y-53126974D01*
X60700000Y-53400000D02*
X61194974Y-53400000D01*
X60700000Y-57025000D02*
X60250000Y-57475000D01*
X60700000Y-53400000D02*
X60700000Y-57025000D01*
X61468000Y-51714000D02*
X61468000Y-51968000D01*
X60254000Y-50500000D02*
X61468000Y-51714000D01*
X59500000Y-50500000D02*
X60254000Y-50500000D01*
X61468000Y-53126974D02*
X61468000Y-51968000D01*
X59582809Y-44557191D02*
X65424809Y-44557191D01*
X58674000Y-45466000D02*
X59582809Y-44557191D01*
X66186801Y-43795199D02*
X66186801Y-42564801D01*
X65424809Y-44557191D02*
X66186801Y-43795199D01*
X65367199Y-41745199D02*
X62827199Y-41745199D01*
X66186801Y-42564801D02*
X65367199Y-41745199D01*
X62827199Y-41745199D02*
X60960000Y-39878000D01*
X62833999Y-48418001D02*
X62484000Y-48768000D01*
X62896001Y-48355999D02*
X62833999Y-48418001D01*
X62896001Y-46247800D02*
X62896001Y-48355999D01*
X63246000Y-45897801D02*
X62896001Y-46247800D01*
G36*
X55429124Y-108636862D02*
G01*
X55464389Y-108814149D01*
X55545575Y-109010151D01*
X55663440Y-109186547D01*
X55813453Y-109336560D01*
X55989849Y-109454425D01*
X56185851Y-109535611D01*
X56393925Y-109577000D01*
X56606075Y-109577000D01*
X56814149Y-109535611D01*
X57010151Y-109454425D01*
X57186547Y-109336560D01*
X57336560Y-109186547D01*
X57454425Y-109010151D01*
X57535611Y-108814149D01*
X57577000Y-108606075D01*
X57577000Y-108393925D01*
X57535611Y-108185851D01*
X57454425Y-107989849D01*
X57336560Y-107813453D01*
X57186547Y-107663440D01*
X57010151Y-107545575D01*
X56814149Y-107464389D01*
X56636862Y-107429124D01*
X56634738Y-107427000D01*
X65873000Y-107427000D01*
X65873000Y-160958702D01*
X58000000Y-171784077D01*
X50127000Y-160958702D01*
X50127000Y-107427000D01*
X54219262Y-107427000D01*
X55429124Y-108636862D01*
X55429124Y-108636862D01*
G37*
X55429124Y-108636862D02*
X55464389Y-108814149D01*
X55545575Y-109010151D01*
X55663440Y-109186547D01*
X55813453Y-109336560D01*
X55989849Y-109454425D01*
X56185851Y-109535611D01*
X56393925Y-109577000D01*
X56606075Y-109577000D01*
X56814149Y-109535611D01*
X57010151Y-109454425D01*
X57186547Y-109336560D01*
X57336560Y-109186547D01*
X57454425Y-109010151D01*
X57535611Y-108814149D01*
X57577000Y-108606075D01*
X57577000Y-108393925D01*
X57535611Y-108185851D01*
X57454425Y-107989849D01*
X57336560Y-107813453D01*
X57186547Y-107663440D01*
X57010151Y-107545575D01*
X56814149Y-107464389D01*
X56636862Y-107429124D01*
X56634738Y-107427000D01*
X65873000Y-107427000D01*
X65873000Y-160958702D01*
X58000000Y-171784077D01*
X50127000Y-160958702D01*
X50127000Y-107427000D01*
X54219262Y-107427000D01*
X55429124Y-108636862D01*
G36*
X53742157Y-45624000D02*
G01*
X53749513Y-45698689D01*
X53771299Y-45770508D01*
X53806678Y-45836696D01*
X53854289Y-45894711D01*
X53912304Y-45942322D01*
X53971568Y-45974000D01*
X53912304Y-46005678D01*
X53854289Y-46053289D01*
X53806678Y-46111304D01*
X53771299Y-46177492D01*
X53749513Y-46249311D01*
X53742157Y-46324000D01*
X53742157Y-47524000D01*
X53749513Y-47598689D01*
X53771299Y-47670508D01*
X53806678Y-47736696D01*
X53854289Y-47794711D01*
X53912304Y-47842322D01*
X53978492Y-47877701D01*
X54050311Y-47899487D01*
X54125000Y-47906843D01*
X54875000Y-47906843D01*
X54949689Y-47899487D01*
X55021508Y-47877701D01*
X55087696Y-47842322D01*
X55145711Y-47794711D01*
X55180763Y-47752000D01*
X55663157Y-47752000D01*
X55663157Y-48094000D01*
X55670513Y-48168689D01*
X55692299Y-48240508D01*
X55727678Y-48306696D01*
X55775289Y-48364711D01*
X55833304Y-48412322D01*
X55899492Y-48447701D01*
X55971311Y-48469487D01*
X56046000Y-48476843D01*
X57746000Y-48476843D01*
X57820689Y-48469487D01*
X57892508Y-48447701D01*
X57958696Y-48412322D01*
X58016711Y-48364711D01*
X58064322Y-48306696D01*
X58099701Y-48240508D01*
X58121487Y-48168689D01*
X58128843Y-48094000D01*
X58128843Y-47879000D01*
X58222819Y-47879000D01*
X58254000Y-47882071D01*
X58285181Y-47879000D01*
X58285192Y-47879000D01*
X58378482Y-47869812D01*
X58498180Y-47833502D01*
X58608494Y-47774537D01*
X58705185Y-47695185D01*
X58725074Y-47670950D01*
X60645024Y-45751001D01*
X62529879Y-45751001D01*
X62515000Y-45825804D01*
X62515000Y-45911287D01*
X62471572Y-45964205D01*
X62424400Y-46052458D01*
X62395352Y-46148216D01*
X62388001Y-46222853D01*
X62385544Y-46247800D01*
X62388001Y-46272744D01*
X62388002Y-48041774D01*
X62270775Y-48065092D01*
X62137742Y-48120196D01*
X62018015Y-48200195D01*
X61916195Y-48302015D01*
X61836196Y-48421742D01*
X61781092Y-48554775D01*
X61753000Y-48696003D01*
X61753000Y-48839997D01*
X61781092Y-48981225D01*
X61836196Y-49114258D01*
X61916195Y-49233985D01*
X62018015Y-49335805D01*
X62137742Y-49415804D01*
X62270775Y-49470908D01*
X62412003Y-49499000D01*
X62555997Y-49499000D01*
X62697225Y-49470908D01*
X62830258Y-49415804D01*
X62949985Y-49335805D01*
X63051805Y-49233985D01*
X63131804Y-49114258D01*
X63186908Y-48981225D01*
X63215000Y-48839997D01*
X63215000Y-48755420D01*
X63237566Y-48732854D01*
X63256949Y-48716947D01*
X63320430Y-48639594D01*
X63367602Y-48551342D01*
X63396650Y-48455584D01*
X63404001Y-48380946D01*
X63404001Y-48380944D01*
X63406458Y-48356000D01*
X63404001Y-48331056D01*
X63404001Y-46611694D01*
X63459225Y-46600709D01*
X63592258Y-46545605D01*
X63711985Y-46465606D01*
X63813805Y-46363786D01*
X63893804Y-46244059D01*
X63948908Y-46111026D01*
X63977000Y-45969798D01*
X63977000Y-45825804D01*
X63962121Y-45751001D01*
X65112823Y-45751001D01*
X65138196Y-45812258D01*
X65218195Y-45931985D01*
X65320015Y-46033805D01*
X65439742Y-46113804D01*
X65572775Y-46168908D01*
X65714003Y-46197000D01*
X65857997Y-46197000D01*
X65999225Y-46168908D01*
X66132258Y-46113804D01*
X66251985Y-46033805D01*
X66353805Y-45931985D01*
X66433804Y-45812258D01*
X66473000Y-45717630D01*
X66473000Y-59267610D01*
X66438355Y-59244461D01*
X66077836Y-59095129D01*
X65695111Y-59019000D01*
X65304889Y-59019000D01*
X64922164Y-59095129D01*
X64561645Y-59244461D01*
X64237186Y-59461257D01*
X63961257Y-59737186D01*
X63744461Y-60061645D01*
X63595129Y-60422164D01*
X63519000Y-60804889D01*
X63519000Y-61195111D01*
X63595129Y-61577836D01*
X63744461Y-61938355D01*
X63961257Y-62262814D01*
X64237186Y-62538743D01*
X64561645Y-62755539D01*
X64922164Y-62904871D01*
X65304889Y-62981000D01*
X65695111Y-62981000D01*
X66077836Y-62904871D01*
X66438355Y-62755539D01*
X66473000Y-62732390D01*
X66473000Y-107273000D01*
X60127000Y-107273000D01*
X60127000Y-68800000D01*
X60124560Y-68775224D01*
X60117333Y-68751399D01*
X60105597Y-68729443D01*
X60089803Y-68710197D01*
X60070557Y-68694403D01*
X60048601Y-68682667D01*
X60024776Y-68675440D01*
X60000000Y-68673000D01*
X58400000Y-68673000D01*
X58375224Y-68675440D01*
X58351399Y-68682667D01*
X58329443Y-68694403D01*
X58310197Y-68710197D01*
X58294403Y-68729443D01*
X58282667Y-68751399D01*
X58275440Y-68775224D01*
X58273000Y-68800000D01*
X58273000Y-71321852D01*
X58213225Y-71297092D01*
X58071997Y-71269000D01*
X57987420Y-71269000D01*
X56376855Y-69658435D01*
X56360948Y-69639052D01*
X56283595Y-69575571D01*
X56195343Y-69528399D01*
X56099585Y-69499351D01*
X56024947Y-69492000D01*
X56024944Y-69492000D01*
X56000000Y-69489543D01*
X55975056Y-69492000D01*
X55372000Y-69492000D01*
X55372000Y-66487844D01*
X55402908Y-66413225D01*
X55431000Y-66271997D01*
X55431000Y-66128003D01*
X55402908Y-65986775D01*
X55347804Y-65853742D01*
X55267805Y-65734015D01*
X55165985Y-65632195D01*
X55046258Y-65552196D01*
X54913225Y-65497092D01*
X54771997Y-65469000D01*
X54628003Y-65469000D01*
X54486775Y-65497092D01*
X54353742Y-65552196D01*
X54316056Y-65577377D01*
X54230998Y-65569000D01*
X53057999Y-65569000D01*
X53057999Y-59075000D01*
X55361928Y-59075000D01*
X55374188Y-59199482D01*
X55410498Y-59319180D01*
X55469463Y-59429494D01*
X55548815Y-59526185D01*
X55645506Y-59605537D01*
X55755820Y-59664502D01*
X55875518Y-59700812D01*
X56000000Y-59713072D01*
X56214250Y-59710000D01*
X56373000Y-59551250D01*
X56373000Y-57827000D01*
X56627000Y-57827000D01*
X56627000Y-59551250D01*
X56785750Y-59710000D01*
X57000000Y-59713072D01*
X57124482Y-59700812D01*
X57244180Y-59664502D01*
X57354494Y-59605537D01*
X57451185Y-59526185D01*
X57530537Y-59429494D01*
X57589502Y-59319180D01*
X57625812Y-59199482D01*
X57638072Y-59075000D01*
X57635000Y-57985750D01*
X57476250Y-57827000D01*
X56627000Y-57827000D01*
X56373000Y-57827000D01*
X55523750Y-57827000D01*
X55365000Y-57985750D01*
X55361928Y-59075000D01*
X53057999Y-59075000D01*
X53057999Y-56325000D01*
X55361928Y-56325000D01*
X55365000Y-57414250D01*
X55523750Y-57573000D01*
X56373000Y-57573000D01*
X56373000Y-55848750D01*
X56627000Y-55848750D01*
X56627000Y-57573000D01*
X57476250Y-57573000D01*
X57635000Y-57414250D01*
X57638072Y-56325000D01*
X57625812Y-56200518D01*
X57589502Y-56080820D01*
X57530537Y-55970506D01*
X57451185Y-55873815D01*
X57354494Y-55794463D01*
X57244180Y-55735498D01*
X57124482Y-55699188D01*
X57000000Y-55686928D01*
X56785750Y-55690000D01*
X56627000Y-55848750D01*
X56373000Y-55848750D01*
X56214250Y-55690000D01*
X56000000Y-55686928D01*
X55875518Y-55699188D01*
X55755820Y-55735498D01*
X55645506Y-55794463D01*
X55548815Y-55873815D01*
X55469463Y-55970506D01*
X55410498Y-56080820D01*
X55374188Y-56200518D01*
X55361928Y-56325000D01*
X53057999Y-56325000D01*
X53057999Y-52728003D01*
X58169000Y-52728003D01*
X58169000Y-52871997D01*
X58197092Y-53013225D01*
X58252196Y-53146258D01*
X58332195Y-53265985D01*
X58434015Y-53367805D01*
X58553742Y-53447804D01*
X58686775Y-53502908D01*
X58828003Y-53531000D01*
X58971997Y-53531000D01*
X59113225Y-53502908D01*
X59246258Y-53447804D01*
X59365985Y-53367805D01*
X59425790Y-53308000D01*
X59972979Y-53308000D01*
X59969000Y-53328003D01*
X59969000Y-53471997D01*
X59997092Y-53613225D01*
X60052196Y-53746258D01*
X60132195Y-53865985D01*
X60192000Y-53925790D01*
X60192001Y-55995616D01*
X60146508Y-55971299D01*
X60074689Y-55949513D01*
X60000000Y-55942157D01*
X59000000Y-55942157D01*
X58925311Y-55949513D01*
X58853492Y-55971299D01*
X58787304Y-56006678D01*
X58729289Y-56054289D01*
X58681678Y-56112304D01*
X58646299Y-56178492D01*
X58624513Y-56250311D01*
X58617157Y-56325000D01*
X58617157Y-59075000D01*
X58624513Y-59149689D01*
X58646299Y-59221508D01*
X58681678Y-59287696D01*
X58729289Y-59345711D01*
X58787304Y-59393322D01*
X58853492Y-59428701D01*
X58925311Y-59450487D01*
X59000000Y-59457843D01*
X60000000Y-59457843D01*
X60074689Y-59450487D01*
X60146508Y-59428701D01*
X60212696Y-59393322D01*
X60270711Y-59345711D01*
X60318322Y-59287696D01*
X60353701Y-59221508D01*
X60375487Y-59149689D01*
X60382843Y-59075000D01*
X60382843Y-57965560D01*
X60445343Y-57946601D01*
X60533595Y-57899429D01*
X60610948Y-57835948D01*
X60626855Y-57816566D01*
X61041570Y-57401851D01*
X61060948Y-57385948D01*
X61079624Y-57363190D01*
X61124429Y-57308596D01*
X61171600Y-57220344D01*
X61171601Y-57220343D01*
X61200649Y-57124585D01*
X61208000Y-57049947D01*
X61208000Y-57049945D01*
X61210457Y-57025001D01*
X61208000Y-57000057D01*
X61208000Y-53925790D01*
X61226431Y-53907359D01*
X61294559Y-53900649D01*
X61390317Y-53871601D01*
X61478569Y-53824429D01*
X61555922Y-53760948D01*
X61571829Y-53741565D01*
X61809565Y-53503829D01*
X61828948Y-53487922D01*
X61892429Y-53410569D01*
X61939601Y-53322317D01*
X61968649Y-53226559D01*
X61976000Y-53151921D01*
X61976000Y-53151919D01*
X61978457Y-53126975D01*
X61976000Y-53102031D01*
X61976000Y-51738943D01*
X61978457Y-51713999D01*
X61975542Y-51684405D01*
X61968649Y-51614415D01*
X61939601Y-51518657D01*
X61927704Y-51496399D01*
X61892429Y-51430404D01*
X61844850Y-51372429D01*
X61828948Y-51353052D01*
X61809571Y-51337150D01*
X60630855Y-50158435D01*
X60614948Y-50139052D01*
X60537595Y-50075571D01*
X60449343Y-50028399D01*
X60382843Y-50008226D01*
X60382843Y-49551539D01*
X60385457Y-49525001D01*
X60382843Y-49498463D01*
X60382843Y-49125000D01*
X60375487Y-49050311D01*
X60353701Y-48978492D01*
X60318322Y-48912304D01*
X60270711Y-48854289D01*
X60212696Y-48806678D01*
X60146508Y-48771299D01*
X60074689Y-48749513D01*
X60000000Y-48742157D01*
X59000000Y-48742157D01*
X58925311Y-48749513D01*
X58853492Y-48771299D01*
X58787304Y-48806678D01*
X58729289Y-48854289D01*
X58681678Y-48912304D01*
X58646299Y-48978492D01*
X58624513Y-49050311D01*
X58617157Y-49125000D01*
X58617157Y-51875000D01*
X58624513Y-51949689D01*
X58646299Y-52021508D01*
X58681678Y-52087696D01*
X58689022Y-52096645D01*
X58686775Y-52097092D01*
X58553742Y-52152196D01*
X58434015Y-52232195D01*
X58332195Y-52334015D01*
X58252196Y-52453742D01*
X58197092Y-52586775D01*
X58169000Y-52728003D01*
X53057999Y-52728003D01*
X53057999Y-51875000D01*
X55361928Y-51875000D01*
X55374188Y-51999482D01*
X55410498Y-52119180D01*
X55469463Y-52229494D01*
X55548815Y-52326185D01*
X55645506Y-52405537D01*
X55755820Y-52464502D01*
X55875518Y-52500812D01*
X56000000Y-52513072D01*
X56214250Y-52510000D01*
X56373000Y-52351250D01*
X56373000Y-50627000D01*
X56627000Y-50627000D01*
X56627000Y-52351250D01*
X56785750Y-52510000D01*
X57000000Y-52513072D01*
X57124482Y-52500812D01*
X57244180Y-52464502D01*
X57354494Y-52405537D01*
X57451185Y-52326185D01*
X57530537Y-52229494D01*
X57589502Y-52119180D01*
X57625812Y-51999482D01*
X57638072Y-51875000D01*
X57635000Y-50785750D01*
X57476250Y-50627000D01*
X56627000Y-50627000D01*
X56373000Y-50627000D01*
X55523750Y-50627000D01*
X55365000Y-50785750D01*
X55361928Y-51875000D01*
X53057999Y-51875000D01*
X53057999Y-49125000D01*
X55361928Y-49125000D01*
X55365000Y-50214250D01*
X55523750Y-50373000D01*
X56373000Y-50373000D01*
X56373000Y-48648750D01*
X56627000Y-48648750D01*
X56627000Y-50373000D01*
X57476250Y-50373000D01*
X57635000Y-50214250D01*
X57638072Y-49125000D01*
X57625812Y-49000518D01*
X57589502Y-48880820D01*
X57530537Y-48770506D01*
X57451185Y-48673815D01*
X57354494Y-48594463D01*
X57244180Y-48535498D01*
X57124482Y-48499188D01*
X57000000Y-48486928D01*
X56785750Y-48490000D01*
X56627000Y-48648750D01*
X56373000Y-48648750D01*
X56214250Y-48490000D01*
X56000000Y-48486928D01*
X55875518Y-48499188D01*
X55755820Y-48535498D01*
X55645506Y-48594463D01*
X55548815Y-48673815D01*
X55469463Y-48770506D01*
X55410498Y-48880820D01*
X55374188Y-49000518D01*
X55361928Y-49125000D01*
X53057999Y-49125000D01*
X53057999Y-45378420D01*
X53126775Y-45406908D01*
X53268003Y-45435000D01*
X53411997Y-45435000D01*
X53553225Y-45406908D01*
X53686258Y-45351804D01*
X53742157Y-45314453D01*
X53742157Y-45624000D01*
X53742157Y-45624000D01*
G37*
X53742157Y-45624000D02*
X53749513Y-45698689D01*
X53771299Y-45770508D01*
X53806678Y-45836696D01*
X53854289Y-45894711D01*
X53912304Y-45942322D01*
X53971568Y-45974000D01*
X53912304Y-46005678D01*
X53854289Y-46053289D01*
X53806678Y-46111304D01*
X53771299Y-46177492D01*
X53749513Y-46249311D01*
X53742157Y-46324000D01*
X53742157Y-47524000D01*
X53749513Y-47598689D01*
X53771299Y-47670508D01*
X53806678Y-47736696D01*
X53854289Y-47794711D01*
X53912304Y-47842322D01*
X53978492Y-47877701D01*
X54050311Y-47899487D01*
X54125000Y-47906843D01*
X54875000Y-47906843D01*
X54949689Y-47899487D01*
X55021508Y-47877701D01*
X55087696Y-47842322D01*
X55145711Y-47794711D01*
X55180763Y-47752000D01*
X55663157Y-47752000D01*
X55663157Y-48094000D01*
X55670513Y-48168689D01*
X55692299Y-48240508D01*
X55727678Y-48306696D01*
X55775289Y-48364711D01*
X55833304Y-48412322D01*
X55899492Y-48447701D01*
X55971311Y-48469487D01*
X56046000Y-48476843D01*
X57746000Y-48476843D01*
X57820689Y-48469487D01*
X57892508Y-48447701D01*
X57958696Y-48412322D01*
X58016711Y-48364711D01*
X58064322Y-48306696D01*
X58099701Y-48240508D01*
X58121487Y-48168689D01*
X58128843Y-48094000D01*
X58128843Y-47879000D01*
X58222819Y-47879000D01*
X58254000Y-47882071D01*
X58285181Y-47879000D01*
X58285192Y-47879000D01*
X58378482Y-47869812D01*
X58498180Y-47833502D01*
X58608494Y-47774537D01*
X58705185Y-47695185D01*
X58725074Y-47670950D01*
X60645024Y-45751001D01*
X62529879Y-45751001D01*
X62515000Y-45825804D01*
X62515000Y-45911287D01*
X62471572Y-45964205D01*
X62424400Y-46052458D01*
X62395352Y-46148216D01*
X62388001Y-46222853D01*
X62385544Y-46247800D01*
X62388001Y-46272744D01*
X62388002Y-48041774D01*
X62270775Y-48065092D01*
X62137742Y-48120196D01*
X62018015Y-48200195D01*
X61916195Y-48302015D01*
X61836196Y-48421742D01*
X61781092Y-48554775D01*
X61753000Y-48696003D01*
X61753000Y-48839997D01*
X61781092Y-48981225D01*
X61836196Y-49114258D01*
X61916195Y-49233985D01*
X62018015Y-49335805D01*
X62137742Y-49415804D01*
X62270775Y-49470908D01*
X62412003Y-49499000D01*
X62555997Y-49499000D01*
X62697225Y-49470908D01*
X62830258Y-49415804D01*
X62949985Y-49335805D01*
X63051805Y-49233985D01*
X63131804Y-49114258D01*
X63186908Y-48981225D01*
X63215000Y-48839997D01*
X63215000Y-48755420D01*
X63237566Y-48732854D01*
X63256949Y-48716947D01*
X63320430Y-48639594D01*
X63367602Y-48551342D01*
X63396650Y-48455584D01*
X63404001Y-48380946D01*
X63404001Y-48380944D01*
X63406458Y-48356000D01*
X63404001Y-48331056D01*
X63404001Y-46611694D01*
X63459225Y-46600709D01*
X63592258Y-46545605D01*
X63711985Y-46465606D01*
X63813805Y-46363786D01*
X63893804Y-46244059D01*
X63948908Y-46111026D01*
X63977000Y-45969798D01*
X63977000Y-45825804D01*
X63962121Y-45751001D01*
X65112823Y-45751001D01*
X65138196Y-45812258D01*
X65218195Y-45931985D01*
X65320015Y-46033805D01*
X65439742Y-46113804D01*
X65572775Y-46168908D01*
X65714003Y-46197000D01*
X65857997Y-46197000D01*
X65999225Y-46168908D01*
X66132258Y-46113804D01*
X66251985Y-46033805D01*
X66353805Y-45931985D01*
X66433804Y-45812258D01*
X66473000Y-45717630D01*
X66473000Y-59267610D01*
X66438355Y-59244461D01*
X66077836Y-59095129D01*
X65695111Y-59019000D01*
X65304889Y-59019000D01*
X64922164Y-59095129D01*
X64561645Y-59244461D01*
X64237186Y-59461257D01*
X63961257Y-59737186D01*
X63744461Y-60061645D01*
X63595129Y-60422164D01*
X63519000Y-60804889D01*
X63519000Y-61195111D01*
X63595129Y-61577836D01*
X63744461Y-61938355D01*
X63961257Y-62262814D01*
X64237186Y-62538743D01*
X64561645Y-62755539D01*
X64922164Y-62904871D01*
X65304889Y-62981000D01*
X65695111Y-62981000D01*
X66077836Y-62904871D01*
X66438355Y-62755539D01*
X66473000Y-62732390D01*
X66473000Y-107273000D01*
X60127000Y-107273000D01*
X60127000Y-68800000D01*
X60124560Y-68775224D01*
X60117333Y-68751399D01*
X60105597Y-68729443D01*
X60089803Y-68710197D01*
X60070557Y-68694403D01*
X60048601Y-68682667D01*
X60024776Y-68675440D01*
X60000000Y-68673000D01*
X58400000Y-68673000D01*
X58375224Y-68675440D01*
X58351399Y-68682667D01*
X58329443Y-68694403D01*
X58310197Y-68710197D01*
X58294403Y-68729443D01*
X58282667Y-68751399D01*
X58275440Y-68775224D01*
X58273000Y-68800000D01*
X58273000Y-71321852D01*
X58213225Y-71297092D01*
X58071997Y-71269000D01*
X57987420Y-71269000D01*
X56376855Y-69658435D01*
X56360948Y-69639052D01*
X56283595Y-69575571D01*
X56195343Y-69528399D01*
X56099585Y-69499351D01*
X56024947Y-69492000D01*
X56024944Y-69492000D01*
X56000000Y-69489543D01*
X55975056Y-69492000D01*
X55372000Y-69492000D01*
X55372000Y-66487844D01*
X55402908Y-66413225D01*
X55431000Y-66271997D01*
X55431000Y-66128003D01*
X55402908Y-65986775D01*
X55347804Y-65853742D01*
X55267805Y-65734015D01*
X55165985Y-65632195D01*
X55046258Y-65552196D01*
X54913225Y-65497092D01*
X54771997Y-65469000D01*
X54628003Y-65469000D01*
X54486775Y-65497092D01*
X54353742Y-65552196D01*
X54316056Y-65577377D01*
X54230998Y-65569000D01*
X53057999Y-65569000D01*
X53057999Y-59075000D01*
X55361928Y-59075000D01*
X55374188Y-59199482D01*
X55410498Y-59319180D01*
X55469463Y-59429494D01*
X55548815Y-59526185D01*
X55645506Y-59605537D01*
X55755820Y-59664502D01*
X55875518Y-59700812D01*
X56000000Y-59713072D01*
X56214250Y-59710000D01*
X56373000Y-59551250D01*
X56373000Y-57827000D01*
X56627000Y-57827000D01*
X56627000Y-59551250D01*
X56785750Y-59710000D01*
X57000000Y-59713072D01*
X57124482Y-59700812D01*
X57244180Y-59664502D01*
X57354494Y-59605537D01*
X57451185Y-59526185D01*
X57530537Y-59429494D01*
X57589502Y-59319180D01*
X57625812Y-59199482D01*
X57638072Y-59075000D01*
X57635000Y-57985750D01*
X57476250Y-57827000D01*
X56627000Y-57827000D01*
X56373000Y-57827000D01*
X55523750Y-57827000D01*
X55365000Y-57985750D01*
X55361928Y-59075000D01*
X53057999Y-59075000D01*
X53057999Y-56325000D01*
X55361928Y-56325000D01*
X55365000Y-57414250D01*
X55523750Y-57573000D01*
X56373000Y-57573000D01*
X56373000Y-55848750D01*
X56627000Y-55848750D01*
X56627000Y-57573000D01*
X57476250Y-57573000D01*
X57635000Y-57414250D01*
X57638072Y-56325000D01*
X57625812Y-56200518D01*
X57589502Y-56080820D01*
X57530537Y-55970506D01*
X57451185Y-55873815D01*
X57354494Y-55794463D01*
X57244180Y-55735498D01*
X57124482Y-55699188D01*
X57000000Y-55686928D01*
X56785750Y-55690000D01*
X56627000Y-55848750D01*
X56373000Y-55848750D01*
X56214250Y-55690000D01*
X56000000Y-55686928D01*
X55875518Y-55699188D01*
X55755820Y-55735498D01*
X55645506Y-55794463D01*
X55548815Y-55873815D01*
X55469463Y-55970506D01*
X55410498Y-56080820D01*
X55374188Y-56200518D01*
X55361928Y-56325000D01*
X53057999Y-56325000D01*
X53057999Y-52728003D01*
X58169000Y-52728003D01*
X58169000Y-52871997D01*
X58197092Y-53013225D01*
X58252196Y-53146258D01*
X58332195Y-53265985D01*
X58434015Y-53367805D01*
X58553742Y-53447804D01*
X58686775Y-53502908D01*
X58828003Y-53531000D01*
X58971997Y-53531000D01*
X59113225Y-53502908D01*
X59246258Y-53447804D01*
X59365985Y-53367805D01*
X59425790Y-53308000D01*
X59972979Y-53308000D01*
X59969000Y-53328003D01*
X59969000Y-53471997D01*
X59997092Y-53613225D01*
X60052196Y-53746258D01*
X60132195Y-53865985D01*
X60192000Y-53925790D01*
X60192001Y-55995616D01*
X60146508Y-55971299D01*
X60074689Y-55949513D01*
X60000000Y-55942157D01*
X59000000Y-55942157D01*
X58925311Y-55949513D01*
X58853492Y-55971299D01*
X58787304Y-56006678D01*
X58729289Y-56054289D01*
X58681678Y-56112304D01*
X58646299Y-56178492D01*
X58624513Y-56250311D01*
X58617157Y-56325000D01*
X58617157Y-59075000D01*
X58624513Y-59149689D01*
X58646299Y-59221508D01*
X58681678Y-59287696D01*
X58729289Y-59345711D01*
X58787304Y-59393322D01*
X58853492Y-59428701D01*
X58925311Y-59450487D01*
X59000000Y-59457843D01*
X60000000Y-59457843D01*
X60074689Y-59450487D01*
X60146508Y-59428701D01*
X60212696Y-59393322D01*
X60270711Y-59345711D01*
X60318322Y-59287696D01*
X60353701Y-59221508D01*
X60375487Y-59149689D01*
X60382843Y-59075000D01*
X60382843Y-57965560D01*
X60445343Y-57946601D01*
X60533595Y-57899429D01*
X60610948Y-57835948D01*
X60626855Y-57816566D01*
X61041570Y-57401851D01*
X61060948Y-57385948D01*
X61079624Y-57363190D01*
X61124429Y-57308596D01*
X61171600Y-57220344D01*
X61171601Y-57220343D01*
X61200649Y-57124585D01*
X61208000Y-57049947D01*
X61208000Y-57049945D01*
X61210457Y-57025001D01*
X61208000Y-57000057D01*
X61208000Y-53925790D01*
X61226431Y-53907359D01*
X61294559Y-53900649D01*
X61390317Y-53871601D01*
X61478569Y-53824429D01*
X61555922Y-53760948D01*
X61571829Y-53741565D01*
X61809565Y-53503829D01*
X61828948Y-53487922D01*
X61892429Y-53410569D01*
X61939601Y-53322317D01*
X61968649Y-53226559D01*
X61976000Y-53151921D01*
X61976000Y-53151919D01*
X61978457Y-53126975D01*
X61976000Y-53102031D01*
X61976000Y-51738943D01*
X61978457Y-51713999D01*
X61975542Y-51684405D01*
X61968649Y-51614415D01*
X61939601Y-51518657D01*
X61927704Y-51496399D01*
X61892429Y-51430404D01*
X61844850Y-51372429D01*
X61828948Y-51353052D01*
X61809571Y-51337150D01*
X60630855Y-50158435D01*
X60614948Y-50139052D01*
X60537595Y-50075571D01*
X60449343Y-50028399D01*
X60382843Y-50008226D01*
X60382843Y-49551539D01*
X60385457Y-49525001D01*
X60382843Y-49498463D01*
X60382843Y-49125000D01*
X60375487Y-49050311D01*
X60353701Y-48978492D01*
X60318322Y-48912304D01*
X60270711Y-48854289D01*
X60212696Y-48806678D01*
X60146508Y-48771299D01*
X60074689Y-48749513D01*
X60000000Y-48742157D01*
X59000000Y-48742157D01*
X58925311Y-48749513D01*
X58853492Y-48771299D01*
X58787304Y-48806678D01*
X58729289Y-48854289D01*
X58681678Y-48912304D01*
X58646299Y-48978492D01*
X58624513Y-49050311D01*
X58617157Y-49125000D01*
X58617157Y-51875000D01*
X58624513Y-51949689D01*
X58646299Y-52021508D01*
X58681678Y-52087696D01*
X58689022Y-52096645D01*
X58686775Y-52097092D01*
X58553742Y-52152196D01*
X58434015Y-52232195D01*
X58332195Y-52334015D01*
X58252196Y-52453742D01*
X58197092Y-52586775D01*
X58169000Y-52728003D01*
X53057999Y-52728003D01*
X53057999Y-51875000D01*
X55361928Y-51875000D01*
X55374188Y-51999482D01*
X55410498Y-52119180D01*
X55469463Y-52229494D01*
X55548815Y-52326185D01*
X55645506Y-52405537D01*
X55755820Y-52464502D01*
X55875518Y-52500812D01*
X56000000Y-52513072D01*
X56214250Y-52510000D01*
X56373000Y-52351250D01*
X56373000Y-50627000D01*
X56627000Y-50627000D01*
X56627000Y-52351250D01*
X56785750Y-52510000D01*
X57000000Y-52513072D01*
X57124482Y-52500812D01*
X57244180Y-52464502D01*
X57354494Y-52405537D01*
X57451185Y-52326185D01*
X57530537Y-52229494D01*
X57589502Y-52119180D01*
X57625812Y-51999482D01*
X57638072Y-51875000D01*
X57635000Y-50785750D01*
X57476250Y-50627000D01*
X56627000Y-50627000D01*
X56373000Y-50627000D01*
X55523750Y-50627000D01*
X55365000Y-50785750D01*
X55361928Y-51875000D01*
X53057999Y-51875000D01*
X53057999Y-49125000D01*
X55361928Y-49125000D01*
X55365000Y-50214250D01*
X55523750Y-50373000D01*
X56373000Y-50373000D01*
X56373000Y-48648750D01*
X56627000Y-48648750D01*
X56627000Y-50373000D01*
X57476250Y-50373000D01*
X57635000Y-50214250D01*
X57638072Y-49125000D01*
X57625812Y-49000518D01*
X57589502Y-48880820D01*
X57530537Y-48770506D01*
X57451185Y-48673815D01*
X57354494Y-48594463D01*
X57244180Y-48535498D01*
X57124482Y-48499188D01*
X57000000Y-48486928D01*
X56785750Y-48490000D01*
X56627000Y-48648750D01*
X56373000Y-48648750D01*
X56214250Y-48490000D01*
X56000000Y-48486928D01*
X55875518Y-48499188D01*
X55755820Y-48535498D01*
X55645506Y-48594463D01*
X55548815Y-48673815D01*
X55469463Y-48770506D01*
X55410498Y-48880820D01*
X55374188Y-49000518D01*
X55361928Y-49125000D01*
X53057999Y-49125000D01*
X53057999Y-45378420D01*
X53126775Y-45406908D01*
X53268003Y-45435000D01*
X53411997Y-45435000D01*
X53553225Y-45406908D01*
X53686258Y-45351804D01*
X53742157Y-45314453D01*
X53742157Y-45624000D01*
G36*
X52041999Y-65865634D02*
G01*
X52016442Y-65891191D01*
X51986775Y-65897092D01*
X51853742Y-65952196D01*
X51734015Y-66032195D01*
X51632195Y-66134015D01*
X51552196Y-66253742D01*
X51497092Y-66386775D01*
X51469000Y-66528003D01*
X51469000Y-66671997D01*
X51497092Y-66813225D01*
X51552196Y-66946258D01*
X51632195Y-67065985D01*
X51734015Y-67167805D01*
X51853742Y-67247804D01*
X51986775Y-67302908D01*
X52128003Y-67331000D01*
X52271997Y-67331000D01*
X52413225Y-67302908D01*
X52546258Y-67247804D01*
X52665985Y-67167805D01*
X52767805Y-67065985D01*
X52847804Y-66946258D01*
X52895545Y-66831000D01*
X54230998Y-66831000D01*
X54316056Y-66822623D01*
X54353742Y-66847804D01*
X54356000Y-66848739D01*
X54356001Y-69839046D01*
X54353543Y-69864000D01*
X54359285Y-69922294D01*
X53709859Y-70571720D01*
X53702908Y-70536775D01*
X53647804Y-70403742D01*
X53567805Y-70284015D01*
X53548644Y-70264854D01*
X53592562Y-70220936D01*
X53672561Y-70101209D01*
X53727665Y-69968176D01*
X53755757Y-69826948D01*
X53755757Y-69682954D01*
X53727665Y-69541726D01*
X53672561Y-69408693D01*
X53592562Y-69288966D01*
X53490742Y-69187146D01*
X53371015Y-69107147D01*
X53237982Y-69052043D01*
X53096754Y-69023951D01*
X52952760Y-69023951D01*
X52811532Y-69052043D01*
X52742099Y-69080803D01*
X52704425Y-68989849D01*
X52586560Y-68813453D01*
X52436547Y-68663440D01*
X52260151Y-68545575D01*
X52064149Y-68464389D01*
X51856075Y-68423000D01*
X51643925Y-68423000D01*
X51435851Y-68464389D01*
X51239849Y-68545575D01*
X51063453Y-68663440D01*
X50913440Y-68813453D01*
X50795575Y-68989849D01*
X50714389Y-69185851D01*
X50673000Y-69393925D01*
X50673000Y-69606075D01*
X50714389Y-69814149D01*
X50795575Y-70010151D01*
X50896000Y-70160446D01*
X50896001Y-103708038D01*
X50891868Y-103750000D01*
X50908357Y-103917413D01*
X50943728Y-104034015D01*
X50957190Y-104078393D01*
X51036490Y-104226753D01*
X51143210Y-104356791D01*
X51175800Y-104383537D01*
X51366467Y-104574204D01*
X54065262Y-107273000D01*
X49527000Y-107273000D01*
X49527000Y-64980131D01*
X49620690Y-65042732D01*
X49781022Y-65109144D01*
X49951229Y-65143000D01*
X50124771Y-65143000D01*
X50294978Y-65109144D01*
X50455310Y-65042732D01*
X50599605Y-64946318D01*
X50722318Y-64823605D01*
X50818732Y-64679310D01*
X50885144Y-64518978D01*
X50919000Y-64348771D01*
X50919000Y-64175229D01*
X50885144Y-64005022D01*
X50818732Y-63844690D01*
X50722318Y-63700395D01*
X50599605Y-63577682D01*
X50455310Y-63481268D01*
X50294978Y-63414856D01*
X50124771Y-63381000D01*
X50055025Y-63381000D01*
X49911000Y-63236975D01*
X49911000Y-62849421D01*
X49978195Y-62949985D01*
X50080015Y-63051805D01*
X50199742Y-63131804D01*
X50332775Y-63186908D01*
X50474003Y-63215000D01*
X50617997Y-63215000D01*
X50759225Y-63186908D01*
X50892258Y-63131804D01*
X51011985Y-63051805D01*
X51113805Y-62949985D01*
X51193804Y-62830258D01*
X51248908Y-62697225D01*
X51276164Y-62560200D01*
X51379997Y-62560200D01*
X51521225Y-62532108D01*
X51654258Y-62477004D01*
X51773985Y-62397005D01*
X51875805Y-62295185D01*
X51955804Y-62175458D01*
X52010908Y-62042425D01*
X52039000Y-61901197D01*
X52039000Y-61757203D01*
X52010908Y-61615975D01*
X51955804Y-61482942D01*
X51875805Y-61363215D01*
X51816000Y-61303410D01*
X51816000Y-61137323D01*
X51818457Y-61112379D01*
X51813868Y-61065785D01*
X51808649Y-61012795D01*
X51779601Y-60917037D01*
X51760753Y-60881775D01*
X51732429Y-60828784D01*
X51694190Y-60782190D01*
X51668948Y-60751432D01*
X51649565Y-60735525D01*
X51485810Y-60571770D01*
X51485810Y-44912121D01*
X51560613Y-44927000D01*
X51704607Y-44927000D01*
X51845835Y-44898908D01*
X51978868Y-44843804D01*
X52042000Y-44801621D01*
X52041999Y-65865634D01*
X52041999Y-65865634D01*
G37*
X52041999Y-65865634D02*
X52016442Y-65891191D01*
X51986775Y-65897092D01*
X51853742Y-65952196D01*
X51734015Y-66032195D01*
X51632195Y-66134015D01*
X51552196Y-66253742D01*
X51497092Y-66386775D01*
X51469000Y-66528003D01*
X51469000Y-66671997D01*
X51497092Y-66813225D01*
X51552196Y-66946258D01*
X51632195Y-67065985D01*
X51734015Y-67167805D01*
X51853742Y-67247804D01*
X51986775Y-67302908D01*
X52128003Y-67331000D01*
X52271997Y-67331000D01*
X52413225Y-67302908D01*
X52546258Y-67247804D01*
X52665985Y-67167805D01*
X52767805Y-67065985D01*
X52847804Y-66946258D01*
X52895545Y-66831000D01*
X54230998Y-66831000D01*
X54316056Y-66822623D01*
X54353742Y-66847804D01*
X54356000Y-66848739D01*
X54356001Y-69839046D01*
X54353543Y-69864000D01*
X54359285Y-69922294D01*
X53709859Y-70571720D01*
X53702908Y-70536775D01*
X53647804Y-70403742D01*
X53567805Y-70284015D01*
X53548644Y-70264854D01*
X53592562Y-70220936D01*
X53672561Y-70101209D01*
X53727665Y-69968176D01*
X53755757Y-69826948D01*
X53755757Y-69682954D01*
X53727665Y-69541726D01*
X53672561Y-69408693D01*
X53592562Y-69288966D01*
X53490742Y-69187146D01*
X53371015Y-69107147D01*
X53237982Y-69052043D01*
X53096754Y-69023951D01*
X52952760Y-69023951D01*
X52811532Y-69052043D01*
X52742099Y-69080803D01*
X52704425Y-68989849D01*
X52586560Y-68813453D01*
X52436547Y-68663440D01*
X52260151Y-68545575D01*
X52064149Y-68464389D01*
X51856075Y-68423000D01*
X51643925Y-68423000D01*
X51435851Y-68464389D01*
X51239849Y-68545575D01*
X51063453Y-68663440D01*
X50913440Y-68813453D01*
X50795575Y-68989849D01*
X50714389Y-69185851D01*
X50673000Y-69393925D01*
X50673000Y-69606075D01*
X50714389Y-69814149D01*
X50795575Y-70010151D01*
X50896000Y-70160446D01*
X50896001Y-103708038D01*
X50891868Y-103750000D01*
X50908357Y-103917413D01*
X50943728Y-104034015D01*
X50957190Y-104078393D01*
X51036490Y-104226753D01*
X51143210Y-104356791D01*
X51175800Y-104383537D01*
X51366467Y-104574204D01*
X54065262Y-107273000D01*
X49527000Y-107273000D01*
X49527000Y-64980131D01*
X49620690Y-65042732D01*
X49781022Y-65109144D01*
X49951229Y-65143000D01*
X50124771Y-65143000D01*
X50294978Y-65109144D01*
X50455310Y-65042732D01*
X50599605Y-64946318D01*
X50722318Y-64823605D01*
X50818732Y-64679310D01*
X50885144Y-64518978D01*
X50919000Y-64348771D01*
X50919000Y-64175229D01*
X50885144Y-64005022D01*
X50818732Y-63844690D01*
X50722318Y-63700395D01*
X50599605Y-63577682D01*
X50455310Y-63481268D01*
X50294978Y-63414856D01*
X50124771Y-63381000D01*
X50055025Y-63381000D01*
X49911000Y-63236975D01*
X49911000Y-62849421D01*
X49978195Y-62949985D01*
X50080015Y-63051805D01*
X50199742Y-63131804D01*
X50332775Y-63186908D01*
X50474003Y-63215000D01*
X50617997Y-63215000D01*
X50759225Y-63186908D01*
X50892258Y-63131804D01*
X51011985Y-63051805D01*
X51113805Y-62949985D01*
X51193804Y-62830258D01*
X51248908Y-62697225D01*
X51276164Y-62560200D01*
X51379997Y-62560200D01*
X51521225Y-62532108D01*
X51654258Y-62477004D01*
X51773985Y-62397005D01*
X51875805Y-62295185D01*
X51955804Y-62175458D01*
X52010908Y-62042425D01*
X52039000Y-61901197D01*
X52039000Y-61757203D01*
X52010908Y-61615975D01*
X51955804Y-61482942D01*
X51875805Y-61363215D01*
X51816000Y-61303410D01*
X51816000Y-61137323D01*
X51818457Y-61112379D01*
X51813868Y-61065785D01*
X51808649Y-61012795D01*
X51779601Y-60917037D01*
X51760753Y-60881775D01*
X51732429Y-60828784D01*
X51694190Y-60782190D01*
X51668948Y-60751432D01*
X51649565Y-60735525D01*
X51485810Y-60571770D01*
X51485810Y-44912121D01*
X51560613Y-44927000D01*
X51704607Y-44927000D01*
X51845835Y-44898908D01*
X51978868Y-44843804D01*
X52042000Y-44801621D01*
X52041999Y-65865634D01*
G36*
X57269000Y-71987420D02*
G01*
X57269000Y-72071997D01*
X57297092Y-72213225D01*
X57352196Y-72346258D01*
X57432195Y-72465985D01*
X57534015Y-72567805D01*
X57619618Y-72625003D01*
X57534015Y-72682201D01*
X57432195Y-72784021D01*
X57352196Y-72903748D01*
X57297092Y-73036781D01*
X57269000Y-73178009D01*
X57269000Y-73322003D01*
X57297092Y-73463231D01*
X57352196Y-73596264D01*
X57432195Y-73715991D01*
X57534015Y-73817811D01*
X57619609Y-73875003D01*
X57534015Y-73932195D01*
X57432195Y-74034015D01*
X57352196Y-74153742D01*
X57297092Y-74286775D01*
X57269000Y-74428003D01*
X57269000Y-74571997D01*
X57297092Y-74713225D01*
X57352196Y-74846258D01*
X57432195Y-74965985D01*
X57534015Y-75067805D01*
X57619613Y-75125000D01*
X57534015Y-75182195D01*
X57432195Y-75284015D01*
X57352196Y-75403742D01*
X57297092Y-75536775D01*
X57269000Y-75678003D01*
X57269000Y-75821997D01*
X57297092Y-75963225D01*
X57352196Y-76096258D01*
X57432195Y-76215985D01*
X57492001Y-76275791D01*
X57492000Y-76474210D01*
X57432195Y-76534015D01*
X57352196Y-76653742D01*
X57297092Y-76786775D01*
X57269000Y-76928003D01*
X57269000Y-77071997D01*
X57297092Y-77213225D01*
X57352196Y-77346258D01*
X57432195Y-77465985D01*
X57492000Y-77525790D01*
X57492001Y-77724215D01*
X57432195Y-77784021D01*
X57352196Y-77903748D01*
X57297092Y-78036781D01*
X57269000Y-78178009D01*
X57269000Y-78322003D01*
X57297092Y-78463231D01*
X57352196Y-78596264D01*
X57432195Y-78715991D01*
X57534015Y-78817811D01*
X57619609Y-78875003D01*
X57534015Y-78932195D01*
X57432195Y-79034015D01*
X57352196Y-79153742D01*
X57297092Y-79286775D01*
X57269000Y-79428003D01*
X57269000Y-79571997D01*
X57297092Y-79713225D01*
X57352196Y-79846258D01*
X57432195Y-79965985D01*
X57492000Y-80025790D01*
X57492001Y-80224209D01*
X57432195Y-80284015D01*
X57352196Y-80403742D01*
X57297092Y-80536775D01*
X57269000Y-80678003D01*
X57269000Y-80821997D01*
X57297092Y-80963225D01*
X57352196Y-81096258D01*
X57432195Y-81215985D01*
X57492001Y-81275791D01*
X57492000Y-81474210D01*
X57432195Y-81534015D01*
X57352196Y-81653742D01*
X57297092Y-81786775D01*
X57269000Y-81928003D01*
X57269000Y-82071997D01*
X57297092Y-82213225D01*
X57352196Y-82346258D01*
X57432195Y-82465985D01*
X57492000Y-82525790D01*
X57492001Y-82724209D01*
X57432195Y-82784015D01*
X57352196Y-82903742D01*
X57297092Y-83036775D01*
X57269000Y-83178003D01*
X57269000Y-83321997D01*
X57297092Y-83463225D01*
X57352196Y-83596258D01*
X57432195Y-83715985D01*
X57534015Y-83817805D01*
X57619613Y-83875000D01*
X57534015Y-83932195D01*
X57432195Y-84034015D01*
X57352196Y-84153742D01*
X57297092Y-84286775D01*
X57269000Y-84428003D01*
X57269000Y-84571997D01*
X57297092Y-84713225D01*
X57352196Y-84846258D01*
X57432195Y-84965985D01*
X57492000Y-85025790D01*
X57492001Y-85224209D01*
X57432195Y-85284015D01*
X57352196Y-85403742D01*
X57297092Y-85536775D01*
X57269000Y-85678003D01*
X57269000Y-85821997D01*
X57297092Y-85963225D01*
X57352196Y-86096258D01*
X57432195Y-86215985D01*
X57492001Y-86275791D01*
X57492000Y-86474210D01*
X57432195Y-86534015D01*
X57352196Y-86653742D01*
X57297092Y-86786775D01*
X57269000Y-86928003D01*
X57269000Y-87071997D01*
X57297092Y-87213225D01*
X57352196Y-87346258D01*
X57432195Y-87465985D01*
X57492000Y-87525790D01*
X57492001Y-87724213D01*
X57432199Y-87784015D01*
X57352200Y-87903742D01*
X57297096Y-88036775D01*
X57269004Y-88178003D01*
X57269004Y-88321997D01*
X57297096Y-88463225D01*
X57352200Y-88596258D01*
X57432199Y-88715985D01*
X57534019Y-88817805D01*
X57619615Y-88874999D01*
X57534015Y-88932195D01*
X57432195Y-89034015D01*
X57352196Y-89153742D01*
X57297092Y-89286775D01*
X57269000Y-89428003D01*
X57269000Y-89571997D01*
X57297092Y-89713225D01*
X57352196Y-89846258D01*
X57432195Y-89965985D01*
X57534015Y-90067805D01*
X57619613Y-90125000D01*
X57534015Y-90182195D01*
X57432195Y-90284015D01*
X57352196Y-90403742D01*
X57297092Y-90536775D01*
X57269000Y-90678003D01*
X57269000Y-90821997D01*
X57297092Y-90963225D01*
X57352196Y-91096258D01*
X57432195Y-91215985D01*
X57492001Y-91275791D01*
X57492000Y-91474210D01*
X57432195Y-91534015D01*
X57352196Y-91653742D01*
X57297092Y-91786775D01*
X57269000Y-91928003D01*
X57269000Y-92071997D01*
X57297092Y-92213225D01*
X57352196Y-92346258D01*
X57432195Y-92465985D01*
X57534015Y-92567805D01*
X57619613Y-92625000D01*
X57534015Y-92682195D01*
X57432195Y-92784015D01*
X57352196Y-92903742D01*
X57297092Y-93036775D01*
X57269000Y-93178003D01*
X57269000Y-93321997D01*
X57297092Y-93463225D01*
X57352196Y-93596258D01*
X57432195Y-93715985D01*
X57534015Y-93817805D01*
X57619613Y-93875000D01*
X57534015Y-93932195D01*
X57432195Y-94034015D01*
X57352196Y-94153742D01*
X57297092Y-94286775D01*
X57269000Y-94428003D01*
X57269000Y-94571997D01*
X57297092Y-94713225D01*
X57352196Y-94846258D01*
X57432195Y-94965985D01*
X57492000Y-95025790D01*
X57492001Y-95224193D01*
X57432195Y-95283999D01*
X57352196Y-95403726D01*
X57297092Y-95536759D01*
X57269000Y-95677987D01*
X57269000Y-95821981D01*
X57297092Y-95963209D01*
X57352196Y-96096242D01*
X57432195Y-96215969D01*
X57534015Y-96317789D01*
X57619625Y-96374992D01*
X57534015Y-96432195D01*
X57432195Y-96534015D01*
X57352196Y-96653742D01*
X57297092Y-96786775D01*
X57269000Y-96928003D01*
X57269000Y-97071997D01*
X57297092Y-97213225D01*
X57352196Y-97346258D01*
X57432195Y-97465985D01*
X57534015Y-97567805D01*
X57618164Y-97624032D01*
X57534015Y-97680258D01*
X57432195Y-97782078D01*
X57352196Y-97901805D01*
X57297092Y-98034838D01*
X57269000Y-98176066D01*
X57269000Y-98320060D01*
X57297092Y-98461288D01*
X57352196Y-98594321D01*
X57432195Y-98714048D01*
X57534015Y-98815868D01*
X57621063Y-98874032D01*
X57534015Y-98932195D01*
X57432195Y-99034015D01*
X57352196Y-99153742D01*
X57297092Y-99286775D01*
X57269000Y-99428003D01*
X57269000Y-99571997D01*
X57297092Y-99713225D01*
X57352196Y-99846258D01*
X57432195Y-99965985D01*
X57492000Y-100025790D01*
X57492001Y-100220348D01*
X57432195Y-100280154D01*
X57352196Y-100399881D01*
X57297092Y-100532914D01*
X57269000Y-100674142D01*
X57269000Y-100818136D01*
X57297092Y-100959364D01*
X57352196Y-101092397D01*
X57432195Y-101212124D01*
X57534015Y-101313944D01*
X57622503Y-101373070D01*
X57534015Y-101432195D01*
X57432195Y-101534015D01*
X57352196Y-101653742D01*
X57297092Y-101786775D01*
X57269000Y-101928003D01*
X57269000Y-102071997D01*
X57297092Y-102213225D01*
X57352196Y-102346258D01*
X57432195Y-102465985D01*
X57534015Y-102567805D01*
X57617205Y-102623391D01*
X57534015Y-102678976D01*
X57432195Y-102780796D01*
X57352196Y-102900523D01*
X57297092Y-103033556D01*
X57269000Y-103174784D01*
X57269000Y-103318778D01*
X57297092Y-103460006D01*
X57352196Y-103593039D01*
X57432195Y-103712766D01*
X57492001Y-103772572D01*
X57492000Y-103974210D01*
X57432195Y-104034015D01*
X57352196Y-104153742D01*
X57297092Y-104286775D01*
X57269000Y-104428003D01*
X57269000Y-104571997D01*
X57297092Y-104713225D01*
X57352196Y-104846258D01*
X57432195Y-104965985D01*
X57468875Y-105002665D01*
X57432195Y-105039345D01*
X57352196Y-105159072D01*
X57297092Y-105292105D01*
X57269000Y-105433333D01*
X57269000Y-105577327D01*
X57297092Y-105718555D01*
X57352196Y-105851588D01*
X57432195Y-105971315D01*
X57488540Y-106027660D01*
X57432195Y-106084005D01*
X57352196Y-106203732D01*
X57297092Y-106336765D01*
X57269000Y-106477993D01*
X57269000Y-106621987D01*
X57297092Y-106763215D01*
X57352196Y-106896248D01*
X57432195Y-107015975D01*
X57534015Y-107117795D01*
X57653742Y-107197794D01*
X57786775Y-107252898D01*
X57887835Y-107273000D01*
X56480738Y-107273000D01*
X56419369Y-107211631D01*
X56463225Y-107202908D01*
X56596258Y-107147804D01*
X56715985Y-107067805D01*
X56817805Y-106965985D01*
X56897804Y-106846258D01*
X56952908Y-106713225D01*
X56981000Y-106571997D01*
X56981000Y-106428003D01*
X56952908Y-106286775D01*
X56897804Y-106153742D01*
X56817805Y-106034015D01*
X56715985Y-105932195D01*
X56596258Y-105852196D01*
X56463225Y-105797092D01*
X56321997Y-105769000D01*
X56178003Y-105769000D01*
X56050821Y-105794298D01*
X56076119Y-105667116D01*
X56076119Y-105523122D01*
X56048027Y-105381894D01*
X55992923Y-105248861D01*
X55912924Y-105129134D01*
X55811104Y-105027314D01*
X55691377Y-104947315D01*
X55558344Y-104892211D01*
X55417116Y-104864119D01*
X55332539Y-104864119D01*
X55231000Y-104762580D01*
X55231000Y-104678003D01*
X55202908Y-104536775D01*
X55147804Y-104403742D01*
X55067805Y-104284015D01*
X54965985Y-104182195D01*
X54846258Y-104102196D01*
X54713225Y-104047092D01*
X54571997Y-104019000D01*
X54489622Y-104019000D01*
X54489622Y-103936625D01*
X54461530Y-103795397D01*
X54406426Y-103662364D01*
X54326427Y-103542637D01*
X54224607Y-103440817D01*
X54104880Y-103360818D01*
X53971847Y-103305714D01*
X53830619Y-103277622D01*
X53731000Y-103277622D01*
X53731000Y-103178003D01*
X53702908Y-103036775D01*
X53647804Y-102903742D01*
X53567805Y-102784015D01*
X53465985Y-102682195D01*
X53380387Y-102625000D01*
X53465985Y-102567805D01*
X53567805Y-102465985D01*
X53647804Y-102346258D01*
X53702908Y-102213225D01*
X53731000Y-102071997D01*
X53731000Y-101928003D01*
X53702908Y-101786775D01*
X53647804Y-101653742D01*
X53567805Y-101534015D01*
X53508000Y-101474210D01*
X53508000Y-101275790D01*
X53567805Y-101215985D01*
X53647804Y-101096258D01*
X53702908Y-100963225D01*
X53731000Y-100821997D01*
X53731000Y-100678003D01*
X53702908Y-100536775D01*
X53647804Y-100403742D01*
X53567805Y-100284015D01*
X53508000Y-100224210D01*
X53508000Y-100025790D01*
X53567805Y-99965985D01*
X53647804Y-99846258D01*
X53702908Y-99713225D01*
X53731000Y-99571997D01*
X53731000Y-99428003D01*
X53702908Y-99286775D01*
X53647804Y-99153742D01*
X53567805Y-99034015D01*
X53465985Y-98932195D01*
X53380382Y-98874997D01*
X53465985Y-98817799D01*
X53567805Y-98715979D01*
X53647804Y-98596252D01*
X53702908Y-98463219D01*
X53731000Y-98321991D01*
X53731000Y-98177997D01*
X53702908Y-98036769D01*
X53647804Y-97903736D01*
X53567805Y-97784009D01*
X53508000Y-97724204D01*
X53508000Y-97525790D01*
X53567805Y-97465985D01*
X53647804Y-97346258D01*
X53702908Y-97213225D01*
X53731000Y-97071997D01*
X53731000Y-96928003D01*
X53702908Y-96786775D01*
X53647804Y-96653742D01*
X53567805Y-96534015D01*
X53508000Y-96474210D01*
X53508000Y-96275796D01*
X53567805Y-96215991D01*
X53647804Y-96096264D01*
X53702908Y-95963231D01*
X53731000Y-95822003D01*
X53731000Y-95678009D01*
X53702908Y-95536781D01*
X53647804Y-95403748D01*
X53567805Y-95284021D01*
X53465985Y-95182201D01*
X53380382Y-95125003D01*
X53465985Y-95067805D01*
X53567805Y-94965985D01*
X53647804Y-94846258D01*
X53702908Y-94713225D01*
X53731000Y-94571997D01*
X53731000Y-94428003D01*
X53702908Y-94286775D01*
X53647804Y-94153742D01*
X53567805Y-94034015D01*
X53465985Y-93932195D01*
X53380387Y-93875000D01*
X53465985Y-93817805D01*
X53567805Y-93715985D01*
X53647804Y-93596258D01*
X53702908Y-93463225D01*
X53731000Y-93321997D01*
X53731000Y-93178003D01*
X53702908Y-93036775D01*
X53647804Y-92903742D01*
X53567805Y-92784015D01*
X53465985Y-92682195D01*
X53380387Y-92625000D01*
X53465985Y-92567805D01*
X53567805Y-92465985D01*
X53647804Y-92346258D01*
X53702908Y-92213225D01*
X53731000Y-92071997D01*
X53731000Y-91928003D01*
X53702908Y-91786775D01*
X53647804Y-91653742D01*
X53567805Y-91534015D01*
X53508000Y-91474210D01*
X53508000Y-91275782D01*
X53567805Y-91215977D01*
X53647804Y-91096250D01*
X53702908Y-90963217D01*
X53731000Y-90821989D01*
X53731000Y-90677995D01*
X53702908Y-90536767D01*
X53647804Y-90403734D01*
X53567805Y-90284007D01*
X53508000Y-90224202D01*
X53508000Y-90025790D01*
X53567805Y-89965985D01*
X53647804Y-89846258D01*
X53702908Y-89713225D01*
X53731000Y-89571997D01*
X53731000Y-89428003D01*
X53702908Y-89286775D01*
X53647804Y-89153742D01*
X53567805Y-89034015D01*
X53465985Y-88932195D01*
X53380391Y-88875003D01*
X53465985Y-88817811D01*
X53567805Y-88715991D01*
X53647804Y-88596264D01*
X53702908Y-88463231D01*
X53731000Y-88322003D01*
X53731000Y-88178009D01*
X53702908Y-88036781D01*
X53647804Y-87903748D01*
X53567805Y-87784021D01*
X53508000Y-87724216D01*
X53508000Y-87525790D01*
X53567805Y-87465985D01*
X53647804Y-87346258D01*
X53702908Y-87213225D01*
X53731000Y-87071997D01*
X53731000Y-86928003D01*
X53702908Y-86786775D01*
X53647804Y-86653742D01*
X53567805Y-86534015D01*
X53508000Y-86474210D01*
X53508000Y-86275790D01*
X53567805Y-86215985D01*
X53647804Y-86096258D01*
X53702908Y-85963225D01*
X53731000Y-85821997D01*
X53731000Y-85678003D01*
X53702908Y-85536775D01*
X53647804Y-85403742D01*
X53567805Y-85284015D01*
X53508000Y-85224210D01*
X53508000Y-85025790D01*
X53567805Y-84965985D01*
X53647804Y-84846258D01*
X53702908Y-84713225D01*
X53731000Y-84571997D01*
X53731000Y-84428003D01*
X53702908Y-84286775D01*
X53647804Y-84153742D01*
X53567805Y-84034015D01*
X53465985Y-83932195D01*
X53380391Y-83875003D01*
X53465985Y-83817811D01*
X53567805Y-83715991D01*
X53647804Y-83596264D01*
X53702908Y-83463231D01*
X53731000Y-83322003D01*
X53731000Y-83178009D01*
X53702908Y-83036781D01*
X53647804Y-82903748D01*
X53567805Y-82784021D01*
X53508000Y-82724216D01*
X53508000Y-82525790D01*
X53567805Y-82465985D01*
X53647804Y-82346258D01*
X53702908Y-82213225D01*
X53731000Y-82071997D01*
X53731000Y-81928003D01*
X53702908Y-81786775D01*
X53647804Y-81653742D01*
X53567805Y-81534015D01*
X53508000Y-81474210D01*
X53508000Y-81275790D01*
X53567805Y-81215985D01*
X53647804Y-81096258D01*
X53702908Y-80963225D01*
X53731000Y-80821997D01*
X53731000Y-80678003D01*
X53702908Y-80536775D01*
X53647804Y-80403742D01*
X53567805Y-80284015D01*
X53465985Y-80182195D01*
X53380387Y-80125000D01*
X53465985Y-80067805D01*
X53567805Y-79965985D01*
X53647804Y-79846258D01*
X53702908Y-79713225D01*
X53731000Y-79571997D01*
X53731000Y-79428003D01*
X53702908Y-79286775D01*
X53647804Y-79153742D01*
X53567805Y-79034015D01*
X53465985Y-78932195D01*
X53380387Y-78875000D01*
X53465985Y-78817805D01*
X53567805Y-78715985D01*
X53647804Y-78596258D01*
X53702908Y-78463225D01*
X53731000Y-78321997D01*
X53731000Y-78178003D01*
X53702908Y-78036775D01*
X53647804Y-77903742D01*
X53567805Y-77784015D01*
X53465985Y-77682195D01*
X53380387Y-77625000D01*
X53465985Y-77567805D01*
X53567805Y-77465985D01*
X53647804Y-77346258D01*
X53702908Y-77213225D01*
X53731000Y-77071997D01*
X53731000Y-76928003D01*
X53702908Y-76786775D01*
X53647804Y-76653742D01*
X53567805Y-76534015D01*
X53508000Y-76474210D01*
X53508000Y-76275790D01*
X53567805Y-76215985D01*
X53647804Y-76096258D01*
X53702908Y-75963225D01*
X53731000Y-75821997D01*
X53731000Y-75678003D01*
X53702908Y-75536775D01*
X53647804Y-75403742D01*
X53567805Y-75284015D01*
X53465985Y-75182195D01*
X53380387Y-75125000D01*
X53465985Y-75067805D01*
X53567805Y-74965985D01*
X53647804Y-74846258D01*
X53702908Y-74713225D01*
X53731000Y-74571997D01*
X53731000Y-74428003D01*
X53702908Y-74286775D01*
X53647804Y-74153742D01*
X53567805Y-74034015D01*
X53465985Y-73932195D01*
X53386327Y-73878969D01*
X53465985Y-73825743D01*
X53567805Y-73723923D01*
X53647804Y-73604196D01*
X53702908Y-73471163D01*
X53731000Y-73329935D01*
X53731000Y-73185941D01*
X53702908Y-73044713D01*
X53647804Y-72911680D01*
X53567805Y-72791953D01*
X53465985Y-72690133D01*
X53374447Y-72628969D01*
X53465985Y-72567805D01*
X53567805Y-72465985D01*
X53647804Y-72346258D01*
X53702908Y-72213225D01*
X53731000Y-72071997D01*
X53731000Y-71987420D01*
X55210421Y-70508000D01*
X55789580Y-70508000D01*
X57269000Y-71987420D01*
X57269000Y-71987420D01*
G37*
X57269000Y-71987420D02*
X57269000Y-72071997D01*
X57297092Y-72213225D01*
X57352196Y-72346258D01*
X57432195Y-72465985D01*
X57534015Y-72567805D01*
X57619618Y-72625003D01*
X57534015Y-72682201D01*
X57432195Y-72784021D01*
X57352196Y-72903748D01*
X57297092Y-73036781D01*
X57269000Y-73178009D01*
X57269000Y-73322003D01*
X57297092Y-73463231D01*
X57352196Y-73596264D01*
X57432195Y-73715991D01*
X57534015Y-73817811D01*
X57619609Y-73875003D01*
X57534015Y-73932195D01*
X57432195Y-74034015D01*
X57352196Y-74153742D01*
X57297092Y-74286775D01*
X57269000Y-74428003D01*
X57269000Y-74571997D01*
X57297092Y-74713225D01*
X57352196Y-74846258D01*
X57432195Y-74965985D01*
X57534015Y-75067805D01*
X57619613Y-75125000D01*
X57534015Y-75182195D01*
X57432195Y-75284015D01*
X57352196Y-75403742D01*
X57297092Y-75536775D01*
X57269000Y-75678003D01*
X57269000Y-75821997D01*
X57297092Y-75963225D01*
X57352196Y-76096258D01*
X57432195Y-76215985D01*
X57492001Y-76275791D01*
X57492000Y-76474210D01*
X57432195Y-76534015D01*
X57352196Y-76653742D01*
X57297092Y-76786775D01*
X57269000Y-76928003D01*
X57269000Y-77071997D01*
X57297092Y-77213225D01*
X57352196Y-77346258D01*
X57432195Y-77465985D01*
X57492000Y-77525790D01*
X57492001Y-77724215D01*
X57432195Y-77784021D01*
X57352196Y-77903748D01*
X57297092Y-78036781D01*
X57269000Y-78178009D01*
X57269000Y-78322003D01*
X57297092Y-78463231D01*
X57352196Y-78596264D01*
X57432195Y-78715991D01*
X57534015Y-78817811D01*
X57619609Y-78875003D01*
X57534015Y-78932195D01*
X57432195Y-79034015D01*
X57352196Y-79153742D01*
X57297092Y-79286775D01*
X57269000Y-79428003D01*
X57269000Y-79571997D01*
X57297092Y-79713225D01*
X57352196Y-79846258D01*
X57432195Y-79965985D01*
X57492000Y-80025790D01*
X57492001Y-80224209D01*
X57432195Y-80284015D01*
X57352196Y-80403742D01*
X57297092Y-80536775D01*
X57269000Y-80678003D01*
X57269000Y-80821997D01*
X57297092Y-80963225D01*
X57352196Y-81096258D01*
X57432195Y-81215985D01*
X57492001Y-81275791D01*
X57492000Y-81474210D01*
X57432195Y-81534015D01*
X57352196Y-81653742D01*
X57297092Y-81786775D01*
X57269000Y-81928003D01*
X57269000Y-82071997D01*
X57297092Y-82213225D01*
X57352196Y-82346258D01*
X57432195Y-82465985D01*
X57492000Y-82525790D01*
X57492001Y-82724209D01*
X57432195Y-82784015D01*
X57352196Y-82903742D01*
X57297092Y-83036775D01*
X57269000Y-83178003D01*
X57269000Y-83321997D01*
X57297092Y-83463225D01*
X57352196Y-83596258D01*
X57432195Y-83715985D01*
X57534015Y-83817805D01*
X57619613Y-83875000D01*
X57534015Y-83932195D01*
X57432195Y-84034015D01*
X57352196Y-84153742D01*
X57297092Y-84286775D01*
X57269000Y-84428003D01*
X57269000Y-84571997D01*
X57297092Y-84713225D01*
X57352196Y-84846258D01*
X57432195Y-84965985D01*
X57492000Y-85025790D01*
X57492001Y-85224209D01*
X57432195Y-85284015D01*
X57352196Y-85403742D01*
X57297092Y-85536775D01*
X57269000Y-85678003D01*
X57269000Y-85821997D01*
X57297092Y-85963225D01*
X57352196Y-86096258D01*
X57432195Y-86215985D01*
X57492001Y-86275791D01*
X57492000Y-86474210D01*
X57432195Y-86534015D01*
X57352196Y-86653742D01*
X57297092Y-86786775D01*
X57269000Y-86928003D01*
X57269000Y-87071997D01*
X57297092Y-87213225D01*
X57352196Y-87346258D01*
X57432195Y-87465985D01*
X57492000Y-87525790D01*
X57492001Y-87724213D01*
X57432199Y-87784015D01*
X57352200Y-87903742D01*
X57297096Y-88036775D01*
X57269004Y-88178003D01*
X57269004Y-88321997D01*
X57297096Y-88463225D01*
X57352200Y-88596258D01*
X57432199Y-88715985D01*
X57534019Y-88817805D01*
X57619615Y-88874999D01*
X57534015Y-88932195D01*
X57432195Y-89034015D01*
X57352196Y-89153742D01*
X57297092Y-89286775D01*
X57269000Y-89428003D01*
X57269000Y-89571997D01*
X57297092Y-89713225D01*
X57352196Y-89846258D01*
X57432195Y-89965985D01*
X57534015Y-90067805D01*
X57619613Y-90125000D01*
X57534015Y-90182195D01*
X57432195Y-90284015D01*
X57352196Y-90403742D01*
X57297092Y-90536775D01*
X57269000Y-90678003D01*
X57269000Y-90821997D01*
X57297092Y-90963225D01*
X57352196Y-91096258D01*
X57432195Y-91215985D01*
X57492001Y-91275791D01*
X57492000Y-91474210D01*
X57432195Y-91534015D01*
X57352196Y-91653742D01*
X57297092Y-91786775D01*
X57269000Y-91928003D01*
X57269000Y-92071997D01*
X57297092Y-92213225D01*
X57352196Y-92346258D01*
X57432195Y-92465985D01*
X57534015Y-92567805D01*
X57619613Y-92625000D01*
X57534015Y-92682195D01*
X57432195Y-92784015D01*
X57352196Y-92903742D01*
X57297092Y-93036775D01*
X57269000Y-93178003D01*
X57269000Y-93321997D01*
X57297092Y-93463225D01*
X57352196Y-93596258D01*
X57432195Y-93715985D01*
X57534015Y-93817805D01*
X57619613Y-93875000D01*
X57534015Y-93932195D01*
X57432195Y-94034015D01*
X57352196Y-94153742D01*
X57297092Y-94286775D01*
X57269000Y-94428003D01*
X57269000Y-94571997D01*
X57297092Y-94713225D01*
X57352196Y-94846258D01*
X57432195Y-94965985D01*
X57492000Y-95025790D01*
X57492001Y-95224193D01*
X57432195Y-95283999D01*
X57352196Y-95403726D01*
X57297092Y-95536759D01*
X57269000Y-95677987D01*
X57269000Y-95821981D01*
X57297092Y-95963209D01*
X57352196Y-96096242D01*
X57432195Y-96215969D01*
X57534015Y-96317789D01*
X57619625Y-96374992D01*
X57534015Y-96432195D01*
X57432195Y-96534015D01*
X57352196Y-96653742D01*
X57297092Y-96786775D01*
X57269000Y-96928003D01*
X57269000Y-97071997D01*
X57297092Y-97213225D01*
X57352196Y-97346258D01*
X57432195Y-97465985D01*
X57534015Y-97567805D01*
X57618164Y-97624032D01*
X57534015Y-97680258D01*
X57432195Y-97782078D01*
X57352196Y-97901805D01*
X57297092Y-98034838D01*
X57269000Y-98176066D01*
X57269000Y-98320060D01*
X57297092Y-98461288D01*
X57352196Y-98594321D01*
X57432195Y-98714048D01*
X57534015Y-98815868D01*
X57621063Y-98874032D01*
X57534015Y-98932195D01*
X57432195Y-99034015D01*
X57352196Y-99153742D01*
X57297092Y-99286775D01*
X57269000Y-99428003D01*
X57269000Y-99571997D01*
X57297092Y-99713225D01*
X57352196Y-99846258D01*
X57432195Y-99965985D01*
X57492000Y-100025790D01*
X57492001Y-100220348D01*
X57432195Y-100280154D01*
X57352196Y-100399881D01*
X57297092Y-100532914D01*
X57269000Y-100674142D01*
X57269000Y-100818136D01*
X57297092Y-100959364D01*
X57352196Y-101092397D01*
X57432195Y-101212124D01*
X57534015Y-101313944D01*
X57622503Y-101373070D01*
X57534015Y-101432195D01*
X57432195Y-101534015D01*
X57352196Y-101653742D01*
X57297092Y-101786775D01*
X57269000Y-101928003D01*
X57269000Y-102071997D01*
X57297092Y-102213225D01*
X57352196Y-102346258D01*
X57432195Y-102465985D01*
X57534015Y-102567805D01*
X57617205Y-102623391D01*
X57534015Y-102678976D01*
X57432195Y-102780796D01*
X57352196Y-102900523D01*
X57297092Y-103033556D01*
X57269000Y-103174784D01*
X57269000Y-103318778D01*
X57297092Y-103460006D01*
X57352196Y-103593039D01*
X57432195Y-103712766D01*
X57492001Y-103772572D01*
X57492000Y-103974210D01*
X57432195Y-104034015D01*
X57352196Y-104153742D01*
X57297092Y-104286775D01*
X57269000Y-104428003D01*
X57269000Y-104571997D01*
X57297092Y-104713225D01*
X57352196Y-104846258D01*
X57432195Y-104965985D01*
X57468875Y-105002665D01*
X57432195Y-105039345D01*
X57352196Y-105159072D01*
X57297092Y-105292105D01*
X57269000Y-105433333D01*
X57269000Y-105577327D01*
X57297092Y-105718555D01*
X57352196Y-105851588D01*
X57432195Y-105971315D01*
X57488540Y-106027660D01*
X57432195Y-106084005D01*
X57352196Y-106203732D01*
X57297092Y-106336765D01*
X57269000Y-106477993D01*
X57269000Y-106621987D01*
X57297092Y-106763215D01*
X57352196Y-106896248D01*
X57432195Y-107015975D01*
X57534015Y-107117795D01*
X57653742Y-107197794D01*
X57786775Y-107252898D01*
X57887835Y-107273000D01*
X56480738Y-107273000D01*
X56419369Y-107211631D01*
X56463225Y-107202908D01*
X56596258Y-107147804D01*
X56715985Y-107067805D01*
X56817805Y-106965985D01*
X56897804Y-106846258D01*
X56952908Y-106713225D01*
X56981000Y-106571997D01*
X56981000Y-106428003D01*
X56952908Y-106286775D01*
X56897804Y-106153742D01*
X56817805Y-106034015D01*
X56715985Y-105932195D01*
X56596258Y-105852196D01*
X56463225Y-105797092D01*
X56321997Y-105769000D01*
X56178003Y-105769000D01*
X56050821Y-105794298D01*
X56076119Y-105667116D01*
X56076119Y-105523122D01*
X56048027Y-105381894D01*
X55992923Y-105248861D01*
X55912924Y-105129134D01*
X55811104Y-105027314D01*
X55691377Y-104947315D01*
X55558344Y-104892211D01*
X55417116Y-104864119D01*
X55332539Y-104864119D01*
X55231000Y-104762580D01*
X55231000Y-104678003D01*
X55202908Y-104536775D01*
X55147804Y-104403742D01*
X55067805Y-104284015D01*
X54965985Y-104182195D01*
X54846258Y-104102196D01*
X54713225Y-104047092D01*
X54571997Y-104019000D01*
X54489622Y-104019000D01*
X54489622Y-103936625D01*
X54461530Y-103795397D01*
X54406426Y-103662364D01*
X54326427Y-103542637D01*
X54224607Y-103440817D01*
X54104880Y-103360818D01*
X53971847Y-103305714D01*
X53830619Y-103277622D01*
X53731000Y-103277622D01*
X53731000Y-103178003D01*
X53702908Y-103036775D01*
X53647804Y-102903742D01*
X53567805Y-102784015D01*
X53465985Y-102682195D01*
X53380387Y-102625000D01*
X53465985Y-102567805D01*
X53567805Y-102465985D01*
X53647804Y-102346258D01*
X53702908Y-102213225D01*
X53731000Y-102071997D01*
X53731000Y-101928003D01*
X53702908Y-101786775D01*
X53647804Y-101653742D01*
X53567805Y-101534015D01*
X53508000Y-101474210D01*
X53508000Y-101275790D01*
X53567805Y-101215985D01*
X53647804Y-101096258D01*
X53702908Y-100963225D01*
X53731000Y-100821997D01*
X53731000Y-100678003D01*
X53702908Y-100536775D01*
X53647804Y-100403742D01*
X53567805Y-100284015D01*
X53508000Y-100224210D01*
X53508000Y-100025790D01*
X53567805Y-99965985D01*
X53647804Y-99846258D01*
X53702908Y-99713225D01*
X53731000Y-99571997D01*
X53731000Y-99428003D01*
X53702908Y-99286775D01*
X53647804Y-99153742D01*
X53567805Y-99034015D01*
X53465985Y-98932195D01*
X53380382Y-98874997D01*
X53465985Y-98817799D01*
X53567805Y-98715979D01*
X53647804Y-98596252D01*
X53702908Y-98463219D01*
X53731000Y-98321991D01*
X53731000Y-98177997D01*
X53702908Y-98036769D01*
X53647804Y-97903736D01*
X53567805Y-97784009D01*
X53508000Y-97724204D01*
X53508000Y-97525790D01*
X53567805Y-97465985D01*
X53647804Y-97346258D01*
X53702908Y-97213225D01*
X53731000Y-97071997D01*
X53731000Y-96928003D01*
X53702908Y-96786775D01*
X53647804Y-96653742D01*
X53567805Y-96534015D01*
X53508000Y-96474210D01*
X53508000Y-96275796D01*
X53567805Y-96215991D01*
X53647804Y-96096264D01*
X53702908Y-95963231D01*
X53731000Y-95822003D01*
X53731000Y-95678009D01*
X53702908Y-95536781D01*
X53647804Y-95403748D01*
X53567805Y-95284021D01*
X53465985Y-95182201D01*
X53380382Y-95125003D01*
X53465985Y-95067805D01*
X53567805Y-94965985D01*
X53647804Y-94846258D01*
X53702908Y-94713225D01*
X53731000Y-94571997D01*
X53731000Y-94428003D01*
X53702908Y-94286775D01*
X53647804Y-94153742D01*
X53567805Y-94034015D01*
X53465985Y-93932195D01*
X53380387Y-93875000D01*
X53465985Y-93817805D01*
X53567805Y-93715985D01*
X53647804Y-93596258D01*
X53702908Y-93463225D01*
X53731000Y-93321997D01*
X53731000Y-93178003D01*
X53702908Y-93036775D01*
X53647804Y-92903742D01*
X53567805Y-92784015D01*
X53465985Y-92682195D01*
X53380387Y-92625000D01*
X53465985Y-92567805D01*
X53567805Y-92465985D01*
X53647804Y-92346258D01*
X53702908Y-92213225D01*
X53731000Y-92071997D01*
X53731000Y-91928003D01*
X53702908Y-91786775D01*
X53647804Y-91653742D01*
X53567805Y-91534015D01*
X53508000Y-91474210D01*
X53508000Y-91275782D01*
X53567805Y-91215977D01*
X53647804Y-91096250D01*
X53702908Y-90963217D01*
X53731000Y-90821989D01*
X53731000Y-90677995D01*
X53702908Y-90536767D01*
X53647804Y-90403734D01*
X53567805Y-90284007D01*
X53508000Y-90224202D01*
X53508000Y-90025790D01*
X53567805Y-89965985D01*
X53647804Y-89846258D01*
X53702908Y-89713225D01*
X53731000Y-89571997D01*
X53731000Y-89428003D01*
X53702908Y-89286775D01*
X53647804Y-89153742D01*
X53567805Y-89034015D01*
X53465985Y-88932195D01*
X53380391Y-88875003D01*
X53465985Y-88817811D01*
X53567805Y-88715991D01*
X53647804Y-88596264D01*
X53702908Y-88463231D01*
X53731000Y-88322003D01*
X53731000Y-88178009D01*
X53702908Y-88036781D01*
X53647804Y-87903748D01*
X53567805Y-87784021D01*
X53508000Y-87724216D01*
X53508000Y-87525790D01*
X53567805Y-87465985D01*
X53647804Y-87346258D01*
X53702908Y-87213225D01*
X53731000Y-87071997D01*
X53731000Y-86928003D01*
X53702908Y-86786775D01*
X53647804Y-86653742D01*
X53567805Y-86534015D01*
X53508000Y-86474210D01*
X53508000Y-86275790D01*
X53567805Y-86215985D01*
X53647804Y-86096258D01*
X53702908Y-85963225D01*
X53731000Y-85821997D01*
X53731000Y-85678003D01*
X53702908Y-85536775D01*
X53647804Y-85403742D01*
X53567805Y-85284015D01*
X53508000Y-85224210D01*
X53508000Y-85025790D01*
X53567805Y-84965985D01*
X53647804Y-84846258D01*
X53702908Y-84713225D01*
X53731000Y-84571997D01*
X53731000Y-84428003D01*
X53702908Y-84286775D01*
X53647804Y-84153742D01*
X53567805Y-84034015D01*
X53465985Y-83932195D01*
X53380391Y-83875003D01*
X53465985Y-83817811D01*
X53567805Y-83715991D01*
X53647804Y-83596264D01*
X53702908Y-83463231D01*
X53731000Y-83322003D01*
X53731000Y-83178009D01*
X53702908Y-83036781D01*
X53647804Y-82903748D01*
X53567805Y-82784021D01*
X53508000Y-82724216D01*
X53508000Y-82525790D01*
X53567805Y-82465985D01*
X53647804Y-82346258D01*
X53702908Y-82213225D01*
X53731000Y-82071997D01*
X53731000Y-81928003D01*
X53702908Y-81786775D01*
X53647804Y-81653742D01*
X53567805Y-81534015D01*
X53508000Y-81474210D01*
X53508000Y-81275790D01*
X53567805Y-81215985D01*
X53647804Y-81096258D01*
X53702908Y-80963225D01*
X53731000Y-80821997D01*
X53731000Y-80678003D01*
X53702908Y-80536775D01*
X53647804Y-80403742D01*
X53567805Y-80284015D01*
X53465985Y-80182195D01*
X53380387Y-80125000D01*
X53465985Y-80067805D01*
X53567805Y-79965985D01*
X53647804Y-79846258D01*
X53702908Y-79713225D01*
X53731000Y-79571997D01*
X53731000Y-79428003D01*
X53702908Y-79286775D01*
X53647804Y-79153742D01*
X53567805Y-79034015D01*
X53465985Y-78932195D01*
X53380387Y-78875000D01*
X53465985Y-78817805D01*
X53567805Y-78715985D01*
X53647804Y-78596258D01*
X53702908Y-78463225D01*
X53731000Y-78321997D01*
X53731000Y-78178003D01*
X53702908Y-78036775D01*
X53647804Y-77903742D01*
X53567805Y-77784015D01*
X53465985Y-77682195D01*
X53380387Y-77625000D01*
X53465985Y-77567805D01*
X53567805Y-77465985D01*
X53647804Y-77346258D01*
X53702908Y-77213225D01*
X53731000Y-77071997D01*
X53731000Y-76928003D01*
X53702908Y-76786775D01*
X53647804Y-76653742D01*
X53567805Y-76534015D01*
X53508000Y-76474210D01*
X53508000Y-76275790D01*
X53567805Y-76215985D01*
X53647804Y-76096258D01*
X53702908Y-75963225D01*
X53731000Y-75821997D01*
X53731000Y-75678003D01*
X53702908Y-75536775D01*
X53647804Y-75403742D01*
X53567805Y-75284015D01*
X53465985Y-75182195D01*
X53380387Y-75125000D01*
X53465985Y-75067805D01*
X53567805Y-74965985D01*
X53647804Y-74846258D01*
X53702908Y-74713225D01*
X53731000Y-74571997D01*
X53731000Y-74428003D01*
X53702908Y-74286775D01*
X53647804Y-74153742D01*
X53567805Y-74034015D01*
X53465985Y-73932195D01*
X53386327Y-73878969D01*
X53465985Y-73825743D01*
X53567805Y-73723923D01*
X53647804Y-73604196D01*
X53702908Y-73471163D01*
X53731000Y-73329935D01*
X53731000Y-73185941D01*
X53702908Y-73044713D01*
X53647804Y-72911680D01*
X53567805Y-72791953D01*
X53465985Y-72690133D01*
X53374447Y-72628969D01*
X53465985Y-72567805D01*
X53567805Y-72465985D01*
X53647804Y-72346258D01*
X53702908Y-72213225D01*
X53731000Y-72071997D01*
X53731000Y-71987420D01*
X55210421Y-70508000D01*
X55789580Y-70508000D01*
X57269000Y-71987420D01*
G36*
X57190775Y-30166908D02*
G01*
X57332003Y-30195000D01*
X57475997Y-30195000D01*
X57479221Y-30194359D01*
X57193580Y-30480000D01*
X55395892Y-30480000D01*
X55370948Y-30477543D01*
X55346004Y-30480000D01*
X55346002Y-30480000D01*
X55271364Y-30487351D01*
X55175606Y-30516399D01*
X55175604Y-30516400D01*
X55087353Y-30563571D01*
X55032759Y-30608376D01*
X55010001Y-30627052D01*
X54994099Y-30646429D01*
X50204430Y-35436099D01*
X50185053Y-35452001D01*
X50169151Y-35471378D01*
X50169150Y-35471379D01*
X50121571Y-35529354D01*
X50088751Y-35590757D01*
X50074400Y-35617606D01*
X50054383Y-35683595D01*
X50045352Y-35713365D01*
X50035543Y-35812949D01*
X50038001Y-35837903D01*
X50038000Y-60768655D01*
X49960318Y-60652395D01*
X49837605Y-60529682D01*
X49693310Y-60433268D01*
X49532978Y-60366856D01*
X49527000Y-60365667D01*
X49527000Y-58559025D01*
X49702960Y-58383066D01*
X49727185Y-58363185D01*
X49747068Y-58338958D01*
X49806537Y-58266495D01*
X49855003Y-58175821D01*
X49865502Y-58156180D01*
X49901812Y-58036482D01*
X49911000Y-57943192D01*
X49911000Y-57943182D01*
X49914071Y-57912001D01*
X49911000Y-57880820D01*
X49911000Y-34067180D01*
X49914071Y-34035999D01*
X49911000Y-34004818D01*
X49911000Y-34004808D01*
X49901812Y-33911518D01*
X49865502Y-33791820D01*
X49827076Y-33719931D01*
X49806537Y-33681505D01*
X49747068Y-33609042D01*
X49747065Y-33609039D01*
X49727185Y-33584815D01*
X49702961Y-33564935D01*
X49532868Y-33394843D01*
X50284000Y-33394843D01*
X50358689Y-33387487D01*
X50430508Y-33365701D01*
X50496696Y-33330322D01*
X50554711Y-33282711D01*
X50576749Y-33255858D01*
X50715225Y-33329875D01*
X50881294Y-33380252D01*
X51010727Y-33393000D01*
X51097273Y-33393000D01*
X51226706Y-33380252D01*
X51392775Y-33329875D01*
X51545825Y-33248068D01*
X51679975Y-33137975D01*
X51790068Y-33003825D01*
X51871875Y-32850775D01*
X51922252Y-32684706D01*
X51939262Y-32512000D01*
X51922252Y-32339294D01*
X51871875Y-32173225D01*
X51790068Y-32020175D01*
X51679975Y-31886025D01*
X51545825Y-31775932D01*
X51392775Y-31694125D01*
X51226706Y-31643748D01*
X51097273Y-31631000D01*
X51010727Y-31631000D01*
X50881294Y-31643748D01*
X50715225Y-31694125D01*
X50576749Y-31768142D01*
X50554711Y-31741289D01*
X50496696Y-31693678D01*
X50430508Y-31658299D01*
X50358689Y-31636513D01*
X50284000Y-31629157D01*
X49527000Y-31629157D01*
X49527000Y-31127024D01*
X50301025Y-30353000D01*
X56623845Y-30353000D01*
X56655026Y-30356071D01*
X56686207Y-30353000D01*
X56686218Y-30353000D01*
X56779508Y-30343812D01*
X56899206Y-30307502D01*
X57009520Y-30248537D01*
X57106211Y-30169185D01*
X57126100Y-30144950D01*
X57129516Y-30141534D01*
X57190775Y-30166908D01*
X57190775Y-30166908D01*
G37*
X57190775Y-30166908D02*
X57332003Y-30195000D01*
X57475997Y-30195000D01*
X57479221Y-30194359D01*
X57193580Y-30480000D01*
X55395892Y-30480000D01*
X55370948Y-30477543D01*
X55346004Y-30480000D01*
X55346002Y-30480000D01*
X55271364Y-30487351D01*
X55175606Y-30516399D01*
X55175604Y-30516400D01*
X55087353Y-30563571D01*
X55032759Y-30608376D01*
X55010001Y-30627052D01*
X54994099Y-30646429D01*
X50204430Y-35436099D01*
X50185053Y-35452001D01*
X50169151Y-35471378D01*
X50169150Y-35471379D01*
X50121571Y-35529354D01*
X50088751Y-35590757D01*
X50074400Y-35617606D01*
X50054383Y-35683595D01*
X50045352Y-35713365D01*
X50035543Y-35812949D01*
X50038001Y-35837903D01*
X50038000Y-60768655D01*
X49960318Y-60652395D01*
X49837605Y-60529682D01*
X49693310Y-60433268D01*
X49532978Y-60366856D01*
X49527000Y-60365667D01*
X49527000Y-58559025D01*
X49702960Y-58383066D01*
X49727185Y-58363185D01*
X49747068Y-58338958D01*
X49806537Y-58266495D01*
X49855003Y-58175821D01*
X49865502Y-58156180D01*
X49901812Y-58036482D01*
X49911000Y-57943192D01*
X49911000Y-57943182D01*
X49914071Y-57912001D01*
X49911000Y-57880820D01*
X49911000Y-34067180D01*
X49914071Y-34035999D01*
X49911000Y-34004818D01*
X49911000Y-34004808D01*
X49901812Y-33911518D01*
X49865502Y-33791820D01*
X49827076Y-33719931D01*
X49806537Y-33681505D01*
X49747068Y-33609042D01*
X49747065Y-33609039D01*
X49727185Y-33584815D01*
X49702961Y-33564935D01*
X49532868Y-33394843D01*
X50284000Y-33394843D01*
X50358689Y-33387487D01*
X50430508Y-33365701D01*
X50496696Y-33330322D01*
X50554711Y-33282711D01*
X50576749Y-33255858D01*
X50715225Y-33329875D01*
X50881294Y-33380252D01*
X51010727Y-33393000D01*
X51097273Y-33393000D01*
X51226706Y-33380252D01*
X51392775Y-33329875D01*
X51545825Y-33248068D01*
X51679975Y-33137975D01*
X51790068Y-33003825D01*
X51871875Y-32850775D01*
X51922252Y-32684706D01*
X51939262Y-32512000D01*
X51922252Y-32339294D01*
X51871875Y-32173225D01*
X51790068Y-32020175D01*
X51679975Y-31886025D01*
X51545825Y-31775932D01*
X51392775Y-31694125D01*
X51226706Y-31643748D01*
X51097273Y-31631000D01*
X51010727Y-31631000D01*
X50881294Y-31643748D01*
X50715225Y-31694125D01*
X50576749Y-31768142D01*
X50554711Y-31741289D01*
X50496696Y-31693678D01*
X50430508Y-31658299D01*
X50358689Y-31636513D01*
X50284000Y-31629157D01*
X49527000Y-31629157D01*
X49527000Y-31127024D01*
X50301025Y-30353000D01*
X56623845Y-30353000D01*
X56655026Y-30356071D01*
X56686207Y-30353000D01*
X56686218Y-30353000D01*
X56779508Y-30343812D01*
X56899206Y-30307502D01*
X57009520Y-30248537D01*
X57106211Y-30169185D01*
X57126100Y-30144950D01*
X57129516Y-30141534D01*
X57190775Y-30166908D01*
G36*
X58443951Y-43922372D02*
G01*
X58459853Y-43941749D01*
X58479230Y-43957651D01*
X58537205Y-44005230D01*
X58625456Y-44052401D01*
X58625458Y-44052402D01*
X58721216Y-44081450D01*
X58795854Y-44088801D01*
X58795856Y-44088801D01*
X58820800Y-44091258D01*
X58845744Y-44088801D01*
X59381459Y-44088801D01*
X59349884Y-44105678D01*
X59299213Y-44132762D01*
X59250639Y-44172626D01*
X59221861Y-44196243D01*
X59205959Y-44215620D01*
X58686580Y-44735000D01*
X58602003Y-44735000D01*
X58460775Y-44763092D01*
X58327742Y-44818196D01*
X58240250Y-44876657D01*
X58216155Y-44831000D01*
X57023000Y-44831000D01*
X57023000Y-44851000D01*
X56769000Y-44851000D01*
X56769000Y-44831000D01*
X55575845Y-44831000D01*
X55454524Y-45060890D01*
X55499175Y-45208099D01*
X55624359Y-45470920D01*
X55798412Y-45704269D01*
X56014645Y-45899178D01*
X56202633Y-46011157D01*
X56046000Y-46011157D01*
X55971311Y-46018513D01*
X55899492Y-46040299D01*
X55833304Y-46075678D01*
X55775289Y-46123289D01*
X55727678Y-46181304D01*
X55692299Y-46247492D01*
X55670513Y-46319311D01*
X55663157Y-46394000D01*
X55663157Y-46736000D01*
X55257843Y-46736000D01*
X55257843Y-46324000D01*
X55250487Y-46249311D01*
X55228701Y-46177492D01*
X55193322Y-46111304D01*
X55145711Y-46053289D01*
X55087696Y-46005678D01*
X55028432Y-45974000D01*
X55087696Y-45942322D01*
X55145711Y-45894711D01*
X55193322Y-45836696D01*
X55228701Y-45770508D01*
X55250487Y-45698689D01*
X55257843Y-45624000D01*
X55257843Y-44424000D01*
X55250487Y-44349311D01*
X55249820Y-44347110D01*
X55454524Y-44347110D01*
X55575845Y-44577000D01*
X56769000Y-44577000D01*
X56769000Y-43383186D01*
X57023000Y-43383186D01*
X57023000Y-44577000D01*
X58216155Y-44577000D01*
X58337476Y-44347110D01*
X58292825Y-44199901D01*
X58167641Y-43937080D01*
X57993588Y-43703731D01*
X57777355Y-43508822D01*
X57527252Y-43359843D01*
X57252891Y-43262519D01*
X57023000Y-43383186D01*
X56769000Y-43383186D01*
X56539109Y-43262519D01*
X56264748Y-43359843D01*
X56014645Y-43508822D01*
X55798412Y-43703731D01*
X55624359Y-43937080D01*
X55499175Y-44199901D01*
X55454524Y-44347110D01*
X55249820Y-44347110D01*
X55228701Y-44277492D01*
X55193322Y-44211304D01*
X55145711Y-44153289D01*
X55087696Y-44105678D01*
X55021508Y-44070299D01*
X54949689Y-44048513D01*
X54875000Y-44041157D01*
X54125000Y-44041157D01*
X54050311Y-44048513D01*
X53978492Y-44070299D01*
X53912304Y-44105678D01*
X53854289Y-44153289D01*
X53840221Y-44170431D01*
X53805985Y-44136195D01*
X53686258Y-44056196D01*
X53553225Y-44001092D01*
X53411997Y-43973000D01*
X53268003Y-43973000D01*
X53126775Y-44001092D01*
X53057999Y-44029580D01*
X53057999Y-43926421D01*
X53632435Y-43351986D01*
X54764196Y-43351986D01*
X54824001Y-43411791D01*
X54943728Y-43491790D01*
X55076761Y-43546894D01*
X55217989Y-43574986D01*
X55361983Y-43574986D01*
X55503211Y-43546894D01*
X55636244Y-43491790D01*
X55755971Y-43411791D01*
X55857791Y-43309971D01*
X55937790Y-43190244D01*
X55992894Y-43057211D01*
X56020986Y-42915983D01*
X56020986Y-42771989D01*
X56001097Y-42672000D01*
X57193580Y-42672000D01*
X58443951Y-43922372D01*
X58443951Y-43922372D01*
G37*
X58443951Y-43922372D02*
X58459853Y-43941749D01*
X58479230Y-43957651D01*
X58537205Y-44005230D01*
X58625456Y-44052401D01*
X58625458Y-44052402D01*
X58721216Y-44081450D01*
X58795854Y-44088801D01*
X58795856Y-44088801D01*
X58820800Y-44091258D01*
X58845744Y-44088801D01*
X59381459Y-44088801D01*
X59349884Y-44105678D01*
X59299213Y-44132762D01*
X59250639Y-44172626D01*
X59221861Y-44196243D01*
X59205959Y-44215620D01*
X58686580Y-44735000D01*
X58602003Y-44735000D01*
X58460775Y-44763092D01*
X58327742Y-44818196D01*
X58240250Y-44876657D01*
X58216155Y-44831000D01*
X57023000Y-44831000D01*
X57023000Y-44851000D01*
X56769000Y-44851000D01*
X56769000Y-44831000D01*
X55575845Y-44831000D01*
X55454524Y-45060890D01*
X55499175Y-45208099D01*
X55624359Y-45470920D01*
X55798412Y-45704269D01*
X56014645Y-45899178D01*
X56202633Y-46011157D01*
X56046000Y-46011157D01*
X55971311Y-46018513D01*
X55899492Y-46040299D01*
X55833304Y-46075678D01*
X55775289Y-46123289D01*
X55727678Y-46181304D01*
X55692299Y-46247492D01*
X55670513Y-46319311D01*
X55663157Y-46394000D01*
X55663157Y-46736000D01*
X55257843Y-46736000D01*
X55257843Y-46324000D01*
X55250487Y-46249311D01*
X55228701Y-46177492D01*
X55193322Y-46111304D01*
X55145711Y-46053289D01*
X55087696Y-46005678D01*
X55028432Y-45974000D01*
X55087696Y-45942322D01*
X55145711Y-45894711D01*
X55193322Y-45836696D01*
X55228701Y-45770508D01*
X55250487Y-45698689D01*
X55257843Y-45624000D01*
X55257843Y-44424000D01*
X55250487Y-44349311D01*
X55249820Y-44347110D01*
X55454524Y-44347110D01*
X55575845Y-44577000D01*
X56769000Y-44577000D01*
X56769000Y-43383186D01*
X57023000Y-43383186D01*
X57023000Y-44577000D01*
X58216155Y-44577000D01*
X58337476Y-44347110D01*
X58292825Y-44199901D01*
X58167641Y-43937080D01*
X57993588Y-43703731D01*
X57777355Y-43508822D01*
X57527252Y-43359843D01*
X57252891Y-43262519D01*
X57023000Y-43383186D01*
X56769000Y-43383186D01*
X56539109Y-43262519D01*
X56264748Y-43359843D01*
X56014645Y-43508822D01*
X55798412Y-43703731D01*
X55624359Y-43937080D01*
X55499175Y-44199901D01*
X55454524Y-44347110D01*
X55249820Y-44347110D01*
X55228701Y-44277492D01*
X55193322Y-44211304D01*
X55145711Y-44153289D01*
X55087696Y-44105678D01*
X55021508Y-44070299D01*
X54949689Y-44048513D01*
X54875000Y-44041157D01*
X54125000Y-44041157D01*
X54050311Y-44048513D01*
X53978492Y-44070299D01*
X53912304Y-44105678D01*
X53854289Y-44153289D01*
X53840221Y-44170431D01*
X53805985Y-44136195D01*
X53686258Y-44056196D01*
X53553225Y-44001092D01*
X53411997Y-43973000D01*
X53268003Y-43973000D01*
X53126775Y-44001092D01*
X53057999Y-44029580D01*
X53057999Y-43926421D01*
X53632435Y-43351986D01*
X54764196Y-43351986D01*
X54824001Y-43411791D01*
X54943728Y-43491790D01*
X55076761Y-43546894D01*
X55217989Y-43574986D01*
X55361983Y-43574986D01*
X55503211Y-43546894D01*
X55636244Y-43491790D01*
X55755971Y-43411791D01*
X55857791Y-43309971D01*
X55937790Y-43190244D01*
X55992894Y-43057211D01*
X56020986Y-42915983D01*
X56020986Y-42771989D01*
X56001097Y-42672000D01*
X57193580Y-42672000D01*
X58443951Y-43922372D01*
G36*
X66473000Y-45214370D02*
G01*
X66433804Y-45119742D01*
X66353805Y-45000015D01*
X66251985Y-44898195D01*
X66132258Y-44818196D01*
X65999225Y-44763092D01*
X65976619Y-44758595D01*
X65959222Y-44741198D01*
X66473000Y-44227420D01*
X66473000Y-45214370D01*
X66473000Y-45214370D01*
G37*
X66473000Y-45214370D02*
X66433804Y-45119742D01*
X66353805Y-45000015D01*
X66251985Y-44898195D01*
X66132258Y-44818196D01*
X65999225Y-44763092D01*
X65976619Y-44758595D01*
X65959222Y-44741198D01*
X66473000Y-44227420D01*
X66473000Y-45214370D01*
G36*
X60613742Y-40525804D02*
G01*
X60746775Y-40580908D01*
X60888003Y-40609000D01*
X60972580Y-40609000D01*
X62450348Y-42086769D01*
X62466251Y-42106147D01*
X62485628Y-42122049D01*
X62543603Y-42169628D01*
X62607634Y-42203853D01*
X62631856Y-42216800D01*
X62727614Y-42245848D01*
X62802252Y-42253199D01*
X62802254Y-42253199D01*
X62827198Y-42255656D01*
X62852142Y-42253199D01*
X63405904Y-42253199D01*
X63378399Y-42304657D01*
X63349351Y-42400415D01*
X63339543Y-42500000D01*
X63342001Y-42524956D01*
X63342000Y-42993579D01*
X63262779Y-43072801D01*
X60152121Y-43072801D01*
X60167000Y-42997997D01*
X60167000Y-42916188D01*
X60170948Y-42912948D01*
X60234429Y-42835595D01*
X60281601Y-42747343D01*
X60310649Y-42651585D01*
X60318000Y-42576947D01*
X60318000Y-42576944D01*
X60320457Y-42552000D01*
X60318000Y-42527056D01*
X60318000Y-41329382D01*
X60356508Y-41317701D01*
X60422696Y-41282322D01*
X60480711Y-41234711D01*
X60528322Y-41176696D01*
X60563701Y-41110508D01*
X60585487Y-41038689D01*
X60592843Y-40964000D01*
X60592843Y-40511840D01*
X60613742Y-40525804D01*
X60613742Y-40525804D01*
G37*
X60613742Y-40525804D02*
X60746775Y-40580908D01*
X60888003Y-40609000D01*
X60972580Y-40609000D01*
X62450348Y-42086769D01*
X62466251Y-42106147D01*
X62485628Y-42122049D01*
X62543603Y-42169628D01*
X62607634Y-42203853D01*
X62631856Y-42216800D01*
X62727614Y-42245848D01*
X62802252Y-42253199D01*
X62802254Y-42253199D01*
X62827198Y-42255656D01*
X62852142Y-42253199D01*
X63405904Y-42253199D01*
X63378399Y-42304657D01*
X63349351Y-42400415D01*
X63339543Y-42500000D01*
X63342001Y-42524956D01*
X63342000Y-42993579D01*
X63262779Y-43072801D01*
X60152121Y-43072801D01*
X60167000Y-42997997D01*
X60167000Y-42916188D01*
X60170948Y-42912948D01*
X60234429Y-42835595D01*
X60281601Y-42747343D01*
X60310649Y-42651585D01*
X60318000Y-42576947D01*
X60318000Y-42576944D01*
X60320457Y-42552000D01*
X60318000Y-42527056D01*
X60318000Y-41329382D01*
X60356508Y-41317701D01*
X60422696Y-41282322D01*
X60480711Y-41234711D01*
X60528322Y-41176696D01*
X60563701Y-41110508D01*
X60585487Y-41038689D01*
X60592843Y-40964000D01*
X60592843Y-40511840D01*
X60613742Y-40525804D01*
G36*
X52110775Y-38802908D02*
G01*
X52252003Y-38831000D01*
X52336580Y-38831000D01*
X53311150Y-39805571D01*
X53327052Y-39824948D01*
X53346429Y-39840850D01*
X53404404Y-39888429D01*
X53492655Y-39935600D01*
X53492657Y-39935601D01*
X53588415Y-39964649D01*
X53663053Y-39972000D01*
X53663055Y-39972000D01*
X53687999Y-39974457D01*
X53712943Y-39972000D01*
X53947157Y-39972000D01*
X53947157Y-40964000D01*
X53954513Y-41038689D01*
X53976299Y-41110508D01*
X54011678Y-41176696D01*
X54059289Y-41234711D01*
X54117304Y-41282322D01*
X54183492Y-41317701D01*
X54255311Y-41339487D01*
X54330000Y-41346843D01*
X55130000Y-41346843D01*
X55204689Y-41339487D01*
X55276508Y-41317701D01*
X55342696Y-41282322D01*
X55365000Y-41264018D01*
X55387304Y-41282322D01*
X55453492Y-41317701D01*
X55525311Y-41339487D01*
X55600000Y-41346843D01*
X56400000Y-41346843D01*
X56474689Y-41339487D01*
X56546508Y-41317701D01*
X56612696Y-41282322D01*
X56635000Y-41264018D01*
X56657304Y-41282322D01*
X56723492Y-41317701D01*
X56795311Y-41339487D01*
X56870000Y-41346843D01*
X57670000Y-41346843D01*
X57744689Y-41339487D01*
X57816508Y-41317701D01*
X57882696Y-41282322D01*
X57905000Y-41264018D01*
X57927304Y-41282322D01*
X57993492Y-41317701D01*
X58065311Y-41339487D01*
X58140000Y-41346843D01*
X58940000Y-41346843D01*
X59014689Y-41339487D01*
X59086508Y-41317701D01*
X59152696Y-41282322D01*
X59175000Y-41264018D01*
X59197304Y-41282322D01*
X59263492Y-41317701D01*
X59302001Y-41329382D01*
X59302001Y-42207333D01*
X59222775Y-42223092D01*
X59089742Y-42278196D01*
X58970015Y-42358195D01*
X58868195Y-42460015D01*
X58788196Y-42579742D01*
X58733092Y-42712775D01*
X58722823Y-42764402D01*
X57780855Y-41822435D01*
X57764948Y-41803052D01*
X57687595Y-41739571D01*
X57599343Y-41692399D01*
X57503585Y-41663351D01*
X57428947Y-41656000D01*
X57428944Y-41656000D01*
X57404000Y-41653543D01*
X57379056Y-41656000D01*
X53194579Y-41656000D01*
X53169635Y-41653543D01*
X53144691Y-41656000D01*
X53144689Y-41656000D01*
X53070051Y-41663351D01*
X52974293Y-41692399D01*
X52933212Y-41714357D01*
X52886040Y-41739571D01*
X52831446Y-41784376D01*
X52808688Y-41803052D01*
X52792786Y-41822429D01*
X52070000Y-42545215D01*
X52070000Y-38786018D01*
X52110775Y-38802908D01*
X52110775Y-38802908D01*
G37*
X52110775Y-38802908D02*
X52252003Y-38831000D01*
X52336580Y-38831000D01*
X53311150Y-39805571D01*
X53327052Y-39824948D01*
X53346429Y-39840850D01*
X53404404Y-39888429D01*
X53492655Y-39935600D01*
X53492657Y-39935601D01*
X53588415Y-39964649D01*
X53663053Y-39972000D01*
X53663055Y-39972000D01*
X53687999Y-39974457D01*
X53712943Y-39972000D01*
X53947157Y-39972000D01*
X53947157Y-40964000D01*
X53954513Y-41038689D01*
X53976299Y-41110508D01*
X54011678Y-41176696D01*
X54059289Y-41234711D01*
X54117304Y-41282322D01*
X54183492Y-41317701D01*
X54255311Y-41339487D01*
X54330000Y-41346843D01*
X55130000Y-41346843D01*
X55204689Y-41339487D01*
X55276508Y-41317701D01*
X55342696Y-41282322D01*
X55365000Y-41264018D01*
X55387304Y-41282322D01*
X55453492Y-41317701D01*
X55525311Y-41339487D01*
X55600000Y-41346843D01*
X56400000Y-41346843D01*
X56474689Y-41339487D01*
X56546508Y-41317701D01*
X56612696Y-41282322D01*
X56635000Y-41264018D01*
X56657304Y-41282322D01*
X56723492Y-41317701D01*
X56795311Y-41339487D01*
X56870000Y-41346843D01*
X57670000Y-41346843D01*
X57744689Y-41339487D01*
X57816508Y-41317701D01*
X57882696Y-41282322D01*
X57905000Y-41264018D01*
X57927304Y-41282322D01*
X57993492Y-41317701D01*
X58065311Y-41339487D01*
X58140000Y-41346843D01*
X58940000Y-41346843D01*
X59014689Y-41339487D01*
X59086508Y-41317701D01*
X59152696Y-41282322D01*
X59175000Y-41264018D01*
X59197304Y-41282322D01*
X59263492Y-41317701D01*
X59302001Y-41329382D01*
X59302001Y-42207333D01*
X59222775Y-42223092D01*
X59089742Y-42278196D01*
X58970015Y-42358195D01*
X58868195Y-42460015D01*
X58788196Y-42579742D01*
X58733092Y-42712775D01*
X58722823Y-42764402D01*
X57780855Y-41822435D01*
X57764948Y-41803052D01*
X57687595Y-41739571D01*
X57599343Y-41692399D01*
X57503585Y-41663351D01*
X57428947Y-41656000D01*
X57428944Y-41656000D01*
X57404000Y-41653543D01*
X57379056Y-41656000D01*
X53194579Y-41656000D01*
X53169635Y-41653543D01*
X53144691Y-41656000D01*
X53144689Y-41656000D01*
X53070051Y-41663351D01*
X52974293Y-41692399D01*
X52933212Y-41714357D01*
X52886040Y-41739571D01*
X52831446Y-41784376D01*
X52808688Y-41803052D01*
X52792786Y-41822429D01*
X52070000Y-42545215D01*
X52070000Y-38786018D01*
X52110775Y-38802908D01*
G36*
X61223000Y-35250000D02*
G01*
X61225440Y-35274776D01*
X61232667Y-35298601D01*
X61244403Y-35320557D01*
X61260197Y-35339803D01*
X61279443Y-35355597D01*
X61301399Y-35367333D01*
X61325224Y-35374560D01*
X61350000Y-35377000D01*
X66473000Y-35377000D01*
X66473000Y-42132580D01*
X65744054Y-41403634D01*
X65728147Y-41384251D01*
X65650794Y-41320770D01*
X65562542Y-41273598D01*
X65466784Y-41244550D01*
X65392146Y-41237199D01*
X65392143Y-41237199D01*
X65367199Y-41234742D01*
X65342255Y-41237199D01*
X63037620Y-41237199D01*
X61691000Y-39890580D01*
X61691000Y-39806003D01*
X61662908Y-39664775D01*
X61607804Y-39531742D01*
X61527805Y-39412015D01*
X61425985Y-39310195D01*
X61306258Y-39230196D01*
X61173225Y-39175092D01*
X61031997Y-39147000D01*
X60888003Y-39147000D01*
X60746775Y-39175092D01*
X60613742Y-39230196D01*
X60592843Y-39244160D01*
X60592843Y-37964000D01*
X60585487Y-37889311D01*
X60563701Y-37817492D01*
X60528322Y-37751304D01*
X60480711Y-37693289D01*
X60422696Y-37645678D01*
X60356508Y-37610299D01*
X60284689Y-37588513D01*
X60210000Y-37581157D01*
X59410000Y-37581157D01*
X59335311Y-37588513D01*
X59263492Y-37610299D01*
X59197304Y-37645678D01*
X59175000Y-37663982D01*
X59152696Y-37645678D01*
X59086508Y-37610299D01*
X59014689Y-37588513D01*
X58940000Y-37581157D01*
X58140000Y-37581157D01*
X58065311Y-37588513D01*
X57993492Y-37610299D01*
X57927304Y-37645678D01*
X57905000Y-37663982D01*
X57882696Y-37645678D01*
X57816508Y-37610299D01*
X57744689Y-37588513D01*
X57670000Y-37581157D01*
X56870000Y-37581157D01*
X56795311Y-37588513D01*
X56723492Y-37610299D01*
X56657304Y-37645678D01*
X56635000Y-37663982D01*
X56612696Y-37645678D01*
X56546508Y-37610299D01*
X56474689Y-37588513D01*
X56400000Y-37581157D01*
X55935578Y-37581157D01*
X55801835Y-37447415D01*
X55873000Y-37376250D01*
X55873000Y-35527000D01*
X56127000Y-35527000D01*
X56127000Y-37376250D01*
X56285750Y-37535000D01*
X56400000Y-37538072D01*
X56524482Y-37525812D01*
X56635000Y-37492287D01*
X56745518Y-37525812D01*
X56870000Y-37538072D01*
X56984250Y-37535000D01*
X57143000Y-37376250D01*
X57143000Y-35527000D01*
X56127000Y-35527000D01*
X55873000Y-35527000D01*
X55853000Y-35527000D01*
X55853000Y-35273000D01*
X55873000Y-35273000D01*
X55873000Y-33423750D01*
X56127000Y-33423750D01*
X56127000Y-35273000D01*
X57143000Y-35273000D01*
X57143000Y-33423750D01*
X57397000Y-33423750D01*
X57397000Y-35273000D01*
X57417000Y-35273000D01*
X57417000Y-35527000D01*
X57397000Y-35527000D01*
X57397000Y-37376250D01*
X57555750Y-37535000D01*
X57670000Y-37538072D01*
X57794482Y-37525812D01*
X57914180Y-37489502D01*
X58024494Y-37430537D01*
X58121185Y-37351185D01*
X58177272Y-37282843D01*
X58940000Y-37282843D01*
X59014689Y-37275487D01*
X59086508Y-37253701D01*
X59152696Y-37218322D01*
X59175000Y-37200018D01*
X59197304Y-37218322D01*
X59263492Y-37253701D01*
X59335311Y-37275487D01*
X59410000Y-37282843D01*
X60210000Y-37282843D01*
X60284689Y-37275487D01*
X60356508Y-37253701D01*
X60422696Y-37218322D01*
X60480711Y-37170711D01*
X60528322Y-37112696D01*
X60563701Y-37046508D01*
X60585487Y-36974689D01*
X60592843Y-36900000D01*
X60592843Y-33900000D01*
X60585487Y-33825311D01*
X60563701Y-33753492D01*
X60528322Y-33687304D01*
X60480711Y-33629289D01*
X60422696Y-33581678D01*
X60356508Y-33546299D01*
X60284689Y-33524513D01*
X60210000Y-33517157D01*
X59410000Y-33517157D01*
X59335311Y-33524513D01*
X59263492Y-33546299D01*
X59197304Y-33581678D01*
X59175000Y-33599982D01*
X59152696Y-33581678D01*
X59086508Y-33546299D01*
X59014689Y-33524513D01*
X58940000Y-33517157D01*
X58177272Y-33517157D01*
X58121185Y-33448815D01*
X58024494Y-33369463D01*
X57914180Y-33310498D01*
X57794482Y-33274188D01*
X57670000Y-33261928D01*
X57555750Y-33265000D01*
X57397000Y-33423750D01*
X57143000Y-33423750D01*
X56984250Y-33265000D01*
X56870000Y-33261928D01*
X56745518Y-33274188D01*
X56635000Y-33307713D01*
X56524482Y-33274188D01*
X56400000Y-33261928D01*
X56285750Y-33265000D01*
X56127000Y-33423750D01*
X55873000Y-33423750D01*
X55714250Y-33265000D01*
X55600000Y-33261928D01*
X55475518Y-33274188D01*
X55355820Y-33310498D01*
X55245506Y-33369463D01*
X55148815Y-33448815D01*
X55092728Y-33517157D01*
X54330000Y-33517157D01*
X54255311Y-33524513D01*
X54183492Y-33546299D01*
X54117304Y-33581678D01*
X54059289Y-33629289D01*
X54011678Y-33687304D01*
X53976299Y-33753492D01*
X53954513Y-33825311D01*
X53947157Y-33900000D01*
X53947157Y-34892000D01*
X52796040Y-34892000D01*
X55760230Y-31927810D01*
X57963246Y-31927810D01*
X57988190Y-31930267D01*
X58013134Y-31927810D01*
X58013137Y-31927810D01*
X58087775Y-31920459D01*
X58183533Y-31891411D01*
X58271785Y-31844239D01*
X58349138Y-31780758D01*
X58365045Y-31761375D01*
X59931421Y-30195000D01*
X60015997Y-30195000D01*
X60157225Y-30166908D01*
X60290258Y-30111804D01*
X60409985Y-30031805D01*
X60511805Y-29929985D01*
X60591804Y-29810258D01*
X60646908Y-29677225D01*
X60675000Y-29535997D01*
X60675000Y-29392003D01*
X60646908Y-29250775D01*
X60591804Y-29117742D01*
X60511805Y-28998015D01*
X60409985Y-28896195D01*
X60290258Y-28816196D01*
X60157225Y-28761092D01*
X60015997Y-28733000D01*
X59872003Y-28733000D01*
X59730775Y-28761092D01*
X59597742Y-28816196D01*
X59478015Y-28896195D01*
X59436000Y-28938210D01*
X59393985Y-28896195D01*
X59274258Y-28816196D01*
X59141225Y-28761092D01*
X58999997Y-28733000D01*
X58856003Y-28733000D01*
X58714775Y-28761092D01*
X58581742Y-28816196D01*
X58462015Y-28896195D01*
X58360195Y-28998015D01*
X58280196Y-29117742D01*
X58225092Y-29250775D01*
X58197000Y-29392003D01*
X58197000Y-29476579D01*
X58134359Y-29539220D01*
X58135000Y-29535997D01*
X58135000Y-29392003D01*
X58106908Y-29250775D01*
X58051804Y-29117742D01*
X57971805Y-28998015D01*
X57869985Y-28896195D01*
X57750258Y-28816196D01*
X57617225Y-28761092D01*
X57475997Y-28733000D01*
X57332003Y-28733000D01*
X57190775Y-28761092D01*
X57057742Y-28816196D01*
X57038579Y-28829000D01*
X56940206Y-28829000D01*
X56909025Y-28825929D01*
X56877844Y-28829000D01*
X56877834Y-28829000D01*
X56784544Y-28838188D01*
X56664846Y-28874498D01*
X56554532Y-28933463D01*
X56457841Y-29012815D01*
X56437952Y-29037050D01*
X56392002Y-29083000D01*
X51696579Y-29083000D01*
X51762814Y-29038743D01*
X52038743Y-28762814D01*
X52255539Y-28438355D01*
X52404871Y-28077836D01*
X52481000Y-27695111D01*
X52481000Y-27304889D01*
X52404871Y-26922164D01*
X52255539Y-26561645D01*
X52038743Y-26237186D01*
X51762814Y-25961257D01*
X51438355Y-25744461D01*
X51077836Y-25595129D01*
X50695111Y-25519000D01*
X50304889Y-25519000D01*
X49922164Y-25595129D01*
X49561645Y-25744461D01*
X49527000Y-25767610D01*
X49527000Y-25431000D01*
X61223000Y-25431000D01*
X61223000Y-35250000D01*
X61223000Y-35250000D01*
G37*
X61223000Y-35250000D02*
X61225440Y-35274776D01*
X61232667Y-35298601D01*
X61244403Y-35320557D01*
X61260197Y-35339803D01*
X61279443Y-35355597D01*
X61301399Y-35367333D01*
X61325224Y-35374560D01*
X61350000Y-35377000D01*
X66473000Y-35377000D01*
X66473000Y-42132580D01*
X65744054Y-41403634D01*
X65728147Y-41384251D01*
X65650794Y-41320770D01*
X65562542Y-41273598D01*
X65466784Y-41244550D01*
X65392146Y-41237199D01*
X65392143Y-41237199D01*
X65367199Y-41234742D01*
X65342255Y-41237199D01*
X63037620Y-41237199D01*
X61691000Y-39890580D01*
X61691000Y-39806003D01*
X61662908Y-39664775D01*
X61607804Y-39531742D01*
X61527805Y-39412015D01*
X61425985Y-39310195D01*
X61306258Y-39230196D01*
X61173225Y-39175092D01*
X61031997Y-39147000D01*
X60888003Y-39147000D01*
X60746775Y-39175092D01*
X60613742Y-39230196D01*
X60592843Y-39244160D01*
X60592843Y-37964000D01*
X60585487Y-37889311D01*
X60563701Y-37817492D01*
X60528322Y-37751304D01*
X60480711Y-37693289D01*
X60422696Y-37645678D01*
X60356508Y-37610299D01*
X60284689Y-37588513D01*
X60210000Y-37581157D01*
X59410000Y-37581157D01*
X59335311Y-37588513D01*
X59263492Y-37610299D01*
X59197304Y-37645678D01*
X59175000Y-37663982D01*
X59152696Y-37645678D01*
X59086508Y-37610299D01*
X59014689Y-37588513D01*
X58940000Y-37581157D01*
X58140000Y-37581157D01*
X58065311Y-37588513D01*
X57993492Y-37610299D01*
X57927304Y-37645678D01*
X57905000Y-37663982D01*
X57882696Y-37645678D01*
X57816508Y-37610299D01*
X57744689Y-37588513D01*
X57670000Y-37581157D01*
X56870000Y-37581157D01*
X56795311Y-37588513D01*
X56723492Y-37610299D01*
X56657304Y-37645678D01*
X56635000Y-37663982D01*
X56612696Y-37645678D01*
X56546508Y-37610299D01*
X56474689Y-37588513D01*
X56400000Y-37581157D01*
X55935578Y-37581157D01*
X55801835Y-37447415D01*
X55873000Y-37376250D01*
X55873000Y-35527000D01*
X56127000Y-35527000D01*
X56127000Y-37376250D01*
X56285750Y-37535000D01*
X56400000Y-37538072D01*
X56524482Y-37525812D01*
X56635000Y-37492287D01*
X56745518Y-37525812D01*
X56870000Y-37538072D01*
X56984250Y-37535000D01*
X57143000Y-37376250D01*
X57143000Y-35527000D01*
X56127000Y-35527000D01*
X55873000Y-35527000D01*
X55853000Y-35527000D01*
X55853000Y-35273000D01*
X55873000Y-35273000D01*
X55873000Y-33423750D01*
X56127000Y-33423750D01*
X56127000Y-35273000D01*
X57143000Y-35273000D01*
X57143000Y-33423750D01*
X57397000Y-33423750D01*
X57397000Y-35273000D01*
X57417000Y-35273000D01*
X57417000Y-35527000D01*
X57397000Y-35527000D01*
X57397000Y-37376250D01*
X57555750Y-37535000D01*
X57670000Y-37538072D01*
X57794482Y-37525812D01*
X57914180Y-37489502D01*
X58024494Y-37430537D01*
X58121185Y-37351185D01*
X58177272Y-37282843D01*
X58940000Y-37282843D01*
X59014689Y-37275487D01*
X59086508Y-37253701D01*
X59152696Y-37218322D01*
X59175000Y-37200018D01*
X59197304Y-37218322D01*
X59263492Y-37253701D01*
X59335311Y-37275487D01*
X59410000Y-37282843D01*
X60210000Y-37282843D01*
X60284689Y-37275487D01*
X60356508Y-37253701D01*
X60422696Y-37218322D01*
X60480711Y-37170711D01*
X60528322Y-37112696D01*
X60563701Y-37046508D01*
X60585487Y-36974689D01*
X60592843Y-36900000D01*
X60592843Y-33900000D01*
X60585487Y-33825311D01*
X60563701Y-33753492D01*
X60528322Y-33687304D01*
X60480711Y-33629289D01*
X60422696Y-33581678D01*
X60356508Y-33546299D01*
X60284689Y-33524513D01*
X60210000Y-33517157D01*
X59410000Y-33517157D01*
X59335311Y-33524513D01*
X59263492Y-33546299D01*
X59197304Y-33581678D01*
X59175000Y-33599982D01*
X59152696Y-33581678D01*
X59086508Y-33546299D01*
X59014689Y-33524513D01*
X58940000Y-33517157D01*
X58177272Y-33517157D01*
X58121185Y-33448815D01*
X58024494Y-33369463D01*
X57914180Y-33310498D01*
X57794482Y-33274188D01*
X57670000Y-33261928D01*
X57555750Y-33265000D01*
X57397000Y-33423750D01*
X57143000Y-33423750D01*
X56984250Y-33265000D01*
X56870000Y-33261928D01*
X56745518Y-33274188D01*
X56635000Y-33307713D01*
X56524482Y-33274188D01*
X56400000Y-33261928D01*
X56285750Y-33265000D01*
X56127000Y-33423750D01*
X55873000Y-33423750D01*
X55714250Y-33265000D01*
X55600000Y-33261928D01*
X55475518Y-33274188D01*
X55355820Y-33310498D01*
X55245506Y-33369463D01*
X55148815Y-33448815D01*
X55092728Y-33517157D01*
X54330000Y-33517157D01*
X54255311Y-33524513D01*
X54183492Y-33546299D01*
X54117304Y-33581678D01*
X54059289Y-33629289D01*
X54011678Y-33687304D01*
X53976299Y-33753492D01*
X53954513Y-33825311D01*
X53947157Y-33900000D01*
X53947157Y-34892000D01*
X52796040Y-34892000D01*
X55760230Y-31927810D01*
X57963246Y-31927810D01*
X57988190Y-31930267D01*
X58013134Y-31927810D01*
X58013137Y-31927810D01*
X58087775Y-31920459D01*
X58183533Y-31891411D01*
X58271785Y-31844239D01*
X58349138Y-31780758D01*
X58365045Y-31761375D01*
X59931421Y-30195000D01*
X60015997Y-30195000D01*
X60157225Y-30166908D01*
X60290258Y-30111804D01*
X60409985Y-30031805D01*
X60511805Y-29929985D01*
X60591804Y-29810258D01*
X60646908Y-29677225D01*
X60675000Y-29535997D01*
X60675000Y-29392003D01*
X60646908Y-29250775D01*
X60591804Y-29117742D01*
X60511805Y-28998015D01*
X60409985Y-28896195D01*
X60290258Y-28816196D01*
X60157225Y-28761092D01*
X60015997Y-28733000D01*
X59872003Y-28733000D01*
X59730775Y-28761092D01*
X59597742Y-28816196D01*
X59478015Y-28896195D01*
X59436000Y-28938210D01*
X59393985Y-28896195D01*
X59274258Y-28816196D01*
X59141225Y-28761092D01*
X58999997Y-28733000D01*
X58856003Y-28733000D01*
X58714775Y-28761092D01*
X58581742Y-28816196D01*
X58462015Y-28896195D01*
X58360195Y-28998015D01*
X58280196Y-29117742D01*
X58225092Y-29250775D01*
X58197000Y-29392003D01*
X58197000Y-29476579D01*
X58134359Y-29539220D01*
X58135000Y-29535997D01*
X58135000Y-29392003D01*
X58106908Y-29250775D01*
X58051804Y-29117742D01*
X57971805Y-28998015D01*
X57869985Y-28896195D01*
X57750258Y-28816196D01*
X57617225Y-28761092D01*
X57475997Y-28733000D01*
X57332003Y-28733000D01*
X57190775Y-28761092D01*
X57057742Y-28816196D01*
X57038579Y-28829000D01*
X56940206Y-28829000D01*
X56909025Y-28825929D01*
X56877844Y-28829000D01*
X56877834Y-28829000D01*
X56784544Y-28838188D01*
X56664846Y-28874498D01*
X56554532Y-28933463D01*
X56457841Y-29012815D01*
X56437952Y-29037050D01*
X56392002Y-29083000D01*
X51696579Y-29083000D01*
X51762814Y-29038743D01*
X52038743Y-28762814D01*
X52255539Y-28438355D01*
X52404871Y-28077836D01*
X52481000Y-27695111D01*
X52481000Y-27304889D01*
X52404871Y-26922164D01*
X52255539Y-26561645D01*
X52038743Y-26237186D01*
X51762814Y-25961257D01*
X51438355Y-25744461D01*
X51077836Y-25595129D01*
X50695111Y-25519000D01*
X50304889Y-25519000D01*
X49922164Y-25595129D01*
X49561645Y-25744461D01*
X49527000Y-25767610D01*
X49527000Y-25431000D01*
X61223000Y-25431000D01*
X61223000Y-35250000D01*
G36*
X49561645Y-29255539D02*
G01*
X49587504Y-29266250D01*
X49586815Y-29266815D01*
X49566931Y-29291044D01*
X49527000Y-29330975D01*
X49527000Y-29232390D01*
X49561645Y-29255539D01*
X49561645Y-29255539D01*
G37*
X49561645Y-29255539D02*
X49587504Y-29266250D01*
X49586815Y-29266815D01*
X49566931Y-29291044D01*
X49527000Y-29330975D01*
X49527000Y-29232390D01*
X49561645Y-29255539D01*
G36*
X67569000Y-101821474D02*
G01*
X66727000Y-102663475D01*
X66727000Y-62562673D01*
X66762814Y-62538743D01*
X67038743Y-62262814D01*
X67255539Y-61938355D01*
X67404871Y-61577836D01*
X67481000Y-61195111D01*
X67481000Y-60804889D01*
X67404871Y-60422164D01*
X67255539Y-60061645D01*
X67038743Y-59737186D01*
X66762814Y-59461257D01*
X66727000Y-59437327D01*
X66727000Y-35377000D01*
X67569001Y-35377000D01*
X67569000Y-101821474D01*
X67569000Y-101821474D01*
G37*
X67569000Y-101821474D02*
X66727000Y-102663475D01*
X66727000Y-62562673D01*
X66762814Y-62538743D01*
X67038743Y-62262814D01*
X67255539Y-61938355D01*
X67404871Y-61577836D01*
X67481000Y-61195111D01*
X67481000Y-60804889D01*
X67404871Y-60422164D01*
X67255539Y-60061645D01*
X67038743Y-59737186D01*
X66762814Y-59461257D01*
X66727000Y-59437327D01*
X66727000Y-35377000D01*
X67569001Y-35377000D01*
X67569000Y-101821474D01*
G36*
X48495268Y-61631310D02*
G01*
X48591682Y-61775605D01*
X48641000Y-61824923D01*
X48641001Y-63468809D01*
X48637929Y-63500000D01*
X48650189Y-63624481D01*
X48686498Y-63744179D01*
X48745463Y-63854493D01*
X48745464Y-63854494D01*
X48824816Y-63951185D01*
X48849045Y-63971069D01*
X49157000Y-64279025D01*
X49157000Y-64348771D01*
X49190856Y-64518978D01*
X49257268Y-64679310D01*
X49273000Y-64702855D01*
X49273000Y-102663474D01*
X48431000Y-101821475D01*
X48431000Y-61476154D01*
X48495268Y-61631310D01*
X48495268Y-61631310D01*
G37*
X48495268Y-61631310D02*
X48591682Y-61775605D01*
X48641000Y-61824923D01*
X48641001Y-63468809D01*
X48637929Y-63500000D01*
X48650189Y-63624481D01*
X48686498Y-63744179D01*
X48745463Y-63854493D01*
X48745464Y-63854494D01*
X48824816Y-63951185D01*
X48849045Y-63971069D01*
X49157000Y-64279025D01*
X49157000Y-64348771D01*
X49190856Y-64518978D01*
X49257268Y-64679310D01*
X49273000Y-64702855D01*
X49273000Y-102663474D01*
X48431000Y-101821475D01*
X48431000Y-61476154D01*
X48495268Y-61631310D01*
G36*
X49273000Y-25937327D02*
G01*
X49237186Y-25961257D01*
X48961257Y-26237186D01*
X48744461Y-26561645D01*
X48595129Y-26922164D01*
X48519000Y-27304889D01*
X48519000Y-27695111D01*
X48595129Y-28077836D01*
X48744461Y-28438355D01*
X48961257Y-28762814D01*
X49237186Y-29038743D01*
X49273000Y-29062673D01*
X49273000Y-29584975D01*
X48431000Y-30426976D01*
X48431000Y-25431000D01*
X49273000Y-25431000D01*
X49273000Y-25937327D01*
X49273000Y-25937327D01*
G37*
X49273000Y-25937327D02*
X49237186Y-25961257D01*
X48961257Y-26237186D01*
X48744461Y-26561645D01*
X48595129Y-26922164D01*
X48519000Y-27304889D01*
X48519000Y-27695111D01*
X48595129Y-28077836D01*
X48744461Y-28438355D01*
X48961257Y-28762814D01*
X49237186Y-29038743D01*
X49273000Y-29062673D01*
X49273000Y-29584975D01*
X48431000Y-30426976D01*
X48431000Y-25431000D01*
X49273000Y-25431000D01*
X49273000Y-25937327D01*
M02*
