M48
; DRILL file {KiCad (5.1.4)-1} date 10/27/2019 2:02:10 PM
; FORMAT={-:-/ absolute / inch / decimal}
; #@! TF.CreationDate,2019-10-27T14:02:10-04:00
; #@! TF.GenerationSoftware,Kicad,Pcbnew,(5.1.4)-1
; #@! TF.FileFunction,Plated,1,2,PTH
FMAT,2
INCH
T1C0.0157
T2C0.0256
T3C0.0394
%
G90
G05
T1
X1.94Y-2.41
X1.96Y-2.3512
X1.97Y-2.53
X1.9882Y-2.6181
X1.9882Y-2.7856
X1.9882Y-2.8346
X1.9882Y-2.8848
X1.9882Y-2.9331
X1.9882Y-2.9823
X1.9882Y-3.0315
X1.9882Y-3.0807
X1.9882Y-3.1299
X1.9882Y-3.1791
X1.9882Y-3.2283
X1.9882Y-3.2776
X1.9882Y-3.3268
X1.9882Y-3.376
X1.9882Y-3.4252
X1.9882Y-3.4744
X1.9882Y-3.5236
X1.9882Y-3.5728
X1.9882Y-3.622
X1.9882Y-3.6713
X1.9882Y-3.7205
X1.9882Y-3.7697
X1.9882Y-3.8189
X1.9882Y-3.8681
X1.9882Y-3.9173
X1.9882Y-3.9665
X1.9882Y-4.0157
X1.9882Y-4.065
X1.9882Y-4.1142
X1.99Y-2.46
X2.0169Y-4.1428
X2.02Y-2.4342
X2.0328Y-1.74
X2.0374Y-2.7362
X2.0472Y-4.1732
X2.0551Y-2.622
X2.06Y-1.45
X2.06Y-1.5
X2.0667Y-1.5912
X2.0749Y-4.2009
X2.0827Y-1.0276
X2.0866Y-2.7854
X2.0866Y-2.8346
X2.0866Y-2.8842
X2.0866Y-2.9331
X2.0866Y-2.9823
X2.0866Y-3.0315
X2.0866Y-3.0807
X2.0866Y-3.1299
X2.0866Y-3.1791
X2.0866Y-3.2283
X2.0866Y-3.2776
X2.0866Y-3.3268
X2.0866Y-3.376
X2.0866Y-3.4252
X2.0866Y-3.4744
X2.0866Y-3.5236
X2.0866Y-3.5728
X2.0866Y-3.622
X2.0866Y-3.6713
X2.0866Y-3.7205
X2.0866Y-3.7697
X2.0866Y-3.8189
X2.0866Y-3.8681
X2.0866Y-3.9173
X2.0866Y-3.9665
X2.0866Y-4.0157
X2.0866Y-4.065
X2.0876Y-2.7463
X2.1Y-1.76
X2.1063Y-4.2323
X2.1165Y-4.0948
X2.1457Y-4.124
X2.1535Y-2.6063
X2.1768Y-1.6868
X2.1789Y-4.1573
X2.1811Y-1.2992
X2.189Y-2.811
X2.2146Y-4.1929
X2.2244Y-4.2717
X2.252Y-2.126
X2.26Y-1.16
X2.27Y-2.44
X2.2835Y-2.7874
X2.2835Y-2.8346
X2.2835Y-2.8839
X2.2835Y-2.9331
X2.2835Y-2.9823
X2.2835Y-3.0315
X2.2835Y-3.0807
X2.2835Y-3.1299
X2.2835Y-3.1791
X2.2835Y-3.2283
X2.2835Y-3.2776
X2.2835Y-3.3268
X2.2835Y-3.376
X2.2835Y-3.4252
X2.2835Y-3.5236
X2.2835Y-3.5728
X2.2835Y-3.622
X2.2835Y-3.6713
X2.2835Y-3.7205
X2.2835Y-3.7697
X2.2835Y-3.8189
X2.2835Y-3.868
X2.2835Y-3.9173
X2.2835Y-3.9664
X2.2835Y-4.0157
X2.2835Y-4.0648
X2.2835Y-4.1142
X2.2835Y-4.1538
X2.2835Y-4.1949
X2.2835Y-3.4744
X2.3Y-1.74
X2.31Y-1.79
X2.3189Y-2.0787
X2.32Y-1.16
X2.34Y-1.69
X2.36Y-1.16
X2.378Y-2.0669
X2.3819Y-3.4744
X2.3819Y-2.7362
X2.3819Y-2.8346
X2.3819Y-2.9331
X2.3819Y-2.9823
X2.3819Y-3.0315
X2.3819Y-3.0807
X2.3819Y-3.1299
X2.3819Y-3.1791
X2.3819Y-3.2283
X2.3819Y-3.2776
X2.3819Y-3.3268
X2.3819Y-3.376
X2.3819Y-3.4252
X2.3819Y-3.5236
X2.3819Y-3.5728
X2.3819Y-3.622
X2.3819Y-3.6713
X2.3819Y-3.7205
X2.3819Y-3.7697
X2.3819Y-3.8189
X2.3819Y-3.868
X2.3819Y-3.9173
X2.3819Y-3.9671
X2.3819Y-4.0157
X2.3819Y-4.0654
X2.3819Y-4.1142
X2.3819Y-4.1633
X2.3819Y-4.2126
X2.3819Y-2.8839
X2.3898Y-2.1024
X2.4Y-1.57
X2.42Y-2.28
X2.4409Y-1.8425
X2.4467Y-1.6812
X2.4567Y-1.5512
X2.46Y-1.92
X2.49Y-1.807
X2.58Y-1.7
X2.59Y-1.79
T2
X1.96Y-1.28
X2.01Y-1.28
T3
X2.24Y-1.76
X2.24Y-1.86
T0
M30
