G04 #@! TF.GenerationSoftware,KiCad,Pcbnew,(5.1.4)-1*
G04 #@! TF.CreationDate,2019-10-27T14:02:49-04:00*
G04 #@! TF.ProjectId,i2c-moist-sensor,6932632d-6d6f-4697-9374-2d73656e736f,rev?*
G04 #@! TF.SameCoordinates,Original*
G04 #@! TF.FileFunction,Copper,L1,Top*
G04 #@! TF.FilePolarity,Positive*
%FSLAX46Y46*%
G04 Gerber Fmt 4.6, Leading zero omitted, Abs format (unit mm)*
G04 Created by KiCad (PCBNEW (5.1.4)-1) date 2019-10-27 14:02:49*
%MOMM*%
%LPD*%
G04 APERTURE LIST*
%ADD10R,1.700000X1.700000*%
%ADD11O,1.700000X1.700000*%
%ADD12R,1.000000X1.000000*%
%ADD13O,1.000000X1.000000*%
%ADD14R,1.200000X0.900000*%
%ADD15R,0.800000X1.900000*%
%ADD16R,0.600000X0.700000*%
%ADD17R,1.200000X0.750000*%
%ADD18R,1.200000X1.000000*%
%ADD19R,1.000000X1.200000*%
%ADD20R,1.900000X0.800000*%
%ADD21C,0.700000*%
%ADD22C,1.000000*%
%ADD23C,0.254000*%
%ADD24C,0.508000*%
%ADD25C,5.000000*%
%ADD26C,0.500000*%
G04 APERTURE END LIST*
D10*
X56896000Y-47244000D03*
D11*
X56896000Y-44704000D03*
D12*
X49784000Y-32512000D03*
D13*
X51054000Y-32512000D03*
D14*
X63158000Y-53500000D03*
X65358000Y-53500000D03*
X49192000Y-34798000D03*
X51392000Y-34798000D03*
X58250000Y-58928000D03*
X56050000Y-58928000D03*
X63158000Y-55250000D03*
X65358000Y-55250000D03*
X51478000Y-58928000D03*
X53678000Y-58928000D03*
X60536000Y-50038000D03*
X58336000Y-50038000D03*
X63162000Y-50038000D03*
X65362000Y-50038000D03*
X53600000Y-51750000D03*
X51400000Y-51750000D03*
X60100000Y-67000000D03*
X57900000Y-67000000D03*
X52662000Y-42418000D03*
X50462000Y-42418000D03*
X57900000Y-65250000D03*
X60100000Y-65250000D03*
X51400000Y-68750000D03*
X53600000Y-68750000D03*
X53650000Y-67000000D03*
X55850000Y-67000000D03*
X53600000Y-50000000D03*
X51400000Y-50000000D03*
D15*
X64516000Y-44728000D03*
X65466000Y-47728000D03*
X63566000Y-47728000D03*
D16*
X61550000Y-51750000D03*
X62950000Y-51750000D03*
X64300000Y-51750000D03*
X65700000Y-51750000D03*
X57804000Y-68642000D03*
X59204000Y-68642000D03*
X55010000Y-68642000D03*
X56410000Y-68642000D03*
D17*
X49596000Y-30734000D03*
X51496000Y-30734000D03*
X57200000Y-26000000D03*
X55300000Y-26000000D03*
X58050000Y-63500000D03*
X59950000Y-63500000D03*
X51628000Y-48260000D03*
X53528000Y-48260000D03*
X55700000Y-63500000D03*
X53800000Y-63500000D03*
D18*
X65758000Y-36860000D03*
X65758000Y-38130000D03*
X65758000Y-39400000D03*
D19*
X61558000Y-41270000D03*
X60288000Y-41270000D03*
X59018000Y-41270000D03*
X57748000Y-41270000D03*
X56478000Y-41270000D03*
X55208000Y-41270000D03*
D18*
X54258000Y-39400000D03*
X54258000Y-38130000D03*
X54258000Y-36860000D03*
X54258000Y-35590000D03*
X54258000Y-34320000D03*
X54258000Y-33050000D03*
X54258000Y-31780000D03*
X54258000Y-30510000D03*
X54258000Y-29240000D03*
D19*
X55258000Y-27770000D03*
X56528000Y-27770000D03*
X57798000Y-27770000D03*
X59068000Y-27770000D03*
X60338000Y-27770000D03*
D14*
X55850000Y-65250000D03*
X53650000Y-65250000D03*
X53600000Y-53500000D03*
X51400000Y-53500000D03*
D15*
X60750000Y-47750000D03*
X59800000Y-44750000D03*
X61700000Y-44750000D03*
D20*
X51840000Y-56134000D03*
X54840000Y-55184000D03*
X54840000Y-57084000D03*
D21*
X49784000Y-59720000D03*
X62146000Y-42702000D03*
X52494000Y-40416000D03*
X52900000Y-26100000D03*
X52702737Y-106702737D03*
X51228329Y-105228329D03*
X50500000Y-103250000D03*
X50500000Y-100750000D03*
X50500000Y-98250000D03*
X50500000Y-95750000D03*
X50500000Y-90750000D03*
X50500000Y-93250010D03*
X50500000Y-88250006D03*
X50500000Y-85750000D03*
X50500000Y-83250000D03*
X50500000Y-80750000D03*
X50500000Y-78250004D03*
X50500000Y-75750000D03*
X60500000Y-90750000D03*
X60499996Y-88250000D03*
X60500000Y-85749994D03*
X60500000Y-83250000D03*
X60500000Y-80750000D03*
X60500006Y-73250000D03*
X60500000Y-75750000D03*
X60500000Y-78250000D03*
X60500000Y-93250000D03*
X60500000Y-95750000D03*
X60500000Y-98248063D03*
X60500000Y-100763982D03*
X60500000Y-103262214D03*
X60500000Y-105746856D03*
X53500000Y-107500000D03*
X52000000Y-106000000D03*
X50500000Y-104500000D03*
X60500000Y-107000000D03*
X50500000Y-74500000D03*
X50500000Y-77000000D03*
X50500000Y-79500000D03*
X50500000Y-82000000D03*
X50500000Y-84500000D03*
X50500000Y-87000000D03*
X50500000Y-89500000D03*
X50500000Y-92000000D03*
X50500000Y-94500000D03*
X50500000Y-97000000D03*
X50500000Y-99500000D03*
X50500000Y-102000000D03*
X60500000Y-69500000D03*
X60500000Y-72000000D03*
X60500000Y-74500000D03*
X60500000Y-77000000D03*
X60500000Y-79500000D03*
X60500000Y-82000000D03*
X60500000Y-84500000D03*
X60500000Y-87000000D03*
X60500000Y-89500000D03*
X60500000Y-92000000D03*
X60500000Y-94500000D03*
X60500000Y-97000000D03*
X60500000Y-99500000D03*
X60500000Y-102000000D03*
X60500000Y-104500000D03*
X61468000Y-57912000D03*
X50500000Y-72000000D03*
X50500000Y-66500000D03*
X50500000Y-70753515D03*
X50500000Y-73273302D03*
X55400000Y-33000000D03*
X57200000Y-54000000D03*
X62000000Y-46800000D03*
X58000000Y-70800000D03*
X55600000Y-71400000D03*
X62400000Y-39400000D03*
X57658000Y-61976000D03*
X58420000Y-44196000D03*
X51632610Y-44196000D03*
X65532000Y-43180000D03*
X58928000Y-29464000D03*
X50546000Y-62484000D03*
X56500000Y-108500000D03*
X51750000Y-69500000D03*
X59436000Y-42926000D03*
X53024757Y-69754951D03*
X53000000Y-70750000D03*
X55345119Y-105595119D03*
X53758622Y-104008622D03*
X53000000Y-100750000D03*
X53000000Y-98249994D03*
X53000000Y-95750006D03*
X53000000Y-90749992D03*
X53000000Y-93250000D03*
X53000000Y-88250006D03*
X53000000Y-85750000D03*
X53000000Y-83250006D03*
X53000000Y-80750000D03*
X53000000Y-78250000D03*
X53000000Y-75750000D03*
X53000000Y-73257938D03*
X58000000Y-90750000D03*
X58000004Y-88250000D03*
X58000000Y-85750000D03*
X58000000Y-83250000D03*
X58000000Y-80750000D03*
X58000000Y-73250006D03*
X58000000Y-75750000D03*
X58000000Y-78250006D03*
X58000000Y-93250000D03*
X58000000Y-95749984D03*
X58000000Y-98248063D03*
X58000000Y-100746139D03*
X58000000Y-103246781D03*
X58000000Y-105505330D03*
X56250000Y-106500000D03*
X54500000Y-104750000D03*
X53000000Y-103250000D03*
X58000000Y-106549990D03*
X53000000Y-102000000D03*
X53000000Y-99500000D03*
X53000000Y-97000000D03*
X53000000Y-94500000D03*
X53000000Y-92000000D03*
X53000000Y-89500000D03*
X53000000Y-87000000D03*
X53000000Y-84500000D03*
X53000000Y-82000000D03*
X53000000Y-79500000D03*
X53000000Y-77000000D03*
X53000000Y-74500000D03*
X53000000Y-72000000D03*
X58000000Y-104500000D03*
X58000000Y-102000000D03*
X58000000Y-99500000D03*
X58000000Y-97000000D03*
X58000000Y-94500000D03*
X58000000Y-92000000D03*
X58000000Y-89500000D03*
X58000000Y-87000000D03*
X58000000Y-84500000D03*
X58000000Y-82000000D03*
X58000000Y-79500000D03*
X58000000Y-77000000D03*
X58000000Y-74500000D03*
X58000000Y-72000000D03*
X54700000Y-66200000D03*
X52200000Y-66600000D03*
X55289986Y-42843986D03*
X57404000Y-29464000D03*
D22*
X50038000Y-64262000D03*
X49276000Y-61214000D03*
D21*
X65786000Y-45466000D03*
X53340000Y-44704000D03*
X60400000Y-52500000D03*
X58900000Y-52800000D03*
X59944000Y-29464000D03*
X51308000Y-61829200D03*
X52324000Y-38100000D03*
X52324000Y-36830000D03*
X60700000Y-53400000D03*
X58674000Y-45466000D03*
X60960000Y-39878000D03*
X62484000Y-48768000D03*
X63246000Y-45897801D03*
D23*
X52702737Y-106702737D02*
X53500000Y-107500000D01*
X52000000Y-106000000D02*
X52702737Y-106702737D01*
X50500000Y-104500000D02*
X51228329Y-105228329D01*
X50500000Y-102000000D02*
X50500000Y-103250000D01*
X50500000Y-99500000D02*
X50500000Y-100750000D01*
X50500000Y-99500000D02*
X50500000Y-98250000D01*
X50500000Y-94500000D02*
X50500000Y-95750000D01*
X50500000Y-94500000D02*
X50500000Y-93250010D01*
X50500000Y-92000000D02*
X50500000Y-93250010D01*
X50500000Y-84500000D02*
X50500000Y-83250000D01*
X50500000Y-82000000D02*
X50500000Y-83250000D01*
X50500000Y-79500000D02*
X50500000Y-80750000D01*
X50500000Y-79500000D02*
X50500000Y-78250004D01*
X50500000Y-77000000D02*
X50500000Y-78250004D01*
X50500000Y-74500000D02*
X50500000Y-75750000D01*
X60500000Y-89500000D02*
X60500000Y-90750000D01*
X60500000Y-89500000D02*
X60500000Y-88250004D01*
X60500000Y-88249996D02*
X60499996Y-88250000D01*
X60500000Y-87000000D02*
X60500000Y-88249996D01*
X60500000Y-88250004D02*
X60499996Y-88250000D01*
X60500000Y-84500000D02*
X60500000Y-83250000D01*
X60500000Y-73250006D02*
X60500006Y-73250000D01*
X60500000Y-74500000D02*
X60500000Y-73250006D01*
X60500000Y-73249994D02*
X60500006Y-73250000D01*
X60500000Y-72000000D02*
X60500000Y-73249994D01*
X60500000Y-79500000D02*
X60500000Y-78250000D01*
X60500000Y-92000000D02*
X60500000Y-93250000D01*
X60500000Y-94500000D02*
X60500000Y-93250000D01*
X60500000Y-97000000D02*
X60500000Y-95750000D01*
X60500000Y-99500000D02*
X60500000Y-98248063D01*
X60500000Y-97000000D02*
X60500000Y-98248063D01*
X60500000Y-102000000D02*
X60500000Y-100763982D01*
X60500000Y-103262214D02*
X60500000Y-102000000D01*
X60500000Y-104500000D02*
X60500000Y-103262214D01*
X60500000Y-107000000D02*
X60500000Y-105746856D01*
X50500000Y-89500000D02*
X50500000Y-87000000D01*
X50500000Y-72000000D02*
X50500000Y-73273302D01*
X50500000Y-74500000D02*
X50500000Y-73273302D01*
X50500000Y-72000000D02*
X50500000Y-70753515D01*
X53650000Y-67000000D02*
X53500000Y-67000000D01*
X65208000Y-53500000D02*
X64262000Y-54446000D01*
X65358000Y-53500000D02*
X65208000Y-53500000D01*
X58201000Y-61976000D02*
X57658000Y-61976000D01*
X59950000Y-63500000D02*
X59725000Y-63500000D01*
X59725000Y-63500000D02*
X58201000Y-61976000D01*
X53528000Y-48072000D02*
X53528000Y-48260000D01*
X56896000Y-44704000D02*
X53528000Y-48072000D01*
X53706000Y-31780000D02*
X54258000Y-31780000D01*
X51392000Y-34094000D02*
X53706000Y-31780000D01*
X51392000Y-34798000D02*
X51392000Y-34094000D01*
X56942000Y-44750000D02*
X56896000Y-44704000D01*
X59800000Y-44750000D02*
X56942000Y-44750000D01*
X57404000Y-44196000D02*
X56896000Y-44704000D01*
X58420000Y-44196000D02*
X57404000Y-44196000D01*
X53540000Y-66186000D02*
X52755106Y-66186000D01*
X53650000Y-67000000D02*
X53650000Y-66296000D01*
X53650000Y-66296000D02*
X53540000Y-66186000D01*
X51261000Y-65739000D02*
X52239000Y-65739000D01*
X51261000Y-65739000D02*
X50500000Y-66500000D01*
X52308106Y-65739000D02*
X52755106Y-66186000D01*
X52239000Y-65739000D02*
X52308106Y-65739000D01*
X62484000Y-57912000D02*
X64262000Y-56134000D01*
X61468000Y-57912000D02*
X62484000Y-57912000D01*
X64262000Y-54446000D02*
X64262000Y-56134000D01*
X64516000Y-44728000D02*
X64516000Y-49530000D01*
X65024000Y-50038000D02*
X65362000Y-50038000D01*
X64516000Y-49530000D02*
X65024000Y-50038000D01*
X66212000Y-55250000D02*
X66548000Y-54914000D01*
X65358000Y-55250000D02*
X66212000Y-55250000D01*
X65512000Y-50038000D02*
X65362000Y-50038000D01*
X66548000Y-51074000D02*
X65512000Y-50038000D01*
X66548000Y-54914000D02*
X66548000Y-51074000D01*
X61736932Y-36068000D02*
X60706000Y-36068000D01*
X64516000Y-44728000D02*
X64516000Y-38847068D01*
X64516000Y-38847068D02*
X61736932Y-36068000D01*
X57404000Y-30770000D02*
X57404000Y-32766000D01*
X55258000Y-28624000D02*
X57404000Y-30770000D01*
X55258000Y-27770000D02*
X55258000Y-28624000D01*
X60706000Y-36068000D02*
X57404000Y-32766000D01*
X55258000Y-26042000D02*
X55300000Y-26000000D01*
X55258000Y-27770000D02*
X55258000Y-26042000D01*
X50114190Y-51318190D02*
X50114190Y-46405810D01*
X51400000Y-51750000D02*
X50546000Y-51750000D01*
X50546000Y-51750000D02*
X50114190Y-51318190D01*
X50114190Y-46405810D02*
X51562000Y-44958000D01*
X51562000Y-44958000D02*
X51562000Y-44266610D01*
X51562000Y-44266610D02*
X51632610Y-44196000D01*
X65532000Y-43712000D02*
X64516000Y-44728000D01*
X65532000Y-43180000D02*
X65532000Y-43712000D01*
X50462000Y-43025390D02*
X51632610Y-44196000D01*
X50462000Y-42418000D02*
X50462000Y-43025390D01*
X53831000Y-27770000D02*
X54186000Y-27770000D01*
X51496000Y-30105000D02*
X53831000Y-27770000D01*
X51496000Y-30734000D02*
X51496000Y-30105000D01*
X55258000Y-27770000D02*
X54186000Y-27770000D01*
X51271000Y-30734000D02*
X51496000Y-30734000D01*
X49784000Y-32221000D02*
X50654500Y-31350500D01*
X49784000Y-32512000D02*
X49784000Y-32221000D01*
X50292000Y-31713000D02*
X50654500Y-31350500D01*
X50654500Y-31350500D02*
X51271000Y-30734000D01*
X56410000Y-67560000D02*
X55850000Y-67000000D01*
X56410000Y-68642000D02*
X56410000Y-67560000D01*
X55850000Y-67000000D02*
X55850000Y-65250000D01*
X55700000Y-65100000D02*
X55850000Y-65250000D01*
X55700000Y-63500000D02*
X55700000Y-65100000D01*
X55700000Y-63500000D02*
X55925000Y-63500000D01*
X59068000Y-27770000D02*
X59068000Y-29324000D01*
X59068000Y-29324000D02*
X58928000Y-29464000D01*
X55700000Y-62871000D02*
X55313000Y-62484000D01*
X55700000Y-63500000D02*
X55700000Y-62871000D01*
X55313000Y-62484000D02*
X50546000Y-62484000D01*
X56500000Y-108500000D02*
X58000000Y-110000000D01*
X59204000Y-68642000D02*
X59204000Y-69246000D01*
X59204000Y-69246000D02*
X58730999Y-69719001D01*
X55483001Y-69719001D02*
X55010000Y-69246000D01*
X58730999Y-69719001D02*
X55483001Y-69719001D01*
X55010000Y-69246000D02*
X55010000Y-68642000D01*
D24*
X59204000Y-107796000D02*
X57128468Y-109871532D01*
X57128468Y-109871532D02*
X57000000Y-110000000D01*
X58000000Y-110000000D02*
X57256936Y-110000000D01*
X57256936Y-110000000D02*
X57128468Y-109871532D01*
D23*
X51750000Y-68750000D02*
X51750000Y-69500000D01*
D25*
X58000000Y-110000000D02*
X58000000Y-158000000D01*
D23*
X59204000Y-68642000D02*
X59204000Y-104959962D01*
X59204000Y-104959962D02*
X59204000Y-107796000D01*
X51750000Y-69100000D02*
X51400000Y-68750000D01*
X51750000Y-69500000D02*
X51750000Y-69100000D01*
X51853000Y-48260000D02*
X55118000Y-44995000D01*
X51628000Y-48260000D02*
X51853000Y-48260000D01*
X55118000Y-44995000D02*
X55118000Y-43942000D01*
X55118000Y-43942000D02*
X56134000Y-42926000D01*
X56134000Y-42926000D02*
X59486000Y-42926000D01*
X60198000Y-42214000D02*
X60223000Y-42189000D01*
X60223000Y-42189000D02*
X60288000Y-42124000D01*
X60288000Y-42124000D02*
X59588000Y-42824000D01*
X60288000Y-41270000D02*
X60288000Y-42124000D01*
X59486000Y-42926000D02*
X59588000Y-42824000D01*
X59588000Y-42824000D02*
X60223000Y-42189000D01*
X55040000Y-43942000D02*
X55118000Y-43942000D01*
X53516000Y-42418000D02*
X55040000Y-43942000D01*
X52662000Y-42418000D02*
X53516000Y-42418000D01*
X53000000Y-70750000D02*
X53000000Y-69779708D01*
X53000000Y-69779708D02*
X53024757Y-69754951D01*
X55345119Y-105595119D02*
X56250000Y-106500000D01*
X53000000Y-103250000D02*
X53758622Y-104008622D01*
X53000000Y-99500000D02*
X53000000Y-100750000D01*
X53000000Y-99500000D02*
X53000000Y-98249994D01*
X53000000Y-94500000D02*
X53000000Y-95750006D01*
X53000000Y-89500000D02*
X53000000Y-90749992D01*
X53000000Y-94500000D02*
X53000000Y-93250000D01*
X53000000Y-92000000D02*
X53000000Y-93250000D01*
X53000000Y-84500000D02*
X53000000Y-83250006D01*
X53000000Y-79500000D02*
X53000000Y-80750000D01*
X53000000Y-79500000D02*
X53000000Y-78250000D01*
X53000000Y-77000000D02*
X53000000Y-78250000D01*
X53000000Y-74500000D02*
X53000000Y-75750000D01*
X53000000Y-73257938D02*
X53000000Y-74500000D01*
X53000000Y-72000000D02*
X53000000Y-73257938D01*
X58000000Y-89500000D02*
X58000000Y-90750000D01*
X58000000Y-84500000D02*
X58000000Y-83250000D01*
X58000000Y-74500000D02*
X58000000Y-73250006D01*
X58000000Y-72000000D02*
X58000000Y-73250006D01*
X58000000Y-74500000D02*
X58000000Y-75750000D01*
X58000000Y-79500000D02*
X58000000Y-78250006D01*
X58000000Y-92000000D02*
X58000000Y-93250000D01*
X58000000Y-94500000D02*
X58000000Y-93250000D01*
X58000000Y-97000000D02*
X58000000Y-95749984D01*
X58000000Y-98248063D02*
X58000000Y-99500000D01*
X58000000Y-97000000D02*
X58000000Y-98248063D01*
X58000000Y-102000000D02*
X58000000Y-100746139D01*
X58000000Y-102000000D02*
X58000000Y-103246781D01*
X58000000Y-104500000D02*
X58000000Y-105505330D01*
X58000000Y-106549990D02*
X58000000Y-105505330D01*
X53000000Y-102000000D02*
X53000000Y-103250000D01*
X53000000Y-87000000D02*
X53000000Y-89500000D01*
X58000000Y-87000000D02*
X58000000Y-89500000D01*
X54960000Y-66160000D02*
X55000000Y-66200000D01*
X54960000Y-66240000D02*
X55000000Y-66200000D01*
X53024757Y-69325243D02*
X53600000Y-68750000D01*
X53024757Y-69754951D02*
X53024757Y-69325243D01*
X53600000Y-68750000D02*
X53510000Y-68750000D01*
X52650000Y-67050000D02*
X52650000Y-67800000D01*
X52650000Y-67800000D02*
X53600000Y-68750000D01*
X56478000Y-41655972D02*
X56478000Y-41270000D01*
X55289986Y-42843986D02*
X56478000Y-41655972D01*
X52650000Y-67050000D02*
X52200000Y-66600000D01*
X51400000Y-55694000D02*
X51840000Y-56134000D01*
X51400000Y-53500000D02*
X51400000Y-55694000D01*
X53600000Y-53500000D02*
X53600000Y-51750000D01*
D24*
X53500000Y-65250000D02*
X52578000Y-64328000D01*
X53650000Y-65250000D02*
X53500000Y-65250000D01*
D23*
X56528000Y-27770000D02*
X56528000Y-28588000D01*
X56528000Y-28588000D02*
X57404000Y-29464000D01*
D24*
X50081801Y-64218199D02*
X50038000Y-64262000D01*
X52578000Y-64328000D02*
X52468199Y-64218199D01*
X52468199Y-64218199D02*
X50081801Y-64218199D01*
X60100000Y-65180000D02*
X60100000Y-65250000D01*
X60510000Y-64712000D02*
X60510000Y-64770000D01*
X49530000Y-61214000D02*
X49696601Y-61047399D01*
X49276000Y-61214000D02*
X49530000Y-61214000D01*
X49696601Y-61047399D02*
X59523399Y-61047399D01*
X59523399Y-61047399D02*
X61468000Y-62992000D01*
X60510000Y-64770000D02*
X60100000Y-65180000D01*
X61468000Y-62992000D02*
X61468000Y-63754000D01*
X61468000Y-63754000D02*
X60510000Y-64712000D01*
D26*
X65466000Y-47728000D02*
X65466000Y-45786000D01*
D24*
X65466000Y-45786000D02*
X65786000Y-45466000D01*
D23*
X54454000Y-50000000D02*
X53600000Y-50000000D01*
X55244000Y-50000000D02*
X54454000Y-50000000D01*
X56896000Y-48348000D02*
X55244000Y-50000000D01*
X56896000Y-47244000D02*
X56896000Y-48348000D01*
X60750000Y-48300000D02*
X60750000Y-47750000D01*
X61550000Y-49100000D02*
X60750000Y-48300000D01*
X61550000Y-51750000D02*
X61550000Y-49100000D01*
X60772000Y-47728000D02*
X60750000Y-47750000D01*
X63566000Y-47728000D02*
X60772000Y-47728000D01*
X51250000Y-50000000D02*
X50546000Y-49296000D01*
X51400000Y-50000000D02*
X51250000Y-50000000D01*
X50546000Y-49296000D02*
X50546000Y-47498000D01*
X50546000Y-47498000D02*
X53340000Y-44704000D01*
X60800000Y-52500000D02*
X61550000Y-51750000D01*
X60400000Y-52500000D02*
X60800000Y-52500000D01*
X58166000Y-52070000D02*
X56896000Y-50800000D01*
X56896000Y-50800000D02*
X52350000Y-50800000D01*
X58900000Y-52800000D02*
X58166000Y-52070000D01*
X52350000Y-50800000D02*
X51550000Y-50000000D01*
X51550000Y-50000000D02*
X51400000Y-50000000D01*
X58050000Y-65100000D02*
X57900000Y-65250000D01*
X58050000Y-63500000D02*
X58050000Y-65100000D01*
X57900000Y-65250000D02*
X57900000Y-67000000D01*
X57900000Y-67704000D02*
X57800000Y-67804000D01*
X57900000Y-67000000D02*
X57900000Y-67704000D01*
X57804000Y-67808000D02*
X57804000Y-68642000D01*
X57800000Y-67804000D02*
X57804000Y-67808000D01*
X60338000Y-27770000D02*
X60338000Y-29070000D01*
X60338000Y-29070000D02*
X59944000Y-29464000D01*
X55748190Y-62052190D02*
X51384190Y-62052190D01*
X58050000Y-63500000D02*
X57196000Y-63500000D01*
X57196000Y-63500000D02*
X55748190Y-62052190D01*
X51384190Y-62052190D02*
X51308000Y-61976000D01*
X51308000Y-61976000D02*
X51308000Y-61829200D01*
X54228000Y-38100000D02*
X54258000Y-38130000D01*
X52324000Y-38100000D02*
X54228000Y-38100000D01*
X54258000Y-36860000D02*
X52354000Y-36860000D01*
X52354000Y-36860000D02*
X52324000Y-36830000D01*
X63158000Y-53500000D02*
X63158000Y-55250000D01*
X61700000Y-44750000D02*
X61700000Y-45300000D01*
X61700000Y-45300000D02*
X60772000Y-46228000D01*
X60772000Y-46228000D02*
X60373358Y-46228000D01*
X60373358Y-46228000D02*
X59690000Y-46911358D01*
X59690000Y-46911358D02*
X59690000Y-48768000D01*
X60351000Y-49149000D02*
X60071000Y-49149000D01*
X60536000Y-49334000D02*
X60351000Y-49149000D01*
X60536000Y-50038000D02*
X60536000Y-49334000D01*
X60071000Y-49149000D02*
X59690000Y-48768000D01*
X60536000Y-50742000D02*
X60536000Y-50038000D01*
X62304000Y-53500000D02*
X61504000Y-54300000D01*
X63158000Y-53500000D02*
X62304000Y-53500000D01*
X61504000Y-54300000D02*
X60400000Y-54300000D01*
X60400000Y-54300000D02*
X59690000Y-53590000D01*
X59690000Y-53590000D02*
X59690000Y-51588000D01*
X59690000Y-51588000D02*
X60536000Y-50742000D01*
X54840000Y-57766000D02*
X53678000Y-58928000D01*
X54840000Y-57084000D02*
X54840000Y-57766000D01*
X56044000Y-57084000D02*
X54840000Y-57084000D01*
X57110000Y-57084000D02*
X56044000Y-57084000D01*
X58250000Y-58224000D02*
X57110000Y-57084000D01*
X58250000Y-58928000D02*
X58250000Y-58224000D01*
X62950000Y-52354000D02*
X63174000Y-52578000D01*
X62950000Y-51750000D02*
X62950000Y-52354000D01*
X65700000Y-51800000D02*
X65700000Y-51750000D01*
X64922000Y-52578000D02*
X65700000Y-51800000D01*
X63174000Y-52578000D02*
X64922000Y-52578000D01*
X60700000Y-53400000D02*
X61666642Y-52832000D01*
X61918000Y-52832000D02*
X61666642Y-52832000D01*
X62950000Y-51800000D02*
X61918000Y-52832000D01*
X62950000Y-51750000D02*
X62950000Y-51800000D01*
X58336000Y-50038000D02*
X58336000Y-45804000D01*
X58336000Y-45804000D02*
X58674000Y-45466000D01*
X57748000Y-40416000D02*
X57748000Y-41270000D01*
X58286000Y-39878000D02*
X57748000Y-40416000D01*
X60960000Y-39878000D02*
X58286000Y-39878000D01*
X54258000Y-33050000D02*
X53404000Y-33050000D01*
X51478000Y-58224000D02*
X51478000Y-58928000D01*
X53404000Y-33050000D02*
X52578000Y-33876000D01*
X52578000Y-33876000D02*
X52578000Y-35306000D01*
X49022000Y-38862000D02*
X49022000Y-55768000D01*
X52578000Y-35306000D02*
X49022000Y-38862000D01*
X49022000Y-55768000D02*
X51478000Y-58224000D01*
X63162000Y-50612000D02*
X64300000Y-51750000D01*
X63162000Y-50038000D02*
X63162000Y-50612000D01*
X63162000Y-50038000D02*
X63162000Y-49446000D01*
X63162000Y-49446000D02*
X62484000Y-48768000D01*
X58289106Y-34320000D02*
X63246000Y-39276894D01*
X54258000Y-34320000D02*
X58289106Y-34320000D01*
X63246000Y-39276894D02*
X63246000Y-45897801D01*
X54258000Y-30510000D02*
X53943642Y-30510000D01*
X49342000Y-34798000D02*
X50096801Y-34043199D01*
X49192000Y-34798000D02*
X49342000Y-34798000D01*
X53564000Y-30510000D02*
X54258000Y-30510000D01*
X53404000Y-30510000D02*
X54258000Y-30510000D01*
X51901999Y-32012001D02*
X53404000Y-30510000D01*
X51553999Y-32012001D02*
X51901999Y-32012001D01*
X51054000Y-32512000D02*
X51553999Y-32012001D01*
X50229907Y-34043199D02*
X50096801Y-34043199D01*
X51054000Y-33219106D02*
X50229907Y-34043199D01*
X51054000Y-32512000D02*
X51054000Y-33219106D01*
G36*
X53873000Y-107440003D02*
G01*
X53873000Y-160000000D01*
X53875440Y-160024776D01*
X53882667Y-160048601D01*
X53894403Y-160070557D01*
X53910197Y-160089803D01*
X55910197Y-162089803D01*
X55929443Y-162105597D01*
X55951399Y-162117333D01*
X55975224Y-162124560D01*
X56000000Y-162127000D01*
X60000000Y-162127000D01*
X60024776Y-162124560D01*
X60048601Y-162117333D01*
X60070557Y-162105597D01*
X60089803Y-162089803D01*
X62089803Y-160089803D01*
X62105597Y-160070557D01*
X62117333Y-160048601D01*
X62124560Y-160024776D01*
X62127000Y-160000000D01*
X62127000Y-107463997D01*
X66473000Y-107476631D01*
X66473000Y-161004033D01*
X65746126Y-162053961D01*
X58000210Y-173177457D01*
X49527000Y-160960270D01*
X49527000Y-107427369D01*
X53873000Y-107440003D01*
X53873000Y-107440003D01*
G37*
X53873000Y-107440003D02*
X53873000Y-160000000D01*
X53875440Y-160024776D01*
X53882667Y-160048601D01*
X53894403Y-160070557D01*
X53910197Y-160089803D01*
X55910197Y-162089803D01*
X55929443Y-162105597D01*
X55951399Y-162117333D01*
X55975224Y-162124560D01*
X56000000Y-162127000D01*
X60000000Y-162127000D01*
X60024776Y-162124560D01*
X60048601Y-162117333D01*
X60070557Y-162105597D01*
X60089803Y-162089803D01*
X62089803Y-160089803D01*
X62105597Y-160070557D01*
X62117333Y-160048601D01*
X62124560Y-160024776D01*
X62127000Y-160000000D01*
X62127000Y-107463997D01*
X66473000Y-107476631D01*
X66473000Y-161004033D01*
X65746126Y-162053961D01*
X58000210Y-173177457D01*
X49527000Y-160960270D01*
X49527000Y-107427369D01*
X53873000Y-107440003D01*
G36*
X61223000Y-35250000D02*
G01*
X61225440Y-35274776D01*
X61232667Y-35298601D01*
X61244403Y-35320557D01*
X61260197Y-35339803D01*
X61279443Y-35355597D01*
X61301399Y-35367333D01*
X61325224Y-35374560D01*
X61350000Y-35377000D01*
X67569001Y-35377000D01*
X67569000Y-101821474D01*
X66710204Y-102680271D01*
X66693764Y-102693763D01*
X66639904Y-102759391D01*
X66604531Y-102825571D01*
X66599883Y-102834266D01*
X66575237Y-102915510D01*
X66566916Y-103000000D01*
X66569001Y-103021171D01*
X66569001Y-107310323D01*
X60058000Y-107285946D01*
X60058000Y-69462925D01*
X60111403Y-69397853D01*
X60178910Y-69271557D01*
X60220480Y-69134517D01*
X60234517Y-68992000D01*
X60234517Y-68292000D01*
X60220480Y-68149483D01*
X60200920Y-68085000D01*
X60227002Y-68085000D01*
X60227002Y-67926252D01*
X60385750Y-68085000D01*
X60700000Y-68088072D01*
X60824482Y-68075812D01*
X60944180Y-68039502D01*
X61054494Y-67980537D01*
X61151185Y-67901185D01*
X61230537Y-67804494D01*
X61289502Y-67694180D01*
X61325812Y-67574482D01*
X61338072Y-67450000D01*
X61335000Y-67285750D01*
X61176250Y-67127000D01*
X60227000Y-67127000D01*
X60227000Y-67147000D01*
X59973000Y-67147000D01*
X59973000Y-67127000D01*
X59953000Y-67127000D01*
X59953000Y-66873000D01*
X59973000Y-66873000D01*
X59973000Y-66853000D01*
X60227000Y-66853000D01*
X60227000Y-66873000D01*
X61176250Y-66873000D01*
X61335000Y-66714250D01*
X61338072Y-66550000D01*
X61325812Y-66425518D01*
X61289502Y-66305820D01*
X61230537Y-66195506D01*
X61151185Y-66098815D01*
X61054494Y-66019463D01*
X60967783Y-65973114D01*
X60970711Y-65970711D01*
X61018322Y-65912696D01*
X61053701Y-65846508D01*
X61075487Y-65774689D01*
X61082843Y-65700000D01*
X61082843Y-65045347D01*
X61092219Y-65027805D01*
X61894960Y-64225066D01*
X61919185Y-64205185D01*
X61939065Y-64180961D01*
X61939069Y-64180957D01*
X61998538Y-64108494D01*
X62057502Y-63998180D01*
X62064986Y-63973507D01*
X62093812Y-63878482D01*
X62103000Y-63785192D01*
X62103000Y-63785189D01*
X62106072Y-63754000D01*
X62103000Y-63722811D01*
X62103000Y-63023180D01*
X62106071Y-62991999D01*
X62103000Y-62960818D01*
X62103000Y-62960808D01*
X62093812Y-62867518D01*
X62057502Y-62747820D01*
X61998537Y-62637506D01*
X61919185Y-62540815D01*
X61894956Y-62520931D01*
X60178914Y-60804889D01*
X63519000Y-60804889D01*
X63519000Y-61195111D01*
X63595129Y-61577836D01*
X63744461Y-61938355D01*
X63961257Y-62262814D01*
X64237186Y-62538743D01*
X64561645Y-62755539D01*
X64922164Y-62904871D01*
X65304889Y-62981000D01*
X65695111Y-62981000D01*
X66077836Y-62904871D01*
X66438355Y-62755539D01*
X66762814Y-62538743D01*
X67038743Y-62262814D01*
X67255539Y-61938355D01*
X67404871Y-61577836D01*
X67481000Y-61195111D01*
X67481000Y-60804889D01*
X67404871Y-60422164D01*
X67255539Y-60061645D01*
X67038743Y-59737186D01*
X66762814Y-59461257D01*
X66438355Y-59244461D01*
X66077836Y-59095129D01*
X65695111Y-59019000D01*
X65304889Y-59019000D01*
X64922164Y-59095129D01*
X64561645Y-59244461D01*
X64237186Y-59461257D01*
X63961257Y-59737186D01*
X63744461Y-60061645D01*
X63595129Y-60422164D01*
X63519000Y-60804889D01*
X60178914Y-60804889D01*
X59994473Y-60620449D01*
X59974584Y-60596214D01*
X59877893Y-60516862D01*
X59767579Y-60457897D01*
X59647881Y-60421587D01*
X59554591Y-60412399D01*
X59554580Y-60412399D01*
X59523399Y-60409328D01*
X59492218Y-60412399D01*
X49727781Y-60412399D01*
X49696600Y-60409328D01*
X49665419Y-60412399D01*
X49665409Y-60412399D01*
X49647247Y-60414188D01*
X49532978Y-60366856D01*
X49362771Y-60333000D01*
X49189229Y-60333000D01*
X49019022Y-60366856D01*
X48858690Y-60433268D01*
X48714395Y-60529682D01*
X48591682Y-60652395D01*
X48495268Y-60796690D01*
X48431000Y-60951846D01*
X48431000Y-35593955D01*
X48445492Y-35601701D01*
X48517311Y-35623487D01*
X48592000Y-35630843D01*
X49792000Y-35630843D01*
X49866689Y-35623487D01*
X49938508Y-35601701D01*
X50004696Y-35566322D01*
X50062711Y-35518711D01*
X50110322Y-35460696D01*
X50145701Y-35394508D01*
X50162804Y-35338126D01*
X50166188Y-35372482D01*
X50202498Y-35492180D01*
X50261463Y-35602494D01*
X50340815Y-35699185D01*
X50437506Y-35778537D01*
X50547820Y-35837502D01*
X50667518Y-35873812D01*
X50792000Y-35886072D01*
X51106250Y-35883000D01*
X51264998Y-35724252D01*
X51264998Y-35883000D01*
X51282579Y-35883000D01*
X48680435Y-38485145D01*
X48661052Y-38501052D01*
X48597571Y-38578405D01*
X48550399Y-38666658D01*
X48521351Y-38762416D01*
X48515471Y-38822121D01*
X48511543Y-38862000D01*
X48514000Y-38886944D01*
X48514001Y-55743046D01*
X48511543Y-55768000D01*
X48521352Y-55867584D01*
X48550400Y-55963343D01*
X48597571Y-56051595D01*
X48617179Y-56075487D01*
X48661053Y-56128948D01*
X48680430Y-56144850D01*
X50684824Y-58149244D01*
X50665304Y-58159678D01*
X50607289Y-58207289D01*
X50559678Y-58265304D01*
X50524299Y-58331492D01*
X50502513Y-58403311D01*
X50495157Y-58478000D01*
X50495157Y-59378000D01*
X50502513Y-59452689D01*
X50524299Y-59524508D01*
X50559678Y-59590696D01*
X50607289Y-59648711D01*
X50665304Y-59696322D01*
X50731492Y-59731701D01*
X50803311Y-59753487D01*
X50878000Y-59760843D01*
X52078000Y-59760843D01*
X52152689Y-59753487D01*
X52224508Y-59731701D01*
X52290696Y-59696322D01*
X52348711Y-59648711D01*
X52396322Y-59590696D01*
X52431701Y-59524508D01*
X52453487Y-59452689D01*
X52460843Y-59378000D01*
X52460843Y-58478000D01*
X52695157Y-58478000D01*
X52695157Y-59378000D01*
X52702513Y-59452689D01*
X52724299Y-59524508D01*
X52759678Y-59590696D01*
X52807289Y-59648711D01*
X52865304Y-59696322D01*
X52931492Y-59731701D01*
X53003311Y-59753487D01*
X53078000Y-59760843D01*
X54278000Y-59760843D01*
X54352689Y-59753487D01*
X54424508Y-59731701D01*
X54490696Y-59696322D01*
X54548711Y-59648711D01*
X54596322Y-59590696D01*
X54631701Y-59524508D01*
X54653487Y-59452689D01*
X54660843Y-59378000D01*
X54811928Y-59378000D01*
X54824188Y-59502482D01*
X54860498Y-59622180D01*
X54919463Y-59732494D01*
X54998815Y-59829185D01*
X55095506Y-59908537D01*
X55205820Y-59967502D01*
X55325518Y-60003812D01*
X55450000Y-60016072D01*
X55764250Y-60013000D01*
X55923000Y-59854250D01*
X55923000Y-59055000D01*
X54973750Y-59055000D01*
X54815000Y-59213750D01*
X54811928Y-59378000D01*
X54660843Y-59378000D01*
X54660843Y-58663578D01*
X54812561Y-58511859D01*
X54815000Y-58642250D01*
X54973750Y-58801000D01*
X55923000Y-58801000D01*
X55923000Y-58001750D01*
X55788093Y-57866843D01*
X55790000Y-57866843D01*
X55864689Y-57859487D01*
X55936508Y-57837701D01*
X56002696Y-57802322D01*
X56060711Y-57754711D01*
X56108322Y-57696696D01*
X56143701Y-57630508D01*
X56155382Y-57592000D01*
X56899580Y-57592000D01*
X57456824Y-58149244D01*
X57437304Y-58159678D01*
X57379289Y-58207289D01*
X57331678Y-58265304D01*
X57296299Y-58331492D01*
X57279196Y-58387874D01*
X57275812Y-58353518D01*
X57239502Y-58233820D01*
X57180537Y-58123506D01*
X57101185Y-58026815D01*
X57004494Y-57947463D01*
X56894180Y-57888498D01*
X56774482Y-57852188D01*
X56650000Y-57839928D01*
X56335750Y-57843000D01*
X56177000Y-58001750D01*
X56177000Y-58801000D01*
X56197000Y-58801000D01*
X56197000Y-59055000D01*
X56177000Y-59055000D01*
X56177000Y-59854250D01*
X56335750Y-60013000D01*
X56650000Y-60016072D01*
X56774482Y-60003812D01*
X56894180Y-59967502D01*
X57004494Y-59908537D01*
X57101185Y-59829185D01*
X57180537Y-59732494D01*
X57239502Y-59622180D01*
X57275812Y-59502482D01*
X57279196Y-59468126D01*
X57296299Y-59524508D01*
X57331678Y-59590696D01*
X57379289Y-59648711D01*
X57437304Y-59696322D01*
X57503492Y-59731701D01*
X57575311Y-59753487D01*
X57650000Y-59760843D01*
X58850000Y-59760843D01*
X58924689Y-59753487D01*
X58996508Y-59731701D01*
X59062696Y-59696322D01*
X59120711Y-59648711D01*
X59168322Y-59590696D01*
X59203701Y-59524508D01*
X59225487Y-59452689D01*
X59232843Y-59378000D01*
X59232843Y-58478000D01*
X59225487Y-58403311D01*
X59203701Y-58331492D01*
X59168322Y-58265304D01*
X59120711Y-58207289D01*
X59062696Y-58159678D01*
X58996508Y-58124299D01*
X58924689Y-58102513D01*
X58850000Y-58095157D01*
X58741774Y-58095157D01*
X58721601Y-58028657D01*
X58721600Y-58028655D01*
X58674429Y-57940404D01*
X58626850Y-57882429D01*
X58610948Y-57863052D01*
X58591571Y-57847150D01*
X57486855Y-56742435D01*
X57470948Y-56723052D01*
X57393595Y-56659571D01*
X57305343Y-56612399D01*
X57209585Y-56583351D01*
X57134947Y-56576000D01*
X57134944Y-56576000D01*
X57110000Y-56573543D01*
X57085056Y-56576000D01*
X56155382Y-56576000D01*
X56143701Y-56537492D01*
X56108322Y-56471304D01*
X56060711Y-56413289D01*
X56002696Y-56365678D01*
X55936508Y-56330299D01*
X55864689Y-56308513D01*
X55790000Y-56301157D01*
X53890000Y-56301157D01*
X53815311Y-56308513D01*
X53743492Y-56330299D01*
X53677304Y-56365678D01*
X53619289Y-56413289D01*
X53571678Y-56471304D01*
X53536299Y-56537492D01*
X53514513Y-56609311D01*
X53507157Y-56684000D01*
X53507157Y-57484000D01*
X53514513Y-57558689D01*
X53536299Y-57630508D01*
X53571678Y-57696696D01*
X53619289Y-57754711D01*
X53677304Y-57802322D01*
X53743492Y-57837701D01*
X53815311Y-57859487D01*
X53890000Y-57866843D01*
X54020736Y-57866843D01*
X53792423Y-58095157D01*
X53078000Y-58095157D01*
X53003311Y-58102513D01*
X52931492Y-58124299D01*
X52865304Y-58159678D01*
X52807289Y-58207289D01*
X52759678Y-58265304D01*
X52724299Y-58331492D01*
X52702513Y-58403311D01*
X52695157Y-58478000D01*
X52460843Y-58478000D01*
X52453487Y-58403311D01*
X52431701Y-58331492D01*
X52396322Y-58265304D01*
X52348711Y-58207289D01*
X52290696Y-58159678D01*
X52224508Y-58124299D01*
X52152689Y-58102513D01*
X52078000Y-58095157D01*
X51969774Y-58095157D01*
X51949601Y-58028657D01*
X51902429Y-57940405D01*
X51838948Y-57863052D01*
X51819565Y-57847145D01*
X50889182Y-56916762D01*
X50890000Y-56916843D01*
X52790000Y-56916843D01*
X52864689Y-56909487D01*
X52936508Y-56887701D01*
X53002696Y-56852322D01*
X53060711Y-56804711D01*
X53108322Y-56746696D01*
X53143701Y-56680508D01*
X53165487Y-56608689D01*
X53172843Y-56534000D01*
X53172843Y-55734000D01*
X53165487Y-55659311D01*
X53143701Y-55587492D01*
X53141835Y-55584000D01*
X53251928Y-55584000D01*
X53264188Y-55708482D01*
X53300498Y-55828180D01*
X53359463Y-55938494D01*
X53438815Y-56035185D01*
X53535506Y-56114537D01*
X53645820Y-56173502D01*
X53765518Y-56209812D01*
X53890000Y-56222072D01*
X54554250Y-56219000D01*
X54713000Y-56060250D01*
X54713000Y-55311000D01*
X54967000Y-55311000D01*
X54967000Y-56060250D01*
X55125750Y-56219000D01*
X55790000Y-56222072D01*
X55914482Y-56209812D01*
X56034180Y-56173502D01*
X56144494Y-56114537D01*
X56241185Y-56035185D01*
X56320537Y-55938494D01*
X56379502Y-55828180D01*
X56415812Y-55708482D01*
X56428072Y-55584000D01*
X56425000Y-55469750D01*
X56266250Y-55311000D01*
X54967000Y-55311000D01*
X54713000Y-55311000D01*
X53413750Y-55311000D01*
X53255000Y-55469750D01*
X53251928Y-55584000D01*
X53141835Y-55584000D01*
X53108322Y-55521304D01*
X53060711Y-55463289D01*
X53002696Y-55415678D01*
X52936508Y-55380299D01*
X52864689Y-55358513D01*
X52790000Y-55351157D01*
X51908000Y-55351157D01*
X51908000Y-54332843D01*
X52000000Y-54332843D01*
X52074689Y-54325487D01*
X52146508Y-54303701D01*
X52212696Y-54268322D01*
X52270711Y-54220711D01*
X52318322Y-54162696D01*
X52353701Y-54096508D01*
X52375487Y-54024689D01*
X52382843Y-53950000D01*
X52382843Y-53050000D01*
X52375487Y-52975311D01*
X52353701Y-52903492D01*
X52318322Y-52837304D01*
X52270711Y-52779289D01*
X52212696Y-52731678D01*
X52146508Y-52696299D01*
X52074689Y-52674513D01*
X52000000Y-52667157D01*
X50800000Y-52667157D01*
X50725311Y-52674513D01*
X50653492Y-52696299D01*
X50587304Y-52731678D01*
X50529289Y-52779289D01*
X50481678Y-52837304D01*
X50446299Y-52903492D01*
X50424513Y-52975311D01*
X50417157Y-53050000D01*
X50417157Y-53950000D01*
X50424513Y-54024689D01*
X50446299Y-54096508D01*
X50481678Y-54162696D01*
X50529289Y-54220711D01*
X50587304Y-54268322D01*
X50653492Y-54303701D01*
X50725311Y-54325487D01*
X50800000Y-54332843D01*
X50892000Y-54332843D01*
X50892001Y-55351157D01*
X50890000Y-55351157D01*
X50815311Y-55358513D01*
X50743492Y-55380299D01*
X50677304Y-55415678D01*
X50619289Y-55463289D01*
X50571678Y-55521304D01*
X50536299Y-55587492D01*
X50514513Y-55659311D01*
X50507157Y-55734000D01*
X50507157Y-56534000D01*
X50507238Y-56534818D01*
X49530000Y-55557580D01*
X49530000Y-43055107D01*
X49543678Y-43080696D01*
X49591289Y-43138711D01*
X49649304Y-43186322D01*
X49715492Y-43221701D01*
X49787311Y-43243487D01*
X49862000Y-43250843D01*
X50006494Y-43250843D01*
X50037571Y-43308985D01*
X50074878Y-43354443D01*
X50101053Y-43386338D01*
X50120430Y-43402240D01*
X50901610Y-44183420D01*
X50901610Y-44267997D01*
X50929702Y-44409225D01*
X50984806Y-44542258D01*
X51054000Y-44645815D01*
X51054000Y-44747580D01*
X49772620Y-46028960D01*
X49753243Y-46044862D01*
X49737341Y-46064239D01*
X49737340Y-46064240D01*
X49689761Y-46122215D01*
X49658178Y-46181304D01*
X49642590Y-46210467D01*
X49614021Y-46304648D01*
X49613542Y-46306226D01*
X49603733Y-46405810D01*
X49606191Y-46430764D01*
X49606190Y-51293246D01*
X49603733Y-51318190D01*
X49606190Y-51343134D01*
X49606190Y-51343136D01*
X49613541Y-51417774D01*
X49642589Y-51513532D01*
X49689761Y-51601785D01*
X49753242Y-51679138D01*
X49772625Y-51695045D01*
X50169145Y-52091565D01*
X50185052Y-52110948D01*
X50262405Y-52174429D01*
X50350657Y-52221601D01*
X50421398Y-52243060D01*
X50424513Y-52274689D01*
X50446299Y-52346508D01*
X50481678Y-52412696D01*
X50529289Y-52470711D01*
X50587304Y-52518322D01*
X50653492Y-52553701D01*
X50725311Y-52575487D01*
X50800000Y-52582843D01*
X52000000Y-52582843D01*
X52074689Y-52575487D01*
X52146508Y-52553701D01*
X52212696Y-52518322D01*
X52270711Y-52470711D01*
X52318322Y-52412696D01*
X52353701Y-52346508D01*
X52375487Y-52274689D01*
X52382843Y-52200000D01*
X52382843Y-51308000D01*
X52617157Y-51308000D01*
X52617157Y-52200000D01*
X52624513Y-52274689D01*
X52646299Y-52346508D01*
X52681678Y-52412696D01*
X52729289Y-52470711D01*
X52787304Y-52518322D01*
X52853492Y-52553701D01*
X52925311Y-52575487D01*
X53000000Y-52582843D01*
X53092001Y-52582843D01*
X53092000Y-52667157D01*
X53000000Y-52667157D01*
X52925311Y-52674513D01*
X52853492Y-52696299D01*
X52787304Y-52731678D01*
X52729289Y-52779289D01*
X52681678Y-52837304D01*
X52646299Y-52903492D01*
X52624513Y-52975311D01*
X52617157Y-53050000D01*
X52617157Y-53950000D01*
X52624513Y-54024689D01*
X52646299Y-54096508D01*
X52681678Y-54162696D01*
X52729289Y-54220711D01*
X52787304Y-54268322D01*
X52853492Y-54303701D01*
X52925311Y-54325487D01*
X53000000Y-54332843D01*
X53438792Y-54332843D01*
X53359463Y-54429506D01*
X53300498Y-54539820D01*
X53264188Y-54659518D01*
X53251928Y-54784000D01*
X53255000Y-54898250D01*
X53413750Y-55057000D01*
X54713000Y-55057000D01*
X54713000Y-54307750D01*
X54967000Y-54307750D01*
X54967000Y-55057000D01*
X56266250Y-55057000D01*
X56425000Y-54898250D01*
X56428072Y-54784000D01*
X56415812Y-54659518D01*
X56379502Y-54539820D01*
X56320537Y-54429506D01*
X56241185Y-54332815D01*
X56144494Y-54253463D01*
X56034180Y-54194498D01*
X55914482Y-54158188D01*
X55790000Y-54145928D01*
X55125750Y-54149000D01*
X54967000Y-54307750D01*
X54713000Y-54307750D01*
X54554250Y-54149000D01*
X54525713Y-54148868D01*
X54553701Y-54096508D01*
X54575487Y-54024689D01*
X54582843Y-53950000D01*
X54582843Y-53050000D01*
X54575487Y-52975311D01*
X54553701Y-52903492D01*
X54518322Y-52837304D01*
X54470711Y-52779289D01*
X54412696Y-52731678D01*
X54346508Y-52696299D01*
X54274689Y-52674513D01*
X54200000Y-52667157D01*
X54108000Y-52667157D01*
X54108000Y-52582843D01*
X54200000Y-52582843D01*
X54274689Y-52575487D01*
X54346508Y-52553701D01*
X54412696Y-52518322D01*
X54470711Y-52470711D01*
X54518322Y-52412696D01*
X54553701Y-52346508D01*
X54575487Y-52274689D01*
X54582843Y-52200000D01*
X54582843Y-51308000D01*
X56685580Y-51308000D01*
X57789650Y-52412071D01*
X57790085Y-52412598D01*
X57806977Y-52429398D01*
X57824429Y-52446850D01*
X57824976Y-52447299D01*
X58169000Y-52789449D01*
X58169000Y-52871997D01*
X58197092Y-53013225D01*
X58252196Y-53146258D01*
X58332195Y-53265985D01*
X58434015Y-53367805D01*
X58553742Y-53447804D01*
X58686775Y-53502908D01*
X58828003Y-53531000D01*
X58971997Y-53531000D01*
X59113225Y-53502908D01*
X59182000Y-53474420D01*
X59182000Y-53565056D01*
X59179543Y-53590000D01*
X59182000Y-53614944D01*
X59182000Y-53614946D01*
X59189351Y-53689584D01*
X59218399Y-53785342D01*
X59265571Y-53873595D01*
X59329052Y-53950948D01*
X59348435Y-53966855D01*
X60023145Y-54641565D01*
X60039052Y-54660948D01*
X60116405Y-54724429D01*
X60204657Y-54771601D01*
X60300415Y-54800649D01*
X60375053Y-54808000D01*
X60375056Y-54808000D01*
X60400000Y-54810457D01*
X60424944Y-54808000D01*
X61479056Y-54808000D01*
X61504000Y-54810457D01*
X61528944Y-54808000D01*
X61528947Y-54808000D01*
X61603585Y-54800649D01*
X61699343Y-54771601D01*
X61787595Y-54724429D01*
X61864948Y-54660948D01*
X61880855Y-54641565D01*
X62295209Y-54227211D01*
X62345304Y-54268322D01*
X62411492Y-54303701D01*
X62483311Y-54325487D01*
X62558000Y-54332843D01*
X62650000Y-54332843D01*
X62650001Y-54417157D01*
X62558000Y-54417157D01*
X62483311Y-54424513D01*
X62411492Y-54446299D01*
X62345304Y-54481678D01*
X62287289Y-54529289D01*
X62239678Y-54587304D01*
X62204299Y-54653492D01*
X62182513Y-54725311D01*
X62175157Y-54800000D01*
X62175157Y-55700000D01*
X62182513Y-55774689D01*
X62204299Y-55846508D01*
X62239678Y-55912696D01*
X62287289Y-55970711D01*
X62345304Y-56018322D01*
X62411492Y-56053701D01*
X62483311Y-56075487D01*
X62558000Y-56082843D01*
X63758000Y-56082843D01*
X63832689Y-56075487D01*
X63904508Y-56053701D01*
X63970696Y-56018322D01*
X64028711Y-55970711D01*
X64076322Y-55912696D01*
X64111701Y-55846508D01*
X64133487Y-55774689D01*
X64140843Y-55700000D01*
X64140843Y-54800000D01*
X64133487Y-54725311D01*
X64111701Y-54653492D01*
X64076322Y-54587304D01*
X64028711Y-54529289D01*
X63970696Y-54481678D01*
X63904508Y-54446299D01*
X63832689Y-54424513D01*
X63758000Y-54417157D01*
X63666000Y-54417157D01*
X63666000Y-54332843D01*
X63758000Y-54332843D01*
X63832689Y-54325487D01*
X63904508Y-54303701D01*
X63970696Y-54268322D01*
X64028711Y-54220711D01*
X64076322Y-54162696D01*
X64111701Y-54096508D01*
X64128804Y-54040126D01*
X64132188Y-54074482D01*
X64168498Y-54194180D01*
X64227463Y-54304494D01*
X64306815Y-54401185D01*
X64403506Y-54480537D01*
X64490217Y-54526886D01*
X64487289Y-54529289D01*
X64439678Y-54587304D01*
X64404299Y-54653492D01*
X64382513Y-54725311D01*
X64375157Y-54800000D01*
X64375157Y-55700000D01*
X64382513Y-55774689D01*
X64404299Y-55846508D01*
X64439678Y-55912696D01*
X64487289Y-55970711D01*
X64545304Y-56018322D01*
X64611492Y-56053701D01*
X64683311Y-56075487D01*
X64758000Y-56082843D01*
X65958000Y-56082843D01*
X66032689Y-56075487D01*
X66104508Y-56053701D01*
X66170696Y-56018322D01*
X66228711Y-55970711D01*
X66276322Y-55912696D01*
X66311701Y-55846508D01*
X66333487Y-55774689D01*
X66336602Y-55743060D01*
X66407343Y-55721601D01*
X66495595Y-55674429D01*
X66572948Y-55610948D01*
X66588855Y-55591565D01*
X66889560Y-55290859D01*
X66908948Y-55274948D01*
X66972429Y-55197595D01*
X67019601Y-55109343D01*
X67048649Y-55013585D01*
X67056000Y-54938947D01*
X67056000Y-54938944D01*
X67058457Y-54914000D01*
X67056000Y-54889052D01*
X67056000Y-51098943D01*
X67058457Y-51073999D01*
X67055729Y-51046299D01*
X67048649Y-50974415D01*
X67019601Y-50878657D01*
X67015424Y-50870843D01*
X66972429Y-50790404D01*
X66924850Y-50732429D01*
X66908948Y-50713052D01*
X66889571Y-50697150D01*
X66344843Y-50152423D01*
X66344843Y-49588000D01*
X66337487Y-49513311D01*
X66315701Y-49441492D01*
X66280322Y-49375304D01*
X66232711Y-49317289D01*
X66174696Y-49269678D01*
X66108508Y-49234299D01*
X66036689Y-49212513D01*
X65962000Y-49205157D01*
X65024000Y-49205157D01*
X65024000Y-49056706D01*
X65066000Y-49060843D01*
X65866000Y-49060843D01*
X65940689Y-49053487D01*
X66012508Y-49031701D01*
X66078696Y-48996322D01*
X66136711Y-48948711D01*
X66184322Y-48890696D01*
X66219701Y-48824508D01*
X66241487Y-48752689D01*
X66248843Y-48678000D01*
X66248843Y-46778000D01*
X66241487Y-46703311D01*
X66219701Y-46631492D01*
X66184322Y-46565304D01*
X66136711Y-46507289D01*
X66097000Y-46474699D01*
X66097000Y-46128408D01*
X66132258Y-46113804D01*
X66251985Y-46033805D01*
X66353805Y-45931985D01*
X66433804Y-45812258D01*
X66488908Y-45679225D01*
X66517000Y-45537997D01*
X66517000Y-45394003D01*
X66488908Y-45252775D01*
X66433804Y-45119742D01*
X66353805Y-45000015D01*
X66251985Y-44898195D01*
X66132258Y-44818196D01*
X65999225Y-44763092D01*
X65857997Y-44735000D01*
X65714003Y-44735000D01*
X65572775Y-44763092D01*
X65439742Y-44818196D01*
X65320015Y-44898195D01*
X65298843Y-44919367D01*
X65298843Y-44663577D01*
X65873571Y-44088850D01*
X65892948Y-44072948D01*
X65918687Y-44041585D01*
X65956429Y-43995596D01*
X65987706Y-43937080D01*
X66003601Y-43907343D01*
X66032649Y-43811585D01*
X66040000Y-43736947D01*
X66040000Y-43736944D01*
X66042457Y-43712000D01*
X66041680Y-43704110D01*
X66099805Y-43645985D01*
X66179804Y-43526258D01*
X66234908Y-43393225D01*
X66263000Y-43251997D01*
X66263000Y-43108003D01*
X66234908Y-42966775D01*
X66179804Y-42833742D01*
X66099805Y-42714015D01*
X65997985Y-42612195D01*
X65878258Y-42532196D01*
X65745225Y-42477092D01*
X65603997Y-42449000D01*
X65460003Y-42449000D01*
X65318775Y-42477092D01*
X65185742Y-42532196D01*
X65066015Y-42612195D01*
X65024000Y-42654210D01*
X65024000Y-40257495D01*
X65083311Y-40275487D01*
X65158000Y-40282843D01*
X66358000Y-40282843D01*
X66432689Y-40275487D01*
X66504508Y-40253701D01*
X66570696Y-40218322D01*
X66628711Y-40170711D01*
X66676322Y-40112696D01*
X66711701Y-40046508D01*
X66733487Y-39974689D01*
X66740843Y-39900000D01*
X66740843Y-38900000D01*
X66733487Y-38825311D01*
X66715192Y-38765000D01*
X66733487Y-38704689D01*
X66740843Y-38630000D01*
X66740843Y-37630000D01*
X66733487Y-37555311D01*
X66715192Y-37495000D01*
X66733487Y-37434689D01*
X66740843Y-37360000D01*
X66740843Y-36360000D01*
X66733487Y-36285311D01*
X66711701Y-36213492D01*
X66676322Y-36147304D01*
X66628711Y-36089289D01*
X66570696Y-36041678D01*
X66504508Y-36006299D01*
X66432689Y-35984513D01*
X66358000Y-35977157D01*
X65158000Y-35977157D01*
X65083311Y-35984513D01*
X65011492Y-36006299D01*
X64945304Y-36041678D01*
X64887289Y-36089289D01*
X64839678Y-36147304D01*
X64804299Y-36213492D01*
X64782513Y-36285311D01*
X64775157Y-36360000D01*
X64775157Y-37360000D01*
X64782513Y-37434689D01*
X64800808Y-37495000D01*
X64782513Y-37555311D01*
X64775157Y-37630000D01*
X64775157Y-38387805D01*
X62113787Y-35726435D01*
X62097880Y-35707052D01*
X62020527Y-35643571D01*
X61932275Y-35596399D01*
X61836517Y-35567351D01*
X61761879Y-35560000D01*
X61761876Y-35560000D01*
X61736932Y-35557543D01*
X61711988Y-35560000D01*
X60916421Y-35560000D01*
X57912000Y-32555580D01*
X57912000Y-30794943D01*
X57914457Y-30769999D01*
X57908089Y-30705345D01*
X57904649Y-30670415D01*
X57875601Y-30574657D01*
X57875600Y-30574655D01*
X57828429Y-30486404D01*
X57780850Y-30428429D01*
X57764948Y-30409052D01*
X57745571Y-30393150D01*
X57535571Y-30183150D01*
X57617225Y-30166908D01*
X57750258Y-30111804D01*
X57869985Y-30031805D01*
X57971805Y-29929985D01*
X58051804Y-29810258D01*
X58106908Y-29677225D01*
X58135000Y-29535997D01*
X58135000Y-29392003D01*
X58106908Y-29250775D01*
X58051804Y-29117742D01*
X57971805Y-28998015D01*
X57869985Y-28896195D01*
X57750258Y-28816196D01*
X57617225Y-28761092D01*
X57575754Y-28752843D01*
X58298000Y-28752843D01*
X58372689Y-28745487D01*
X58433000Y-28727192D01*
X58493311Y-28745487D01*
X58560001Y-28752055D01*
X58560001Y-28830723D01*
X58462015Y-28896195D01*
X58360195Y-28998015D01*
X58280196Y-29117742D01*
X58225092Y-29250775D01*
X58197000Y-29392003D01*
X58197000Y-29535997D01*
X58225092Y-29677225D01*
X58280196Y-29810258D01*
X58360195Y-29929985D01*
X58462015Y-30031805D01*
X58581742Y-30111804D01*
X58714775Y-30166908D01*
X58856003Y-30195000D01*
X58999997Y-30195000D01*
X59141225Y-30166908D01*
X59274258Y-30111804D01*
X59393985Y-30031805D01*
X59436000Y-29989790D01*
X59478015Y-30031805D01*
X59597742Y-30111804D01*
X59730775Y-30166908D01*
X59872003Y-30195000D01*
X60015997Y-30195000D01*
X60157225Y-30166908D01*
X60290258Y-30111804D01*
X60409985Y-30031805D01*
X60511805Y-29929985D01*
X60591804Y-29810258D01*
X60646908Y-29677225D01*
X60675000Y-29535997D01*
X60675000Y-29451421D01*
X60679570Y-29446851D01*
X60698948Y-29430948D01*
X60753549Y-29364416D01*
X60762429Y-29353596D01*
X60809600Y-29265345D01*
X60814020Y-29250775D01*
X60838649Y-29169585D01*
X60846000Y-29094947D01*
X60846000Y-29094945D01*
X60848457Y-29070001D01*
X60846000Y-29045057D01*
X60846000Y-28752055D01*
X60912689Y-28745487D01*
X60984508Y-28723701D01*
X61050696Y-28688322D01*
X61108711Y-28640711D01*
X61156322Y-28582696D01*
X61191701Y-28516508D01*
X61213487Y-28444689D01*
X61220843Y-28370000D01*
X61220843Y-27170000D01*
X61213487Y-27095311D01*
X61191701Y-27023492D01*
X61156322Y-26957304D01*
X61108711Y-26899289D01*
X61050696Y-26851678D01*
X60984508Y-26816299D01*
X60912689Y-26794513D01*
X60838000Y-26787157D01*
X59838000Y-26787157D01*
X59763311Y-26794513D01*
X59703000Y-26812808D01*
X59642689Y-26794513D01*
X59568000Y-26787157D01*
X58568000Y-26787157D01*
X58493311Y-26794513D01*
X58433000Y-26812808D01*
X58372689Y-26794513D01*
X58298000Y-26787157D01*
X58283214Y-26787157D01*
X58330537Y-26729494D01*
X58389502Y-26619180D01*
X58425812Y-26499482D01*
X58438072Y-26375000D01*
X58435000Y-26285750D01*
X58276250Y-26127000D01*
X57327000Y-26127000D01*
X57327000Y-26147000D01*
X57073000Y-26147000D01*
X57073000Y-26127000D01*
X57053000Y-26127000D01*
X57053000Y-25873000D01*
X57073000Y-25873000D01*
X57073000Y-25853000D01*
X57327000Y-25853000D01*
X57327000Y-25873000D01*
X58276250Y-25873000D01*
X58435000Y-25714250D01*
X58438072Y-25625000D01*
X58425812Y-25500518D01*
X58404724Y-25431000D01*
X61223000Y-25431000D01*
X61223000Y-35250000D01*
X61223000Y-35250000D01*
G37*
X61223000Y-35250000D02*
X61225440Y-35274776D01*
X61232667Y-35298601D01*
X61244403Y-35320557D01*
X61260197Y-35339803D01*
X61279443Y-35355597D01*
X61301399Y-35367333D01*
X61325224Y-35374560D01*
X61350000Y-35377000D01*
X67569001Y-35377000D01*
X67569000Y-101821474D01*
X66710204Y-102680271D01*
X66693764Y-102693763D01*
X66639904Y-102759391D01*
X66604531Y-102825571D01*
X66599883Y-102834266D01*
X66575237Y-102915510D01*
X66566916Y-103000000D01*
X66569001Y-103021171D01*
X66569001Y-107310323D01*
X60058000Y-107285946D01*
X60058000Y-69462925D01*
X60111403Y-69397853D01*
X60178910Y-69271557D01*
X60220480Y-69134517D01*
X60234517Y-68992000D01*
X60234517Y-68292000D01*
X60220480Y-68149483D01*
X60200920Y-68085000D01*
X60227002Y-68085000D01*
X60227002Y-67926252D01*
X60385750Y-68085000D01*
X60700000Y-68088072D01*
X60824482Y-68075812D01*
X60944180Y-68039502D01*
X61054494Y-67980537D01*
X61151185Y-67901185D01*
X61230537Y-67804494D01*
X61289502Y-67694180D01*
X61325812Y-67574482D01*
X61338072Y-67450000D01*
X61335000Y-67285750D01*
X61176250Y-67127000D01*
X60227000Y-67127000D01*
X60227000Y-67147000D01*
X59973000Y-67147000D01*
X59973000Y-67127000D01*
X59953000Y-67127000D01*
X59953000Y-66873000D01*
X59973000Y-66873000D01*
X59973000Y-66853000D01*
X60227000Y-66853000D01*
X60227000Y-66873000D01*
X61176250Y-66873000D01*
X61335000Y-66714250D01*
X61338072Y-66550000D01*
X61325812Y-66425518D01*
X61289502Y-66305820D01*
X61230537Y-66195506D01*
X61151185Y-66098815D01*
X61054494Y-66019463D01*
X60967783Y-65973114D01*
X60970711Y-65970711D01*
X61018322Y-65912696D01*
X61053701Y-65846508D01*
X61075487Y-65774689D01*
X61082843Y-65700000D01*
X61082843Y-65045347D01*
X61092219Y-65027805D01*
X61894960Y-64225066D01*
X61919185Y-64205185D01*
X61939065Y-64180961D01*
X61939069Y-64180957D01*
X61998538Y-64108494D01*
X62057502Y-63998180D01*
X62064986Y-63973507D01*
X62093812Y-63878482D01*
X62103000Y-63785192D01*
X62103000Y-63785189D01*
X62106072Y-63754000D01*
X62103000Y-63722811D01*
X62103000Y-63023180D01*
X62106071Y-62991999D01*
X62103000Y-62960818D01*
X62103000Y-62960808D01*
X62093812Y-62867518D01*
X62057502Y-62747820D01*
X61998537Y-62637506D01*
X61919185Y-62540815D01*
X61894956Y-62520931D01*
X60178914Y-60804889D01*
X63519000Y-60804889D01*
X63519000Y-61195111D01*
X63595129Y-61577836D01*
X63744461Y-61938355D01*
X63961257Y-62262814D01*
X64237186Y-62538743D01*
X64561645Y-62755539D01*
X64922164Y-62904871D01*
X65304889Y-62981000D01*
X65695111Y-62981000D01*
X66077836Y-62904871D01*
X66438355Y-62755539D01*
X66762814Y-62538743D01*
X67038743Y-62262814D01*
X67255539Y-61938355D01*
X67404871Y-61577836D01*
X67481000Y-61195111D01*
X67481000Y-60804889D01*
X67404871Y-60422164D01*
X67255539Y-60061645D01*
X67038743Y-59737186D01*
X66762814Y-59461257D01*
X66438355Y-59244461D01*
X66077836Y-59095129D01*
X65695111Y-59019000D01*
X65304889Y-59019000D01*
X64922164Y-59095129D01*
X64561645Y-59244461D01*
X64237186Y-59461257D01*
X63961257Y-59737186D01*
X63744461Y-60061645D01*
X63595129Y-60422164D01*
X63519000Y-60804889D01*
X60178914Y-60804889D01*
X59994473Y-60620449D01*
X59974584Y-60596214D01*
X59877893Y-60516862D01*
X59767579Y-60457897D01*
X59647881Y-60421587D01*
X59554591Y-60412399D01*
X59554580Y-60412399D01*
X59523399Y-60409328D01*
X59492218Y-60412399D01*
X49727781Y-60412399D01*
X49696600Y-60409328D01*
X49665419Y-60412399D01*
X49665409Y-60412399D01*
X49647247Y-60414188D01*
X49532978Y-60366856D01*
X49362771Y-60333000D01*
X49189229Y-60333000D01*
X49019022Y-60366856D01*
X48858690Y-60433268D01*
X48714395Y-60529682D01*
X48591682Y-60652395D01*
X48495268Y-60796690D01*
X48431000Y-60951846D01*
X48431000Y-35593955D01*
X48445492Y-35601701D01*
X48517311Y-35623487D01*
X48592000Y-35630843D01*
X49792000Y-35630843D01*
X49866689Y-35623487D01*
X49938508Y-35601701D01*
X50004696Y-35566322D01*
X50062711Y-35518711D01*
X50110322Y-35460696D01*
X50145701Y-35394508D01*
X50162804Y-35338126D01*
X50166188Y-35372482D01*
X50202498Y-35492180D01*
X50261463Y-35602494D01*
X50340815Y-35699185D01*
X50437506Y-35778537D01*
X50547820Y-35837502D01*
X50667518Y-35873812D01*
X50792000Y-35886072D01*
X51106250Y-35883000D01*
X51264998Y-35724252D01*
X51264998Y-35883000D01*
X51282579Y-35883000D01*
X48680435Y-38485145D01*
X48661052Y-38501052D01*
X48597571Y-38578405D01*
X48550399Y-38666658D01*
X48521351Y-38762416D01*
X48515471Y-38822121D01*
X48511543Y-38862000D01*
X48514000Y-38886944D01*
X48514001Y-55743046D01*
X48511543Y-55768000D01*
X48521352Y-55867584D01*
X48550400Y-55963343D01*
X48597571Y-56051595D01*
X48617179Y-56075487D01*
X48661053Y-56128948D01*
X48680430Y-56144850D01*
X50684824Y-58149244D01*
X50665304Y-58159678D01*
X50607289Y-58207289D01*
X50559678Y-58265304D01*
X50524299Y-58331492D01*
X50502513Y-58403311D01*
X50495157Y-58478000D01*
X50495157Y-59378000D01*
X50502513Y-59452689D01*
X50524299Y-59524508D01*
X50559678Y-59590696D01*
X50607289Y-59648711D01*
X50665304Y-59696322D01*
X50731492Y-59731701D01*
X50803311Y-59753487D01*
X50878000Y-59760843D01*
X52078000Y-59760843D01*
X52152689Y-59753487D01*
X52224508Y-59731701D01*
X52290696Y-59696322D01*
X52348711Y-59648711D01*
X52396322Y-59590696D01*
X52431701Y-59524508D01*
X52453487Y-59452689D01*
X52460843Y-59378000D01*
X52460843Y-58478000D01*
X52695157Y-58478000D01*
X52695157Y-59378000D01*
X52702513Y-59452689D01*
X52724299Y-59524508D01*
X52759678Y-59590696D01*
X52807289Y-59648711D01*
X52865304Y-59696322D01*
X52931492Y-59731701D01*
X53003311Y-59753487D01*
X53078000Y-59760843D01*
X54278000Y-59760843D01*
X54352689Y-59753487D01*
X54424508Y-59731701D01*
X54490696Y-59696322D01*
X54548711Y-59648711D01*
X54596322Y-59590696D01*
X54631701Y-59524508D01*
X54653487Y-59452689D01*
X54660843Y-59378000D01*
X54811928Y-59378000D01*
X54824188Y-59502482D01*
X54860498Y-59622180D01*
X54919463Y-59732494D01*
X54998815Y-59829185D01*
X55095506Y-59908537D01*
X55205820Y-59967502D01*
X55325518Y-60003812D01*
X55450000Y-60016072D01*
X55764250Y-60013000D01*
X55923000Y-59854250D01*
X55923000Y-59055000D01*
X54973750Y-59055000D01*
X54815000Y-59213750D01*
X54811928Y-59378000D01*
X54660843Y-59378000D01*
X54660843Y-58663578D01*
X54812561Y-58511859D01*
X54815000Y-58642250D01*
X54973750Y-58801000D01*
X55923000Y-58801000D01*
X55923000Y-58001750D01*
X55788093Y-57866843D01*
X55790000Y-57866843D01*
X55864689Y-57859487D01*
X55936508Y-57837701D01*
X56002696Y-57802322D01*
X56060711Y-57754711D01*
X56108322Y-57696696D01*
X56143701Y-57630508D01*
X56155382Y-57592000D01*
X56899580Y-57592000D01*
X57456824Y-58149244D01*
X57437304Y-58159678D01*
X57379289Y-58207289D01*
X57331678Y-58265304D01*
X57296299Y-58331492D01*
X57279196Y-58387874D01*
X57275812Y-58353518D01*
X57239502Y-58233820D01*
X57180537Y-58123506D01*
X57101185Y-58026815D01*
X57004494Y-57947463D01*
X56894180Y-57888498D01*
X56774482Y-57852188D01*
X56650000Y-57839928D01*
X56335750Y-57843000D01*
X56177000Y-58001750D01*
X56177000Y-58801000D01*
X56197000Y-58801000D01*
X56197000Y-59055000D01*
X56177000Y-59055000D01*
X56177000Y-59854250D01*
X56335750Y-60013000D01*
X56650000Y-60016072D01*
X56774482Y-60003812D01*
X56894180Y-59967502D01*
X57004494Y-59908537D01*
X57101185Y-59829185D01*
X57180537Y-59732494D01*
X57239502Y-59622180D01*
X57275812Y-59502482D01*
X57279196Y-59468126D01*
X57296299Y-59524508D01*
X57331678Y-59590696D01*
X57379289Y-59648711D01*
X57437304Y-59696322D01*
X57503492Y-59731701D01*
X57575311Y-59753487D01*
X57650000Y-59760843D01*
X58850000Y-59760843D01*
X58924689Y-59753487D01*
X58996508Y-59731701D01*
X59062696Y-59696322D01*
X59120711Y-59648711D01*
X59168322Y-59590696D01*
X59203701Y-59524508D01*
X59225487Y-59452689D01*
X59232843Y-59378000D01*
X59232843Y-58478000D01*
X59225487Y-58403311D01*
X59203701Y-58331492D01*
X59168322Y-58265304D01*
X59120711Y-58207289D01*
X59062696Y-58159678D01*
X58996508Y-58124299D01*
X58924689Y-58102513D01*
X58850000Y-58095157D01*
X58741774Y-58095157D01*
X58721601Y-58028657D01*
X58721600Y-58028655D01*
X58674429Y-57940404D01*
X58626850Y-57882429D01*
X58610948Y-57863052D01*
X58591571Y-57847150D01*
X57486855Y-56742435D01*
X57470948Y-56723052D01*
X57393595Y-56659571D01*
X57305343Y-56612399D01*
X57209585Y-56583351D01*
X57134947Y-56576000D01*
X57134944Y-56576000D01*
X57110000Y-56573543D01*
X57085056Y-56576000D01*
X56155382Y-56576000D01*
X56143701Y-56537492D01*
X56108322Y-56471304D01*
X56060711Y-56413289D01*
X56002696Y-56365678D01*
X55936508Y-56330299D01*
X55864689Y-56308513D01*
X55790000Y-56301157D01*
X53890000Y-56301157D01*
X53815311Y-56308513D01*
X53743492Y-56330299D01*
X53677304Y-56365678D01*
X53619289Y-56413289D01*
X53571678Y-56471304D01*
X53536299Y-56537492D01*
X53514513Y-56609311D01*
X53507157Y-56684000D01*
X53507157Y-57484000D01*
X53514513Y-57558689D01*
X53536299Y-57630508D01*
X53571678Y-57696696D01*
X53619289Y-57754711D01*
X53677304Y-57802322D01*
X53743492Y-57837701D01*
X53815311Y-57859487D01*
X53890000Y-57866843D01*
X54020736Y-57866843D01*
X53792423Y-58095157D01*
X53078000Y-58095157D01*
X53003311Y-58102513D01*
X52931492Y-58124299D01*
X52865304Y-58159678D01*
X52807289Y-58207289D01*
X52759678Y-58265304D01*
X52724299Y-58331492D01*
X52702513Y-58403311D01*
X52695157Y-58478000D01*
X52460843Y-58478000D01*
X52453487Y-58403311D01*
X52431701Y-58331492D01*
X52396322Y-58265304D01*
X52348711Y-58207289D01*
X52290696Y-58159678D01*
X52224508Y-58124299D01*
X52152689Y-58102513D01*
X52078000Y-58095157D01*
X51969774Y-58095157D01*
X51949601Y-58028657D01*
X51902429Y-57940405D01*
X51838948Y-57863052D01*
X51819565Y-57847145D01*
X50889182Y-56916762D01*
X50890000Y-56916843D01*
X52790000Y-56916843D01*
X52864689Y-56909487D01*
X52936508Y-56887701D01*
X53002696Y-56852322D01*
X53060711Y-56804711D01*
X53108322Y-56746696D01*
X53143701Y-56680508D01*
X53165487Y-56608689D01*
X53172843Y-56534000D01*
X53172843Y-55734000D01*
X53165487Y-55659311D01*
X53143701Y-55587492D01*
X53141835Y-55584000D01*
X53251928Y-55584000D01*
X53264188Y-55708482D01*
X53300498Y-55828180D01*
X53359463Y-55938494D01*
X53438815Y-56035185D01*
X53535506Y-56114537D01*
X53645820Y-56173502D01*
X53765518Y-56209812D01*
X53890000Y-56222072D01*
X54554250Y-56219000D01*
X54713000Y-56060250D01*
X54713000Y-55311000D01*
X54967000Y-55311000D01*
X54967000Y-56060250D01*
X55125750Y-56219000D01*
X55790000Y-56222072D01*
X55914482Y-56209812D01*
X56034180Y-56173502D01*
X56144494Y-56114537D01*
X56241185Y-56035185D01*
X56320537Y-55938494D01*
X56379502Y-55828180D01*
X56415812Y-55708482D01*
X56428072Y-55584000D01*
X56425000Y-55469750D01*
X56266250Y-55311000D01*
X54967000Y-55311000D01*
X54713000Y-55311000D01*
X53413750Y-55311000D01*
X53255000Y-55469750D01*
X53251928Y-55584000D01*
X53141835Y-55584000D01*
X53108322Y-55521304D01*
X53060711Y-55463289D01*
X53002696Y-55415678D01*
X52936508Y-55380299D01*
X52864689Y-55358513D01*
X52790000Y-55351157D01*
X51908000Y-55351157D01*
X51908000Y-54332843D01*
X52000000Y-54332843D01*
X52074689Y-54325487D01*
X52146508Y-54303701D01*
X52212696Y-54268322D01*
X52270711Y-54220711D01*
X52318322Y-54162696D01*
X52353701Y-54096508D01*
X52375487Y-54024689D01*
X52382843Y-53950000D01*
X52382843Y-53050000D01*
X52375487Y-52975311D01*
X52353701Y-52903492D01*
X52318322Y-52837304D01*
X52270711Y-52779289D01*
X52212696Y-52731678D01*
X52146508Y-52696299D01*
X52074689Y-52674513D01*
X52000000Y-52667157D01*
X50800000Y-52667157D01*
X50725311Y-52674513D01*
X50653492Y-52696299D01*
X50587304Y-52731678D01*
X50529289Y-52779289D01*
X50481678Y-52837304D01*
X50446299Y-52903492D01*
X50424513Y-52975311D01*
X50417157Y-53050000D01*
X50417157Y-53950000D01*
X50424513Y-54024689D01*
X50446299Y-54096508D01*
X50481678Y-54162696D01*
X50529289Y-54220711D01*
X50587304Y-54268322D01*
X50653492Y-54303701D01*
X50725311Y-54325487D01*
X50800000Y-54332843D01*
X50892000Y-54332843D01*
X50892001Y-55351157D01*
X50890000Y-55351157D01*
X50815311Y-55358513D01*
X50743492Y-55380299D01*
X50677304Y-55415678D01*
X50619289Y-55463289D01*
X50571678Y-55521304D01*
X50536299Y-55587492D01*
X50514513Y-55659311D01*
X50507157Y-55734000D01*
X50507157Y-56534000D01*
X50507238Y-56534818D01*
X49530000Y-55557580D01*
X49530000Y-43055107D01*
X49543678Y-43080696D01*
X49591289Y-43138711D01*
X49649304Y-43186322D01*
X49715492Y-43221701D01*
X49787311Y-43243487D01*
X49862000Y-43250843D01*
X50006494Y-43250843D01*
X50037571Y-43308985D01*
X50074878Y-43354443D01*
X50101053Y-43386338D01*
X50120430Y-43402240D01*
X50901610Y-44183420D01*
X50901610Y-44267997D01*
X50929702Y-44409225D01*
X50984806Y-44542258D01*
X51054000Y-44645815D01*
X51054000Y-44747580D01*
X49772620Y-46028960D01*
X49753243Y-46044862D01*
X49737341Y-46064239D01*
X49737340Y-46064240D01*
X49689761Y-46122215D01*
X49658178Y-46181304D01*
X49642590Y-46210467D01*
X49614021Y-46304648D01*
X49613542Y-46306226D01*
X49603733Y-46405810D01*
X49606191Y-46430764D01*
X49606190Y-51293246D01*
X49603733Y-51318190D01*
X49606190Y-51343134D01*
X49606190Y-51343136D01*
X49613541Y-51417774D01*
X49642589Y-51513532D01*
X49689761Y-51601785D01*
X49753242Y-51679138D01*
X49772625Y-51695045D01*
X50169145Y-52091565D01*
X50185052Y-52110948D01*
X50262405Y-52174429D01*
X50350657Y-52221601D01*
X50421398Y-52243060D01*
X50424513Y-52274689D01*
X50446299Y-52346508D01*
X50481678Y-52412696D01*
X50529289Y-52470711D01*
X50587304Y-52518322D01*
X50653492Y-52553701D01*
X50725311Y-52575487D01*
X50800000Y-52582843D01*
X52000000Y-52582843D01*
X52074689Y-52575487D01*
X52146508Y-52553701D01*
X52212696Y-52518322D01*
X52270711Y-52470711D01*
X52318322Y-52412696D01*
X52353701Y-52346508D01*
X52375487Y-52274689D01*
X52382843Y-52200000D01*
X52382843Y-51308000D01*
X52617157Y-51308000D01*
X52617157Y-52200000D01*
X52624513Y-52274689D01*
X52646299Y-52346508D01*
X52681678Y-52412696D01*
X52729289Y-52470711D01*
X52787304Y-52518322D01*
X52853492Y-52553701D01*
X52925311Y-52575487D01*
X53000000Y-52582843D01*
X53092001Y-52582843D01*
X53092000Y-52667157D01*
X53000000Y-52667157D01*
X52925311Y-52674513D01*
X52853492Y-52696299D01*
X52787304Y-52731678D01*
X52729289Y-52779289D01*
X52681678Y-52837304D01*
X52646299Y-52903492D01*
X52624513Y-52975311D01*
X52617157Y-53050000D01*
X52617157Y-53950000D01*
X52624513Y-54024689D01*
X52646299Y-54096508D01*
X52681678Y-54162696D01*
X52729289Y-54220711D01*
X52787304Y-54268322D01*
X52853492Y-54303701D01*
X52925311Y-54325487D01*
X53000000Y-54332843D01*
X53438792Y-54332843D01*
X53359463Y-54429506D01*
X53300498Y-54539820D01*
X53264188Y-54659518D01*
X53251928Y-54784000D01*
X53255000Y-54898250D01*
X53413750Y-55057000D01*
X54713000Y-55057000D01*
X54713000Y-54307750D01*
X54967000Y-54307750D01*
X54967000Y-55057000D01*
X56266250Y-55057000D01*
X56425000Y-54898250D01*
X56428072Y-54784000D01*
X56415812Y-54659518D01*
X56379502Y-54539820D01*
X56320537Y-54429506D01*
X56241185Y-54332815D01*
X56144494Y-54253463D01*
X56034180Y-54194498D01*
X55914482Y-54158188D01*
X55790000Y-54145928D01*
X55125750Y-54149000D01*
X54967000Y-54307750D01*
X54713000Y-54307750D01*
X54554250Y-54149000D01*
X54525713Y-54148868D01*
X54553701Y-54096508D01*
X54575487Y-54024689D01*
X54582843Y-53950000D01*
X54582843Y-53050000D01*
X54575487Y-52975311D01*
X54553701Y-52903492D01*
X54518322Y-52837304D01*
X54470711Y-52779289D01*
X54412696Y-52731678D01*
X54346508Y-52696299D01*
X54274689Y-52674513D01*
X54200000Y-52667157D01*
X54108000Y-52667157D01*
X54108000Y-52582843D01*
X54200000Y-52582843D01*
X54274689Y-52575487D01*
X54346508Y-52553701D01*
X54412696Y-52518322D01*
X54470711Y-52470711D01*
X54518322Y-52412696D01*
X54553701Y-52346508D01*
X54575487Y-52274689D01*
X54582843Y-52200000D01*
X54582843Y-51308000D01*
X56685580Y-51308000D01*
X57789650Y-52412071D01*
X57790085Y-52412598D01*
X57806977Y-52429398D01*
X57824429Y-52446850D01*
X57824976Y-52447299D01*
X58169000Y-52789449D01*
X58169000Y-52871997D01*
X58197092Y-53013225D01*
X58252196Y-53146258D01*
X58332195Y-53265985D01*
X58434015Y-53367805D01*
X58553742Y-53447804D01*
X58686775Y-53502908D01*
X58828003Y-53531000D01*
X58971997Y-53531000D01*
X59113225Y-53502908D01*
X59182000Y-53474420D01*
X59182000Y-53565056D01*
X59179543Y-53590000D01*
X59182000Y-53614944D01*
X59182000Y-53614946D01*
X59189351Y-53689584D01*
X59218399Y-53785342D01*
X59265571Y-53873595D01*
X59329052Y-53950948D01*
X59348435Y-53966855D01*
X60023145Y-54641565D01*
X60039052Y-54660948D01*
X60116405Y-54724429D01*
X60204657Y-54771601D01*
X60300415Y-54800649D01*
X60375053Y-54808000D01*
X60375056Y-54808000D01*
X60400000Y-54810457D01*
X60424944Y-54808000D01*
X61479056Y-54808000D01*
X61504000Y-54810457D01*
X61528944Y-54808000D01*
X61528947Y-54808000D01*
X61603585Y-54800649D01*
X61699343Y-54771601D01*
X61787595Y-54724429D01*
X61864948Y-54660948D01*
X61880855Y-54641565D01*
X62295209Y-54227211D01*
X62345304Y-54268322D01*
X62411492Y-54303701D01*
X62483311Y-54325487D01*
X62558000Y-54332843D01*
X62650000Y-54332843D01*
X62650001Y-54417157D01*
X62558000Y-54417157D01*
X62483311Y-54424513D01*
X62411492Y-54446299D01*
X62345304Y-54481678D01*
X62287289Y-54529289D01*
X62239678Y-54587304D01*
X62204299Y-54653492D01*
X62182513Y-54725311D01*
X62175157Y-54800000D01*
X62175157Y-55700000D01*
X62182513Y-55774689D01*
X62204299Y-55846508D01*
X62239678Y-55912696D01*
X62287289Y-55970711D01*
X62345304Y-56018322D01*
X62411492Y-56053701D01*
X62483311Y-56075487D01*
X62558000Y-56082843D01*
X63758000Y-56082843D01*
X63832689Y-56075487D01*
X63904508Y-56053701D01*
X63970696Y-56018322D01*
X64028711Y-55970711D01*
X64076322Y-55912696D01*
X64111701Y-55846508D01*
X64133487Y-55774689D01*
X64140843Y-55700000D01*
X64140843Y-54800000D01*
X64133487Y-54725311D01*
X64111701Y-54653492D01*
X64076322Y-54587304D01*
X64028711Y-54529289D01*
X63970696Y-54481678D01*
X63904508Y-54446299D01*
X63832689Y-54424513D01*
X63758000Y-54417157D01*
X63666000Y-54417157D01*
X63666000Y-54332843D01*
X63758000Y-54332843D01*
X63832689Y-54325487D01*
X63904508Y-54303701D01*
X63970696Y-54268322D01*
X64028711Y-54220711D01*
X64076322Y-54162696D01*
X64111701Y-54096508D01*
X64128804Y-54040126D01*
X64132188Y-54074482D01*
X64168498Y-54194180D01*
X64227463Y-54304494D01*
X64306815Y-54401185D01*
X64403506Y-54480537D01*
X64490217Y-54526886D01*
X64487289Y-54529289D01*
X64439678Y-54587304D01*
X64404299Y-54653492D01*
X64382513Y-54725311D01*
X64375157Y-54800000D01*
X64375157Y-55700000D01*
X64382513Y-55774689D01*
X64404299Y-55846508D01*
X64439678Y-55912696D01*
X64487289Y-55970711D01*
X64545304Y-56018322D01*
X64611492Y-56053701D01*
X64683311Y-56075487D01*
X64758000Y-56082843D01*
X65958000Y-56082843D01*
X66032689Y-56075487D01*
X66104508Y-56053701D01*
X66170696Y-56018322D01*
X66228711Y-55970711D01*
X66276322Y-55912696D01*
X66311701Y-55846508D01*
X66333487Y-55774689D01*
X66336602Y-55743060D01*
X66407343Y-55721601D01*
X66495595Y-55674429D01*
X66572948Y-55610948D01*
X66588855Y-55591565D01*
X66889560Y-55290859D01*
X66908948Y-55274948D01*
X66972429Y-55197595D01*
X67019601Y-55109343D01*
X67048649Y-55013585D01*
X67056000Y-54938947D01*
X67056000Y-54938944D01*
X67058457Y-54914000D01*
X67056000Y-54889052D01*
X67056000Y-51098943D01*
X67058457Y-51073999D01*
X67055729Y-51046299D01*
X67048649Y-50974415D01*
X67019601Y-50878657D01*
X67015424Y-50870843D01*
X66972429Y-50790404D01*
X66924850Y-50732429D01*
X66908948Y-50713052D01*
X66889571Y-50697150D01*
X66344843Y-50152423D01*
X66344843Y-49588000D01*
X66337487Y-49513311D01*
X66315701Y-49441492D01*
X66280322Y-49375304D01*
X66232711Y-49317289D01*
X66174696Y-49269678D01*
X66108508Y-49234299D01*
X66036689Y-49212513D01*
X65962000Y-49205157D01*
X65024000Y-49205157D01*
X65024000Y-49056706D01*
X65066000Y-49060843D01*
X65866000Y-49060843D01*
X65940689Y-49053487D01*
X66012508Y-49031701D01*
X66078696Y-48996322D01*
X66136711Y-48948711D01*
X66184322Y-48890696D01*
X66219701Y-48824508D01*
X66241487Y-48752689D01*
X66248843Y-48678000D01*
X66248843Y-46778000D01*
X66241487Y-46703311D01*
X66219701Y-46631492D01*
X66184322Y-46565304D01*
X66136711Y-46507289D01*
X66097000Y-46474699D01*
X66097000Y-46128408D01*
X66132258Y-46113804D01*
X66251985Y-46033805D01*
X66353805Y-45931985D01*
X66433804Y-45812258D01*
X66488908Y-45679225D01*
X66517000Y-45537997D01*
X66517000Y-45394003D01*
X66488908Y-45252775D01*
X66433804Y-45119742D01*
X66353805Y-45000015D01*
X66251985Y-44898195D01*
X66132258Y-44818196D01*
X65999225Y-44763092D01*
X65857997Y-44735000D01*
X65714003Y-44735000D01*
X65572775Y-44763092D01*
X65439742Y-44818196D01*
X65320015Y-44898195D01*
X65298843Y-44919367D01*
X65298843Y-44663577D01*
X65873571Y-44088850D01*
X65892948Y-44072948D01*
X65918687Y-44041585D01*
X65956429Y-43995596D01*
X65987706Y-43937080D01*
X66003601Y-43907343D01*
X66032649Y-43811585D01*
X66040000Y-43736947D01*
X66040000Y-43736944D01*
X66042457Y-43712000D01*
X66041680Y-43704110D01*
X66099805Y-43645985D01*
X66179804Y-43526258D01*
X66234908Y-43393225D01*
X66263000Y-43251997D01*
X66263000Y-43108003D01*
X66234908Y-42966775D01*
X66179804Y-42833742D01*
X66099805Y-42714015D01*
X65997985Y-42612195D01*
X65878258Y-42532196D01*
X65745225Y-42477092D01*
X65603997Y-42449000D01*
X65460003Y-42449000D01*
X65318775Y-42477092D01*
X65185742Y-42532196D01*
X65066015Y-42612195D01*
X65024000Y-42654210D01*
X65024000Y-40257495D01*
X65083311Y-40275487D01*
X65158000Y-40282843D01*
X66358000Y-40282843D01*
X66432689Y-40275487D01*
X66504508Y-40253701D01*
X66570696Y-40218322D01*
X66628711Y-40170711D01*
X66676322Y-40112696D01*
X66711701Y-40046508D01*
X66733487Y-39974689D01*
X66740843Y-39900000D01*
X66740843Y-38900000D01*
X66733487Y-38825311D01*
X66715192Y-38765000D01*
X66733487Y-38704689D01*
X66740843Y-38630000D01*
X66740843Y-37630000D01*
X66733487Y-37555311D01*
X66715192Y-37495000D01*
X66733487Y-37434689D01*
X66740843Y-37360000D01*
X66740843Y-36360000D01*
X66733487Y-36285311D01*
X66711701Y-36213492D01*
X66676322Y-36147304D01*
X66628711Y-36089289D01*
X66570696Y-36041678D01*
X66504508Y-36006299D01*
X66432689Y-35984513D01*
X66358000Y-35977157D01*
X65158000Y-35977157D01*
X65083311Y-35984513D01*
X65011492Y-36006299D01*
X64945304Y-36041678D01*
X64887289Y-36089289D01*
X64839678Y-36147304D01*
X64804299Y-36213492D01*
X64782513Y-36285311D01*
X64775157Y-36360000D01*
X64775157Y-37360000D01*
X64782513Y-37434689D01*
X64800808Y-37495000D01*
X64782513Y-37555311D01*
X64775157Y-37630000D01*
X64775157Y-38387805D01*
X62113787Y-35726435D01*
X62097880Y-35707052D01*
X62020527Y-35643571D01*
X61932275Y-35596399D01*
X61836517Y-35567351D01*
X61761879Y-35560000D01*
X61761876Y-35560000D01*
X61736932Y-35557543D01*
X61711988Y-35560000D01*
X60916421Y-35560000D01*
X57912000Y-32555580D01*
X57912000Y-30794943D01*
X57914457Y-30769999D01*
X57908089Y-30705345D01*
X57904649Y-30670415D01*
X57875601Y-30574657D01*
X57875600Y-30574655D01*
X57828429Y-30486404D01*
X57780850Y-30428429D01*
X57764948Y-30409052D01*
X57745571Y-30393150D01*
X57535571Y-30183150D01*
X57617225Y-30166908D01*
X57750258Y-30111804D01*
X57869985Y-30031805D01*
X57971805Y-29929985D01*
X58051804Y-29810258D01*
X58106908Y-29677225D01*
X58135000Y-29535997D01*
X58135000Y-29392003D01*
X58106908Y-29250775D01*
X58051804Y-29117742D01*
X57971805Y-28998015D01*
X57869985Y-28896195D01*
X57750258Y-28816196D01*
X57617225Y-28761092D01*
X57575754Y-28752843D01*
X58298000Y-28752843D01*
X58372689Y-28745487D01*
X58433000Y-28727192D01*
X58493311Y-28745487D01*
X58560001Y-28752055D01*
X58560001Y-28830723D01*
X58462015Y-28896195D01*
X58360195Y-28998015D01*
X58280196Y-29117742D01*
X58225092Y-29250775D01*
X58197000Y-29392003D01*
X58197000Y-29535997D01*
X58225092Y-29677225D01*
X58280196Y-29810258D01*
X58360195Y-29929985D01*
X58462015Y-30031805D01*
X58581742Y-30111804D01*
X58714775Y-30166908D01*
X58856003Y-30195000D01*
X58999997Y-30195000D01*
X59141225Y-30166908D01*
X59274258Y-30111804D01*
X59393985Y-30031805D01*
X59436000Y-29989790D01*
X59478015Y-30031805D01*
X59597742Y-30111804D01*
X59730775Y-30166908D01*
X59872003Y-30195000D01*
X60015997Y-30195000D01*
X60157225Y-30166908D01*
X60290258Y-30111804D01*
X60409985Y-30031805D01*
X60511805Y-29929985D01*
X60591804Y-29810258D01*
X60646908Y-29677225D01*
X60675000Y-29535997D01*
X60675000Y-29451421D01*
X60679570Y-29446851D01*
X60698948Y-29430948D01*
X60753549Y-29364416D01*
X60762429Y-29353596D01*
X60809600Y-29265345D01*
X60814020Y-29250775D01*
X60838649Y-29169585D01*
X60846000Y-29094947D01*
X60846000Y-29094945D01*
X60848457Y-29070001D01*
X60846000Y-29045057D01*
X60846000Y-28752055D01*
X60912689Y-28745487D01*
X60984508Y-28723701D01*
X61050696Y-28688322D01*
X61108711Y-28640711D01*
X61156322Y-28582696D01*
X61191701Y-28516508D01*
X61213487Y-28444689D01*
X61220843Y-28370000D01*
X61220843Y-27170000D01*
X61213487Y-27095311D01*
X61191701Y-27023492D01*
X61156322Y-26957304D01*
X61108711Y-26899289D01*
X61050696Y-26851678D01*
X60984508Y-26816299D01*
X60912689Y-26794513D01*
X60838000Y-26787157D01*
X59838000Y-26787157D01*
X59763311Y-26794513D01*
X59703000Y-26812808D01*
X59642689Y-26794513D01*
X59568000Y-26787157D01*
X58568000Y-26787157D01*
X58493311Y-26794513D01*
X58433000Y-26812808D01*
X58372689Y-26794513D01*
X58298000Y-26787157D01*
X58283214Y-26787157D01*
X58330537Y-26729494D01*
X58389502Y-26619180D01*
X58425812Y-26499482D01*
X58438072Y-26375000D01*
X58435000Y-26285750D01*
X58276250Y-26127000D01*
X57327000Y-26127000D01*
X57327000Y-26147000D01*
X57073000Y-26147000D01*
X57073000Y-26127000D01*
X57053000Y-26127000D01*
X57053000Y-25873000D01*
X57073000Y-25873000D01*
X57073000Y-25853000D01*
X57327000Y-25853000D01*
X57327000Y-25873000D01*
X58276250Y-25873000D01*
X58435000Y-25714250D01*
X58438072Y-25625000D01*
X58425812Y-25500518D01*
X58404724Y-25431000D01*
X61223000Y-25431000D01*
X61223000Y-35250000D01*
G36*
X54296489Y-69722752D02*
G01*
X54403209Y-69852791D01*
X54435805Y-69879542D01*
X54849459Y-70293196D01*
X54876210Y-70325792D01*
X55006248Y-70432512D01*
X55154608Y-70511812D01*
X55266755Y-70545831D01*
X55315587Y-70560644D01*
X55332617Y-70562321D01*
X55441049Y-70573001D01*
X55441055Y-70573001D01*
X55483000Y-70577132D01*
X55524945Y-70573001D01*
X58350000Y-70573001D01*
X58350000Y-71354696D01*
X58346258Y-71352196D01*
X58213225Y-71297092D01*
X58071997Y-71269000D01*
X57928003Y-71269000D01*
X57786775Y-71297092D01*
X57653742Y-71352196D01*
X57534015Y-71432195D01*
X57432195Y-71534015D01*
X57352196Y-71653742D01*
X57297092Y-71786775D01*
X57269000Y-71928003D01*
X57269000Y-72071997D01*
X57297092Y-72213225D01*
X57352196Y-72346258D01*
X57432195Y-72465985D01*
X57492000Y-72525790D01*
X57492001Y-72724215D01*
X57432195Y-72784021D01*
X57352196Y-72903748D01*
X57297092Y-73036781D01*
X57269000Y-73178009D01*
X57269000Y-73322003D01*
X57297092Y-73463231D01*
X57352196Y-73596264D01*
X57432195Y-73715991D01*
X57492001Y-73775797D01*
X57492000Y-73974210D01*
X57432195Y-74034015D01*
X57352196Y-74153742D01*
X57297092Y-74286775D01*
X57269000Y-74428003D01*
X57269000Y-74571997D01*
X57297092Y-74713225D01*
X57352196Y-74846258D01*
X57432195Y-74965985D01*
X57492000Y-75025790D01*
X57492001Y-75224209D01*
X57432195Y-75284015D01*
X57352196Y-75403742D01*
X57297092Y-75536775D01*
X57269000Y-75678003D01*
X57269000Y-75821997D01*
X57297092Y-75963225D01*
X57352196Y-76096258D01*
X57432195Y-76215985D01*
X57534015Y-76317805D01*
X57619613Y-76375000D01*
X57534015Y-76432195D01*
X57432195Y-76534015D01*
X57352196Y-76653742D01*
X57297092Y-76786775D01*
X57269000Y-76928003D01*
X57269000Y-77071997D01*
X57297092Y-77213225D01*
X57352196Y-77346258D01*
X57432195Y-77465985D01*
X57534015Y-77567805D01*
X57619618Y-77625003D01*
X57534015Y-77682201D01*
X57432195Y-77784021D01*
X57352196Y-77903748D01*
X57297092Y-78036781D01*
X57269000Y-78178009D01*
X57269000Y-78322003D01*
X57297092Y-78463231D01*
X57352196Y-78596264D01*
X57432195Y-78715991D01*
X57492001Y-78775797D01*
X57492000Y-78974210D01*
X57432195Y-79034015D01*
X57352196Y-79153742D01*
X57297092Y-79286775D01*
X57269000Y-79428003D01*
X57269000Y-79571997D01*
X57297092Y-79713225D01*
X57352196Y-79846258D01*
X57432195Y-79965985D01*
X57534015Y-80067805D01*
X57619613Y-80125000D01*
X57534015Y-80182195D01*
X57432195Y-80284015D01*
X57352196Y-80403742D01*
X57297092Y-80536775D01*
X57269000Y-80678003D01*
X57269000Y-80821997D01*
X57297092Y-80963225D01*
X57352196Y-81096258D01*
X57432195Y-81215985D01*
X57534015Y-81317805D01*
X57619613Y-81375000D01*
X57534015Y-81432195D01*
X57432195Y-81534015D01*
X57352196Y-81653742D01*
X57297092Y-81786775D01*
X57269000Y-81928003D01*
X57269000Y-82071997D01*
X57297092Y-82213225D01*
X57352196Y-82346258D01*
X57432195Y-82465985D01*
X57534015Y-82567805D01*
X57619613Y-82625000D01*
X57534015Y-82682195D01*
X57432195Y-82784015D01*
X57352196Y-82903742D01*
X57297092Y-83036775D01*
X57269000Y-83178003D01*
X57269000Y-83321997D01*
X57297092Y-83463225D01*
X57352196Y-83596258D01*
X57432195Y-83715985D01*
X57492001Y-83775791D01*
X57492000Y-83974210D01*
X57432195Y-84034015D01*
X57352196Y-84153742D01*
X57297092Y-84286775D01*
X57269000Y-84428003D01*
X57269000Y-84571997D01*
X57297092Y-84713225D01*
X57352196Y-84846258D01*
X57432195Y-84965985D01*
X57534015Y-85067805D01*
X57619613Y-85125000D01*
X57534015Y-85182195D01*
X57432195Y-85284015D01*
X57352196Y-85403742D01*
X57297092Y-85536775D01*
X57269000Y-85678003D01*
X57269000Y-85821997D01*
X57297092Y-85963225D01*
X57352196Y-86096258D01*
X57432195Y-86215985D01*
X57534015Y-86317805D01*
X57619613Y-86375000D01*
X57534015Y-86432195D01*
X57432195Y-86534015D01*
X57352196Y-86653742D01*
X57297092Y-86786775D01*
X57269000Y-86928003D01*
X57269000Y-87071997D01*
X57297092Y-87213225D01*
X57352196Y-87346258D01*
X57432195Y-87465985D01*
X57492000Y-87525790D01*
X57492000Y-87724214D01*
X57432199Y-87784015D01*
X57352200Y-87903742D01*
X57297096Y-88036775D01*
X57269004Y-88178003D01*
X57269004Y-88321997D01*
X57297096Y-88463225D01*
X57352200Y-88596258D01*
X57432199Y-88715985D01*
X57492001Y-88775787D01*
X57492001Y-88974209D01*
X57432195Y-89034015D01*
X57352196Y-89153742D01*
X57297092Y-89286775D01*
X57269000Y-89428003D01*
X57269000Y-89571997D01*
X57297092Y-89713225D01*
X57352196Y-89846258D01*
X57432195Y-89965985D01*
X57492000Y-90025790D01*
X57492001Y-90224209D01*
X57432195Y-90284015D01*
X57352196Y-90403742D01*
X57297092Y-90536775D01*
X57269000Y-90678003D01*
X57269000Y-90821997D01*
X57297092Y-90963225D01*
X57352196Y-91096258D01*
X57432195Y-91215985D01*
X57534015Y-91317805D01*
X57619613Y-91375000D01*
X57534015Y-91432195D01*
X57432195Y-91534015D01*
X57352196Y-91653742D01*
X57297092Y-91786775D01*
X57269000Y-91928003D01*
X57269000Y-92071997D01*
X57297092Y-92213225D01*
X57352196Y-92346258D01*
X57432195Y-92465985D01*
X57492000Y-92525790D01*
X57492001Y-92724209D01*
X57432195Y-92784015D01*
X57352196Y-92903742D01*
X57297092Y-93036775D01*
X57269000Y-93178003D01*
X57269000Y-93321997D01*
X57297092Y-93463225D01*
X57352196Y-93596258D01*
X57432195Y-93715985D01*
X57492001Y-93775791D01*
X57492000Y-93974210D01*
X57432195Y-94034015D01*
X57352196Y-94153742D01*
X57297092Y-94286775D01*
X57269000Y-94428003D01*
X57269000Y-94571997D01*
X57297092Y-94713225D01*
X57352196Y-94846258D01*
X57432195Y-94965985D01*
X57534015Y-95067805D01*
X57619601Y-95124992D01*
X57534015Y-95182179D01*
X57432195Y-95283999D01*
X57352196Y-95403726D01*
X57297092Y-95536759D01*
X57269000Y-95677987D01*
X57269000Y-95821981D01*
X57297092Y-95963209D01*
X57352196Y-96096242D01*
X57432195Y-96215969D01*
X57492001Y-96275775D01*
X57492000Y-96474210D01*
X57432195Y-96534015D01*
X57352196Y-96653742D01*
X57297092Y-96786775D01*
X57269000Y-96928003D01*
X57269000Y-97071997D01*
X57297092Y-97213225D01*
X57352196Y-97346258D01*
X57432195Y-97465985D01*
X57492000Y-97525790D01*
X57492001Y-97722272D01*
X57432195Y-97782078D01*
X57352196Y-97901805D01*
X57297092Y-98034838D01*
X57269000Y-98176066D01*
X57269000Y-98320060D01*
X57297092Y-98461288D01*
X57352196Y-98594321D01*
X57432195Y-98714048D01*
X57492000Y-98773853D01*
X57492001Y-98974209D01*
X57432195Y-99034015D01*
X57352196Y-99153742D01*
X57297092Y-99286775D01*
X57269000Y-99428003D01*
X57269000Y-99571997D01*
X57297092Y-99713225D01*
X57352196Y-99846258D01*
X57432195Y-99965985D01*
X57534015Y-100067805D01*
X57616724Y-100123069D01*
X57534015Y-100178334D01*
X57432195Y-100280154D01*
X57352196Y-100399881D01*
X57297092Y-100532914D01*
X57269000Y-100674142D01*
X57269000Y-100818136D01*
X57297092Y-100959364D01*
X57352196Y-101092397D01*
X57432195Y-101212124D01*
X57492001Y-101271930D01*
X57492000Y-101474210D01*
X57432195Y-101534015D01*
X57352196Y-101653742D01*
X57297092Y-101786775D01*
X57269000Y-101928003D01*
X57269000Y-102071997D01*
X57297092Y-102213225D01*
X57352196Y-102346258D01*
X57432195Y-102465985D01*
X57492000Y-102525790D01*
X57492001Y-102720990D01*
X57432195Y-102780796D01*
X57352196Y-102900523D01*
X57297092Y-103033556D01*
X57269000Y-103174784D01*
X57269000Y-103318778D01*
X57297092Y-103460006D01*
X57352196Y-103593039D01*
X57432195Y-103712766D01*
X57534015Y-103814586D01*
X57622022Y-103873391D01*
X57534015Y-103932195D01*
X57432195Y-104034015D01*
X57352196Y-104153742D01*
X57297092Y-104286775D01*
X57269000Y-104428003D01*
X57269000Y-104571997D01*
X57297092Y-104713225D01*
X57352196Y-104846258D01*
X57432195Y-104965985D01*
X57468875Y-105002665D01*
X57432195Y-105039345D01*
X57352196Y-105159072D01*
X57297092Y-105292105D01*
X57269000Y-105433333D01*
X57269000Y-105577327D01*
X57297092Y-105718555D01*
X57352196Y-105851588D01*
X57432195Y-105971315D01*
X57488540Y-106027660D01*
X57432195Y-106084005D01*
X57352196Y-106203732D01*
X57297092Y-106336765D01*
X57269000Y-106477993D01*
X57269000Y-106621987D01*
X57297092Y-106763215D01*
X57325722Y-106832334D01*
X56788488Y-106995302D01*
X56817805Y-106965985D01*
X56897804Y-106846258D01*
X56952908Y-106713225D01*
X56981000Y-106571997D01*
X56981000Y-106428003D01*
X56952908Y-106286775D01*
X56897804Y-106153742D01*
X56817805Y-106034015D01*
X56715985Y-105932195D01*
X56596258Y-105852196D01*
X56463225Y-105797092D01*
X56321997Y-105769000D01*
X56237421Y-105769000D01*
X56076119Y-105607699D01*
X56076119Y-105523122D01*
X56048027Y-105381894D01*
X55992923Y-105248861D01*
X55912924Y-105129134D01*
X55811104Y-105027314D01*
X55691377Y-104947315D01*
X55558344Y-104892211D01*
X55417116Y-104864119D01*
X55273122Y-104864119D01*
X55220541Y-104874578D01*
X55231000Y-104821997D01*
X55231000Y-104678003D01*
X55202908Y-104536775D01*
X55147804Y-104403742D01*
X55067805Y-104284015D01*
X54965985Y-104182195D01*
X54846258Y-104102196D01*
X54713225Y-104047092D01*
X54571997Y-104019000D01*
X54489622Y-104019000D01*
X54489622Y-103936625D01*
X54461530Y-103795397D01*
X54406426Y-103662364D01*
X54326427Y-103542637D01*
X54224607Y-103440817D01*
X54104880Y-103360818D01*
X53971847Y-103305714D01*
X53830619Y-103277622D01*
X53746042Y-103277622D01*
X53731000Y-103262580D01*
X53731000Y-103178003D01*
X53702908Y-103036775D01*
X53647804Y-102903742D01*
X53567805Y-102784015D01*
X53508000Y-102724210D01*
X53508000Y-102525790D01*
X53567805Y-102465985D01*
X53647804Y-102346258D01*
X53702908Y-102213225D01*
X53731000Y-102071997D01*
X53731000Y-101928003D01*
X53702908Y-101786775D01*
X53647804Y-101653742D01*
X53567805Y-101534015D01*
X53465985Y-101432195D01*
X53380387Y-101375000D01*
X53465985Y-101317805D01*
X53567805Y-101215985D01*
X53647804Y-101096258D01*
X53702908Y-100963225D01*
X53731000Y-100821997D01*
X53731000Y-100678003D01*
X53702908Y-100536775D01*
X53647804Y-100403742D01*
X53567805Y-100284015D01*
X53508000Y-100224210D01*
X53508000Y-100025790D01*
X53567805Y-99965985D01*
X53647804Y-99846258D01*
X53702908Y-99713225D01*
X53731000Y-99571997D01*
X53731000Y-99428003D01*
X53702908Y-99286775D01*
X53647804Y-99153742D01*
X53567805Y-99034015D01*
X53508000Y-98974210D01*
X53508000Y-98775784D01*
X53567805Y-98715979D01*
X53647804Y-98596252D01*
X53702908Y-98463219D01*
X53731000Y-98321991D01*
X53731000Y-98177997D01*
X53702908Y-98036769D01*
X53647804Y-97903736D01*
X53567805Y-97784009D01*
X53465985Y-97682189D01*
X53380391Y-97624997D01*
X53465985Y-97567805D01*
X53567805Y-97465985D01*
X53647804Y-97346258D01*
X53702908Y-97213225D01*
X53731000Y-97071997D01*
X53731000Y-96928003D01*
X53702908Y-96786775D01*
X53647804Y-96653742D01*
X53567805Y-96534015D01*
X53465985Y-96432195D01*
X53380391Y-96375003D01*
X53465985Y-96317811D01*
X53567805Y-96215991D01*
X53647804Y-96096264D01*
X53702908Y-95963231D01*
X53731000Y-95822003D01*
X53731000Y-95678009D01*
X53702908Y-95536781D01*
X53647804Y-95403748D01*
X53567805Y-95284021D01*
X53508000Y-95224216D01*
X53508000Y-95025790D01*
X53567805Y-94965985D01*
X53647804Y-94846258D01*
X53702908Y-94713225D01*
X53731000Y-94571997D01*
X53731000Y-94428003D01*
X53702908Y-94286775D01*
X53647804Y-94153742D01*
X53567805Y-94034015D01*
X53508000Y-93974210D01*
X53508000Y-93775790D01*
X53567805Y-93715985D01*
X53647804Y-93596258D01*
X53702908Y-93463225D01*
X53731000Y-93321997D01*
X53731000Y-93178003D01*
X53702908Y-93036775D01*
X53647804Y-92903742D01*
X53567805Y-92784015D01*
X53508000Y-92724210D01*
X53508000Y-92525790D01*
X53567805Y-92465985D01*
X53647804Y-92346258D01*
X53702908Y-92213225D01*
X53731000Y-92071997D01*
X53731000Y-91928003D01*
X53702908Y-91786775D01*
X53647804Y-91653742D01*
X53567805Y-91534015D01*
X53465985Y-91432195D01*
X53380381Y-91374996D01*
X53465985Y-91317797D01*
X53567805Y-91215977D01*
X53647804Y-91096250D01*
X53702908Y-90963217D01*
X53731000Y-90821989D01*
X53731000Y-90677995D01*
X53702908Y-90536767D01*
X53647804Y-90403734D01*
X53567805Y-90284007D01*
X53508000Y-90224202D01*
X53508000Y-90025790D01*
X53567805Y-89965985D01*
X53647804Y-89846258D01*
X53702908Y-89713225D01*
X53731000Y-89571997D01*
X53731000Y-89428003D01*
X53702908Y-89286775D01*
X53647804Y-89153742D01*
X53567805Y-89034015D01*
X53508000Y-88974210D01*
X53508000Y-88775796D01*
X53567805Y-88715991D01*
X53647804Y-88596264D01*
X53702908Y-88463231D01*
X53731000Y-88322003D01*
X53731000Y-88178009D01*
X53702908Y-88036781D01*
X53647804Y-87903748D01*
X53567805Y-87784021D01*
X53508000Y-87724216D01*
X53508000Y-87525790D01*
X53567805Y-87465985D01*
X53647804Y-87346258D01*
X53702908Y-87213225D01*
X53731000Y-87071997D01*
X53731000Y-86928003D01*
X53702908Y-86786775D01*
X53647804Y-86653742D01*
X53567805Y-86534015D01*
X53465985Y-86432195D01*
X53380387Y-86375000D01*
X53465985Y-86317805D01*
X53567805Y-86215985D01*
X53647804Y-86096258D01*
X53702908Y-85963225D01*
X53731000Y-85821997D01*
X53731000Y-85678003D01*
X53702908Y-85536775D01*
X53647804Y-85403742D01*
X53567805Y-85284015D01*
X53465985Y-85182195D01*
X53380387Y-85125000D01*
X53465985Y-85067805D01*
X53567805Y-84965985D01*
X53647804Y-84846258D01*
X53702908Y-84713225D01*
X53731000Y-84571997D01*
X53731000Y-84428003D01*
X53702908Y-84286775D01*
X53647804Y-84153742D01*
X53567805Y-84034015D01*
X53508000Y-83974210D01*
X53508000Y-83775796D01*
X53567805Y-83715991D01*
X53647804Y-83596264D01*
X53702908Y-83463231D01*
X53731000Y-83322003D01*
X53731000Y-83178009D01*
X53702908Y-83036781D01*
X53647804Y-82903748D01*
X53567805Y-82784021D01*
X53465985Y-82682201D01*
X53380382Y-82625003D01*
X53465985Y-82567805D01*
X53567805Y-82465985D01*
X53647804Y-82346258D01*
X53702908Y-82213225D01*
X53731000Y-82071997D01*
X53731000Y-81928003D01*
X53702908Y-81786775D01*
X53647804Y-81653742D01*
X53567805Y-81534015D01*
X53465985Y-81432195D01*
X53380387Y-81375000D01*
X53465985Y-81317805D01*
X53567805Y-81215985D01*
X53647804Y-81096258D01*
X53702908Y-80963225D01*
X53731000Y-80821997D01*
X53731000Y-80678003D01*
X53702908Y-80536775D01*
X53647804Y-80403742D01*
X53567805Y-80284015D01*
X53508000Y-80224210D01*
X53508000Y-80025790D01*
X53567805Y-79965985D01*
X53647804Y-79846258D01*
X53702908Y-79713225D01*
X53731000Y-79571997D01*
X53731000Y-79428003D01*
X53702908Y-79286775D01*
X53647804Y-79153742D01*
X53567805Y-79034015D01*
X53508000Y-78974210D01*
X53508000Y-78775790D01*
X53567805Y-78715985D01*
X53647804Y-78596258D01*
X53702908Y-78463225D01*
X53731000Y-78321997D01*
X53731000Y-78178003D01*
X53702908Y-78036775D01*
X53647804Y-77903742D01*
X53567805Y-77784015D01*
X53508000Y-77724210D01*
X53508000Y-77525790D01*
X53567805Y-77465985D01*
X53647804Y-77346258D01*
X53702908Y-77213225D01*
X53731000Y-77071997D01*
X53731000Y-76928003D01*
X53702908Y-76786775D01*
X53647804Y-76653742D01*
X53567805Y-76534015D01*
X53465985Y-76432195D01*
X53380387Y-76375000D01*
X53465985Y-76317805D01*
X53567805Y-76215985D01*
X53647804Y-76096258D01*
X53702908Y-75963225D01*
X53731000Y-75821997D01*
X53731000Y-75678003D01*
X53702908Y-75536775D01*
X53647804Y-75403742D01*
X53567805Y-75284015D01*
X53508000Y-75224210D01*
X53508000Y-75025790D01*
X53567805Y-74965985D01*
X53647804Y-74846258D01*
X53702908Y-74713225D01*
X53731000Y-74571997D01*
X53731000Y-74428003D01*
X53702908Y-74286775D01*
X53647804Y-74153742D01*
X53567805Y-74034015D01*
X53508000Y-73974210D01*
X53508000Y-73783728D01*
X53567805Y-73723923D01*
X53647804Y-73604196D01*
X53702908Y-73471163D01*
X53731000Y-73329935D01*
X53731000Y-73185941D01*
X53702908Y-73044713D01*
X53647804Y-72911680D01*
X53567805Y-72791953D01*
X53508000Y-72732148D01*
X53508000Y-72525790D01*
X53567805Y-72465985D01*
X53647804Y-72346258D01*
X53702908Y-72213225D01*
X53731000Y-72071997D01*
X53731000Y-71928003D01*
X53702908Y-71786775D01*
X53647804Y-71653742D01*
X53567805Y-71534015D01*
X53465985Y-71432195D01*
X53380387Y-71375000D01*
X53465985Y-71317805D01*
X53567805Y-71215985D01*
X53647804Y-71096258D01*
X53702908Y-70963225D01*
X53731000Y-70821997D01*
X53731000Y-70678003D01*
X53702908Y-70536775D01*
X53647804Y-70403742D01*
X53567805Y-70284015D01*
X53548644Y-70264854D01*
X53592562Y-70220936D01*
X53672561Y-70101209D01*
X53727665Y-69968176D01*
X53755757Y-69826948D01*
X53755757Y-69682954D01*
X53735844Y-69582843D01*
X54200000Y-69582843D01*
X54220621Y-69580812D01*
X54296489Y-69722752D01*
X54296489Y-69722752D01*
G37*
X54296489Y-69722752D02*
X54403209Y-69852791D01*
X54435805Y-69879542D01*
X54849459Y-70293196D01*
X54876210Y-70325792D01*
X55006248Y-70432512D01*
X55154608Y-70511812D01*
X55266755Y-70545831D01*
X55315587Y-70560644D01*
X55332617Y-70562321D01*
X55441049Y-70573001D01*
X55441055Y-70573001D01*
X55483000Y-70577132D01*
X55524945Y-70573001D01*
X58350000Y-70573001D01*
X58350000Y-71354696D01*
X58346258Y-71352196D01*
X58213225Y-71297092D01*
X58071997Y-71269000D01*
X57928003Y-71269000D01*
X57786775Y-71297092D01*
X57653742Y-71352196D01*
X57534015Y-71432195D01*
X57432195Y-71534015D01*
X57352196Y-71653742D01*
X57297092Y-71786775D01*
X57269000Y-71928003D01*
X57269000Y-72071997D01*
X57297092Y-72213225D01*
X57352196Y-72346258D01*
X57432195Y-72465985D01*
X57492000Y-72525790D01*
X57492001Y-72724215D01*
X57432195Y-72784021D01*
X57352196Y-72903748D01*
X57297092Y-73036781D01*
X57269000Y-73178009D01*
X57269000Y-73322003D01*
X57297092Y-73463231D01*
X57352196Y-73596264D01*
X57432195Y-73715991D01*
X57492001Y-73775797D01*
X57492000Y-73974210D01*
X57432195Y-74034015D01*
X57352196Y-74153742D01*
X57297092Y-74286775D01*
X57269000Y-74428003D01*
X57269000Y-74571997D01*
X57297092Y-74713225D01*
X57352196Y-74846258D01*
X57432195Y-74965985D01*
X57492000Y-75025790D01*
X57492001Y-75224209D01*
X57432195Y-75284015D01*
X57352196Y-75403742D01*
X57297092Y-75536775D01*
X57269000Y-75678003D01*
X57269000Y-75821997D01*
X57297092Y-75963225D01*
X57352196Y-76096258D01*
X57432195Y-76215985D01*
X57534015Y-76317805D01*
X57619613Y-76375000D01*
X57534015Y-76432195D01*
X57432195Y-76534015D01*
X57352196Y-76653742D01*
X57297092Y-76786775D01*
X57269000Y-76928003D01*
X57269000Y-77071997D01*
X57297092Y-77213225D01*
X57352196Y-77346258D01*
X57432195Y-77465985D01*
X57534015Y-77567805D01*
X57619618Y-77625003D01*
X57534015Y-77682201D01*
X57432195Y-77784021D01*
X57352196Y-77903748D01*
X57297092Y-78036781D01*
X57269000Y-78178009D01*
X57269000Y-78322003D01*
X57297092Y-78463231D01*
X57352196Y-78596264D01*
X57432195Y-78715991D01*
X57492001Y-78775797D01*
X57492000Y-78974210D01*
X57432195Y-79034015D01*
X57352196Y-79153742D01*
X57297092Y-79286775D01*
X57269000Y-79428003D01*
X57269000Y-79571997D01*
X57297092Y-79713225D01*
X57352196Y-79846258D01*
X57432195Y-79965985D01*
X57534015Y-80067805D01*
X57619613Y-80125000D01*
X57534015Y-80182195D01*
X57432195Y-80284015D01*
X57352196Y-80403742D01*
X57297092Y-80536775D01*
X57269000Y-80678003D01*
X57269000Y-80821997D01*
X57297092Y-80963225D01*
X57352196Y-81096258D01*
X57432195Y-81215985D01*
X57534015Y-81317805D01*
X57619613Y-81375000D01*
X57534015Y-81432195D01*
X57432195Y-81534015D01*
X57352196Y-81653742D01*
X57297092Y-81786775D01*
X57269000Y-81928003D01*
X57269000Y-82071997D01*
X57297092Y-82213225D01*
X57352196Y-82346258D01*
X57432195Y-82465985D01*
X57534015Y-82567805D01*
X57619613Y-82625000D01*
X57534015Y-82682195D01*
X57432195Y-82784015D01*
X57352196Y-82903742D01*
X57297092Y-83036775D01*
X57269000Y-83178003D01*
X57269000Y-83321997D01*
X57297092Y-83463225D01*
X57352196Y-83596258D01*
X57432195Y-83715985D01*
X57492001Y-83775791D01*
X57492000Y-83974210D01*
X57432195Y-84034015D01*
X57352196Y-84153742D01*
X57297092Y-84286775D01*
X57269000Y-84428003D01*
X57269000Y-84571997D01*
X57297092Y-84713225D01*
X57352196Y-84846258D01*
X57432195Y-84965985D01*
X57534015Y-85067805D01*
X57619613Y-85125000D01*
X57534015Y-85182195D01*
X57432195Y-85284015D01*
X57352196Y-85403742D01*
X57297092Y-85536775D01*
X57269000Y-85678003D01*
X57269000Y-85821997D01*
X57297092Y-85963225D01*
X57352196Y-86096258D01*
X57432195Y-86215985D01*
X57534015Y-86317805D01*
X57619613Y-86375000D01*
X57534015Y-86432195D01*
X57432195Y-86534015D01*
X57352196Y-86653742D01*
X57297092Y-86786775D01*
X57269000Y-86928003D01*
X57269000Y-87071997D01*
X57297092Y-87213225D01*
X57352196Y-87346258D01*
X57432195Y-87465985D01*
X57492000Y-87525790D01*
X57492000Y-87724214D01*
X57432199Y-87784015D01*
X57352200Y-87903742D01*
X57297096Y-88036775D01*
X57269004Y-88178003D01*
X57269004Y-88321997D01*
X57297096Y-88463225D01*
X57352200Y-88596258D01*
X57432199Y-88715985D01*
X57492001Y-88775787D01*
X57492001Y-88974209D01*
X57432195Y-89034015D01*
X57352196Y-89153742D01*
X57297092Y-89286775D01*
X57269000Y-89428003D01*
X57269000Y-89571997D01*
X57297092Y-89713225D01*
X57352196Y-89846258D01*
X57432195Y-89965985D01*
X57492000Y-90025790D01*
X57492001Y-90224209D01*
X57432195Y-90284015D01*
X57352196Y-90403742D01*
X57297092Y-90536775D01*
X57269000Y-90678003D01*
X57269000Y-90821997D01*
X57297092Y-90963225D01*
X57352196Y-91096258D01*
X57432195Y-91215985D01*
X57534015Y-91317805D01*
X57619613Y-91375000D01*
X57534015Y-91432195D01*
X57432195Y-91534015D01*
X57352196Y-91653742D01*
X57297092Y-91786775D01*
X57269000Y-91928003D01*
X57269000Y-92071997D01*
X57297092Y-92213225D01*
X57352196Y-92346258D01*
X57432195Y-92465985D01*
X57492000Y-92525790D01*
X57492001Y-92724209D01*
X57432195Y-92784015D01*
X57352196Y-92903742D01*
X57297092Y-93036775D01*
X57269000Y-93178003D01*
X57269000Y-93321997D01*
X57297092Y-93463225D01*
X57352196Y-93596258D01*
X57432195Y-93715985D01*
X57492001Y-93775791D01*
X57492000Y-93974210D01*
X57432195Y-94034015D01*
X57352196Y-94153742D01*
X57297092Y-94286775D01*
X57269000Y-94428003D01*
X57269000Y-94571997D01*
X57297092Y-94713225D01*
X57352196Y-94846258D01*
X57432195Y-94965985D01*
X57534015Y-95067805D01*
X57619601Y-95124992D01*
X57534015Y-95182179D01*
X57432195Y-95283999D01*
X57352196Y-95403726D01*
X57297092Y-95536759D01*
X57269000Y-95677987D01*
X57269000Y-95821981D01*
X57297092Y-95963209D01*
X57352196Y-96096242D01*
X57432195Y-96215969D01*
X57492001Y-96275775D01*
X57492000Y-96474210D01*
X57432195Y-96534015D01*
X57352196Y-96653742D01*
X57297092Y-96786775D01*
X57269000Y-96928003D01*
X57269000Y-97071997D01*
X57297092Y-97213225D01*
X57352196Y-97346258D01*
X57432195Y-97465985D01*
X57492000Y-97525790D01*
X57492001Y-97722272D01*
X57432195Y-97782078D01*
X57352196Y-97901805D01*
X57297092Y-98034838D01*
X57269000Y-98176066D01*
X57269000Y-98320060D01*
X57297092Y-98461288D01*
X57352196Y-98594321D01*
X57432195Y-98714048D01*
X57492000Y-98773853D01*
X57492001Y-98974209D01*
X57432195Y-99034015D01*
X57352196Y-99153742D01*
X57297092Y-99286775D01*
X57269000Y-99428003D01*
X57269000Y-99571997D01*
X57297092Y-99713225D01*
X57352196Y-99846258D01*
X57432195Y-99965985D01*
X57534015Y-100067805D01*
X57616724Y-100123069D01*
X57534015Y-100178334D01*
X57432195Y-100280154D01*
X57352196Y-100399881D01*
X57297092Y-100532914D01*
X57269000Y-100674142D01*
X57269000Y-100818136D01*
X57297092Y-100959364D01*
X57352196Y-101092397D01*
X57432195Y-101212124D01*
X57492001Y-101271930D01*
X57492000Y-101474210D01*
X57432195Y-101534015D01*
X57352196Y-101653742D01*
X57297092Y-101786775D01*
X57269000Y-101928003D01*
X57269000Y-102071997D01*
X57297092Y-102213225D01*
X57352196Y-102346258D01*
X57432195Y-102465985D01*
X57492000Y-102525790D01*
X57492001Y-102720990D01*
X57432195Y-102780796D01*
X57352196Y-102900523D01*
X57297092Y-103033556D01*
X57269000Y-103174784D01*
X57269000Y-103318778D01*
X57297092Y-103460006D01*
X57352196Y-103593039D01*
X57432195Y-103712766D01*
X57534015Y-103814586D01*
X57622022Y-103873391D01*
X57534015Y-103932195D01*
X57432195Y-104034015D01*
X57352196Y-104153742D01*
X57297092Y-104286775D01*
X57269000Y-104428003D01*
X57269000Y-104571997D01*
X57297092Y-104713225D01*
X57352196Y-104846258D01*
X57432195Y-104965985D01*
X57468875Y-105002665D01*
X57432195Y-105039345D01*
X57352196Y-105159072D01*
X57297092Y-105292105D01*
X57269000Y-105433333D01*
X57269000Y-105577327D01*
X57297092Y-105718555D01*
X57352196Y-105851588D01*
X57432195Y-105971315D01*
X57488540Y-106027660D01*
X57432195Y-106084005D01*
X57352196Y-106203732D01*
X57297092Y-106336765D01*
X57269000Y-106477993D01*
X57269000Y-106621987D01*
X57297092Y-106763215D01*
X57325722Y-106832334D01*
X56788488Y-106995302D01*
X56817805Y-106965985D01*
X56897804Y-106846258D01*
X56952908Y-106713225D01*
X56981000Y-106571997D01*
X56981000Y-106428003D01*
X56952908Y-106286775D01*
X56897804Y-106153742D01*
X56817805Y-106034015D01*
X56715985Y-105932195D01*
X56596258Y-105852196D01*
X56463225Y-105797092D01*
X56321997Y-105769000D01*
X56237421Y-105769000D01*
X56076119Y-105607699D01*
X56076119Y-105523122D01*
X56048027Y-105381894D01*
X55992923Y-105248861D01*
X55912924Y-105129134D01*
X55811104Y-105027314D01*
X55691377Y-104947315D01*
X55558344Y-104892211D01*
X55417116Y-104864119D01*
X55273122Y-104864119D01*
X55220541Y-104874578D01*
X55231000Y-104821997D01*
X55231000Y-104678003D01*
X55202908Y-104536775D01*
X55147804Y-104403742D01*
X55067805Y-104284015D01*
X54965985Y-104182195D01*
X54846258Y-104102196D01*
X54713225Y-104047092D01*
X54571997Y-104019000D01*
X54489622Y-104019000D01*
X54489622Y-103936625D01*
X54461530Y-103795397D01*
X54406426Y-103662364D01*
X54326427Y-103542637D01*
X54224607Y-103440817D01*
X54104880Y-103360818D01*
X53971847Y-103305714D01*
X53830619Y-103277622D01*
X53746042Y-103277622D01*
X53731000Y-103262580D01*
X53731000Y-103178003D01*
X53702908Y-103036775D01*
X53647804Y-102903742D01*
X53567805Y-102784015D01*
X53508000Y-102724210D01*
X53508000Y-102525790D01*
X53567805Y-102465985D01*
X53647804Y-102346258D01*
X53702908Y-102213225D01*
X53731000Y-102071997D01*
X53731000Y-101928003D01*
X53702908Y-101786775D01*
X53647804Y-101653742D01*
X53567805Y-101534015D01*
X53465985Y-101432195D01*
X53380387Y-101375000D01*
X53465985Y-101317805D01*
X53567805Y-101215985D01*
X53647804Y-101096258D01*
X53702908Y-100963225D01*
X53731000Y-100821997D01*
X53731000Y-100678003D01*
X53702908Y-100536775D01*
X53647804Y-100403742D01*
X53567805Y-100284015D01*
X53508000Y-100224210D01*
X53508000Y-100025790D01*
X53567805Y-99965985D01*
X53647804Y-99846258D01*
X53702908Y-99713225D01*
X53731000Y-99571997D01*
X53731000Y-99428003D01*
X53702908Y-99286775D01*
X53647804Y-99153742D01*
X53567805Y-99034015D01*
X53508000Y-98974210D01*
X53508000Y-98775784D01*
X53567805Y-98715979D01*
X53647804Y-98596252D01*
X53702908Y-98463219D01*
X53731000Y-98321991D01*
X53731000Y-98177997D01*
X53702908Y-98036769D01*
X53647804Y-97903736D01*
X53567805Y-97784009D01*
X53465985Y-97682189D01*
X53380391Y-97624997D01*
X53465985Y-97567805D01*
X53567805Y-97465985D01*
X53647804Y-97346258D01*
X53702908Y-97213225D01*
X53731000Y-97071997D01*
X53731000Y-96928003D01*
X53702908Y-96786775D01*
X53647804Y-96653742D01*
X53567805Y-96534015D01*
X53465985Y-96432195D01*
X53380391Y-96375003D01*
X53465985Y-96317811D01*
X53567805Y-96215991D01*
X53647804Y-96096264D01*
X53702908Y-95963231D01*
X53731000Y-95822003D01*
X53731000Y-95678009D01*
X53702908Y-95536781D01*
X53647804Y-95403748D01*
X53567805Y-95284021D01*
X53508000Y-95224216D01*
X53508000Y-95025790D01*
X53567805Y-94965985D01*
X53647804Y-94846258D01*
X53702908Y-94713225D01*
X53731000Y-94571997D01*
X53731000Y-94428003D01*
X53702908Y-94286775D01*
X53647804Y-94153742D01*
X53567805Y-94034015D01*
X53508000Y-93974210D01*
X53508000Y-93775790D01*
X53567805Y-93715985D01*
X53647804Y-93596258D01*
X53702908Y-93463225D01*
X53731000Y-93321997D01*
X53731000Y-93178003D01*
X53702908Y-93036775D01*
X53647804Y-92903742D01*
X53567805Y-92784015D01*
X53508000Y-92724210D01*
X53508000Y-92525790D01*
X53567805Y-92465985D01*
X53647804Y-92346258D01*
X53702908Y-92213225D01*
X53731000Y-92071997D01*
X53731000Y-91928003D01*
X53702908Y-91786775D01*
X53647804Y-91653742D01*
X53567805Y-91534015D01*
X53465985Y-91432195D01*
X53380381Y-91374996D01*
X53465985Y-91317797D01*
X53567805Y-91215977D01*
X53647804Y-91096250D01*
X53702908Y-90963217D01*
X53731000Y-90821989D01*
X53731000Y-90677995D01*
X53702908Y-90536767D01*
X53647804Y-90403734D01*
X53567805Y-90284007D01*
X53508000Y-90224202D01*
X53508000Y-90025790D01*
X53567805Y-89965985D01*
X53647804Y-89846258D01*
X53702908Y-89713225D01*
X53731000Y-89571997D01*
X53731000Y-89428003D01*
X53702908Y-89286775D01*
X53647804Y-89153742D01*
X53567805Y-89034015D01*
X53508000Y-88974210D01*
X53508000Y-88775796D01*
X53567805Y-88715991D01*
X53647804Y-88596264D01*
X53702908Y-88463231D01*
X53731000Y-88322003D01*
X53731000Y-88178009D01*
X53702908Y-88036781D01*
X53647804Y-87903748D01*
X53567805Y-87784021D01*
X53508000Y-87724216D01*
X53508000Y-87525790D01*
X53567805Y-87465985D01*
X53647804Y-87346258D01*
X53702908Y-87213225D01*
X53731000Y-87071997D01*
X53731000Y-86928003D01*
X53702908Y-86786775D01*
X53647804Y-86653742D01*
X53567805Y-86534015D01*
X53465985Y-86432195D01*
X53380387Y-86375000D01*
X53465985Y-86317805D01*
X53567805Y-86215985D01*
X53647804Y-86096258D01*
X53702908Y-85963225D01*
X53731000Y-85821997D01*
X53731000Y-85678003D01*
X53702908Y-85536775D01*
X53647804Y-85403742D01*
X53567805Y-85284015D01*
X53465985Y-85182195D01*
X53380387Y-85125000D01*
X53465985Y-85067805D01*
X53567805Y-84965985D01*
X53647804Y-84846258D01*
X53702908Y-84713225D01*
X53731000Y-84571997D01*
X53731000Y-84428003D01*
X53702908Y-84286775D01*
X53647804Y-84153742D01*
X53567805Y-84034015D01*
X53508000Y-83974210D01*
X53508000Y-83775796D01*
X53567805Y-83715991D01*
X53647804Y-83596264D01*
X53702908Y-83463231D01*
X53731000Y-83322003D01*
X53731000Y-83178009D01*
X53702908Y-83036781D01*
X53647804Y-82903748D01*
X53567805Y-82784021D01*
X53465985Y-82682201D01*
X53380382Y-82625003D01*
X53465985Y-82567805D01*
X53567805Y-82465985D01*
X53647804Y-82346258D01*
X53702908Y-82213225D01*
X53731000Y-82071997D01*
X53731000Y-81928003D01*
X53702908Y-81786775D01*
X53647804Y-81653742D01*
X53567805Y-81534015D01*
X53465985Y-81432195D01*
X53380387Y-81375000D01*
X53465985Y-81317805D01*
X53567805Y-81215985D01*
X53647804Y-81096258D01*
X53702908Y-80963225D01*
X53731000Y-80821997D01*
X53731000Y-80678003D01*
X53702908Y-80536775D01*
X53647804Y-80403742D01*
X53567805Y-80284015D01*
X53508000Y-80224210D01*
X53508000Y-80025790D01*
X53567805Y-79965985D01*
X53647804Y-79846258D01*
X53702908Y-79713225D01*
X53731000Y-79571997D01*
X53731000Y-79428003D01*
X53702908Y-79286775D01*
X53647804Y-79153742D01*
X53567805Y-79034015D01*
X53508000Y-78974210D01*
X53508000Y-78775790D01*
X53567805Y-78715985D01*
X53647804Y-78596258D01*
X53702908Y-78463225D01*
X53731000Y-78321997D01*
X53731000Y-78178003D01*
X53702908Y-78036775D01*
X53647804Y-77903742D01*
X53567805Y-77784015D01*
X53508000Y-77724210D01*
X53508000Y-77525790D01*
X53567805Y-77465985D01*
X53647804Y-77346258D01*
X53702908Y-77213225D01*
X53731000Y-77071997D01*
X53731000Y-76928003D01*
X53702908Y-76786775D01*
X53647804Y-76653742D01*
X53567805Y-76534015D01*
X53465985Y-76432195D01*
X53380387Y-76375000D01*
X53465985Y-76317805D01*
X53567805Y-76215985D01*
X53647804Y-76096258D01*
X53702908Y-75963225D01*
X53731000Y-75821997D01*
X53731000Y-75678003D01*
X53702908Y-75536775D01*
X53647804Y-75403742D01*
X53567805Y-75284015D01*
X53508000Y-75224210D01*
X53508000Y-75025790D01*
X53567805Y-74965985D01*
X53647804Y-74846258D01*
X53702908Y-74713225D01*
X53731000Y-74571997D01*
X53731000Y-74428003D01*
X53702908Y-74286775D01*
X53647804Y-74153742D01*
X53567805Y-74034015D01*
X53508000Y-73974210D01*
X53508000Y-73783728D01*
X53567805Y-73723923D01*
X53647804Y-73604196D01*
X53702908Y-73471163D01*
X53731000Y-73329935D01*
X53731000Y-73185941D01*
X53702908Y-73044713D01*
X53647804Y-72911680D01*
X53567805Y-72791953D01*
X53508000Y-72732148D01*
X53508000Y-72525790D01*
X53567805Y-72465985D01*
X53647804Y-72346258D01*
X53702908Y-72213225D01*
X53731000Y-72071997D01*
X53731000Y-71928003D01*
X53702908Y-71786775D01*
X53647804Y-71653742D01*
X53567805Y-71534015D01*
X53465985Y-71432195D01*
X53380387Y-71375000D01*
X53465985Y-71317805D01*
X53567805Y-71215985D01*
X53647804Y-71096258D01*
X53702908Y-70963225D01*
X53731000Y-70821997D01*
X53731000Y-70678003D01*
X53702908Y-70536775D01*
X53647804Y-70403742D01*
X53567805Y-70284015D01*
X53548644Y-70264854D01*
X53592562Y-70220936D01*
X53672561Y-70101209D01*
X53727665Y-69968176D01*
X53755757Y-69826948D01*
X53755757Y-69682954D01*
X53735844Y-69582843D01*
X54200000Y-69582843D01*
X54220621Y-69580812D01*
X54296489Y-69722752D01*
G36*
X48495268Y-61631310D02*
G01*
X48591682Y-61775605D01*
X48714395Y-61898318D01*
X48858690Y-61994732D01*
X49019022Y-62061144D01*
X49189229Y-62095000D01*
X49362771Y-62095000D01*
X49532978Y-62061144D01*
X49693310Y-61994732D01*
X49837605Y-61898318D01*
X49960318Y-61775605D01*
X50022596Y-61682399D01*
X50591879Y-61682399D01*
X50577836Y-61753000D01*
X50474003Y-61753000D01*
X50332775Y-61781092D01*
X50199742Y-61836196D01*
X50080015Y-61916195D01*
X49978195Y-62018015D01*
X49898196Y-62137742D01*
X49843092Y-62270775D01*
X49815000Y-62412003D01*
X49815000Y-62555997D01*
X49843092Y-62697225D01*
X49898196Y-62830258D01*
X49978195Y-62949985D01*
X50080015Y-63051805D01*
X50199742Y-63131804D01*
X50332775Y-63186908D01*
X50474003Y-63215000D01*
X50617997Y-63215000D01*
X50759225Y-63186908D01*
X50892258Y-63131804D01*
X51011985Y-63051805D01*
X51071790Y-62992000D01*
X52576772Y-62992000D01*
X52574188Y-63000518D01*
X52561928Y-63125000D01*
X52565000Y-63214250D01*
X52723750Y-63373000D01*
X53673000Y-63373000D01*
X53673000Y-63353000D01*
X53927000Y-63353000D01*
X53927000Y-63373000D01*
X53947000Y-63373000D01*
X53947000Y-63627000D01*
X53927000Y-63627000D01*
X53927000Y-63647000D01*
X53673000Y-63647000D01*
X53673000Y-63627000D01*
X52723750Y-63627000D01*
X52718683Y-63632067D01*
X52712379Y-63628697D01*
X52592681Y-63592387D01*
X52499391Y-63583199D01*
X52499380Y-63583199D01*
X52468199Y-63580128D01*
X52437018Y-63583199D01*
X50605122Y-63583199D01*
X50599605Y-63577682D01*
X50455310Y-63481268D01*
X50294978Y-63414856D01*
X50124771Y-63381000D01*
X49951229Y-63381000D01*
X49781022Y-63414856D01*
X49620690Y-63481268D01*
X49476395Y-63577682D01*
X49353682Y-63700395D01*
X49257268Y-63844690D01*
X49190856Y-64005022D01*
X49157000Y-64175229D01*
X49157000Y-64348771D01*
X49190856Y-64518978D01*
X49257268Y-64679310D01*
X49353682Y-64823605D01*
X49476395Y-64946318D01*
X49620690Y-65042732D01*
X49781022Y-65109144D01*
X49951229Y-65143000D01*
X50124771Y-65143000D01*
X50294978Y-65109144D01*
X50455310Y-65042732D01*
X50599605Y-64946318D01*
X50692724Y-64853199D01*
X52205175Y-64853199D01*
X52667157Y-65315182D01*
X52667157Y-65700000D01*
X52674513Y-65774689D01*
X52696299Y-65846508D01*
X52731678Y-65912696D01*
X52779289Y-65970711D01*
X52782217Y-65973114D01*
X52695506Y-66019463D01*
X52672299Y-66038509D01*
X52665985Y-66032195D01*
X52546258Y-65952196D01*
X52413225Y-65897092D01*
X52271997Y-65869000D01*
X52128003Y-65869000D01*
X51986775Y-65897092D01*
X51853742Y-65952196D01*
X51734015Y-66032195D01*
X51632195Y-66134015D01*
X51552196Y-66253742D01*
X51497092Y-66386775D01*
X51469000Y-66528003D01*
X51469000Y-66671997D01*
X51497092Y-66813225D01*
X51552196Y-66946258D01*
X51632195Y-67065985D01*
X51734015Y-67167805D01*
X51853742Y-67247804D01*
X51986775Y-67302908D01*
X52128003Y-67331000D01*
X52142000Y-67331000D01*
X52142001Y-67583469D01*
X52000000Y-67569483D01*
X50800000Y-67569483D01*
X50657483Y-67583520D01*
X50520443Y-67625090D01*
X50394147Y-67692597D01*
X50283446Y-67783446D01*
X50192597Y-67894147D01*
X50125090Y-68020443D01*
X50083520Y-68157483D01*
X50069483Y-68300000D01*
X50069483Y-69073000D01*
X48431000Y-69073000D01*
X48431000Y-61476154D01*
X48495268Y-61631310D01*
X48495268Y-61631310D01*
G37*
X48495268Y-61631310D02*
X48591682Y-61775605D01*
X48714395Y-61898318D01*
X48858690Y-61994732D01*
X49019022Y-62061144D01*
X49189229Y-62095000D01*
X49362771Y-62095000D01*
X49532978Y-62061144D01*
X49693310Y-61994732D01*
X49837605Y-61898318D01*
X49960318Y-61775605D01*
X50022596Y-61682399D01*
X50591879Y-61682399D01*
X50577836Y-61753000D01*
X50474003Y-61753000D01*
X50332775Y-61781092D01*
X50199742Y-61836196D01*
X50080015Y-61916195D01*
X49978195Y-62018015D01*
X49898196Y-62137742D01*
X49843092Y-62270775D01*
X49815000Y-62412003D01*
X49815000Y-62555997D01*
X49843092Y-62697225D01*
X49898196Y-62830258D01*
X49978195Y-62949985D01*
X50080015Y-63051805D01*
X50199742Y-63131804D01*
X50332775Y-63186908D01*
X50474003Y-63215000D01*
X50617997Y-63215000D01*
X50759225Y-63186908D01*
X50892258Y-63131804D01*
X51011985Y-63051805D01*
X51071790Y-62992000D01*
X52576772Y-62992000D01*
X52574188Y-63000518D01*
X52561928Y-63125000D01*
X52565000Y-63214250D01*
X52723750Y-63373000D01*
X53673000Y-63373000D01*
X53673000Y-63353000D01*
X53927000Y-63353000D01*
X53927000Y-63373000D01*
X53947000Y-63373000D01*
X53947000Y-63627000D01*
X53927000Y-63627000D01*
X53927000Y-63647000D01*
X53673000Y-63647000D01*
X53673000Y-63627000D01*
X52723750Y-63627000D01*
X52718683Y-63632067D01*
X52712379Y-63628697D01*
X52592681Y-63592387D01*
X52499391Y-63583199D01*
X52499380Y-63583199D01*
X52468199Y-63580128D01*
X52437018Y-63583199D01*
X50605122Y-63583199D01*
X50599605Y-63577682D01*
X50455310Y-63481268D01*
X50294978Y-63414856D01*
X50124771Y-63381000D01*
X49951229Y-63381000D01*
X49781022Y-63414856D01*
X49620690Y-63481268D01*
X49476395Y-63577682D01*
X49353682Y-63700395D01*
X49257268Y-63844690D01*
X49190856Y-64005022D01*
X49157000Y-64175229D01*
X49157000Y-64348771D01*
X49190856Y-64518978D01*
X49257268Y-64679310D01*
X49353682Y-64823605D01*
X49476395Y-64946318D01*
X49620690Y-65042732D01*
X49781022Y-65109144D01*
X49951229Y-65143000D01*
X50124771Y-65143000D01*
X50294978Y-65109144D01*
X50455310Y-65042732D01*
X50599605Y-64946318D01*
X50692724Y-64853199D01*
X52205175Y-64853199D01*
X52667157Y-65315182D01*
X52667157Y-65700000D01*
X52674513Y-65774689D01*
X52696299Y-65846508D01*
X52731678Y-65912696D01*
X52779289Y-65970711D01*
X52782217Y-65973114D01*
X52695506Y-66019463D01*
X52672299Y-66038509D01*
X52665985Y-66032195D01*
X52546258Y-65952196D01*
X52413225Y-65897092D01*
X52271997Y-65869000D01*
X52128003Y-65869000D01*
X51986775Y-65897092D01*
X51853742Y-65952196D01*
X51734015Y-66032195D01*
X51632195Y-66134015D01*
X51552196Y-66253742D01*
X51497092Y-66386775D01*
X51469000Y-66528003D01*
X51469000Y-66671997D01*
X51497092Y-66813225D01*
X51552196Y-66946258D01*
X51632195Y-67065985D01*
X51734015Y-67167805D01*
X51853742Y-67247804D01*
X51986775Y-67302908D01*
X52128003Y-67331000D01*
X52142000Y-67331000D01*
X52142001Y-67583469D01*
X52000000Y-67569483D01*
X50800000Y-67569483D01*
X50657483Y-67583520D01*
X50520443Y-67625090D01*
X50394147Y-67692597D01*
X50283446Y-67783446D01*
X50192597Y-67894147D01*
X50125090Y-68020443D01*
X50083520Y-68157483D01*
X50069483Y-68300000D01*
X50069483Y-69073000D01*
X48431000Y-69073000D01*
X48431000Y-61476154D01*
X48495268Y-61631310D01*
G36*
X53777000Y-66873000D02*
G01*
X53797000Y-66873000D01*
X53797000Y-67127000D01*
X53777000Y-67127000D01*
X53777000Y-67147000D01*
X53523000Y-67147000D01*
X53523000Y-67127000D01*
X53503000Y-67127000D01*
X53503000Y-66873000D01*
X53523000Y-66873000D01*
X53523000Y-66853000D01*
X53777000Y-66853000D01*
X53777000Y-66873000D01*
X53777000Y-66873000D01*
G37*
X53777000Y-66873000D02*
X53797000Y-66873000D01*
X53797000Y-67127000D01*
X53777000Y-67127000D01*
X53777000Y-67147000D01*
X53523000Y-67147000D01*
X53523000Y-67127000D01*
X53503000Y-67127000D01*
X53503000Y-66873000D01*
X53523000Y-66873000D01*
X53523000Y-66853000D01*
X53777000Y-66853000D01*
X53777000Y-66873000D01*
G36*
X60151863Y-62573887D02*
G01*
X60077000Y-62648750D01*
X60077000Y-63373000D01*
X60097000Y-63373000D01*
X60097000Y-63627000D01*
X60077000Y-63627000D01*
X60077000Y-63647000D01*
X59823000Y-63647000D01*
X59823000Y-63627000D01*
X59803000Y-63627000D01*
X59803000Y-63373000D01*
X59823000Y-63373000D01*
X59823000Y-62648750D01*
X59664250Y-62490000D01*
X59350000Y-62486928D01*
X59225518Y-62499188D01*
X59105820Y-62535498D01*
X58995506Y-62594463D01*
X58898815Y-62673815D01*
X58819463Y-62770506D01*
X58814032Y-62780666D01*
X58796508Y-62771299D01*
X58724689Y-62749513D01*
X58650000Y-62742157D01*
X57450000Y-62742157D01*
X57375311Y-62749513D01*
X57303492Y-62771299D01*
X57237304Y-62806678D01*
X57228403Y-62813983D01*
X56125045Y-61710625D01*
X56109138Y-61691242D01*
X56098363Y-61682399D01*
X59260375Y-61682399D01*
X60151863Y-62573887D01*
X60151863Y-62573887D01*
G37*
X60151863Y-62573887D02*
X60077000Y-62648750D01*
X60077000Y-63373000D01*
X60097000Y-63373000D01*
X60097000Y-63627000D01*
X60077000Y-63627000D01*
X60077000Y-63647000D01*
X59823000Y-63647000D01*
X59823000Y-63627000D01*
X59803000Y-63627000D01*
X59803000Y-63373000D01*
X59823000Y-63373000D01*
X59823000Y-62648750D01*
X59664250Y-62490000D01*
X59350000Y-62486928D01*
X59225518Y-62499188D01*
X59105820Y-62535498D01*
X58995506Y-62594463D01*
X58898815Y-62673815D01*
X58819463Y-62770506D01*
X58814032Y-62780666D01*
X58796508Y-62771299D01*
X58724689Y-62749513D01*
X58650000Y-62742157D01*
X57450000Y-62742157D01*
X57375311Y-62749513D01*
X57303492Y-62771299D01*
X57237304Y-62806678D01*
X57228403Y-62813983D01*
X56125045Y-61710625D01*
X56109138Y-61691242D01*
X56098363Y-61682399D01*
X59260375Y-61682399D01*
X60151863Y-62573887D01*
G36*
X65485000Y-53373000D02*
G01*
X65505000Y-53373000D01*
X65505000Y-53627000D01*
X65485000Y-53627000D01*
X65485000Y-53647000D01*
X65231000Y-53647000D01*
X65231000Y-53627000D01*
X65211000Y-53627000D01*
X65211000Y-53373000D01*
X65231000Y-53373000D01*
X65231000Y-53353000D01*
X65485000Y-53353000D01*
X65485000Y-53373000D01*
X65485000Y-53373000D01*
G37*
X65485000Y-53373000D02*
X65505000Y-53373000D01*
X65505000Y-53627000D01*
X65485000Y-53627000D01*
X65485000Y-53647000D01*
X65231000Y-53647000D01*
X65231000Y-53627000D01*
X65211000Y-53627000D01*
X65211000Y-53373000D01*
X65231000Y-53373000D01*
X65231000Y-53353000D01*
X65485000Y-53353000D01*
X65485000Y-53373000D01*
G36*
X55624359Y-45470920D02*
G01*
X55798412Y-45704269D01*
X56014645Y-45899178D01*
X56202633Y-46011157D01*
X56046000Y-46011157D01*
X55971311Y-46018513D01*
X55899492Y-46040299D01*
X55833304Y-46075678D01*
X55775289Y-46123289D01*
X55727678Y-46181304D01*
X55692299Y-46247492D01*
X55670513Y-46319311D01*
X55663157Y-46394000D01*
X55663157Y-48094000D01*
X55670513Y-48168689D01*
X55692299Y-48240508D01*
X55727678Y-48306696D01*
X55775289Y-48364711D01*
X55833304Y-48412322D01*
X55899492Y-48447701D01*
X55971311Y-48469487D01*
X56046000Y-48476843D01*
X56048737Y-48476843D01*
X55033580Y-49492000D01*
X54577131Y-49492000D01*
X54575487Y-49475311D01*
X54553701Y-49403492D01*
X54518322Y-49337304D01*
X54470711Y-49279289D01*
X54412696Y-49231678D01*
X54385726Y-49217262D01*
X54482494Y-49165537D01*
X54579185Y-49086185D01*
X54658537Y-48989494D01*
X54717502Y-48879180D01*
X54753812Y-48759482D01*
X54766072Y-48635000D01*
X54763000Y-48545750D01*
X54604250Y-48387000D01*
X53655000Y-48387000D01*
X53655000Y-48407000D01*
X53401000Y-48407000D01*
X53401000Y-48387000D01*
X53381000Y-48387000D01*
X53381000Y-48133000D01*
X53401000Y-48133000D01*
X53401000Y-48113000D01*
X53655000Y-48113000D01*
X53655000Y-48133000D01*
X54604250Y-48133000D01*
X54763000Y-47974250D01*
X54766072Y-47885000D01*
X54753812Y-47760518D01*
X54717502Y-47640820D01*
X54658537Y-47530506D01*
X54579185Y-47433815D01*
X54482494Y-47354463D01*
X54372180Y-47295498D01*
X54252482Y-47259188D01*
X54128000Y-47246928D01*
X53813750Y-47250000D01*
X53655002Y-47408748D01*
X53655002Y-47250000D01*
X53581420Y-47250000D01*
X55459571Y-45371850D01*
X55478948Y-45355948D01*
X55500246Y-45329996D01*
X55536307Y-45286056D01*
X55624359Y-45470920D01*
X55624359Y-45470920D01*
G37*
X55624359Y-45470920D02*
X55798412Y-45704269D01*
X56014645Y-45899178D01*
X56202633Y-46011157D01*
X56046000Y-46011157D01*
X55971311Y-46018513D01*
X55899492Y-46040299D01*
X55833304Y-46075678D01*
X55775289Y-46123289D01*
X55727678Y-46181304D01*
X55692299Y-46247492D01*
X55670513Y-46319311D01*
X55663157Y-46394000D01*
X55663157Y-48094000D01*
X55670513Y-48168689D01*
X55692299Y-48240508D01*
X55727678Y-48306696D01*
X55775289Y-48364711D01*
X55833304Y-48412322D01*
X55899492Y-48447701D01*
X55971311Y-48469487D01*
X56046000Y-48476843D01*
X56048737Y-48476843D01*
X55033580Y-49492000D01*
X54577131Y-49492000D01*
X54575487Y-49475311D01*
X54553701Y-49403492D01*
X54518322Y-49337304D01*
X54470711Y-49279289D01*
X54412696Y-49231678D01*
X54385726Y-49217262D01*
X54482494Y-49165537D01*
X54579185Y-49086185D01*
X54658537Y-48989494D01*
X54717502Y-48879180D01*
X54753812Y-48759482D01*
X54766072Y-48635000D01*
X54763000Y-48545750D01*
X54604250Y-48387000D01*
X53655000Y-48387000D01*
X53655000Y-48407000D01*
X53401000Y-48407000D01*
X53401000Y-48387000D01*
X53381000Y-48387000D01*
X53381000Y-48133000D01*
X53401000Y-48133000D01*
X53401000Y-48113000D01*
X53655000Y-48113000D01*
X53655000Y-48133000D01*
X54604250Y-48133000D01*
X54763000Y-47974250D01*
X54766072Y-47885000D01*
X54753812Y-47760518D01*
X54717502Y-47640820D01*
X54658537Y-47530506D01*
X54579185Y-47433815D01*
X54482494Y-47354463D01*
X54372180Y-47295498D01*
X54252482Y-47259188D01*
X54128000Y-47246928D01*
X53813750Y-47250000D01*
X53655002Y-47408748D01*
X53655002Y-47250000D01*
X53581420Y-47250000D01*
X55459571Y-45371850D01*
X55478948Y-45355948D01*
X55500246Y-45329996D01*
X55536307Y-45286056D01*
X55624359Y-45470920D01*
G36*
X62738000Y-39487314D02*
G01*
X62738001Y-45372010D01*
X62678195Y-45431816D01*
X62598196Y-45551543D01*
X62543092Y-45684576D01*
X62515000Y-45825804D01*
X62515000Y-45969798D01*
X62543092Y-46111026D01*
X62598196Y-46244059D01*
X62678195Y-46363786D01*
X62780015Y-46465606D01*
X62876558Y-46530114D01*
X62847678Y-46565304D01*
X62812299Y-46631492D01*
X62790513Y-46703311D01*
X62783157Y-46778000D01*
X62783157Y-47220000D01*
X61532843Y-47220000D01*
X61532843Y-46800000D01*
X61525487Y-46725311D01*
X61503701Y-46653492D01*
X61468322Y-46587304D01*
X61420711Y-46529289D01*
X61362696Y-46481678D01*
X61296508Y-46446299D01*
X61277797Y-46440623D01*
X61635578Y-46082843D01*
X62100000Y-46082843D01*
X62174689Y-46075487D01*
X62246508Y-46053701D01*
X62312696Y-46018322D01*
X62370711Y-45970711D01*
X62418322Y-45912696D01*
X62453701Y-45846508D01*
X62475487Y-45774689D01*
X62482843Y-45700000D01*
X62482843Y-43800000D01*
X62475487Y-43725311D01*
X62453701Y-43653492D01*
X62418322Y-43587304D01*
X62370711Y-43529289D01*
X62312696Y-43481678D01*
X62246508Y-43446299D01*
X62174689Y-43424513D01*
X62100000Y-43417157D01*
X61300000Y-43417157D01*
X61225311Y-43424513D01*
X61153492Y-43446299D01*
X61087304Y-43481678D01*
X61029289Y-43529289D01*
X60981678Y-43587304D01*
X60946299Y-43653492D01*
X60924513Y-43725311D01*
X60917157Y-43800000D01*
X60917157Y-45364422D01*
X60836891Y-45444688D01*
X60835000Y-45035750D01*
X60676250Y-44877000D01*
X59927000Y-44877000D01*
X59927000Y-44897000D01*
X59673000Y-44897000D01*
X59673000Y-44877000D01*
X59653000Y-44877000D01*
X59653000Y-44623000D01*
X59673000Y-44623000D01*
X59673000Y-44603000D01*
X59927000Y-44603000D01*
X59927000Y-44623000D01*
X60676250Y-44623000D01*
X60835000Y-44464250D01*
X60838072Y-43800000D01*
X60825812Y-43675518D01*
X60789502Y-43555820D01*
X60730537Y-43445506D01*
X60651185Y-43348815D01*
X60554494Y-43269463D01*
X60444180Y-43210498D01*
X60324482Y-43174188D01*
X60200000Y-43161928D01*
X60128710Y-43163845D01*
X60138908Y-43139225D01*
X60167000Y-42997997D01*
X60167000Y-42963420D01*
X60629570Y-42500851D01*
X60648948Y-42484948D01*
X60674019Y-42454399D01*
X60712429Y-42407596D01*
X60759600Y-42319345D01*
X60759882Y-42318416D01*
X60779774Y-42252843D01*
X60788000Y-42252843D01*
X60862689Y-42245487D01*
X60923000Y-42227192D01*
X60983311Y-42245487D01*
X61058000Y-42252843D01*
X62058000Y-42252843D01*
X62132689Y-42245487D01*
X62204508Y-42223701D01*
X62270696Y-42188322D01*
X62328711Y-42140711D01*
X62376322Y-42082696D01*
X62411701Y-42016508D01*
X62433487Y-41944689D01*
X62440843Y-41870000D01*
X62440843Y-40670000D01*
X62433487Y-40595311D01*
X62411701Y-40523492D01*
X62376322Y-40457304D01*
X62328711Y-40399289D01*
X62270696Y-40351678D01*
X62204508Y-40316299D01*
X62132689Y-40294513D01*
X62058000Y-40287157D01*
X61565776Y-40287157D01*
X61607804Y-40224258D01*
X61662908Y-40091225D01*
X61691000Y-39949997D01*
X61691000Y-39806003D01*
X61662908Y-39664775D01*
X61607804Y-39531742D01*
X61527805Y-39412015D01*
X61425985Y-39310195D01*
X61306258Y-39230196D01*
X61173225Y-39175092D01*
X61031997Y-39147000D01*
X60888003Y-39147000D01*
X60746775Y-39175092D01*
X60613742Y-39230196D01*
X60494015Y-39310195D01*
X60434210Y-39370000D01*
X58310944Y-39370000D01*
X58286000Y-39367543D01*
X58261056Y-39370000D01*
X58261053Y-39370000D01*
X58186415Y-39377351D01*
X58090657Y-39406399D01*
X58049576Y-39428357D01*
X58002404Y-39453571D01*
X57979659Y-39472238D01*
X57925052Y-39517052D01*
X57909145Y-39536435D01*
X57406435Y-40039145D01*
X57387052Y-40055052D01*
X57323571Y-40132405D01*
X57276399Y-40220658D01*
X57256227Y-40287157D01*
X57248000Y-40287157D01*
X57173311Y-40294513D01*
X57113000Y-40312808D01*
X57052689Y-40294513D01*
X56978000Y-40287157D01*
X55978000Y-40287157D01*
X55903311Y-40294513D01*
X55843000Y-40312808D01*
X55782689Y-40294513D01*
X55708000Y-40287157D01*
X54708000Y-40287157D01*
X54633311Y-40294513D01*
X54561492Y-40316299D01*
X54495304Y-40351678D01*
X54437289Y-40399289D01*
X54389678Y-40457304D01*
X54354299Y-40523492D01*
X54332513Y-40595311D01*
X54325157Y-40670000D01*
X54325157Y-41870000D01*
X54332513Y-41944689D01*
X54354299Y-42016508D01*
X54389678Y-42082696D01*
X54437289Y-42140711D01*
X54495304Y-42188322D01*
X54561492Y-42223701D01*
X54633311Y-42245487D01*
X54708000Y-42252843D01*
X54858929Y-42252843D01*
X54824001Y-42276181D01*
X54722181Y-42378001D01*
X54642182Y-42497728D01*
X54587078Y-42630761D01*
X54563868Y-42747447D01*
X53892855Y-42076435D01*
X53876948Y-42057052D01*
X53799595Y-41993571D01*
X53711343Y-41946399D01*
X53640602Y-41924940D01*
X53637487Y-41893311D01*
X53615701Y-41821492D01*
X53580322Y-41755304D01*
X53532711Y-41697289D01*
X53474696Y-41649678D01*
X53408508Y-41614299D01*
X53336689Y-41592513D01*
X53262000Y-41585157D01*
X52062000Y-41585157D01*
X51987311Y-41592513D01*
X51915492Y-41614299D01*
X51849304Y-41649678D01*
X51791289Y-41697289D01*
X51743678Y-41755304D01*
X51708299Y-41821492D01*
X51686513Y-41893311D01*
X51679157Y-41968000D01*
X51679157Y-42868000D01*
X51686513Y-42942689D01*
X51708299Y-43014508D01*
X51743678Y-43080696D01*
X51791289Y-43138711D01*
X51849304Y-43186322D01*
X51915492Y-43221701D01*
X51987311Y-43243487D01*
X52062000Y-43250843D01*
X53262000Y-43250843D01*
X53336689Y-43243487D01*
X53408508Y-43221701D01*
X53474696Y-43186322D01*
X53524791Y-43145211D01*
X54610001Y-44230422D01*
X54610000Y-44784579D01*
X51892423Y-47502157D01*
X51260263Y-47502157D01*
X53327420Y-45435000D01*
X53411997Y-45435000D01*
X53553225Y-45406908D01*
X53686258Y-45351804D01*
X53805985Y-45271805D01*
X53907805Y-45169985D01*
X53987804Y-45050258D01*
X54042908Y-44917225D01*
X54071000Y-44775997D01*
X54071000Y-44632003D01*
X54042908Y-44490775D01*
X53987804Y-44357742D01*
X53907805Y-44238015D01*
X53805985Y-44136195D01*
X53686258Y-44056196D01*
X53553225Y-44001092D01*
X53411997Y-43973000D01*
X53268003Y-43973000D01*
X53126775Y-44001092D01*
X52993742Y-44056196D01*
X52874015Y-44136195D01*
X52772195Y-44238015D01*
X52692196Y-44357742D01*
X52637092Y-44490775D01*
X52609000Y-44632003D01*
X52609000Y-44716580D01*
X50622190Y-46703390D01*
X50622190Y-46616230D01*
X51903565Y-45334855D01*
X51922948Y-45318948D01*
X51986429Y-45241595D01*
X52033601Y-45153343D01*
X52062649Y-45057585D01*
X52070000Y-44982947D01*
X52070000Y-44982944D01*
X52072457Y-44958000D01*
X52070000Y-44933056D01*
X52070000Y-44782912D01*
X52098595Y-44763805D01*
X52200415Y-44661985D01*
X52280414Y-44542258D01*
X52335518Y-44409225D01*
X52363610Y-44267997D01*
X52363610Y-44124003D01*
X52335518Y-43982775D01*
X52280414Y-43849742D01*
X52200415Y-43730015D01*
X52098595Y-43628195D01*
X51978868Y-43548196D01*
X51845835Y-43493092D01*
X51704607Y-43465000D01*
X51620030Y-43465000D01*
X51311307Y-43156277D01*
X51332711Y-43138711D01*
X51380322Y-43080696D01*
X51415701Y-43014508D01*
X51437487Y-42942689D01*
X51444843Y-42868000D01*
X51444843Y-41968000D01*
X51437487Y-41893311D01*
X51415701Y-41821492D01*
X51380322Y-41755304D01*
X51332711Y-41697289D01*
X51274696Y-41649678D01*
X51208508Y-41614299D01*
X51136689Y-41592513D01*
X51062000Y-41585157D01*
X49862000Y-41585157D01*
X49787311Y-41592513D01*
X49715492Y-41614299D01*
X49649304Y-41649678D01*
X49591289Y-41697289D01*
X49543678Y-41755304D01*
X49530000Y-41780893D01*
X49530000Y-39072420D01*
X51610823Y-36991598D01*
X51621092Y-37043225D01*
X51676196Y-37176258D01*
X51756195Y-37295985D01*
X51858015Y-37397805D01*
X51958579Y-37465000D01*
X51858015Y-37532195D01*
X51756195Y-37634015D01*
X51676196Y-37753742D01*
X51621092Y-37886775D01*
X51593000Y-38028003D01*
X51593000Y-38171997D01*
X51621092Y-38313225D01*
X51676196Y-38446258D01*
X51756195Y-38565985D01*
X51858015Y-38667805D01*
X51977742Y-38747804D01*
X52110775Y-38802908D01*
X52252003Y-38831000D01*
X52395997Y-38831000D01*
X52537225Y-38802908D01*
X52670258Y-38747804D01*
X52789985Y-38667805D01*
X52849790Y-38608000D01*
X53275157Y-38608000D01*
X53275157Y-38630000D01*
X53282513Y-38704689D01*
X53300808Y-38765000D01*
X53282513Y-38825311D01*
X53275157Y-38900000D01*
X53275157Y-39900000D01*
X53282513Y-39974689D01*
X53304299Y-40046508D01*
X53339678Y-40112696D01*
X53387289Y-40170711D01*
X53445304Y-40218322D01*
X53511492Y-40253701D01*
X53583311Y-40275487D01*
X53658000Y-40282843D01*
X54858000Y-40282843D01*
X54932689Y-40275487D01*
X55004508Y-40253701D01*
X55070696Y-40218322D01*
X55128711Y-40170711D01*
X55176322Y-40112696D01*
X55211701Y-40046508D01*
X55233487Y-39974689D01*
X55240843Y-39900000D01*
X55240843Y-38900000D01*
X55233487Y-38825311D01*
X55215192Y-38765000D01*
X55233487Y-38704689D01*
X55240843Y-38630000D01*
X55240843Y-37630000D01*
X55233487Y-37555311D01*
X55215192Y-37495000D01*
X55233487Y-37434689D01*
X55240843Y-37360000D01*
X55240843Y-36360000D01*
X55233487Y-36285311D01*
X55215192Y-36225000D01*
X55233487Y-36164689D01*
X55240843Y-36090000D01*
X55240843Y-35090000D01*
X55233487Y-35015311D01*
X55215192Y-34955000D01*
X55233487Y-34894689D01*
X55240055Y-34828000D01*
X58078686Y-34828000D01*
X62738000Y-39487314D01*
X62738000Y-39487314D01*
G37*
X62738000Y-39487314D02*
X62738001Y-45372010D01*
X62678195Y-45431816D01*
X62598196Y-45551543D01*
X62543092Y-45684576D01*
X62515000Y-45825804D01*
X62515000Y-45969798D01*
X62543092Y-46111026D01*
X62598196Y-46244059D01*
X62678195Y-46363786D01*
X62780015Y-46465606D01*
X62876558Y-46530114D01*
X62847678Y-46565304D01*
X62812299Y-46631492D01*
X62790513Y-46703311D01*
X62783157Y-46778000D01*
X62783157Y-47220000D01*
X61532843Y-47220000D01*
X61532843Y-46800000D01*
X61525487Y-46725311D01*
X61503701Y-46653492D01*
X61468322Y-46587304D01*
X61420711Y-46529289D01*
X61362696Y-46481678D01*
X61296508Y-46446299D01*
X61277797Y-46440623D01*
X61635578Y-46082843D01*
X62100000Y-46082843D01*
X62174689Y-46075487D01*
X62246508Y-46053701D01*
X62312696Y-46018322D01*
X62370711Y-45970711D01*
X62418322Y-45912696D01*
X62453701Y-45846508D01*
X62475487Y-45774689D01*
X62482843Y-45700000D01*
X62482843Y-43800000D01*
X62475487Y-43725311D01*
X62453701Y-43653492D01*
X62418322Y-43587304D01*
X62370711Y-43529289D01*
X62312696Y-43481678D01*
X62246508Y-43446299D01*
X62174689Y-43424513D01*
X62100000Y-43417157D01*
X61300000Y-43417157D01*
X61225311Y-43424513D01*
X61153492Y-43446299D01*
X61087304Y-43481678D01*
X61029289Y-43529289D01*
X60981678Y-43587304D01*
X60946299Y-43653492D01*
X60924513Y-43725311D01*
X60917157Y-43800000D01*
X60917157Y-45364422D01*
X60836891Y-45444688D01*
X60835000Y-45035750D01*
X60676250Y-44877000D01*
X59927000Y-44877000D01*
X59927000Y-44897000D01*
X59673000Y-44897000D01*
X59673000Y-44877000D01*
X59653000Y-44877000D01*
X59653000Y-44623000D01*
X59673000Y-44623000D01*
X59673000Y-44603000D01*
X59927000Y-44603000D01*
X59927000Y-44623000D01*
X60676250Y-44623000D01*
X60835000Y-44464250D01*
X60838072Y-43800000D01*
X60825812Y-43675518D01*
X60789502Y-43555820D01*
X60730537Y-43445506D01*
X60651185Y-43348815D01*
X60554494Y-43269463D01*
X60444180Y-43210498D01*
X60324482Y-43174188D01*
X60200000Y-43161928D01*
X60128710Y-43163845D01*
X60138908Y-43139225D01*
X60167000Y-42997997D01*
X60167000Y-42963420D01*
X60629570Y-42500851D01*
X60648948Y-42484948D01*
X60674019Y-42454399D01*
X60712429Y-42407596D01*
X60759600Y-42319345D01*
X60759882Y-42318416D01*
X60779774Y-42252843D01*
X60788000Y-42252843D01*
X60862689Y-42245487D01*
X60923000Y-42227192D01*
X60983311Y-42245487D01*
X61058000Y-42252843D01*
X62058000Y-42252843D01*
X62132689Y-42245487D01*
X62204508Y-42223701D01*
X62270696Y-42188322D01*
X62328711Y-42140711D01*
X62376322Y-42082696D01*
X62411701Y-42016508D01*
X62433487Y-41944689D01*
X62440843Y-41870000D01*
X62440843Y-40670000D01*
X62433487Y-40595311D01*
X62411701Y-40523492D01*
X62376322Y-40457304D01*
X62328711Y-40399289D01*
X62270696Y-40351678D01*
X62204508Y-40316299D01*
X62132689Y-40294513D01*
X62058000Y-40287157D01*
X61565776Y-40287157D01*
X61607804Y-40224258D01*
X61662908Y-40091225D01*
X61691000Y-39949997D01*
X61691000Y-39806003D01*
X61662908Y-39664775D01*
X61607804Y-39531742D01*
X61527805Y-39412015D01*
X61425985Y-39310195D01*
X61306258Y-39230196D01*
X61173225Y-39175092D01*
X61031997Y-39147000D01*
X60888003Y-39147000D01*
X60746775Y-39175092D01*
X60613742Y-39230196D01*
X60494015Y-39310195D01*
X60434210Y-39370000D01*
X58310944Y-39370000D01*
X58286000Y-39367543D01*
X58261056Y-39370000D01*
X58261053Y-39370000D01*
X58186415Y-39377351D01*
X58090657Y-39406399D01*
X58049576Y-39428357D01*
X58002404Y-39453571D01*
X57979659Y-39472238D01*
X57925052Y-39517052D01*
X57909145Y-39536435D01*
X57406435Y-40039145D01*
X57387052Y-40055052D01*
X57323571Y-40132405D01*
X57276399Y-40220658D01*
X57256227Y-40287157D01*
X57248000Y-40287157D01*
X57173311Y-40294513D01*
X57113000Y-40312808D01*
X57052689Y-40294513D01*
X56978000Y-40287157D01*
X55978000Y-40287157D01*
X55903311Y-40294513D01*
X55843000Y-40312808D01*
X55782689Y-40294513D01*
X55708000Y-40287157D01*
X54708000Y-40287157D01*
X54633311Y-40294513D01*
X54561492Y-40316299D01*
X54495304Y-40351678D01*
X54437289Y-40399289D01*
X54389678Y-40457304D01*
X54354299Y-40523492D01*
X54332513Y-40595311D01*
X54325157Y-40670000D01*
X54325157Y-41870000D01*
X54332513Y-41944689D01*
X54354299Y-42016508D01*
X54389678Y-42082696D01*
X54437289Y-42140711D01*
X54495304Y-42188322D01*
X54561492Y-42223701D01*
X54633311Y-42245487D01*
X54708000Y-42252843D01*
X54858929Y-42252843D01*
X54824001Y-42276181D01*
X54722181Y-42378001D01*
X54642182Y-42497728D01*
X54587078Y-42630761D01*
X54563868Y-42747447D01*
X53892855Y-42076435D01*
X53876948Y-42057052D01*
X53799595Y-41993571D01*
X53711343Y-41946399D01*
X53640602Y-41924940D01*
X53637487Y-41893311D01*
X53615701Y-41821492D01*
X53580322Y-41755304D01*
X53532711Y-41697289D01*
X53474696Y-41649678D01*
X53408508Y-41614299D01*
X53336689Y-41592513D01*
X53262000Y-41585157D01*
X52062000Y-41585157D01*
X51987311Y-41592513D01*
X51915492Y-41614299D01*
X51849304Y-41649678D01*
X51791289Y-41697289D01*
X51743678Y-41755304D01*
X51708299Y-41821492D01*
X51686513Y-41893311D01*
X51679157Y-41968000D01*
X51679157Y-42868000D01*
X51686513Y-42942689D01*
X51708299Y-43014508D01*
X51743678Y-43080696D01*
X51791289Y-43138711D01*
X51849304Y-43186322D01*
X51915492Y-43221701D01*
X51987311Y-43243487D01*
X52062000Y-43250843D01*
X53262000Y-43250843D01*
X53336689Y-43243487D01*
X53408508Y-43221701D01*
X53474696Y-43186322D01*
X53524791Y-43145211D01*
X54610001Y-44230422D01*
X54610000Y-44784579D01*
X51892423Y-47502157D01*
X51260263Y-47502157D01*
X53327420Y-45435000D01*
X53411997Y-45435000D01*
X53553225Y-45406908D01*
X53686258Y-45351804D01*
X53805985Y-45271805D01*
X53907805Y-45169985D01*
X53987804Y-45050258D01*
X54042908Y-44917225D01*
X54071000Y-44775997D01*
X54071000Y-44632003D01*
X54042908Y-44490775D01*
X53987804Y-44357742D01*
X53907805Y-44238015D01*
X53805985Y-44136195D01*
X53686258Y-44056196D01*
X53553225Y-44001092D01*
X53411997Y-43973000D01*
X53268003Y-43973000D01*
X53126775Y-44001092D01*
X52993742Y-44056196D01*
X52874015Y-44136195D01*
X52772195Y-44238015D01*
X52692196Y-44357742D01*
X52637092Y-44490775D01*
X52609000Y-44632003D01*
X52609000Y-44716580D01*
X50622190Y-46703390D01*
X50622190Y-46616230D01*
X51903565Y-45334855D01*
X51922948Y-45318948D01*
X51986429Y-45241595D01*
X52033601Y-45153343D01*
X52062649Y-45057585D01*
X52070000Y-44982947D01*
X52070000Y-44982944D01*
X52072457Y-44958000D01*
X52070000Y-44933056D01*
X52070000Y-44782912D01*
X52098595Y-44763805D01*
X52200415Y-44661985D01*
X52280414Y-44542258D01*
X52335518Y-44409225D01*
X52363610Y-44267997D01*
X52363610Y-44124003D01*
X52335518Y-43982775D01*
X52280414Y-43849742D01*
X52200415Y-43730015D01*
X52098595Y-43628195D01*
X51978868Y-43548196D01*
X51845835Y-43493092D01*
X51704607Y-43465000D01*
X51620030Y-43465000D01*
X51311307Y-43156277D01*
X51332711Y-43138711D01*
X51380322Y-43080696D01*
X51415701Y-43014508D01*
X51437487Y-42942689D01*
X51444843Y-42868000D01*
X51444843Y-41968000D01*
X51437487Y-41893311D01*
X51415701Y-41821492D01*
X51380322Y-41755304D01*
X51332711Y-41697289D01*
X51274696Y-41649678D01*
X51208508Y-41614299D01*
X51136689Y-41592513D01*
X51062000Y-41585157D01*
X49862000Y-41585157D01*
X49787311Y-41592513D01*
X49715492Y-41614299D01*
X49649304Y-41649678D01*
X49591289Y-41697289D01*
X49543678Y-41755304D01*
X49530000Y-41780893D01*
X49530000Y-39072420D01*
X51610823Y-36991598D01*
X51621092Y-37043225D01*
X51676196Y-37176258D01*
X51756195Y-37295985D01*
X51858015Y-37397805D01*
X51958579Y-37465000D01*
X51858015Y-37532195D01*
X51756195Y-37634015D01*
X51676196Y-37753742D01*
X51621092Y-37886775D01*
X51593000Y-38028003D01*
X51593000Y-38171997D01*
X51621092Y-38313225D01*
X51676196Y-38446258D01*
X51756195Y-38565985D01*
X51858015Y-38667805D01*
X51977742Y-38747804D01*
X52110775Y-38802908D01*
X52252003Y-38831000D01*
X52395997Y-38831000D01*
X52537225Y-38802908D01*
X52670258Y-38747804D01*
X52789985Y-38667805D01*
X52849790Y-38608000D01*
X53275157Y-38608000D01*
X53275157Y-38630000D01*
X53282513Y-38704689D01*
X53300808Y-38765000D01*
X53282513Y-38825311D01*
X53275157Y-38900000D01*
X53275157Y-39900000D01*
X53282513Y-39974689D01*
X53304299Y-40046508D01*
X53339678Y-40112696D01*
X53387289Y-40170711D01*
X53445304Y-40218322D01*
X53511492Y-40253701D01*
X53583311Y-40275487D01*
X53658000Y-40282843D01*
X54858000Y-40282843D01*
X54932689Y-40275487D01*
X55004508Y-40253701D01*
X55070696Y-40218322D01*
X55128711Y-40170711D01*
X55176322Y-40112696D01*
X55211701Y-40046508D01*
X55233487Y-39974689D01*
X55240843Y-39900000D01*
X55240843Y-38900000D01*
X55233487Y-38825311D01*
X55215192Y-38765000D01*
X55233487Y-38704689D01*
X55240843Y-38630000D01*
X55240843Y-37630000D01*
X55233487Y-37555311D01*
X55215192Y-37495000D01*
X55233487Y-37434689D01*
X55240843Y-37360000D01*
X55240843Y-36360000D01*
X55233487Y-36285311D01*
X55215192Y-36225000D01*
X55233487Y-36164689D01*
X55240843Y-36090000D01*
X55240843Y-35090000D01*
X55233487Y-35015311D01*
X55215192Y-34955000D01*
X55233487Y-34894689D01*
X55240055Y-34828000D01*
X58078686Y-34828000D01*
X62738000Y-39487314D01*
G36*
X58869463Y-43445506D02*
G01*
X58810498Y-43555820D01*
X58774188Y-43675518D01*
X58761928Y-43800000D01*
X58765000Y-44464250D01*
X58923748Y-44622998D01*
X58765000Y-44622998D01*
X58765000Y-44738780D01*
X58745997Y-44735000D01*
X58602003Y-44735000D01*
X58460775Y-44763092D01*
X58327742Y-44818196D01*
X58240250Y-44876657D01*
X58216155Y-44831000D01*
X57023000Y-44831000D01*
X57023000Y-44851000D01*
X56769000Y-44851000D01*
X56769000Y-44831000D01*
X56749000Y-44831000D01*
X56749000Y-44577000D01*
X56769000Y-44577000D01*
X56769000Y-44557000D01*
X57023000Y-44557000D01*
X57023000Y-44577000D01*
X58216155Y-44577000D01*
X58337476Y-44347110D01*
X58292825Y-44199901D01*
X58167641Y-43937080D01*
X57993588Y-43703731D01*
X57777355Y-43508822D01*
X57651745Y-43434000D01*
X58878906Y-43434000D01*
X58869463Y-43445506D01*
X58869463Y-43445506D01*
G37*
X58869463Y-43445506D02*
X58810498Y-43555820D01*
X58774188Y-43675518D01*
X58761928Y-43800000D01*
X58765000Y-44464250D01*
X58923748Y-44622998D01*
X58765000Y-44622998D01*
X58765000Y-44738780D01*
X58745997Y-44735000D01*
X58602003Y-44735000D01*
X58460775Y-44763092D01*
X58327742Y-44818196D01*
X58240250Y-44876657D01*
X58216155Y-44831000D01*
X57023000Y-44831000D01*
X57023000Y-44851000D01*
X56769000Y-44851000D01*
X56769000Y-44831000D01*
X56749000Y-44831000D01*
X56749000Y-44577000D01*
X56769000Y-44577000D01*
X56769000Y-44557000D01*
X57023000Y-44557000D01*
X57023000Y-44577000D01*
X58216155Y-44577000D01*
X58337476Y-44347110D01*
X58292825Y-44199901D01*
X58167641Y-43937080D01*
X57993588Y-43703731D01*
X57777355Y-43508822D01*
X57651745Y-43434000D01*
X58878906Y-43434000D01*
X58869463Y-43445506D01*
G36*
X56896000Y-30980421D02*
G01*
X56896001Y-32741046D01*
X56893543Y-32766000D01*
X56897930Y-32810537D01*
X56903352Y-32865585D01*
X56915555Y-32905812D01*
X56932400Y-32961343D01*
X56979571Y-33049595D01*
X57027150Y-33107570D01*
X57043053Y-33126948D01*
X57062430Y-33142850D01*
X57731580Y-33812000D01*
X55240055Y-33812000D01*
X55233487Y-33745311D01*
X55215192Y-33685000D01*
X55233487Y-33624689D01*
X55240843Y-33550000D01*
X55240843Y-32787272D01*
X55309185Y-32731185D01*
X55388537Y-32634494D01*
X55447502Y-32524180D01*
X55483812Y-32404482D01*
X55496072Y-32280000D01*
X55493000Y-32065750D01*
X55334250Y-31907000D01*
X54385000Y-31907000D01*
X54385000Y-31927000D01*
X54131000Y-31927000D01*
X54131000Y-31907000D01*
X53181750Y-31907000D01*
X53023000Y-32065750D01*
X53019928Y-32280000D01*
X53032188Y-32404482D01*
X53068498Y-32524180D01*
X53122185Y-32624619D01*
X53120404Y-32625571D01*
X53070634Y-32666416D01*
X53043052Y-32689052D01*
X53027150Y-32708430D01*
X52236435Y-33499145D01*
X52217052Y-33515052D01*
X52153571Y-33592405D01*
X52106399Y-33680658D01*
X52094459Y-33720019D01*
X51992000Y-33709928D01*
X51677750Y-33713000D01*
X51519000Y-33871750D01*
X51519000Y-34671000D01*
X51539000Y-34671000D01*
X51539000Y-34925000D01*
X51519000Y-34925000D01*
X51519000Y-34945000D01*
X51265000Y-34945000D01*
X51265000Y-34925000D01*
X51245000Y-34925000D01*
X51245000Y-34671000D01*
X51265000Y-34671000D01*
X51265000Y-33871750D01*
X51192388Y-33799138D01*
X51395570Y-33595956D01*
X51414948Y-33580054D01*
X51440196Y-33549289D01*
X51478429Y-33502702D01*
X51525600Y-33414451D01*
X51526663Y-33410948D01*
X51554649Y-33318691D01*
X51562000Y-33244053D01*
X51562000Y-33244051D01*
X51562992Y-33233979D01*
X51679975Y-33137975D01*
X51790068Y-33003825D01*
X51871875Y-32850775D01*
X51922252Y-32684706D01*
X51938587Y-32518855D01*
X52001584Y-32512650D01*
X52097342Y-32483602D01*
X52185594Y-32436430D01*
X52262947Y-32372949D01*
X52278854Y-32353566D01*
X53080585Y-31551835D01*
X53181750Y-31653000D01*
X54131000Y-31653000D01*
X54131000Y-31633000D01*
X54385000Y-31633000D01*
X54385000Y-31653000D01*
X55334250Y-31653000D01*
X55493000Y-31494250D01*
X55496072Y-31280000D01*
X55483812Y-31155518D01*
X55447502Y-31035820D01*
X55388537Y-30925506D01*
X55309185Y-30828815D01*
X55240843Y-30772728D01*
X55240843Y-30010000D01*
X55233487Y-29935311D01*
X55215192Y-29875000D01*
X55233487Y-29814689D01*
X55240843Y-29740000D01*
X55240843Y-29325263D01*
X56896000Y-30980421D01*
X56896000Y-30980421D01*
G37*
X56896000Y-30980421D02*
X56896001Y-32741046D01*
X56893543Y-32766000D01*
X56897930Y-32810537D01*
X56903352Y-32865585D01*
X56915555Y-32905812D01*
X56932400Y-32961343D01*
X56979571Y-33049595D01*
X57027150Y-33107570D01*
X57043053Y-33126948D01*
X57062430Y-33142850D01*
X57731580Y-33812000D01*
X55240055Y-33812000D01*
X55233487Y-33745311D01*
X55215192Y-33685000D01*
X55233487Y-33624689D01*
X55240843Y-33550000D01*
X55240843Y-32787272D01*
X55309185Y-32731185D01*
X55388537Y-32634494D01*
X55447502Y-32524180D01*
X55483812Y-32404482D01*
X55496072Y-32280000D01*
X55493000Y-32065750D01*
X55334250Y-31907000D01*
X54385000Y-31907000D01*
X54385000Y-31927000D01*
X54131000Y-31927000D01*
X54131000Y-31907000D01*
X53181750Y-31907000D01*
X53023000Y-32065750D01*
X53019928Y-32280000D01*
X53032188Y-32404482D01*
X53068498Y-32524180D01*
X53122185Y-32624619D01*
X53120404Y-32625571D01*
X53070634Y-32666416D01*
X53043052Y-32689052D01*
X53027150Y-32708430D01*
X52236435Y-33499145D01*
X52217052Y-33515052D01*
X52153571Y-33592405D01*
X52106399Y-33680658D01*
X52094459Y-33720019D01*
X51992000Y-33709928D01*
X51677750Y-33713000D01*
X51519000Y-33871750D01*
X51519000Y-34671000D01*
X51539000Y-34671000D01*
X51539000Y-34925000D01*
X51519000Y-34925000D01*
X51519000Y-34945000D01*
X51265000Y-34945000D01*
X51265000Y-34925000D01*
X51245000Y-34925000D01*
X51245000Y-34671000D01*
X51265000Y-34671000D01*
X51265000Y-33871750D01*
X51192388Y-33799138D01*
X51395570Y-33595956D01*
X51414948Y-33580054D01*
X51440196Y-33549289D01*
X51478429Y-33502702D01*
X51525600Y-33414451D01*
X51526663Y-33410948D01*
X51554649Y-33318691D01*
X51562000Y-33244053D01*
X51562000Y-33244051D01*
X51562992Y-33233979D01*
X51679975Y-33137975D01*
X51790068Y-33003825D01*
X51871875Y-32850775D01*
X51922252Y-32684706D01*
X51938587Y-32518855D01*
X52001584Y-32512650D01*
X52097342Y-32483602D01*
X52185594Y-32436430D01*
X52262947Y-32372949D01*
X52278854Y-32353566D01*
X53080585Y-31551835D01*
X53181750Y-31653000D01*
X54131000Y-31653000D01*
X54131000Y-31633000D01*
X54385000Y-31633000D01*
X54385000Y-31653000D01*
X55334250Y-31653000D01*
X55493000Y-31494250D01*
X55496072Y-31280000D01*
X55483812Y-31155518D01*
X55447502Y-31035820D01*
X55388537Y-30925506D01*
X55309185Y-30828815D01*
X55240843Y-30772728D01*
X55240843Y-30010000D01*
X55233487Y-29935311D01*
X55215192Y-29875000D01*
X55233487Y-29814689D01*
X55240843Y-29740000D01*
X55240843Y-29325263D01*
X56896000Y-30980421D01*
G36*
X54346299Y-25478492D02*
G01*
X54324513Y-25550311D01*
X54317157Y-25625000D01*
X54317157Y-26375000D01*
X54324513Y-26449689D01*
X54346299Y-26521508D01*
X54381678Y-26587696D01*
X54429289Y-26645711D01*
X54487304Y-26693322D01*
X54553492Y-26728701D01*
X54625311Y-26750487D01*
X54700000Y-26757843D01*
X54750001Y-26757843D01*
X54750001Y-26787945D01*
X54683311Y-26794513D01*
X54611492Y-26816299D01*
X54545304Y-26851678D01*
X54487289Y-26899289D01*
X54439678Y-26957304D01*
X54404299Y-27023492D01*
X54382513Y-27095311D01*
X54375157Y-27170000D01*
X54375157Y-27262000D01*
X53855944Y-27262000D01*
X53831000Y-27259543D01*
X53806056Y-27262000D01*
X53806053Y-27262000D01*
X53731415Y-27269351D01*
X53635657Y-27298399D01*
X53547405Y-27345571D01*
X53470052Y-27409052D01*
X53454145Y-27428435D01*
X51154430Y-29728150D01*
X51135053Y-29744052D01*
X51119151Y-29763429D01*
X51119150Y-29763430D01*
X51071571Y-29821405D01*
X51025385Y-29907815D01*
X51024400Y-29909657D01*
X51004227Y-29976157D01*
X50896000Y-29976157D01*
X50821311Y-29983513D01*
X50749492Y-30005299D01*
X50731968Y-30014666D01*
X50726537Y-30004506D01*
X50647185Y-29907815D01*
X50550494Y-29828463D01*
X50440180Y-29769498D01*
X50320482Y-29733188D01*
X50196000Y-29720928D01*
X49881750Y-29724000D01*
X49723000Y-29882750D01*
X49723000Y-30607000D01*
X49743000Y-30607000D01*
X49743000Y-30861000D01*
X49723000Y-30861000D01*
X49723000Y-30881000D01*
X49469000Y-30881000D01*
X49469000Y-30861000D01*
X49449000Y-30861000D01*
X49449000Y-30607000D01*
X49469000Y-30607000D01*
X49469000Y-29882750D01*
X49310250Y-29724000D01*
X48996000Y-29720928D01*
X48871518Y-29733188D01*
X48751820Y-29769498D01*
X48641506Y-29828463D01*
X48544815Y-29907815D01*
X48465463Y-30004506D01*
X48431000Y-30068981D01*
X48431000Y-27304889D01*
X48519000Y-27304889D01*
X48519000Y-27695111D01*
X48595129Y-28077836D01*
X48744461Y-28438355D01*
X48961257Y-28762814D01*
X49237186Y-29038743D01*
X49561645Y-29255539D01*
X49922164Y-29404871D01*
X50304889Y-29481000D01*
X50695111Y-29481000D01*
X51077836Y-29404871D01*
X51438355Y-29255539D01*
X51762814Y-29038743D01*
X52038743Y-28762814D01*
X52255539Y-28438355D01*
X52404871Y-28077836D01*
X52481000Y-27695111D01*
X52481000Y-27304889D01*
X52404871Y-26922164D01*
X52255539Y-26561645D01*
X52038743Y-26237186D01*
X51762814Y-25961257D01*
X51438355Y-25744461D01*
X51077836Y-25595129D01*
X50695111Y-25519000D01*
X50304889Y-25519000D01*
X49922164Y-25595129D01*
X49561645Y-25744461D01*
X49237186Y-25961257D01*
X48961257Y-26237186D01*
X48744461Y-26561645D01*
X48595129Y-26922164D01*
X48519000Y-27304889D01*
X48431000Y-27304889D01*
X48431000Y-25431000D01*
X54371685Y-25431000D01*
X54346299Y-25478492D01*
X54346299Y-25478492D01*
G37*
X54346299Y-25478492D02*
X54324513Y-25550311D01*
X54317157Y-25625000D01*
X54317157Y-26375000D01*
X54324513Y-26449689D01*
X54346299Y-26521508D01*
X54381678Y-26587696D01*
X54429289Y-26645711D01*
X54487304Y-26693322D01*
X54553492Y-26728701D01*
X54625311Y-26750487D01*
X54700000Y-26757843D01*
X54750001Y-26757843D01*
X54750001Y-26787945D01*
X54683311Y-26794513D01*
X54611492Y-26816299D01*
X54545304Y-26851678D01*
X54487289Y-26899289D01*
X54439678Y-26957304D01*
X54404299Y-27023492D01*
X54382513Y-27095311D01*
X54375157Y-27170000D01*
X54375157Y-27262000D01*
X53855944Y-27262000D01*
X53831000Y-27259543D01*
X53806056Y-27262000D01*
X53806053Y-27262000D01*
X53731415Y-27269351D01*
X53635657Y-27298399D01*
X53547405Y-27345571D01*
X53470052Y-27409052D01*
X53454145Y-27428435D01*
X51154430Y-29728150D01*
X51135053Y-29744052D01*
X51119151Y-29763429D01*
X51119150Y-29763430D01*
X51071571Y-29821405D01*
X51025385Y-29907815D01*
X51024400Y-29909657D01*
X51004227Y-29976157D01*
X50896000Y-29976157D01*
X50821311Y-29983513D01*
X50749492Y-30005299D01*
X50731968Y-30014666D01*
X50726537Y-30004506D01*
X50647185Y-29907815D01*
X50550494Y-29828463D01*
X50440180Y-29769498D01*
X50320482Y-29733188D01*
X50196000Y-29720928D01*
X49881750Y-29724000D01*
X49723000Y-29882750D01*
X49723000Y-30607000D01*
X49743000Y-30607000D01*
X49743000Y-30861000D01*
X49723000Y-30861000D01*
X49723000Y-30881000D01*
X49469000Y-30881000D01*
X49469000Y-30861000D01*
X49449000Y-30861000D01*
X49449000Y-30607000D01*
X49469000Y-30607000D01*
X49469000Y-29882750D01*
X49310250Y-29724000D01*
X48996000Y-29720928D01*
X48871518Y-29733188D01*
X48751820Y-29769498D01*
X48641506Y-29828463D01*
X48544815Y-29907815D01*
X48465463Y-30004506D01*
X48431000Y-30068981D01*
X48431000Y-27304889D01*
X48519000Y-27304889D01*
X48519000Y-27695111D01*
X48595129Y-28077836D01*
X48744461Y-28438355D01*
X48961257Y-28762814D01*
X49237186Y-29038743D01*
X49561645Y-29255539D01*
X49922164Y-29404871D01*
X50304889Y-29481000D01*
X50695111Y-29481000D01*
X51077836Y-29404871D01*
X51438355Y-29255539D01*
X51762814Y-29038743D01*
X52038743Y-28762814D01*
X52255539Y-28438355D01*
X52404871Y-28077836D01*
X52481000Y-27695111D01*
X52481000Y-27304889D01*
X52404871Y-26922164D01*
X52255539Y-26561645D01*
X52038743Y-26237186D01*
X51762814Y-25961257D01*
X51438355Y-25744461D01*
X51077836Y-25595129D01*
X50695111Y-25519000D01*
X50304889Y-25519000D01*
X49922164Y-25595129D01*
X49561645Y-25744461D01*
X49237186Y-25961257D01*
X48961257Y-26237186D01*
X48744461Y-26561645D01*
X48595129Y-26922164D01*
X48519000Y-27304889D01*
X48431000Y-27304889D01*
X48431000Y-25431000D01*
X54371685Y-25431000D01*
X54346299Y-25478492D01*
G36*
X50077091Y-69277249D02*
G01*
X50083520Y-69342517D01*
X50125090Y-69479557D01*
X50192597Y-69605853D01*
X50283446Y-69716554D01*
X50394147Y-69807403D01*
X50520443Y-69874910D01*
X50657483Y-69916480D01*
X50760999Y-69926676D01*
X50795575Y-70010151D01*
X50873000Y-70126025D01*
X50873000Y-104000000D01*
X50875440Y-104024776D01*
X50882667Y-104048601D01*
X50894403Y-104070557D01*
X50910197Y-104089803D01*
X54095392Y-107274998D01*
X49431000Y-107305637D01*
X49431000Y-103021161D01*
X49433084Y-103000000D01*
X49431000Y-102978839D01*
X49431000Y-102978832D01*
X49424763Y-102915509D01*
X49400118Y-102834265D01*
X49360097Y-102759391D01*
X49319731Y-102710205D01*
X49319729Y-102710203D01*
X49306237Y-102693763D01*
X49289796Y-102680270D01*
X48431000Y-101821475D01*
X48431000Y-69188181D01*
X50077091Y-69277249D01*
X50077091Y-69277249D01*
G37*
X50077091Y-69277249D02*
X50083520Y-69342517D01*
X50125090Y-69479557D01*
X50192597Y-69605853D01*
X50283446Y-69716554D01*
X50394147Y-69807403D01*
X50520443Y-69874910D01*
X50657483Y-69916480D01*
X50760999Y-69926676D01*
X50795575Y-70010151D01*
X50873000Y-70126025D01*
X50873000Y-104000000D01*
X50875440Y-104024776D01*
X50882667Y-104048601D01*
X50894403Y-104070557D01*
X50910197Y-104089803D01*
X54095392Y-107274998D01*
X49431000Y-107305637D01*
X49431000Y-103021161D01*
X49433084Y-103000000D01*
X49431000Y-102978839D01*
X49431000Y-102978832D01*
X49424763Y-102915509D01*
X49400118Y-102834265D01*
X49360097Y-102759391D01*
X49319731Y-102710205D01*
X49319729Y-102710203D01*
X49306237Y-102693763D01*
X49289796Y-102680270D01*
X48431000Y-101821475D01*
X48431000Y-69188181D01*
X50077091Y-69277249D01*
M02*
